<svg width="180" height="180" viewBox="0 0 180 180" fill="none" xmlns="http://www.w3.org/2000/svg">
<g filter="url(#filter0_b)">
<path fill-rule="evenodd" clip-rule="evenodd" d="M90 180C139.706 180 180 139.706 180 90C180 40.2944 139.706 0 90 0C40.2944 0 0 40.2944 0 90C0 139.706 40.2944 180 90 180ZM104.293 68.8288H113.619C116.855 68.8288 119.503 71.5674 119.503 74.9145V111.429C119.503 114.776 116.855 117.515 113.619 117.515H66.5471C63.3109 117.515 60.6631 114.776 60.6631 111.429V74.9145C60.6631 71.5674 63.3109 68.8288 66.5471 68.8288H75.8732L81.257 62.7431H98.9089L104.293 68.8288ZM66.5471 74.9145V111.429H113.619V74.9145H101.704L96.32 68.8288H83.846L78.4621 74.9145H66.5471ZM75.373 93.1717C75.373 84.7734 81.9631 77.9574 90.083 77.9574C98.2029 77.9574 104.793 84.7734 104.793 93.1717C104.793 101.57 98.2029 108.386 90.083 108.386C81.9631 108.386 75.373 101.57 75.373 93.1717ZM81.257 93.1717C81.257 98.1924 85.2287 102.3 90.083 102.3C94.9373 102.3 98.9089 98.1924 98.9089 93.1717C98.9089 88.151 94.9373 84.0431 90.083 84.0431C85.2287 84.0431 81.257 88.151 81.257 93.1717Z" fill="#EEF2F7" fill-opacity="0.7"/>
</g>
<defs>
<filter id="filter0_b" x="-20" y="-20" width="220" height="220" filterUnits="userSpaceOnUse" color-interpolation-filters="sRGB">
<feFlood flood-opacity="0" result="BackgroundImageFix"/>
<feGaussianBlur in="BackgroundImage" stdDeviation="10"/>
<feComposite in2="SourceAlpha" operator="in" result="effect1_backgroundBlur"/>
<feBlend mode="normal" in="SourceGraphic" in2="effect1_backgroundBlur" result="shape"/>
</filter>
</defs>
</svg>
