<svg width="571" height="250" viewBox="0 0 571 250" fill="none" xmlns="http://www.w3.org/2000/svg">
<path fill-rule="evenodd" clip-rule="evenodd" d="M400.796 246.106C309.3 261.754 249.937 216.694 129.092 216.694C87.7967 216.694 -12.0199 235.986 3.43509 116.765C12.2052 49.1121 106.73 18.4083 195.065 57.951C221.059 66.3848 241.581 63.771 263.863 55.3913C286.144 47.0116 314.801 9.60238 368.811 1.90635C531.344 -21.2535 711.291 193.006 400.796 246.106Z" fill="#FFAB08"/>
<path fill-rule="evenodd" clip-rule="evenodd" d="M397.465 93.196C403.834 96.676 410.23 100.357 417.561 102.105C424.891 103.853 433.505 103.318 439.15 99.0632C461.929 81.892 498.612 79.0209 524.859 92.355C551.107 105.689 564.701 134.102 556.622 158.741C548.543 183.38 519.473 202.163 488.701 202.628C472.757 202.869 458.013 209.192 442.778 213.1C427.543 217.009 409.22 218.011 397.305 209.218C384.464 199.74 385.93 180.211 400.089 172.129C377.839 173.512 355.588 174.895 333.337 176.278C338.231 177.924 343.442 179.785 346.248 183.497C349.054 187.209 347.767 193.282 342.656 194.385C323.622 198.493 304.133 191.007 285.864 184.965C267.594 178.923 245.58 174.486 229.289 183.627C192.573 204.229 144.069 200.808 100.34 194.801C89.8496 193.36 77.2301 190.189 75.0488 181.555C54.9704 184.691 34.4947 186.073 14.0693 185.672C9.08341 185.574 3.19762 184.922 0.867495 181.264C-2.15168 176.524 3.2681 171.146 8.54634 168.053C24.6648 158.608 44.344 153.411 64.0775 153.389C69.6983 153.383 73.451 148.509 74.882 144C76.3129 139.49 76.714 134.472 80.3638 130.925C67.9522 129.38 54.8034 132.523 45.2863 139.311C43.5199 140.571 40.5383 139.306 39.7968 137.474C39.0554 135.642 39.8192 133.649 40.6035 131.829C44.9948 121.64 50.5006 111.287 60.481 104.32C70.4613 97.3525 86.0547 94.8394 96.5758 101.235C99.8764 103.242 105.48 105.818 113.388 108.962C121.495 107.945 127.524 107.135 131.473 106.533C143.434 104.709 154.523 100.203 165.365 95.6323C203.144 79.7069 241.879 61.9767 284.238 60.9764C324.761 60.0195 363.608 74.6983 397.465 93.196ZM440.335 120.804L444.135 128.747C444.321 129.136 444.523 129.543 444.915 129.807C445.391 130.126 446.044 130.169 446.651 130.242C451.297 130.797 454.937 133.724 458.23 136.499C462.448 140.054 466.667 143.609 470.885 147.164C472.148 148.23 474.248 147.078 475.458 145.97C478.178 143.48 480.949 140.926 482.519 137.829C484.09 134.731 484.26 130.933 481.919 128.19C480.528 126.561 478.409 125.462 476.238 124.6C472.654 123.179 468.766 122.287 464.811 121.98C460.954 121.68 457.07 121.932 453.196 121.908C448.88 121.882 444.566 121.511 440.335 120.804Z" fill="white"/>
<path fill-rule="evenodd" clip-rule="evenodd" d="M75.0505 181.555C54.9721 184.691 34.4964 186.073 14.071 185.671C8.193 178.565 71.8 165.471 74.1064 174.103C75.9302 180.929 76.0137 185.368 75.0505 181.555Z" fill="#E7EAEE"/>
<path fill-rule="evenodd" clip-rule="evenodd" d="M383.082 158.531C385.228 158.341 393.755 156.607 402.707 157.41C407.518 155.361 430.573 156.971 444.336 159.208C453.17 160.644 475.559 161.598 483.689 165.038C497.801 171.011 498.125 174.703 496.002 175.494C489.97 177.74 482.703 178.848 478.796 178.907C471.763 179.013 457.615 173.62 442.096 170.241C435.165 168.732 430.072 167.451 426.058 166.208L426.713 165.969C418.032 169.221 409.051 169.739 400.087 172.129C377.837 173.512 355.586 174.895 333.335 176.278C338.229 177.925 264.595 155.682 285.862 152.436C287.173 152.236 288.618 152.115 290.185 152.06C310.101 151.368 349.672 161.493 383.082 158.531Z" fill="#E7EAEE"/>
<path fill-rule="evenodd" clip-rule="evenodd" d="M184.369 131.073C184.64 131.475 184.435 132.01 184.027 132.324C183.62 132.637 183.06 132.772 182.514 132.858C178.491 133.484 174.096 131.664 172.282 128.62C172.08 128.28 171.904 127.908 171.966 127.532C172.027 127.157 172.407 126.794 172.863 126.817C174.034 127.889 175.222 128.973 176.68 129.766C178.138 130.559 179.92 131.043 181.635 130.781C182.608 130.633 183.886 130.357 184.369 131.073Z" fill="#333333"/>
<path fill-rule="evenodd" clip-rule="evenodd" d="M187.005 172.597C187.062 171.657 188.482 171.264 189.615 171.23C194.692 171.073 199.421 173.138 204.111 174.761C208.801 176.383 214.262 177.58 218.842 175.755C219.798 175.373 220.8 174.853 221.837 175.037C220.116 177.805 216.004 179.062 212.256 178.892C208.507 178.721 204.994 177.406 201.537 176.189C198.081 174.973 194.445 173.816 190.696 173.99C189.927 174.026 189.14 174.116 188.399 173.942C187.658 173.769 186.967 173.235 187.005 172.597Z" fill="#333333"/>
<path fill-rule="evenodd" clip-rule="evenodd" d="M195.894 180.481C192.392 179.633 188.297 180.057 185.42 178.195C185.068 177.968 184.721 177.669 184.707 177.3C184.688 176.781 185.361 176.402 185.986 176.389C186.611 176.375 187.197 176.612 187.784 176.791C189.926 177.443 192.284 177.356 194.52 177.734C197.874 178.301 200.828 179.888 203.987 180.981C207.147 182.074 210.936 182.634 213.878 181.182C215.065 180.596 216.625 179.721 217.609 180.525C214.406 183.552 208.983 184.813 204.351 183.609C201.401 182.843 198.862 181.199 195.894 180.481Z" fill="#333333"/>
<path fill-rule="evenodd" clip-rule="evenodd" d="M94.9532 149.837C94.3901 149.239 94.3948 148.372 94.7542 147.675C95.1136 146.978 95.7733 146.42 96.455 145.914C99.6917 143.516 104.171 141.892 108.373 142.793C111.522 143.469 114.013 145.428 116.218 147.412C117.162 148.261 118.136 149.478 117.429 150.473C116.675 151.537 114.78 151.312 113.344 150.989C108.889 149.986 104.167 149.396 99.6641 150.241C98.0307 150.548 95.9847 150.931 94.9532 149.837Z" fill="#333333"/>
<path fill-rule="evenodd" clip-rule="evenodd" d="M167.927 185.852C168.548 186.163 168.462 186.994 167.945 187.416C167.428 187.838 166.665 187.959 165.95 188.061C161.942 188.631 157.933 189.202 153.925 189.772C153.088 189.891 152.153 189.994 151.455 189.592C150.757 189.191 150.737 188.075 151.568 187.93C156.593 187.05 161.658 186.326 166.749 185.761C167.148 185.717 167.583 185.679 167.927 185.852Z" fill="#333333"/>
<path fill-rule="evenodd" clip-rule="evenodd" d="M157.7 151.104C156.818 151.375 155.844 150.669 155.725 149.895C155.606 149.121 156.089 148.372 156.648 147.744C159.247 144.823 163.881 143.328 168.224 143.777C172.567 144.226 176.512 146.509 178.793 149.608C179.145 150.086 179.471 150.635 179.338 151.184C179.193 151.779 178.523 152.21 177.814 152.357C177.105 152.504 176.358 152.42 175.638 152.317C172.639 151.886 169.715 151.141 166.714 150.722C163.712 150.303 160.553 150.226 157.7 151.104Z" fill="#333333"/>
<path fill-rule="evenodd" clip-rule="evenodd" d="M101.021 131.116C101.362 130.287 102.807 130.492 103.843 130.663C107.071 131.194 110.228 129.701 113.029 128.267C113.403 128.075 113.9 128.439 113.892 128.803C113.884 129.168 113.568 129.472 113.259 129.731C110.467 132.072 106.292 133.673 102.517 132.655C101.673 132.427 100.735 131.813 101.021 131.116Z" fill="#333333"/>
<path fill-rule="evenodd" clip-rule="evenodd" d="M213.149 145.304C212.06 145.132 211.495 144.036 211.699 143.131C211.903 142.227 212.643 141.481 213.341 140.767C215.979 138.068 218.382 135.198 220.277 132.099C221.906 129.434 223.154 126.608 224.986 124.035C230.227 116.674 240.393 111.914 250.698 111.998C246.568 109.545 241.687 108.095 236.742 107.135C221.446 104.166 204.92 105.777 190.871 111.607C188.65 112.528 186.484 113.553 184.169 114.296C183.101 114.638 181.919 114.921 180.825 114.641C179.731 114.36 178.872 113.291 179.381 112.439C179.674 111.949 180.306 111.674 180.898 111.432C186.884 108.982 192.894 106.523 199.238 104.803C213.431 100.954 229.113 100.993 243.278 104.911C248.031 106.226 252.998 108.269 255.056 112.059C255.372 112.64 255.401 113.57 254.641 113.665C246.478 114.685 238.172 117.029 232.538 122.034C225.241 128.517 223.474 138.47 215.561 144.435C214.887 144.942 214.044 145.446 213.149 145.304Z" fill="#333333"/>
<path fill-rule="evenodd" clip-rule="evenodd" d="M333.337 176.278C338.231 177.924 343.442 179.785 346.248 183.497C349.054 187.209 347.767 193.282 342.656 194.385C323.622 198.493 304.133 191.007 285.864 184.965C267.594 178.923 245.58 174.486 229.289 183.627C192.573 204.229 144.069 200.808 100.34 194.801C89.8496 193.36 77.2301 190.189 75.0488 181.555C54.9704 184.691 34.4947 186.073 14.0693 185.672C9.08341 185.574 3.19762 184.922 0.867495 181.264C-2.15168 176.524 3.2681 171.146 8.54634 168.053C24.6648 158.608 44.344 153.411 64.0775 153.389C69.6983 153.383 73.451 148.509 74.882 144C76.3129 139.49 76.714 134.472 80.3638 130.925C67.9522 129.38 54.8034 132.523 45.2863 139.311C43.5199 140.571 40.5383 139.306 39.7968 137.474C39.0554 135.642 39.8192 133.649 40.6035 131.829C44.9948 121.64 50.5006 111.287 60.481 104.32C70.4613 97.3525 81.5078 94.7081 96.5075 100.375C100.436 101.859 106.046 104.496 113.338 108.286C121.398 107.732 127.443 107.148 131.473 106.533C143.434 104.709 154.523 100.203 165.365 95.6323C203.144 79.7069 241.879 61.9767 284.238 60.9764C324.761 60.0195 363.608 74.6983 397.465 93.196C403.834 96.676 410.23 100.357 417.561 102.105C424.891 103.853 433.505 103.318 439.15 99.0632C461.929 81.892 498.612 79.0209 524.859 92.355C551.107 105.689 564.701 134.102 556.622 158.741C548.543 183.38 519.473 202.163 488.701 202.628C472.757 202.869 458.013 209.192 442.778 213.1C427.543 217.009 409.22 218.011 397.305 209.218C384.464 199.74 385.93 180.211 400.089 172.129C377.839 173.512 355.588 174.895 333.337 176.278ZM462.135 142.221C450.906 132.851 434.154 128.269 418.41 130.262C426.033 128.297 434.201 127.801 442.088 128.826C419.732 102.042 383.655 85.3129 346.882 73.8838C329.012 68.3296 310.403 63.764 291.324 63.4145C266.487 62.9596 242.281 69.657 219.34 77.5665C194.161 86.2474 169.805 96.4728 145.477 106.688C152.983 106.369 160.592 109.106 165.443 113.869C145.066 106.898 120.929 107.973 101.568 116.714C101.661 113.52 104.737 110.56 108.53 110.014C97.4516 101.915 80.4317 99.9495 67.1083 105.23C53.7849 110.51 44.9322 122.729 45.5631 134.968C56.8149 127.248 73.0436 124.86 86.8089 128.9C78.6156 140.243 74.3859 153.531 74.7604 166.751C79.0658 165.246 84.3711 165.954 87.8911 168.502C83.9583 168.853 80.0256 169.204 76.0928 169.555C76.259 171.044 76.4252 172.533 76.5914 174.022C80.7528 173.513 84.9142 173.004 89.0756 172.495C86.3976 175.051 82.6212 176.798 78.5926 177.344C78.0868 181.597 81.6452 185.611 86.1097 187.742C90.5742 189.874 95.8173 190.51 100.918 191.106C113.632 192.592 126.345 194.078 139.058 195.564C136.11 192.805 135.627 188.363 133.702 185.292C131.209 181.314 127.609 179.694 125.804 174.417C125.182 172.596 123.747 170.033 125.755 168.875C126.598 168.389 127.697 168.37 128.724 168.369C132.921 168.366 137.118 168.362 141.315 168.358C142.671 168.357 144.089 168.368 145.288 168.894C148.92 170.488 147.773 175.196 145.06 177.756C142.348 180.317 138.469 182.362 137.542 185.683C136.591 189.095 139.359 192.632 143.036 194.352C146.713 196.071 151.088 196.363 155.306 196.482C164.197 196.735 173.113 196.393 181.938 195.461C204.154 193.116 227.823 185.605 238.135 169.112C237.511 173.269 234.892 177.198 230.979 179.846C247.166 174.899 265.496 174.955 281.638 179.999C296.947 184.783 311.472 194.022 327.708 192.363C327.012 191.895 326.742 191.086 326.046 190.618C324.152 189.344 321.833 188.41 319.939 187.136C325.727 188.893 331.516 190.649 337.305 192.406C336.648 191.607 337.305 190.801 336.08 189.579C334.856 188.358 332.182 186.178 330.606 184.262C334.989 185.32 338.832 187.845 341.078 191.142C342.952 190.762 344.825 190.382 346.699 190.001C337.187 179.35 324.038 170.96 309.188 166.068C301.983 163.694 293.052 160.853 292.151 154.465C308.345 167.441 331.551 172.975 354.059 173.371C376.567 173.766 398.776 169.523 420.707 165.305C415.686 163.2 411.159 160.287 407.451 156.777C432.083 168.227 459.643 175.317 487.762 177.438C486.167 175.195 484.572 172.952 482.978 170.709C486.466 170.791 489.725 172.986 490.54 175.801C492.289 175.23 494.038 174.659 495.787 174.087C493.354 172.108 490.921 170.129 488.488 168.15C492.402 167.367 496.794 169.872 497.315 173.184C498.952 172.477 500.304 171.323 501.108 169.945C498.199 168.117 495.289 166.29 492.38 164.463C496.79 164.388 501.217 165.613 504.691 167.868C500.581 159.577 486.673 159.38 477.434 154.73C471.29 151.638 467.202 146.45 462.135 142.221ZM441.22 118.401C446.716 119.506 452.47 118.65 458.125 118.664C463.983 118.678 469.819 119.643 475.308 121.341C478.696 122.389 482.083 123.797 484.286 126.177C487.779 129.948 487.475 135.419 485.038 139.725C482.602 144.03 478.386 147.433 474.259 150.734C482.922 153.94 491.585 157.147 500.248 160.353C502.696 161.259 505.342 162.322 506.461 164.343C508.397 167.836 504.64 171.669 500.781 173.798C488.742 180.441 472.37 181.256 459.46 175.855C451.178 172.39 441.997 170.737 432.929 169.116C427.978 168.232 422.821 167.348 417.903 168.349C414.412 169.059 411.122 170.706 407.53 170.604C404.32 170.514 401.825 172.813 399.944 174.973C393.755 182.079 388.653 191.16 392.277 199.396C394.768 205.058 401.082 209.137 407.962 211.073C414.843 213.009 422.28 213.064 429.531 212.68C438.606 212.201 447.851 211.007 455.82 207.373C461.009 205.006 465.654 201.616 471.393 200.408C478.28 198.96 485.536 200.904 492.622 200.474C498.264 200.132 503.604 198.3 508.77 196.387C521.39 191.714 534.011 186.198 542.963 177.463C556.311 164.437 559.484 145.35 553.107 129.093C546.729 112.835 531.658 99.4688 513.62 91.2015C508.661 88.9285 503.439 86.9971 497.941 85.8627C484.742 83.1394 470.296 85.2839 458.761 91.263C452.822 94.3415 447.663 98.3527 441.844 101.585C436.024 104.816 429.184 107.306 422.215 106.741C427.586 111.666 433.44 116.836 441.22 118.401ZM25.7797 162.929C17.6948 165.544 9.60498 169.014 4.48094 174.825C6.83854 173.747 9.79893 173.627 12.2716 174.51C10.4691 175.249 8.66658 175.988 6.86405 176.726C5.85427 177.14 4.81047 177.577 4.10914 178.308C3.40782 179.039 3.15421 180.155 3.83318 180.901C4.51215 181.646 6.22934 181.578 6.55779 180.684C7.76292 177.405 12.4166 175.308 16.3882 176.256C13.4053 177.666 10.1481 179.364 9.32276 182.129C9.76879 183.374 11.967 183.579 13.259 182.845C14.5509 182.11 15.1957 180.838 15.9387 179.694C16.6817 178.55 17.7608 177.379 19.3105 177.191C19.6375 177.151 20.0113 177.172 20.2384 177.371C20.6343 177.719 20.3075 178.287 19.935 178.651C19.0911 179.478 18.0141 180.201 17.5992 181.228C17.1842 182.255 17.9257 183.69 19.2287 183.624C37.5238 182.697 55.7845 181.302 73.976 179.441C74.6334 178.26 72.6361 177.301 71.0822 177.126C67.1379 176.682 63.0803 176.944 59.2662 177.889C59.9707 175.944 62.3383 174.67 64.7463 174.305C67.1543 173.941 69.6256 174.316 72.0314 174.69C72.0502 173.288 71.7348 171.884 71.1088 170.582C67.2835 170.515 63.4919 169.455 60.3983 167.587C62.9841 166.785 65.988 166.968 68.405 168.075C69.5591 168.603 70.4191 167.056 70.4382 165.963C70.5001 162.408 70.562 158.854 70.6239 155.3C55.2997 155.717 40.0649 158.309 25.7797 162.929ZM446.651 130.242C451.297 130.797 454.937 133.724 458.23 136.499C462.448 140.054 466.667 143.609 470.885 147.164C472.148 148.23 474.248 147.078 475.458 145.97C478.178 143.48 480.949 140.926 482.519 137.829C484.09 134.731 484.26 130.933 481.919 128.19C480.528 126.561 478.409 125.462 476.238 124.6C472.654 123.179 468.766 122.287 464.811 121.98C460.954 121.68 457.07 121.932 453.196 121.908C448.88 121.882 444.566 121.511 440.335 120.804C441.601 123.452 442.868 126.099 444.135 128.747C444.321 129.136 444.523 129.543 444.915 129.807C445.391 130.126 446.044 130.169 446.651 130.242Z" fill="#333333"/>
</svg>
