<svg width="30" height="30" viewBox="0 0 30 30" fill="currentColor" xmlns="http://www.w3.org/2000/svg">
<path d="M27.3633 8.84767H21.211V4.45313C21.211 2.99924 20.0281 1.81641 18.5743 1.81641H2.63672C1.18283 1.81641 0 2.99924 0 4.45313V15C0 16.4539 1.18283 17.6368 2.63672 17.6368H3.51563V20.2735C3.51563 20.9774 4.30184 21.3915 4.88204 21.0048L8.78908 18.4001V22.0313C8.78908 23.4852 9.97191 24.668 11.4258 24.668H20.0659L25.118 28.036C25.699 28.4234 26.4844 28.0088 26.4844 27.3047V24.668H27.3633C28.8172 24.668 30 23.4852 30 22.0313V11.4844C30.0001 10.0305 28.8172 8.84767 27.3633 8.84767ZM9.17803 16.0282C9.17721 16.0288 9.17633 16.0293 9.17551 16.0298L5.27345 18.6312V16.7578C5.27345 16.2725 4.87993 15.8789 4.39454 15.8789H2.63672C2.15209 15.8789 1.75782 15.4847 1.75782 15V4.45313C1.75782 3.9685 2.15209 3.57422 2.63672 3.57422H18.5743C19.0589 3.57422 19.4532 3.9685 19.4532 4.45313V15C19.4532 15.4847 19.0589 15.8789 18.5743 15.8789H9.66799C9.49789 15.8789 9.32211 15.9316 9.17803 16.0282ZM28.2422 22.0313C28.2422 22.5159 27.848 22.9102 27.3633 22.9102H25.6055C25.1201 22.9102 24.7266 23.3037 24.7266 23.7891V25.6625L20.8196 23.0578C20.6752 22.9615 20.5056 22.9102 20.3321 22.9102H11.4258C10.9412 22.9102 10.5469 22.5159 10.5469 22.0313V17.6368H18.5743C20.0281 17.6368 21.211 16.4539 21.211 15V10.6055H27.3633C27.848 10.6055 28.2422 10.9998 28.2422 11.4844V22.0313Z" />
<path d="M11.4258 10.6055H4.39453C3.90914 10.6055 3.51562 10.999 3.51562 11.4844C3.51562 11.9698 3.90914 12.3633 4.39453 12.3633H11.4258C11.9112 12.3633 12.3047 11.9698 12.3047 11.4844C12.3047 10.999 11.9112 10.6055 11.4258 10.6055Z"/>
<path d="M16.8164 7.08984H4.39453C3.90914 7.08984 3.51562 7.48336 3.51562 7.96875C3.51562 8.45414 3.90914 8.84766 4.39453 8.84766H16.8164C17.3018 8.84766 17.6953 8.45414 17.6953 7.96875C17.6953 7.48336 17.3018 7.08984 16.8164 7.08984Z"/>
</svg>
