<svg width="22" height="31" viewBox="0 0 22 31" fill="none" xmlns="http://www.w3.org/2000/svg">
<path d="M19.2904 10.3709L13.3075 25.2958C12.7556 26.6726 11.6793 27.7737 10.3155 28.357C8.95169 28.9403 7.41203 28.9579 6.03522 28.406C4.65842 27.8541 3.55726 26.7778 2.97398 25.414C2.3907 24.0502 2.37308 22.5105 2.925 21.1337L9.42819 4.91108C9.77315 4.05058 10.4458 3.36235 11.2982 2.9978C12.1506 2.63325 13.1129 2.62224 13.9734 2.96719C14.8339 3.31214 15.5221 3.9848 15.8866 4.83718C16.2512 5.68957 16.2622 6.65186 15.9172 7.51236L10.4546 21.1394C10.3166 21.4836 10.0475 21.7589 9.70657 21.9047C9.36562 22.0505 8.9807 22.0549 8.6365 21.9169C8.2923 21.7789 8.01701 21.5099 7.87119 21.1689C7.72537 20.828 7.72097 20.4431 7.85895 20.0989L12.8014 7.76966L10.8547 6.98927L5.91223 19.3185C5.56728 20.179 5.57829 21.1413 5.94284 21.9937C6.30739 22.846 6.99562 23.5187 7.85612 23.8636C8.71662 24.2086 9.67891 24.1976 10.5313 23.833C11.3837 23.4685 12.0563 22.7803 12.4013 21.9198L17.864 8.29274C18.4159 6.91594 18.3983 5.37627 17.815 4.01246C17.2317 2.64865 16.1305 1.5724 14.7537 1.02047C13.3769 0.468554 11.8373 0.486171 10.4735 1.06945C9.10965 1.65273 8.0334 2.75389 7.48148 4.1307L0.978285 20.3533C0.219393 22.2464 0.243616 24.3635 1.04563 26.2387C1.84764 28.114 3.36174 29.5938 5.25484 30.3527C7.14794 31.1116 9.26498 31.0874 11.1402 30.2854C13.0155 29.4833 14.4953 27.9692 15.2542 26.0761L21.2371 11.1513L19.2904 10.3709Z" fill="#EDCD27"/>
</svg>
