<svg width="83" height="83" viewBox="0 0 83 83" fill="none" xmlns="http://www.w3.org/2000/svg">
<path d="M41.3907 82.9685C18.9147 82.9434 0.700464 64.5948 0.675781 41.9529C2.27892 42.409 3.93643 42.6423 5.60228 42.6461C11.1131 42.6868 16.2904 39.9915 19.4453 35.4397C22.2659 31.3364 22.8619 26.0838 21.0332 21.4452C22.2025 21.6553 23.3877 21.7623 24.5754 21.7651C29.8556 21.8048 34.8671 19.4232 38.1945 15.2929C41.4507 11.2847 42.7238 6.00374 41.6553 0.9375C64.1415 1.01112 82.3109 19.434 82.2381 42.0862C82.1648 64.7384 63.8769 83.0419 41.3907 82.9685ZM44.4972 68.8918C45.1235 69.1631 45.7982 69.3026 46.48 69.302C48.5376 69.3 50.3919 68.0512 51.1801 66.1365C51.9683 64.2219 51.5356 62.0176 50.0833 60.5493C49.1261 59.5891 47.8308 59.0495 46.48 59.0481C44.0638 59.0538 41.9846 60.77 41.5041 63.1555C41.0236 65.5409 42.2743 67.9379 44.4972 68.8918ZM20.7075 61.9479C21.5234 62.2878 22.3978 62.462 23.2807 62.4606C26.0353 62.4599 28.5162 60.7821 29.56 58.2141C30.6038 55.6462 30.0033 52.6973 28.0402 50.7507C26.7713 49.4918 25.0617 48.7861 23.2807 48.7861C19.5347 48.7906 16.4998 51.8498 16.4976 55.6233C16.4983 58.3664 18.1224 60.8448 20.6261 61.9233H20.6464H20.6912L20.7075 61.9479ZM59.1057 51.6654C61.8423 52.8231 65.0084 52.0539 66.9204 49.7669C68.8324 47.4798 69.0462 44.206 67.4482 41.6863C66.9477 40.9014 66.2938 40.2274 65.5264 39.7053C63.4188 38.2715 60.6924 38.145 58.4629 39.3776C56.2333 40.6101 54.8749 42.9948 54.9434 45.5558C55.0119 48.1168 56.4959 50.4244 58.7881 51.5341H58.7393L58.8614 51.5874L58.9428 51.6202H58.9184C58.9765 51.6391 59.0336 51.661 59.0894 51.6859L59.1057 51.6654ZM41.3907 35.1156C39.7667 35.1129 38.3682 36.2688 38.0537 37.8738C37.7391 39.4787 38.5966 41.0833 40.0997 41.7025C41.6028 42.3217 43.3307 41.7821 44.2226 40.4151C45.1145 39.048 44.9207 37.2361 43.7603 36.0918C43.4577 35.7916 43.1012 35.5522 42.7098 35.3863L42.6365 35.3535L42.5266 35.3125C42.162 35.1814 41.7777 35.1148 41.3907 35.1156ZM56.6587 18.0286C54.0535 18.0221 51.8669 20.0046 51.5998 22.6152C51.3327 25.2258 53.072 27.6158 55.6237 28.1448C58.1755 28.6737 60.7101 27.1695 61.4879 24.6648C62.2656 22.16 61.0336 19.4689 58.6375 18.4388H58.5968C57.9838 18.175 57.3252 18.0357 56.6587 18.0286ZM10.8545 31.6991C8.9814 31.6991 7.46295 30.1694 7.46295 28.2825C7.46295 26.3955 8.9814 24.8659 10.8545 24.8659C12.7276 24.8659 14.246 26.3955 14.246 28.2825C14.2438 30.1685 12.7267 31.6968 10.8545 31.6991ZM5.76514 21.4452C2.95436 21.4452 0.675781 19.1498 0.675781 16.3183C0.675781 13.4868 2.95436 11.1914 5.76514 11.1914C8.57592 11.1914 10.8545 13.4868 10.8545 16.3183C10.85 19.1479 8.57406 21.4407 5.76514 21.4452ZM26.1226 14.6079C23.3118 14.6079 21.0332 12.3125 21.0332 9.48101C21.0332 6.64949 23.3118 4.35408 26.1226 4.35408C28.9333 4.35408 31.2119 6.64949 31.2119 9.48101C31.2119 12.3132 28.934 14.6098 26.1226 14.612V14.6079ZM14.2501 7.77477C12.3775 7.77477 10.8593 6.24594 10.8586 4.35955C10.8578 2.47316 12.3748 0.943112 14.2474 0.941602C16.12 0.940093 17.6394 2.46769 17.6417 4.35408C17.6417 6.24167 16.1239 7.7725 14.2501 7.77477Z" fill="white"/>
</svg>
