<svg width="19" height="19" viewBox="0 0 19 19" fill="none" xmlns="http://www.w3.org/2000/svg">
<circle cx="9.5" cy="9.5" r="9.5" fill="#C4C4C4"/>
<path fill-rule="evenodd" clip-rule="evenodd" d="M6.70711 5.29289C6.31658 4.90237 5.68342 4.90237 5.29289 5.29289C4.90237 5.68342 4.90237 6.31658 5.29289 6.70711L8.08581 9.50002L5.29289 12.2929C4.90237 12.6835 4.90237 13.3166 5.29289 13.7071C5.68342 14.0977 6.31658 14.0977 6.70711 13.7071L9.50002 10.9142L12.2929 13.7071C12.6834 14.0976 13.3166 14.0976 13.7071 13.7071C14.0976 13.3166 14.0976 12.6834 13.7071 12.2929L10.9142 9.50002L13.7071 6.70715C14.0976 6.31663 14.0976 5.68346 13.7071 5.29294C13.3166 4.90241 12.6834 4.90241 12.2929 5.29294L9.50002 8.08581L6.70711 5.29289Z" fill="white"/>
</svg>
