<svg width="18" height="12" viewBox="0 0 18 12" fill="currentColor" xmlns="http://www.w3.org/2000/svg">
<path d="M9 3.6C9.65099 3.6 10.2753 3.85286 10.7356 4.30294C11.1959 4.75303 11.4545 5.36348 11.4545 6C11.4545 6.63652 11.1959 7.24697 10.7356 7.69706C10.2753 8.14714 9.65099 8.4 9 8.4C8.34901 8.4 7.72469 8.14714 7.26437 7.69706C6.80406 7.24697 6.54545 6.63652 6.54545 6C6.54545 5.36348 6.80406 4.75303 7.26437 4.30294C7.72469 3.85286 8.34901 3.6 9 3.6ZM9 0C13.0909 0 16.5845 2.488 18 6C16.5845 9.512 13.0909 12 9 12C4.90909 12 1.41545 9.512 0 6C1.41545 2.488 4.90909 0 9 0ZM1.78364 6C3.13364 8.688 5.92364 10.4 9 10.4C12.0764 10.4 14.8664 8.688 16.2164 6C14.8664 3.312 12.0764 1.6 9 1.6C5.92364 1.6 3.13364 3.312 1.78364 6Z" />
</svg>
