<svg width="20" height="20" viewBox="0 0 20 20" fill="currentColor" xmlns="http://www.w3.org/2000/svg">
<path d="M1.81818 3.98778L2.86545 3L16.5455 16.0044L15.5064 17L12.9864 14.6044C12.0455 14.9 11.0473 15.0556 10 15.0556C5.90909 15.0556 2.41545 12.6367 1 9.22222C1.56455 7.85333 2.46455 6.64778 3.61 5.69111L1.81818 3.98778ZM10 6.88889C10.651 6.88889 11.2753 7.13472 11.7356 7.57231C12.1959 8.00989 12.4545 8.60338 12.4545 9.22222C12.4545 9.49444 12.4055 9.75889 12.3155 10L9.18182 7.02111C9.43545 6.93556 9.71364 6.88889 10 6.88889ZM10 3.38889C14.0909 3.38889 17.5845 5.80778 19 9.22222C18.3291 10.84 17.1918 12.24 15.7273 13.2589L14.5655 12.1467C15.6782 11.4156 16.5945 10.42 17.2164 9.22222C15.8664 6.60889 13.0764 4.94444 10 4.94444C9.10818 4.94444 8.23273 5.08444 7.41455 5.33333L6.15455 4.14333C7.33273 3.66111 8.63364 3.38889 10 3.38889ZM2.78364 9.22222C4.13364 11.8356 6.92364 13.5 10 13.5C10.5645 13.5 11.1209 13.4456 11.6364 13.3367L9.77091 11.5556C8.60091 11.4389 7.66818 10.5522 7.54545 9.44L4.76364 6.78778C3.95364 7.44889 3.27455 8.27333 2.78364 9.22222Z" />
</svg>
