<svg width="143" height="58" viewBox="0 0 143 58" fill="none" xmlns="http://www.w3.org/2000/svg">
    <path d="M55.88 31C55.48 31 55.19 30.91 55.01 30.73C54.85 30.55 54.77 30.28 54.77 29.92V11.71C54.77 11.33 54.85 11.05 55.01 10.87C55.19 10.69 55.48 10.6 55.88 10.6H57.47C57.87 10.6 58.16 10.69 58.34 10.87C58.52 11.05 58.61 11.33 58.61 11.71V29.92C58.61 30.28 58.52 30.55 58.34 30.73C58.18 30.91 57.89 31 57.47 31H55.88ZM65.6 31C65.38 31 65.22 30.98 65.12 30.94C65.02 30.9 64.91 30.81 64.79 30.67L59.51 24.7C59.33 24.5 59.2 24.32 59.12 24.16C59.04 23.98 59 23.76 59 23.5C59 23.24 59.04 23.03 59.12 22.87C59.2 22.69 59.33 22.5 59.51 22.3L64.61 16.96C64.73 16.82 64.84 16.73 64.94 16.69C65.06 16.63 65.25 16.6 65.51 16.6H68.3C68.44 16.6 68.54 16.64 68.6 16.72C68.68 16.8 68.72 16.9 68.72 17.02C68.72 17.18 68.66 17.32 68.54 17.44L62.57 23.5L68.75 30.16C68.87 30.28 68.93 30.41 68.93 30.55C68.93 30.67 68.89 30.78 68.81 30.88C68.73 30.96 68.62 31 68.48 31H65.6Z" fill="#333333"/>
    <path d="M55.01 30.73L54.4868 31.1951C54.4959 31.2053 54.5053 31.2153 54.515 31.225L55.01 30.73ZM55.01 10.87L54.515 10.375C54.5053 10.3847 54.4959 10.3947 54.4868 10.4049L55.01 10.87ZM58.34 10.87L57.845 11.365L57.845 11.365L58.34 10.87ZM58.34 30.73L57.845 30.235C57.8353 30.2447 57.8259 30.2547 57.8168 30.2649L58.34 30.73ZM64.79 30.67L65.3215 30.2144L65.3143 30.2063L64.79 30.67ZM59.51 24.7L60.0344 24.2362L60.0303 24.2317L59.51 24.7ZM59.12 24.16L58.4803 24.4443C58.4846 24.454 58.4892 24.4636 58.4939 24.473L59.12 24.16ZM59.12 22.87L59.7461 23.183C59.7508 23.1736 59.7554 23.164 59.7597 23.1543L59.12 22.87ZM59.51 22.3L59.0038 21.8165C58.999 21.8215 58.9943 21.8266 58.9897 21.8317L59.51 22.3ZM64.61 16.96L65.1162 17.4435C65.1249 17.4344 65.1333 17.4251 65.1415 17.4156L64.61 16.96ZM64.94 16.69L65.2 17.3399C65.218 17.3327 65.2357 17.3248 65.2531 17.3161L64.94 16.69ZM68.6 16.72L68.04 17.14C68.0599 17.1665 68.0816 17.1916 68.105 17.215L68.6 16.72ZM68.54 17.44L68.045 16.945L68.0413 16.9487L68.54 17.44ZM62.57 23.5L62.0713 23.0087C61.8086 23.2755 61.8022 23.7017 62.0569 23.9761L62.57 23.5ZM68.75 30.16L68.2369 30.6361C68.2428 30.6425 68.2489 30.6488 68.255 30.655L68.75 30.16ZM68.81 30.88L69.305 31.375C69.3232 31.3567 69.3405 31.3375 69.3566 31.3173L68.81 30.88ZM55.88 30.3C55.5628 30.3 55.4955 30.2255 55.505 30.235L54.515 31.225C54.8845 31.5945 55.3972 31.7 55.88 31.7V30.3ZM55.5332 30.2649C55.532 30.2636 55.47 30.1911 55.47 29.92H54.07C54.07 30.3689 54.168 30.8364 54.4868 31.1951L55.5332 30.2649ZM55.47 29.92V11.71H54.07V29.92H55.47ZM55.47 11.71C55.47 11.4072 55.5371 11.3306 55.5332 11.3351L54.4868 10.4049C54.1629 10.7694 54.07 11.2528 54.07 11.71H55.47ZM55.505 11.365C55.4955 11.3745 55.5628 11.3 55.88 11.3V9.9C55.3972 9.9 54.8845 10.0055 54.515 10.375L55.505 11.365ZM55.88 11.3H57.47V9.9H55.88V11.3ZM57.47 11.3C57.7872 11.3 57.8545 11.3745 57.845 11.365L58.835 10.375C58.4655 10.0055 57.9528 9.9 57.47 9.9V11.3ZM57.845 11.365C57.846 11.3659 57.8494 11.3695 57.8544 11.3781C57.8597 11.3871 57.8677 11.4031 57.8761 11.4292C57.8934 11.4832 57.91 11.5726 57.91 11.71H59.31C59.31 11.2349 59.1988 10.7388 58.835 10.375L57.845 11.365ZM57.91 11.71V29.92H59.31V11.71H57.91ZM57.91 29.92C57.91 30.1721 57.8474 30.2326 57.845 30.235L58.835 31.225C59.1926 30.8674 59.31 30.3879 59.31 29.92H57.91ZM57.8168 30.2649C57.841 30.2377 57.8496 30.247 57.795 30.264C57.7374 30.2818 57.6345 30.3 57.47 30.3V31.7C57.9496 31.7 58.4993 31.6044 58.8632 31.1951L57.8168 30.2649ZM57.47 30.3H55.88V31.7H57.47V30.3ZM65.6 30.3C65.5094 30.3 65.4448 30.2958 65.4018 30.2904C65.3549 30.2845 65.3542 30.2798 65.38 30.2901L64.86 31.5899C65.0909 31.6823 65.3642 31.7 65.6 31.7V30.3ZM65.38 30.2901C65.4135 30.3035 65.4221 30.3141 65.4058 30.3007C65.3904 30.2882 65.3621 30.2618 65.3215 30.2144L64.2585 31.1256C64.4065 31.2982 64.6053 31.488 64.86 31.5899L65.38 30.2901ZM65.3143 30.2063L60.0343 24.2363L58.9857 25.1637L64.2657 31.1337L65.3143 30.2063ZM60.0303 24.2317C59.8735 24.0575 59.7876 23.93 59.7461 23.847L58.4939 24.473C58.6124 24.71 58.7865 24.9425 58.9897 25.1683L60.0303 24.2317ZM59.7597 23.8757C59.73 23.809 59.7 23.6919 59.7 23.5H58.3C58.3 23.8281 58.35 24.151 58.4803 24.4443L59.7597 23.8757ZM59.7 23.5C59.7 23.303 59.7317 23.2119 59.7461 23.183L58.4939 22.5569C58.3483 22.8481 58.3 23.177 58.3 23.5H59.7ZM59.7597 23.1543C59.8011 23.0611 59.8828 22.9322 60.0303 22.7683L58.9897 21.8317C58.7772 22.0678 58.5989 22.3189 58.4803 22.5857L59.7597 23.1543ZM60.0162 22.7835L65.1162 17.4435L64.1038 16.4765L59.0038 21.8165L60.0162 22.7835ZM65.1415 17.4156C65.1821 17.3682 65.2104 17.3418 65.2258 17.3293C65.2421 17.3159 65.2335 17.3265 65.2 17.3399L64.68 16.0401C64.4253 16.142 64.2265 16.3318 64.0785 16.5044L65.1415 17.4156ZM65.2531 17.3161C65.2276 17.3288 65.2296 17.3222 65.2817 17.3139C65.3305 17.3062 65.4048 17.3 65.51 17.3V15.9C65.2249 15.9 64.8983 15.9282 64.627 16.0639L65.2531 17.3161ZM65.51 17.3H68.3V15.9H65.51V17.3ZM68.3 17.3C68.3064 17.3 68.2734 17.3013 68.22 17.2799C68.1604 17.2561 68.093 17.2106 68.04 17.14L69.16 16.3C68.9201 15.9802 68.5665 15.9 68.3 15.9V17.3ZM68.105 17.215C68.0814 17.1914 68.057 17.1574 68.0401 17.115C68.0234 17.0734 68.02 17.0389 68.02 17.02H69.42C69.42 16.7268 69.3148 16.4449 69.095 16.225L68.105 17.215ZM68.02 17.02C68.02 17.0101 68.0224 16.9908 68.0316 16.9693C68.0405 16.9486 68.0492 16.9408 68.045 16.945L69.035 17.935C69.2774 17.6925 69.42 17.3778 69.42 17.02H68.02ZM68.0413 16.9487L62.0713 23.0087L63.0687 23.9913L69.0387 17.9313L68.0413 16.9487ZM62.0569 23.9761L68.2369 30.6361L69.2631 29.6839L63.0831 23.0239L62.0569 23.9761ZM68.255 30.655C68.2672 30.6671 68.2598 30.6633 68.2494 30.6408C68.238 30.616 68.23 30.5836 68.23 30.55H69.63C69.63 30.1862 69.4665 29.8866 69.245 29.665L68.255 30.655ZM68.23 30.55C68.23 30.5305 68.2336 30.5069 68.2421 30.4833C68.2505 30.4602 68.2602 30.4467 68.2634 30.4427L69.3566 31.3173C69.5287 31.1021 69.63 30.84 69.63 30.55H68.23ZM68.315 30.385C68.3499 30.3502 68.3906 30.3259 68.4283 30.3121C68.4633 30.2994 68.484 30.3 68.48 30.3V31.7C68.7589 31.7 69.064 31.616 69.305 31.375L68.315 30.385ZM68.48 30.3H65.6V31.7H68.48V30.3Z" fill="#333333"/>
    <path d="M78.54 31.45C76.98 31.45 75.57 31.19 74.31 30.67C73.05 30.13 72.04 29.31 71.28 28.21C70.54 27.09 70.17 25.7 70.17 24.04C70.17 21.46 70.86 19.5 72.24 18.16C73.62 16.82 75.58 16.15 78.12 16.15C80.64 16.15 82.54 16.8 83.82 18.1C85.12 19.4 85.77 21.28 85.77 23.74C85.77 24.44 85.45 24.79 84.81 24.79H73.8C73.8 26.11 74.26 27.13 75.18 27.85C76.1 28.55 77.38 28.9 79.02 28.9C80.6 28.9 82.02 28.54 83.28 27.82C83.42 27.74 83.53 27.7 83.61 27.7C83.75 27.7 83.86 27.79 83.94 27.97L84.66 29.26C84.72 29.38 84.75 29.49 84.75 29.59C84.75 29.73 84.66 29.86 84.48 29.98C83.66 30.48 82.77 30.85 81.81 31.09C80.87 31.33 79.78 31.45 78.54 31.45ZM82.29 22.57C82.29 21.33 81.94 20.36 81.24 19.66C80.56 18.96 79.53 18.61 78.15 18.61C76.75 18.61 75.67 18.97 74.91 19.69C74.17 20.41 73.8 21.37 73.8 22.57H82.29Z" fill="#333333"/>
    <path d="M74.31 30.67L74.0342 31.3135L74.043 31.3171L74.31 30.67ZM71.28 28.21L70.696 28.5959C70.6986 28.5999 70.7013 28.6039 70.7041 28.6079L71.28 28.21ZM72.24 18.16L72.7276 18.6622L72.24 18.16ZM83.82 18.1L83.3212 18.5911L83.325 18.595L83.82 18.1ZM73.8 24.79V24.09C73.4134 24.09 73.1 24.4034 73.1 24.79H73.8ZM75.18 27.85L74.7485 28.4013L74.7561 28.4071L75.18 27.85ZM83.94 27.97L83.3003 28.2543C83.3089 28.2737 83.3184 28.2926 83.3288 28.3112L83.94 27.97ZM84.66 29.26L85.2861 28.9469C85.2814 28.9375 85.2764 28.9281 85.2712 28.9188L84.66 29.26ZM84.48 29.98L84.8444 30.5777C84.8525 30.5727 84.8604 30.5677 84.8683 30.5624L84.48 29.98ZM81.81 31.09L81.6402 30.4109L81.6368 30.4118L81.81 31.09ZM82.29 22.57V23.27C82.6766 23.27 82.99 22.9566 82.99 22.57H82.29ZM81.24 19.66L80.7379 20.1478L80.745 20.155L81.24 19.66ZM74.91 19.69L74.4285 19.1818L74.4219 19.1883L74.91 19.69ZM73.8 22.57H73.1C73.1 22.9566 73.4134 23.27 73.8 23.27V22.57ZM78.54 30.75C77.0585 30.75 75.741 30.5033 74.577 30.0229L74.043 31.3171C75.399 31.8767 76.9015 32.15 78.54 32.15V30.75ZM74.5857 30.0266C73.4437 29.5371 72.539 28.8008 71.8559 27.8121L70.7041 28.6079C71.541 29.8192 72.6563 30.7229 74.0343 31.3134L74.5857 30.0266ZM71.864 27.8241C71.2158 26.8431 70.87 25.5954 70.87 24.04H69.47C69.47 25.8046 69.8642 27.3369 70.696 28.5959L71.864 27.8241ZM70.87 24.04C70.87 21.5823 71.5249 19.8301 72.7276 18.6622L71.7524 17.6578C70.1951 19.1699 69.47 21.3377 69.47 24.04H70.87ZM72.7276 18.6622C73.9394 17.4856 75.7019 16.85 78.12 16.85V15.45C75.4581 15.45 73.3006 16.1544 71.7524 17.6578L72.7276 18.6622ZM78.12 16.85C80.5256 16.85 82.2165 17.4691 83.3212 18.5911L84.3188 17.6089C82.8635 16.1309 80.7544 15.45 78.12 15.45V16.85ZM83.325 18.595C84.4541 19.7241 85.07 21.4009 85.07 23.74H86.47C86.47 21.1591 85.7859 19.0759 84.315 17.605L83.325 18.595ZM85.07 23.74C85.07 23.8639 85.0556 23.9455 85.0404 23.9953C85.0331 24.0194 85.026 24.0346 85.0213 24.0432C85.0167 24.0515 85.0138 24.0547 85.0134 24.0552C85.013 24.0555 85.0127 24.056 85.0109 24.0571C85.009 24.0584 85.0029 24.0621 84.9902 24.0667C84.9637 24.0764 84.908 24.09 84.81 24.09V25.49C85.2549 25.49 85.7123 25.3655 86.0466 24.9998C86.37 24.6461 86.47 24.1831 86.47 23.74H85.07ZM84.81 24.09H73.8V25.49H84.81V24.09ZM73.1 24.79C73.1 26.2935 73.6355 27.5302 74.7486 28.4013L75.6114 27.2987C74.8845 26.7298 74.5 25.9265 74.5 24.79H73.1ZM74.7561 28.4071C75.8397 29.2315 77.2892 29.6 79.02 29.6V28.2C77.4708 28.2 76.3603 27.8685 75.6039 27.2929L74.7561 28.4071ZM79.02 29.6C80.7107 29.6 82.2523 29.2135 83.6273 28.4278L82.9327 27.2122C81.7877 27.8665 80.4893 28.2 79.02 28.2V29.6ZM83.6273 28.4278C83.6501 28.4148 83.6683 28.4053 83.6823 28.3986C83.6964 28.3918 83.7044 28.3887 83.7067 28.3879C83.7093 28.3869 83.7029 28.3895 83.6886 28.3925C83.6746 28.3954 83.6474 28.4 83.61 28.4V27C83.3366 27 83.0912 27.1216 82.9327 27.2122L83.6273 28.4278ZM83.61 28.4C83.5686 28.4 83.5211 28.3931 83.4723 28.3755C83.4236 28.358 83.384 28.3336 83.3542 28.3093C83.2983 28.2635 83.2886 28.2279 83.3003 28.2543L84.5797 27.6857C84.4409 27.3734 84.138 27 83.61 27V28.4ZM83.3288 28.3112L84.0488 29.6012L85.2712 28.9188L84.5512 27.6288L83.3288 28.3112ZM84.0339 29.5731C84.0468 29.5988 84.0512 29.6131 84.0522 29.6167C84.053 29.6199 84.05 29.6102 84.05 29.59H85.45C85.45 29.3507 85.3789 29.1325 85.2861 28.9469L84.0339 29.5731ZM84.05 29.59C84.05 29.5485 84.0569 29.5082 84.069 29.4718C84.081 29.436 84.0959 29.4101 84.107 29.3941C84.127 29.3651 84.1335 29.3697 84.0917 29.3976L84.8683 30.5624C85.132 30.3866 85.45 30.0717 85.45 29.59H84.05ZM84.1156 29.3823C83.3578 29.8444 82.5337 30.1875 81.6402 30.4109L81.9798 31.7691C83.0063 31.5125 83.9622 31.1156 84.8444 30.5777L84.1156 29.3823ZM81.6368 30.4118C80.7665 30.634 79.7369 30.75 78.54 30.75V32.15C79.8231 32.15 80.9735 32.026 81.9832 31.7682L81.6368 30.4118ZM82.99 22.57C82.99 21.1938 82.5975 20.0276 81.735 19.165L80.745 20.155C81.2825 20.6924 81.59 21.4662 81.59 22.57H82.99ZM81.7421 19.1722C80.8836 18.2885 79.6396 17.91 78.15 17.91V19.31C79.4204 19.31 80.2364 19.6315 80.7379 20.1477L81.7421 19.1722ZM78.15 17.91C76.6327 17.91 75.3575 18.3018 74.4286 19.1818L75.3914 20.1982C75.9825 19.6382 76.8673 19.31 78.15 19.31V17.91ZM74.4219 19.1883C73.5243 20.0616 73.1 21.2143 73.1 22.57H74.5C74.5 21.5257 74.8157 20.7584 75.3981 20.1917L74.4219 19.1883ZM73.8 23.27H82.29V21.87H73.8V23.27Z" fill="#333333"/>
    <path d="M94.4 31.45C92.7 31.45 91.42 30.98 90.56 30.04C89.7 29.1 89.27 27.8 89.27 26.14V19.42H87.56C87.16 19.42 86.89 19.35 86.75 19.21C86.63 19.07 86.57 18.81 86.57 18.43V17.62C86.57 17.24 86.63 16.98 86.75 16.84C86.89 16.68 87.16 16.6 87.56 16.6H89.27V14.95C89.27 14.53 89.34 14.14 89.48 13.78C89.64 13.4 89.88 12.93 90.2 12.37C90.32 12.13 90.43 11.98 90.53 11.92C90.65 11.84 90.85 11.8 91.13 11.8H92.12C92.48 11.8 92.73 11.89 92.87 12.07C93.03 12.23 93.11 12.48 93.11 12.82V16.6H96.65C97.05 16.6 97.31 16.68 97.43 16.84C97.57 16.98 97.64 17.24 97.64 17.62V18.43C97.64 18.81 97.57 19.07 97.43 19.21C97.31 19.35 97.05 19.42 96.65 19.42H93.11V26.02C93.11 26.94 93.27 27.61 93.59 28.03C93.91 28.43 94.46 28.63 95.24 28.63C95.7 28.63 96.09 28.58 96.41 28.48C96.73 28.36 97.08 28.17 97.46 27.91C97.56 27.83 97.67 27.79 97.79 27.79C97.91 27.79 98.03 27.88 98.15 28.06L99.02 29.5C99.1 29.6 99.14 29.71 99.14 29.83C99.14 29.97 99.04 30.11 98.84 30.25C97.6 31.05 96.12 31.45 94.4 31.45Z" fill="#333333"/>
    <path d="M90.56 30.04L91.0765 29.5675L90.56 30.04ZM89.27 19.42H89.97C89.97 19.0334 89.6566 18.72 89.27 18.72V19.42ZM86.75 19.21L86.2185 19.6656C86.2302 19.6792 86.2424 19.6923 86.255 19.705L86.75 19.21ZM86.75 16.84L86.2232 16.379L86.2185 16.3844L86.75 16.84ZM89.27 16.6V17.3C89.6566 17.3 89.97 16.9866 89.97 16.6H89.27ZM89.48 13.78L88.8349 13.5084C88.8324 13.5143 88.8299 13.5203 88.8276 13.5263L89.48 13.78ZM90.2 12.37L90.8078 12.7173C90.8142 12.7061 90.8203 12.6946 90.8261 12.683L90.2 12.37ZM90.53 11.92L90.8901 12.5202C90.8997 12.5145 90.9091 12.5086 90.9183 12.5024L90.53 11.92ZM92.87 12.07L92.3175 12.4998C92.3353 12.5227 92.3545 12.5444 92.375 12.565L92.87 12.07ZM93.11 16.6H92.41C92.41 16.9866 92.7234 17.3 93.11 17.3V16.6ZM97.43 16.84L96.87 17.26C96.8899 17.2865 96.9116 17.3116 96.935 17.335L97.43 16.84ZM97.43 19.21L96.935 18.715C96.9224 18.7277 96.9102 18.7408 96.8985 18.7544L97.43 19.21ZM93.11 19.42V18.72C92.7234 18.72 92.41 19.0334 92.41 19.42H93.11ZM93.59 28.03L93.0332 28.4542C93.0365 28.4586 93.0399 28.463 93.0434 28.4673L93.59 28.03ZM96.41 28.48L96.6188 29.1481C96.6312 29.1442 96.6436 29.14 96.6558 29.1354L96.41 28.48ZM97.46 27.91L97.8553 28.4877C97.8697 28.4779 97.8837 28.4675 97.8973 28.4566L97.46 27.91ZM98.15 28.06L98.7491 27.698C98.7438 27.6891 98.7382 27.6804 98.7324 27.6717L98.15 28.06ZM99.02 29.5L98.4209 29.862C98.4367 29.8882 98.4543 29.9134 98.4734 29.9373L99.02 29.5ZM98.84 30.25L99.2195 30.8382C99.2269 30.8334 99.2342 30.8285 99.2414 30.8235L98.84 30.25ZM94.4 30.75C92.8276 30.75 91.7636 30.3186 91.0765 29.5675L90.0435 30.5125C91.0764 31.6414 92.5724 32.15 94.4 32.15V30.75ZM91.0765 29.5675C90.3667 28.7918 89.97 27.6796 89.97 26.14H88.57C88.57 27.9205 89.0333 29.4082 90.0435 30.5125L91.0765 29.5675ZM89.97 26.14V19.42H88.57V26.14H89.97ZM89.27 18.72H87.56V20.12H89.27V18.72ZM87.56 18.72C87.396 18.72 87.2919 18.7051 87.2332 18.6899C87.1721 18.6741 87.1978 18.6679 87.245 18.715L86.255 19.705C86.6087 20.0586 87.1379 20.12 87.56 20.12V18.72ZM87.2815 18.7544C87.3205 18.8 87.3122 18.8183 87.2971 18.7526C87.2828 18.6909 87.27 18.5874 87.27 18.43H85.87C85.87 18.8287 85.9216 19.3192 86.2185 19.6656L87.2815 18.7544ZM87.27 18.43V17.62H85.87V18.43H87.27ZM87.27 17.62C87.27 17.4626 87.2828 17.3591 87.2971 17.2974C87.3122 17.2317 87.3205 17.25 87.2815 17.2956L86.2185 16.3844C85.9216 16.7308 85.87 17.2213 85.87 17.62H87.27ZM87.2768 17.301C87.2355 17.3481 87.2081 17.3455 87.2564 17.3312C87.306 17.3164 87.4015 17.3 87.56 17.3V15.9C87.1205 15.9 86.5748 15.9772 86.2232 16.379L87.2768 17.301ZM87.56 17.3H89.27V15.9H87.56V17.3ZM89.97 16.6V14.95H88.57V16.6H89.97ZM89.97 14.95C89.97 14.6092 90.0265 14.306 90.1324 14.0337L88.8276 13.5263C88.6535 13.974 88.57 14.4508 88.57 14.95H89.97ZM90.1251 14.0516C90.2699 13.7078 90.4949 13.2648 90.8078 12.7173L89.5922 12.0227C89.2651 12.5952 89.0101 13.0922 88.8349 13.5084L90.1251 14.0516ZM90.8261 12.683C90.8755 12.5843 90.9131 12.5241 90.937 12.4915C90.9484 12.4759 90.9524 12.4725 90.9481 12.4768C90.9443 12.4806 90.9254 12.4991 90.8901 12.5202L90.1699 11.3198C90.0067 11.4177 89.8891 11.553 89.808 11.6635C89.7219 11.7809 89.6445 11.9157 89.5739 12.0569L90.8261 12.683ZM90.9183 12.5024C90.8777 12.5295 90.8626 12.5253 90.9073 12.5164C90.9489 12.5081 91.0204 12.5 91.13 12.5V11.1C90.8209 11.1 90.4425 11.1371 90.1417 11.3376L90.9183 12.5024ZM91.13 12.5H92.12V11.1H91.13V12.5ZM92.12 12.5C92.246 12.5 92.3131 12.5163 92.3404 12.5261C92.3617 12.5338 92.3415 12.5307 92.3175 12.4998L93.4225 11.6402C93.0881 11.2103 92.57 11.1 92.12 11.1V12.5ZM92.375 12.565C92.3505 12.5404 92.41 12.5735 92.41 12.82H93.81C93.81 12.3865 93.7095 11.9196 93.365 11.575L92.375 12.565ZM92.41 12.82V16.6H93.81V12.82H92.41ZM93.11 17.3H96.65V15.9H93.11V17.3ZM96.65 17.3C96.8098 17.3 96.8992 17.3168 96.9391 17.329C96.9778 17.3409 96.9257 17.3343 96.87 17.26L97.99 16.42C97.8143 16.1857 97.5722 16.0591 97.3509 15.991C97.1308 15.9232 96.8902 15.9 96.65 15.9V17.3ZM96.935 17.335C96.8926 17.2926 96.8974 17.2695 96.9116 17.322C96.9255 17.3739 96.94 17.4684 96.94 17.62H98.34C98.34 17.2055 98.2742 16.6942 97.925 16.345L96.935 17.335ZM96.94 17.62V18.43H98.34V17.62H96.94ZM96.94 18.43C96.94 18.5816 96.9255 18.6761 96.9116 18.728C96.8974 18.7805 96.8926 18.7574 96.935 18.715L97.925 19.705C98.2742 19.3558 98.34 18.8445 98.34 18.43H96.94ZM96.8985 18.7544C96.9634 18.6787 97.0165 18.6772 96.963 18.6916C96.9135 18.7049 96.8152 18.72 96.65 18.72V20.12C96.8848 20.12 97.1165 20.1001 97.327 20.0434C97.5335 19.9878 97.7766 19.8813 97.9615 19.6656L96.8985 18.7544ZM96.65 18.72H93.11V20.12H96.65V18.72ZM92.41 19.42V26.02H93.81V19.42H92.41ZM92.41 26.02C92.41 26.9915 92.5733 27.8506 93.0332 28.4542L94.1468 27.6058C93.9667 27.3694 93.81 26.8885 93.81 26.02H92.41ZM93.0434 28.4673C93.5537 29.1052 94.3606 29.33 95.24 29.33V27.93C94.5594 27.93 94.2663 27.7548 94.1366 27.5927L93.0434 28.4673ZM95.24 29.33C95.7464 29.33 96.2113 29.2755 96.6188 29.1481L96.2012 27.8119C95.9687 27.8845 95.6536 27.93 95.24 27.93V29.33ZM96.6558 29.1354C97.0432 28.9902 97.4437 28.7693 97.8553 28.4877L97.0647 27.3323C96.7163 27.5707 96.4168 27.7298 96.1642 27.8246L96.6558 29.1354ZM97.8973 28.4566C97.8933 28.4598 97.8798 28.4695 97.8567 28.4779C97.8331 28.4864 97.8095 28.49 97.79 28.49V27.09C97.5 27.09 97.2379 27.1913 97.0227 27.3634L97.8973 28.4566ZM97.79 28.49C97.6642 28.49 97.5804 28.4403 97.55 28.4175C97.5252 28.3989 97.5338 28.3977 97.5676 28.4483L98.7324 27.6717C98.5842 27.4494 98.2816 27.09 97.79 27.09V28.49ZM97.5509 28.422L98.4209 29.862L99.6191 29.138L98.7491 27.698L97.5509 28.422ZM98.4734 29.9373C98.4702 29.9333 98.4605 29.9198 98.4521 29.8967C98.4436 29.8731 98.44 29.8495 98.44 29.83H99.84C99.84 29.54 99.7387 29.2779 99.5666 29.0627L98.4734 29.9373ZM98.44 29.83C98.44 29.7235 98.4803 29.6543 98.4954 29.6331C98.5065 29.6175 98.4985 29.6346 98.4386 29.6765L99.2414 30.8235C99.4918 30.6482 99.84 30.3256 99.84 29.83H98.44ZM98.4605 29.6618C97.3513 30.3774 96.0081 30.75 94.4 30.75V32.15C96.2319 32.15 97.8487 31.7226 99.2195 30.8382L98.4605 29.6618Z" fill="#333333"/>
    <path d="M102.27 14.11C101.79 14.11 101.42 13.97 101.16 13.69C100.9 13.41 100.77 13.07 100.77 12.67V12.04C100.77 11.64 100.9 11.3 101.16 11.02C101.42 10.74 101.79 10.6 102.27 10.6H103.56C104.04 10.6 104.41 10.74 104.67 11.02C104.95 11.3 105.09 11.64 105.09 12.04V12.67C105.09 13.07 104.95 13.41 104.67 13.69C104.41 13.97 104.04 14.11 103.56 14.11H102.27ZM102.15 31C101.75 31 101.46 30.91 101.28 30.73C101.1 30.55 101.01 30.28 101.01 29.92V17.71C101.01 17.33 101.1 17.05 101.28 16.87C101.46 16.69 101.75 16.6 102.15 16.6H103.71C104.11 16.6 104.4 16.69 104.58 16.87C104.76 17.05 104.85 17.33 104.85 17.71V29.92C104.85 30.28 104.76 30.55 104.58 30.73C104.42 30.91 104.13 31 103.71 31H102.15Z" fill="#333333"/>
    <path d="M101.16 13.69L101.673 13.2137V13.2137L101.16 13.69ZM101.16 11.02L101.673 11.4963V11.4963L101.16 11.02ZM104.67 11.02L104.157 11.4963C104.163 11.5026 104.169 11.5089 104.175 11.515L104.67 11.02ZM104.67 13.69L104.175 13.195C104.169 13.2011 104.163 13.2074 104.157 13.2137L104.67 13.69ZM101.28 30.73L101.775 30.235H101.775L101.28 30.73ZM101.28 16.87L101.775 17.365H101.775L101.28 16.87ZM104.58 30.73L104.085 30.235C104.075 30.2447 104.066 30.2547 104.057 30.2649L104.58 30.73ZM102.27 13.41C101.931 13.41 101.768 13.3162 101.673 13.2137L100.647 14.1663C101.072 14.6238 101.649 14.81 102.27 14.81V13.41ZM101.673 13.2137C101.539 13.0697 101.47 12.9024 101.47 12.67H100.07C100.07 13.2376 100.261 13.7503 100.647 14.1663L101.673 13.2137ZM101.47 12.67V12.04H100.07V12.67H101.47ZM101.47 12.04C101.47 11.8076 101.539 11.6403 101.673 11.4963L100.647 10.5437C100.261 10.9597 100.07 11.4724 100.07 12.04H101.47ZM101.673 11.4963C101.768 11.3938 101.931 11.3 102.27 11.3V9.9C101.649 9.9 101.072 10.0862 100.647 10.5437L101.673 11.4963ZM102.27 11.3H103.56V9.9H102.27V11.3ZM103.56 11.3C103.899 11.3 104.062 11.3938 104.157 11.4963L105.183 10.5437C104.758 10.0862 104.181 9.9 103.56 9.9V11.3ZM104.175 11.515C104.322 11.6622 104.39 11.8235 104.39 12.04H105.79C105.79 11.4565 105.578 10.9378 105.165 10.525L104.175 11.515ZM104.39 12.04V12.67H105.79V12.04H104.39ZM104.39 12.67C104.39 12.8865 104.322 13.0478 104.175 13.195L105.165 14.185C105.578 13.7722 105.79 13.2535 105.79 12.67H104.39ZM104.157 13.2137C104.062 13.3162 103.899 13.41 103.56 13.41V14.81C104.181 14.81 104.758 14.6238 105.183 14.1663L104.157 13.2137ZM103.56 13.41H102.27V14.81H103.56V13.41ZM102.15 30.3C101.833 30.3 101.765 30.2255 101.775 30.235L100.785 31.225C101.155 31.5945 101.667 31.7 102.15 31.7V30.3ZM101.775 30.235C101.773 30.2326 101.71 30.1721 101.71 29.92H100.31C100.31 30.3879 100.427 30.8674 100.785 31.225L101.775 30.235ZM101.71 29.92V17.71H100.31V29.92H101.71ZM101.71 17.71C101.71 17.5726 101.727 17.4832 101.744 17.4292C101.752 17.4031 101.76 17.3871 101.766 17.3781C101.771 17.3695 101.774 17.3659 101.775 17.365L100.785 16.375C100.421 16.7388 100.31 17.2349 100.31 17.71H101.71ZM101.775 17.365C101.765 17.3745 101.833 17.3 102.15 17.3V15.9C101.667 15.9 101.155 16.0055 100.785 16.375L101.775 17.365ZM102.15 17.3H103.71V15.9H102.15V17.3ZM103.71 17.3C104.027 17.3 104.095 17.3745 104.085 17.365L105.075 16.375C104.705 16.0055 104.193 15.9 103.71 15.9V17.3ZM104.085 17.365C104.086 17.3659 104.089 17.3695 104.094 17.3781C104.1 17.3871 104.108 17.4031 104.116 17.4292C104.133 17.4832 104.15 17.5726 104.15 17.71H105.55C105.55 17.2349 105.439 16.7388 105.075 16.375L104.085 17.365ZM104.15 17.71V29.92H105.55V17.71H104.15ZM104.15 29.92C104.15 30.1721 104.087 30.2326 104.085 30.235L105.075 31.225C105.433 30.8674 105.55 30.3879 105.55 29.92H104.15ZM104.057 30.2649C104.081 30.2377 104.09 30.247 104.035 30.264C103.977 30.2818 103.875 30.3 103.71 30.3V31.7C104.19 31.7 104.739 31.6044 105.103 31.1951L104.057 30.2649ZM103.71 30.3H102.15V31.7H103.71V30.3Z" fill="#333333"/>
    <path d="M108.91 31C108.51 31 108.22 30.91 108.04 30.73C107.86 30.55 107.77 30.28 107.77 29.92V17.41C107.77 17.11 107.82 16.9 107.92 16.78C108.02 16.66 108.23 16.6 108.55 16.6H110.26C110.7 16.6 110.93 16.8 110.95 17.2L111.01 18.4C112.37 16.9 114.32 16.15 116.86 16.15C118.48 16.15 119.78 16.59 120.76 17.47C121.76 18.33 122.26 19.63 122.26 21.37V29.92C122.26 30.28 122.17 30.55 121.99 30.73C121.83 30.91 121.55 31 121.15 31H119.56C119.16 31 118.87 30.91 118.69 30.73C118.51 30.55 118.42 30.28 118.42 29.92V21.61C118.42 20.63 118.19 19.94 117.73 19.54C117.29 19.12 116.57 18.91 115.57 18.91C114.51 18.91 113.58 19.2 112.78 19.78C112 20.34 111.61 21.07 111.61 21.97V29.92C111.61 30.28 111.52 30.55 111.34 30.73C111.18 30.91 110.89 31 110.47 31H108.91Z" fill="#333333"/>
    <path d="M108.04 30.73L107.545 31.225H107.545L108.04 30.73ZM107.92 16.78L107.382 16.3319L107.382 16.3319L107.92 16.78ZM110.95 17.2L110.251 17.235L110.95 17.2ZM111.01 18.4L110.311 18.435C110.325 18.7176 110.508 18.9639 110.774 19.0592C111.041 19.1544 111.339 19.0798 111.529 18.8702L111.01 18.4ZM120.76 17.47L120.292 17.9908C120.296 17.9942 120.3 17.9975 120.304 18.0007L120.76 17.47ZM121.99 30.73L121.495 30.235C121.485 30.2447 121.476 30.2547 121.467 30.2649L121.99 30.73ZM118.69 30.73L118.195 31.225L118.195 31.225L118.69 30.73ZM117.73 19.54L117.247 20.0463C117.255 20.0538 117.263 20.0611 117.271 20.0682L117.73 19.54ZM112.78 19.78L113.188 20.3486L113.191 20.3467L112.78 19.78ZM111.34 30.73L110.845 30.235C110.835 30.2447 110.826 30.2547 110.817 30.2649L111.34 30.73ZM108.91 30.3C108.593 30.3 108.525 30.2255 108.535 30.235L107.545 31.225C107.915 31.5945 108.427 31.7 108.91 31.7V30.3ZM108.535 30.235C108.533 30.2326 108.47 30.1721 108.47 29.92H107.07C107.07 30.3879 107.187 30.8674 107.545 31.225L108.535 30.235ZM108.47 29.92V17.41H107.07V29.92H108.47ZM108.47 17.41C108.47 17.2951 108.48 17.2254 108.488 17.1896C108.497 17.1519 108.498 17.1797 108.458 17.2281L107.382 16.3319C107.117 16.6505 107.07 17.0765 107.07 17.41H108.47ZM108.458 17.2281C108.388 17.3112 108.323 17.3243 108.345 17.3181C108.353 17.3157 108.373 17.3109 108.409 17.3068C108.445 17.3028 108.491 17.3 108.55 17.3V15.9C108.352 15.9 108.149 15.9179 107.96 15.9719C107.772 16.0257 107.552 16.1288 107.382 16.3319L108.458 17.2281ZM108.55 17.3H110.26V15.9H108.55V17.3ZM110.26 17.3C110.319 17.3 110.346 17.3069 110.35 17.3083C110.353 17.3089 110.331 17.3026 110.303 17.2782C110.29 17.2666 110.278 17.2534 110.268 17.2396C110.258 17.226 110.253 17.2144 110.249 17.2067C110.243 17.1923 110.249 17.1975 110.251 17.235L111.649 17.165C111.633 16.8372 111.522 16.4825 111.222 16.2218C110.933 15.9707 110.575 15.9 110.26 15.9V17.3ZM110.251 17.235L110.311 18.435L111.709 18.365L111.649 17.165L110.251 17.235ZM111.529 18.8702C112.724 17.5522 114.464 16.85 116.86 16.85V15.45C114.176 15.45 112.016 16.2478 110.491 17.9298L111.529 18.8702ZM116.86 16.85C118.349 16.85 119.469 17.2512 120.292 17.9908L121.228 16.9492C120.091 15.9288 118.611 15.45 116.86 15.45V16.85ZM120.304 18.0007C121.103 18.6884 121.56 19.7647 121.56 21.37H122.96C122.96 19.4953 122.417 17.9716 121.216 16.9393L120.304 18.0007ZM121.56 21.37V29.92H122.96V21.37H121.56ZM121.56 29.92C121.56 30.1721 121.497 30.2326 121.495 30.235L122.485 31.225C122.843 30.8674 122.96 30.3879 122.96 29.92H121.56ZM121.467 30.2649C121.487 30.2427 121.493 30.2509 121.446 30.2661C121.395 30.2824 121.302 30.3 121.15 30.3V31.7C121.622 31.7 122.154 31.5988 122.513 31.1951L121.467 30.2649ZM121.15 30.3H119.56V31.7H121.15V30.3ZM119.56 30.3C119.243 30.3 119.175 30.2255 119.185 30.235L118.195 31.225C118.565 31.5945 119.077 31.7 119.56 31.7V30.3ZM119.185 30.235C119.183 30.2326 119.12 30.1721 119.12 29.92H117.72C117.72 30.3879 117.837 30.8674 118.195 31.225L119.185 30.235ZM119.12 29.92V21.61H117.72V29.92H119.12ZM119.12 21.61C119.12 20.5483 118.874 19.6075 118.189 19.0118L117.271 20.0682C117.506 20.2725 117.72 20.7117 117.72 21.61H119.12ZM118.213 19.0336C117.581 18.4301 116.64 18.21 115.57 18.21V19.61C116.5 19.61 116.999 19.8099 117.247 20.0463L118.213 19.0336ZM115.57 18.21C114.374 18.21 113.297 18.5402 112.369 19.2133L113.191 20.3467C113.863 19.8598 114.646 19.61 115.57 19.61V18.21ZM112.372 19.2114C111.423 19.8925 110.91 20.8274 110.91 21.97H112.31C112.31 21.3126 112.577 20.7875 113.188 20.3486L112.372 19.2114ZM110.91 21.97V29.92H112.31V21.97H110.91ZM110.91 29.92C110.91 30.1721 110.847 30.2326 110.845 30.235L111.835 31.225C112.193 30.8674 112.31 30.3879 112.31 29.92H110.91ZM110.817 30.2649C110.841 30.2377 110.85 30.247 110.795 30.264C110.737 30.2818 110.635 30.3 110.47 30.3V31.7C110.95 31.7 111.499 31.6044 111.863 31.1951L110.817 30.2649ZM110.47 30.3H108.91V31.7H110.47V30.3Z" fill="#333333"/>
    <path d="M133.42 36.1C132.26 36.1 131.13 35.99 130.03 35.77C128.93 35.55 128.09 35.26 127.51 34.9C127.19 34.72 127.11 34.5 127.27 34.24L128.14 32.77C128.26 32.57 128.38 32.47 128.5 32.47C128.58 32.47 128.68 32.5 128.8 32.56C129.9 33.12 131.33 33.4 133.09 33.4C134.43 33.4 135.41 33.08 136.03 32.44C136.65 31.8 136.96 30.72 136.96 29.2C136.4 29.8 135.74 30.25 134.98 30.55C134.24 30.83 133.34 30.97 132.28 30.97C130.04 30.97 128.29 30.36 127.03 29.14C125.79 27.92 125.17 26.2 125.17 23.98C125.17 21.46 125.91 19.53 127.39 18.19C128.89 16.83 131.05 16.15 133.87 16.15C135.17 16.15 136.44 16.33 137.68 16.69C138.94 17.05 139.96 17.5 140.74 18.04V28.33C140.74 30.75 140.15 32.65 138.97 34.03C137.79 35.41 135.94 36.1 133.42 36.1ZM133.18 28.15C134.3 28.15 135.21 27.86 135.91 27.28C136.61 26.68 136.96 25.86 136.96 24.82V19.48C136.58 19.3 136.1 19.16 135.52 19.06C134.94 18.96 134.33 18.91 133.69 18.91C130.53 18.91 128.95 20.52 128.95 23.74C128.95 25.22 129.3 26.33 130 27.07C130.7 27.79 131.76 28.15 133.18 28.15Z" fill="#333333"/>
    <path d="M130.03 35.77L129.893 36.4564L130.03 35.77ZM127.51 34.9L127.879 34.3053C127.871 34.2999 127.862 34.2948 127.853 34.2899L127.51 34.9ZM127.27 34.24L127.866 34.6069L127.872 34.5965L127.27 34.24ZM128.14 32.77L127.54 32.4098L127.538 32.4135L128.14 32.77ZM128.8 32.56L129.118 31.9362L129.113 31.9339L128.8 32.56ZM136.03 32.44L136.533 32.9271L136.03 32.44ZM136.96 29.2H137.66C137.66 28.9125 137.484 28.6542 137.217 28.5488C136.949 28.4433 136.644 28.5122 136.448 28.7224L136.96 29.2ZM134.98 30.55L135.228 31.2048L135.237 31.2011L134.98 30.55ZM127.03 29.14L126.539 29.639L126.543 29.6429L127.03 29.14ZM127.39 18.19L127.86 18.7089L127.86 18.7086L127.39 18.19ZM137.68 16.69L137.485 17.3622L137.488 17.3631L137.68 16.69ZM140.74 18.04H141.44C141.44 17.8103 141.327 17.5952 141.138 17.4645L140.74 18.04ZM138.97 34.03L138.438 33.5751L138.97 34.03ZM135.91 27.28L136.357 27.8191L136.366 27.8115L135.91 27.28ZM136.96 19.48H137.66C137.66 19.2095 137.504 18.9632 137.26 18.8474L136.96 19.48ZM135.52 19.06L135.639 18.3702L135.52 19.06ZM130 27.07L129.491 27.5511L129.498 27.558L130 27.07ZM133.42 35.4C132.305 35.4 131.221 35.2943 130.167 35.0836L129.893 36.4564C131.039 36.6857 132.215 36.8 133.42 36.8V35.4ZM130.167 35.0836C129.104 34.8708 128.357 34.6017 127.879 34.3053L127.141 35.4947C127.823 35.9183 128.756 36.2292 129.893 36.4564L130.167 35.0836ZM127.853 34.2899C127.813 34.2674 127.804 34.2563 127.81 34.2625C127.817 34.27 127.846 34.3017 127.868 34.3608C127.891 34.4237 127.894 34.4885 127.885 34.5426C127.877 34.5914 127.862 34.6137 127.866 34.6069L126.674 33.8731C126.519 34.1252 126.418 34.4704 126.552 34.8392C126.674 35.1745 126.94 35.3823 127.167 35.5101L127.853 34.2899ZM127.872 34.5965L128.742 33.1265L127.538 32.4135L126.668 33.8835L127.872 34.5965ZM128.74 33.1301C128.778 33.0676 128.79 33.0642 128.768 33.0828C128.741 33.1055 128.648 33.17 128.5 33.17V31.77C127.973 31.77 127.672 32.1894 127.54 32.4099L128.74 33.1301ZM128.5 33.17C128.477 33.17 128.459 33.1678 128.449 33.1661C128.438 33.1644 128.433 33.1628 128.434 33.163C128.434 33.1632 128.439 33.1647 128.449 33.1685C128.458 33.1723 128.471 33.178 128.487 33.1861L129.113 31.9339C128.953 31.8541 128.739 31.77 128.5 31.77V33.17ZM128.482 33.1838C129.714 33.8106 131.264 34.1 133.09 34.1V32.7C131.396 32.7 130.086 32.4294 129.118 31.9362L128.482 33.1838ZM133.09 34.1C134.525 34.1 135.727 33.7588 136.533 32.9271L135.527 31.9529C135.093 32.4012 134.335 32.7 133.09 32.7V34.1ZM136.533 32.9271C137.343 32.0904 137.66 30.7823 137.66 29.2H136.26C136.26 30.6577 135.957 31.5096 135.527 31.9529L136.533 32.9271ZM136.448 28.7224C135.959 29.2467 135.386 29.6373 134.723 29.8989L135.237 31.2011C136.094 30.8627 136.841 30.3533 137.472 29.6776L136.448 28.7224ZM134.732 29.8953C134.093 30.1371 133.282 30.27 132.28 30.27V31.67C133.398 31.67 134.387 31.5229 135.228 31.2047L134.732 29.8953ZM132.28 30.27C130.169 30.27 128.613 29.6983 127.517 28.6371L126.543 29.6429C127.967 31.0217 129.911 31.67 132.28 31.67V30.27ZM127.521 28.641C126.449 27.5865 125.87 26.0669 125.87 23.98H124.47C124.47 26.3331 125.131 28.2535 126.539 29.639L127.521 28.641ZM125.87 23.98C125.87 21.6023 126.563 19.8831 127.86 18.7089L126.92 17.6711C125.257 19.1769 124.47 21.3177 124.47 23.98H125.87ZM127.86 18.7086C129.188 17.5043 131.155 16.85 133.87 16.85V15.45C130.945 15.45 128.592 16.1557 126.92 17.6714L127.86 18.7086ZM133.87 16.85C135.104 16.85 136.309 17.0208 137.485 17.3622L137.875 16.0178C136.571 15.6392 135.236 15.45 133.87 15.45V16.85ZM137.488 17.3631C138.7 17.7095 139.643 18.1322 140.342 18.6155L141.138 17.4645C140.277 16.8678 139.18 16.3905 137.872 16.0169L137.488 17.3631ZM140.04 18.04V28.33H141.44V18.04H140.04ZM140.04 28.33C140.04 30.6393 139.478 32.3588 138.438 33.5751L139.502 34.4849C140.822 32.9412 141.44 30.8607 141.44 28.33H140.04ZM138.438 33.5751C137.437 34.746 135.818 35.4 133.42 35.4V36.8C136.062 36.8 138.143 36.074 139.502 34.4849L138.438 33.5751ZM133.18 28.85C134.424 28.85 135.504 28.5255 136.357 27.819L135.463 26.741C134.916 27.1945 134.176 27.45 133.18 27.45V28.85ZM136.366 27.8115C137.242 27.0606 137.66 26.0351 137.66 24.82H136.26C136.26 25.6849 135.978 26.2994 135.454 26.7485L136.366 27.8115ZM137.66 24.82V19.48H136.26V24.82H137.66ZM137.26 18.8474C136.805 18.6318 136.259 18.477 135.639 18.3702L135.401 19.7498C135.941 19.843 136.355 19.9682 136.66 20.1126L137.26 18.8474ZM135.639 18.3702C135.016 18.2628 134.366 18.21 133.69 18.21V19.61C134.294 19.61 134.864 19.6572 135.401 19.7498L135.639 18.3702ZM133.69 18.21C131.999 18.21 130.602 18.6418 129.635 19.6272C128.671 20.6102 128.25 22.0254 128.25 23.74H129.65C129.65 22.2346 130.019 21.2348 130.635 20.6078C131.248 19.9832 132.221 19.61 133.69 19.61V18.21ZM128.25 23.74C128.25 25.3185 128.623 26.6325 129.491 27.551L130.509 26.589C129.977 26.0275 129.65 25.1215 129.65 23.74H128.25ZM129.498 27.558C130.377 28.4615 131.65 28.85 133.18 28.85V27.45C131.87 27.45 131.023 27.1185 130.502 26.582L129.498 27.558Z" fill="#333333"/>
    <path d="M43.91 31C43.51 31 43.22 30.91 43.04 30.73C42.86 30.55 42.77 30.28 42.77 29.92V17.41C42.77 17.11 42.82 16.9 42.92 16.78C43.02 16.66 43.23 16.6 43.55 16.6H45.26C45.48 16.6 45.64 16.65 45.74 16.75C45.84 16.83 45.9 16.98 45.92 17.2L46.01 18.28C47.19 16.86 48.74 16.15 50.66 16.15C51.54 16.15 52.21 16.3 52.67 16.6C52.79 16.68 52.86 16.77 52.88 16.87C52.92 16.95 52.92 17.05 52.88 17.17L52.34 18.97C52.28 19.17 52.17 19.27 52.01 19.27L51.77 19.21C51.29 18.99 50.74 18.88 50.12 18.88C49.1 18.88 48.26 19.17 47.6 19.75C46.94 20.31 46.61 21.08 46.61 22.06V29.92C46.61 30.28 46.52 30.55 46.34 30.73C46.18 30.91 45.89 31 45.47 31H43.91Z" fill="#333333"/>
    <path d="M43.04 30.73L42.545 31.225H42.545L43.04 30.73ZM42.92 16.78L42.3822 16.3319L42.3822 16.3319L42.92 16.78ZM45.74 16.75L45.245 17.245C45.2633 17.2632 45.2825 17.2805 45.3027 17.2966L45.74 16.75ZM45.92 17.2L46.6176 17.1419L46.6171 17.1366L45.92 17.2ZM46.01 18.28L45.3124 18.3381C45.336 18.6214 45.5286 18.8623 45.7997 18.9477C46.0709 19.0331 46.3667 18.946 46.5484 18.7274L46.01 18.28ZM52.67 16.6L53.0583 16.0175L53.0524 16.0137L52.67 16.6ZM52.88 16.87L52.1936 17.0073C52.2058 17.0683 52.2261 17.1274 52.2539 17.183L52.88 16.87ZM52.88 17.17L52.2159 16.9486C52.2137 16.9553 52.2116 16.9621 52.2095 16.9689L52.88 17.17ZM52.34 18.97L51.6695 18.7689L52.34 18.97ZM52.01 19.27L51.8402 19.9491C51.8958 19.963 51.9528 19.97 52.01 19.97V19.27ZM51.77 19.21L51.4783 19.8463C51.5176 19.8643 51.5584 19.8786 51.6002 19.8891L51.77 19.21ZM47.6 19.75L48.053 20.2838L48.0621 20.2758L47.6 19.75ZM46.34 30.73L45.845 30.235C45.8353 30.2447 45.8259 30.2547 45.8168 30.2649L46.34 30.73ZM43.91 30.3C43.5928 30.3 43.5255 30.2255 43.535 30.235L42.545 31.225C42.9145 31.5945 43.4272 31.7 43.91 31.7V30.3ZM43.535 30.235C43.5326 30.2326 43.47 30.1721 43.47 29.92H42.07C42.07 30.3879 42.1874 30.8674 42.545 31.225L43.535 30.235ZM43.47 29.92V17.41H42.07V29.92H43.47ZM43.47 17.41C43.47 17.2951 43.4799 17.2254 43.4885 17.1896C43.4975 17.1519 43.4982 17.1797 43.4578 17.2281L42.3822 16.3319C42.1167 16.6505 42.07 17.0765 42.07 17.41H43.47ZM43.4578 17.2281C43.3885 17.3112 43.323 17.3243 43.3448 17.3181C43.3531 17.3157 43.3735 17.3109 43.4094 17.3068C43.4449 17.3028 43.4913 17.3 43.55 17.3V15.9C43.3522 15.9 43.1494 15.9179 42.9602 15.9719C42.772 16.0257 42.5515 16.1288 42.3822 16.3319L43.4578 17.2281ZM43.55 17.3H45.26V15.9H43.55V17.3ZM45.26 17.3C45.2888 17.3 45.3092 17.3017 45.3224 17.3034C45.3356 17.3051 45.3395 17.3067 45.3362 17.3056C45.3327 17.3045 45.3209 17.3005 45.3039 17.2907C45.2866 17.2807 45.2659 17.2659 45.245 17.245L46.235 16.255C45.9466 15.9666 45.5652 15.9 45.26 15.9V17.3ZM45.3027 17.2966C45.2366 17.2437 45.2134 17.1909 45.2101 17.1825C45.2083 17.1781 45.2102 17.1817 45.2133 17.1961C45.2164 17.2103 45.22 17.2322 45.2229 17.2634L46.6171 17.1366C46.5916 16.8558 46.5034 16.4643 46.1773 16.2034L45.3027 17.2966ZM45.2224 17.2581L45.3124 18.3381L46.7076 18.2219L46.6176 17.1419L45.2224 17.2581ZM46.5484 18.7274C47.5894 17.4746 48.9385 16.85 50.66 16.85V15.45C48.5415 15.45 46.7906 16.2454 45.4716 17.8326L46.5484 18.7274ZM50.66 16.85C51.4788 16.85 51.9909 16.9928 52.2876 17.1863L53.0524 16.0137C52.4291 15.6072 51.6012 15.45 50.66 15.45V16.85ZM52.2817 17.1824C52.3119 17.2026 52.2228 17.1535 52.1936 17.0073L53.5664 16.7327C53.4972 16.3865 53.2681 16.1574 53.0583 16.0176L52.2817 17.1824ZM52.2539 17.183C52.1816 17.0384 52.2218 16.931 52.2159 16.9486L53.5441 17.3914C53.6182 17.169 53.6584 16.8616 53.5061 16.5569L52.2539 17.183ZM52.2095 16.9689L51.6695 18.7689L53.0105 19.1711L53.5505 17.3711L52.2095 16.9689ZM51.6695 18.7689C51.662 18.794 51.6719 18.7404 51.7416 18.677C51.7783 18.6437 51.8244 18.6145 51.8775 18.5948C51.9298 18.5755 51.9762 18.57 52.01 18.57V19.97C52.2497 19.97 52.4892 19.8895 52.6834 19.713C52.8631 19.5496 52.958 19.346 53.0105 19.1711L51.6695 18.7689ZM52.1798 18.5909L51.9398 18.5309L51.6002 19.8891L51.8402 19.9491L52.1798 18.5909ZM52.0617 18.5737C51.4756 18.305 50.8233 18.18 50.12 18.18V19.58C50.6567 19.58 51.1044 19.675 51.4783 19.8463L52.0617 18.5737ZM50.12 18.18C48.959 18.18 47.9459 18.5141 47.1379 19.2242L48.0621 20.2758C48.5741 19.8259 49.241 19.58 50.12 19.58V18.18ZM47.1471 19.2162C46.3086 19.9277 45.91 20.9049 45.91 22.06H47.31C47.31 21.2551 47.5714 20.6923 48.0529 20.2838L47.1471 19.2162ZM45.91 22.06V29.92H47.31V22.06H45.91ZM45.91 29.92C45.91 30.1721 45.8474 30.2326 45.845 30.235L46.835 31.225C47.1926 30.8674 47.31 30.3879 47.31 29.92H45.91ZM45.8168 30.2649C45.841 30.2377 45.8496 30.247 45.795 30.264C45.7374 30.2818 45.6345 30.3 45.47 30.3V31.7C45.9496 31.7 46.4993 31.6044 46.8632 31.1951L45.8168 30.2649ZM45.47 30.3H43.91V31.7H45.47V30.3Z" fill="#333333"/>
    <path d="M30.59 31.45C28.63 31.45 27.07 30.86 25.91 29.68C24.75 28.48 24.17 26.8 24.17 24.64C24.17 22.96 24.54 21.48 25.28 20.2C26.02 18.9 27.07 17.9 28.43 17.2C29.81 16.5 31.41 16.15 33.23 16.15C35.77 16.15 37.92 16.75 39.68 17.95V30.19C39.68 30.49 39.61 30.7 39.47 30.82C39.35 30.94 39.13 31 38.81 31H37.16C36.94 31 36.77 30.96 36.65 30.88C36.55 30.78 36.48 30.63 36.44 30.43L36.2 29.26C35.58 30.02 34.81 30.58 33.89 30.94C32.99 31.28 31.89 31.45 30.59 31.45ZM32.03 28.72C33.09 28.72 34.02 28.41 34.82 27.79C35.64 27.17 36.05 26.35 36.05 25.33V19.48C35.63 19.26 35.2 19.11 34.76 19.03C34.34 18.93 33.82 18.88 33.2 18.88C31.62 18.88 30.35 19.38 29.39 20.38C28.43 21.38 27.95 22.76 27.95 24.52C27.95 25.96 28.28 27.02 28.94 27.7C29.62 28.38 30.65 28.72 32.03 28.72Z" fill="#333333"/>
    <path d="M25.91 29.68L25.4067 30.1665L25.4108 30.1707L25.91 29.68ZM25.28 20.2L25.886 20.5504L25.8883 20.5463L25.28 20.2ZM28.43 17.2L28.1133 16.5757L28.1097 16.5776L28.43 17.2ZM39.68 17.95H40.38C40.38 17.7185 40.2656 17.502 40.0743 17.3716L39.68 17.95ZM39.47 30.82L39.0144 30.2885C39.0008 30.3002 38.9877 30.3124 38.975 30.325L39.47 30.82ZM36.65 30.88L36.155 31.375C36.1876 31.4076 36.2234 31.4369 36.2617 31.4624L36.65 30.88ZM36.44 30.43L37.1264 30.2927L37.1257 30.2893L36.44 30.43ZM36.2 29.26L36.8857 29.1193C36.8314 28.8546 36.6295 28.6447 36.3671 28.5802C36.1046 28.5157 35.8284 28.6081 35.6576 28.8175L36.2 29.26ZM33.89 30.94L34.1374 31.5949L34.1451 31.5919L33.89 30.94ZM34.82 27.79L34.3978 27.2316L34.3912 27.2367L34.82 27.79ZM36.05 19.48H36.75C36.75 19.2196 36.6055 18.9807 36.3748 18.8599L36.05 19.48ZM34.76 19.03L34.5979 19.711C34.6101 19.7139 34.6224 19.7165 34.6348 19.7187L34.76 19.03ZM29.39 20.38L29.895 20.8648H29.895L29.39 20.38ZM28.94 27.7L28.4376 28.1876L28.445 28.195L28.94 27.7ZM30.59 30.75C28.7804 30.75 27.4135 30.2109 26.4092 29.1893L25.4108 30.1707C26.7265 31.5091 28.4796 32.15 30.59 32.15V30.75ZM26.4133 29.1935C25.4134 28.1591 24.87 26.6739 24.87 24.64H23.47C23.47 26.9261 24.0866 28.8009 25.4067 30.1665L26.4133 29.1935ZM24.87 24.64C24.87 23.066 25.2156 21.71 25.886 20.5504L24.674 19.8496C23.8644 21.25 23.47 22.854 23.47 24.64H24.87ZM25.8883 20.5463C26.5596 19.3671 27.5082 18.4617 28.7504 17.8224L28.1097 16.5776C26.6318 17.3383 25.4804 18.4329 24.6717 19.8537L25.8883 20.5463ZM28.7467 17.8243C30.0126 17.1821 31.5007 16.85 33.23 16.85V15.45C31.3193 15.45 29.6074 15.8179 28.1133 16.5757L28.7467 17.8243ZM33.23 16.85C35.6569 16.85 37.6628 17.4218 39.2857 18.5284L40.0743 17.3716C38.1772 16.0782 35.8831 15.45 33.23 15.45V16.85ZM38.98 17.95V30.19H40.38V17.95H38.98ZM38.98 30.19C38.98 30.2896 38.9679 30.3378 38.9634 30.3511C38.9605 30.36 38.9704 30.3263 39.0144 30.2885L39.9256 31.3515C40.2957 31.0342 40.38 30.5689 40.38 30.19H38.98ZM38.975 30.325C39.0258 30.2743 39.0622 30.2711 39.0308 30.2797C38.9995 30.2882 38.9307 30.3 38.81 30.3V31.7C39.1688 31.7 39.6374 31.6426 39.965 31.315L38.975 30.325ZM38.81 30.3H37.16V31.7H38.81V30.3ZM37.16 30.3C37.0907 30.3 37.0488 30.2935 37.0278 30.2886C37.0075 30.2838 37.0159 30.2826 37.0383 30.2976L36.2617 31.4624C36.5424 31.6496 36.8695 31.7 37.16 31.7V30.3ZM37.145 30.385C37.1616 30.4016 37.1631 30.4099 37.1568 30.3965C37.1502 30.3822 37.1379 30.35 37.1264 30.2927L35.7536 30.5673C35.8093 30.8457 35.923 31.1429 36.155 31.375L37.145 30.385ZM37.1257 30.2893L36.8857 29.1193L35.5143 29.4007L35.7543 30.5707L37.1257 30.2893ZM35.6576 28.8175C35.1143 29.4834 34.4436 29.9717 33.6349 30.2881L34.1451 31.5919C35.1764 31.1883 36.0457 30.5566 36.7424 29.7025L35.6576 28.8175ZM33.6426 30.2852C32.8441 30.5868 31.8333 30.75 30.59 30.75V32.15C31.9467 32.15 33.1359 31.9732 34.1374 31.5948L33.6426 30.2852ZM32.03 29.42C33.2374 29.42 34.32 29.0631 35.2488 28.3433L34.3912 27.2367C33.72 27.7569 32.9426 28.02 32.03 28.02V29.42ZM35.2422 28.3484C36.2355 27.5973 36.75 26.5714 36.75 25.33H35.35C35.35 26.1286 35.0445 26.7427 34.3978 27.2316L35.2422 28.3484ZM36.75 25.33V19.48H35.35V25.33H36.75ZM36.3748 18.8599C35.8959 18.6091 35.3989 18.4347 34.8852 18.3413L34.6348 19.7187C35.0011 19.7853 35.3641 19.9109 35.7252 20.1001L36.3748 18.8599ZM34.9221 18.349C34.4315 18.2322 33.8531 18.18 33.2 18.18V19.58C33.7869 19.58 34.2485 19.6278 34.5979 19.711L34.9221 18.349ZM33.2 18.18C31.4586 18.18 29.9959 18.738 28.885 19.8952L29.895 20.8648C30.7041 20.022 31.7814 19.58 33.2 19.58V18.18ZM28.885 19.8952C27.7686 21.0582 27.25 22.6302 27.25 24.52H28.65C28.65 22.8898 29.0914 21.7018 29.895 20.8648L28.885 19.8952ZM27.25 24.52C27.25 26.0495 27.5985 27.3229 28.4377 28.1875L29.4423 27.2125C28.9615 26.7171 28.65 25.8705 28.65 24.52H27.25ZM28.445 28.195C29.3043 29.0543 30.5456 29.42 32.03 29.42V28.02C30.7544 28.02 29.9357 27.7057 29.435 27.205L28.445 28.195Z" fill="#333333"/>
    <path d="M2.88 31C2.48 31 2.19 30.91 2.01 30.73C1.85 30.55 1.77 30.28 1.77 29.92V11.71C1.77 11.33 1.85 11.05 2.01 10.87C2.19 10.69 2.49 10.6 2.91 10.6H4.53C4.85 10.6 5.09 10.64 5.25 10.72C5.43 10.8 5.57 10.96 5.67 11.2L11.73 25.15L17.79 11.2C17.89 10.96 18.02 10.8 18.18 10.72C18.36 10.64 18.61 10.6 18.93 10.6H20.55C20.97 10.6 21.26 10.69 21.42 10.87C21.6 11.05 21.69 11.33 21.69 11.71V29.92C21.69 30.28 21.6 30.55 21.42 30.73C21.26 30.91 20.98 31 20.58 31H19.26C18.86 31 18.57 30.91 18.39 30.73C18.21 30.55 18.12 30.28 18.12 29.92V16.99L12.99 28.42C12.83 28.74 12.67 28.97 12.51 29.11C12.35 29.25 12.09 29.32 11.73 29.32C11.37 29.32 11.1 29.25 10.92 29.11C10.76 28.97 10.61 28.74 10.47 28.42L5.34 16.99V29.92C5.34 30.28 5.25 30.55 5.07 30.73C4.91 30.91 4.62 31 4.2 31H2.88Z" fill="#333333"/>
    <path d="M2.01 30.73L1.48681 31.1951C1.49592 31.2053 1.50533 31.2153 1.51503 31.225L2.01 30.73ZM2.01 10.87L1.51503 10.375C1.50533 10.3847 1.49592 10.3947 1.48681 10.4049L2.01 10.87ZM5.25 10.72L4.93695 11.3461C4.94643 11.3508 4.95602 11.3554 4.9657 11.3597L5.25 10.72ZM5.67 11.2L5.02377 11.4693L5.02796 11.4789L5.67 11.2ZM11.73 25.15L11.088 25.4289C11.199 25.6846 11.4512 25.85 11.73 25.85C12.0088 25.85 12.261 25.6846 12.372 25.4289L11.73 25.15ZM17.79 11.2L18.4321 11.4789L18.4362 11.4692L17.79 11.2ZM18.18 10.72L17.8957 10.0803C17.886 10.0846 17.8764 10.0892 17.8669 10.0939L18.18 10.72ZM21.42 10.87L20.8968 11.3351C20.9059 11.3453 20.9153 11.3553 20.925 11.365L21.42 10.87ZM21.42 30.73L20.925 30.235C20.9153 30.2447 20.9059 30.2547 20.8968 30.2649L21.42 30.73ZM18.12 16.99H18.82C18.82 16.6599 18.5894 16.3746 18.2666 16.3055C17.9438 16.2364 17.6165 16.4022 17.4814 16.7034L18.12 16.99ZM12.99 28.42L13.6161 28.733C13.6205 28.7243 13.6246 28.7155 13.6286 28.7066L12.99 28.42ZM12.51 29.11L12.971 29.6368L12.971 29.6368L12.51 29.11ZM10.92 29.11L10.459 29.6368C10.4692 29.6457 10.4796 29.6543 10.4902 29.6625L10.92 29.11ZM10.47 28.42L11.1113 28.1394L11.1086 28.1334L10.47 28.42ZM5.34 16.99L5.97863 16.7034C5.84345 16.4022 5.51624 16.2364 5.19344 16.3055C4.87064 16.3746 4.64 16.6599 4.64 16.99H5.34ZM5.07 30.73L4.57503 30.235C4.56533 30.2447 4.55592 30.2547 4.54681 30.2649L5.07 30.73ZM2.88 30.3C2.5628 30.3 2.49549 30.2255 2.50497 30.235L1.51503 31.225C1.88451 31.5945 2.3972 31.7 2.88 31.7V30.3ZM2.53319 30.2649C2.53203 30.2636 2.47 30.1911 2.47 29.92H1.07C1.07 30.3689 1.16797 30.8364 1.48681 31.1951L2.53319 30.2649ZM2.47 29.92V11.71H1.07V29.92H2.47ZM2.47 11.71C2.47 11.4072 2.53712 11.3306 2.53319 11.3351L1.48681 10.4049C1.16288 10.7694 1.07 11.2528 1.07 11.71H2.47ZM2.50497 11.365C2.49626 11.3737 2.50686 11.3573 2.57114 11.338C2.63799 11.3179 2.7465 11.3 2.91 11.3V9.9C2.41894 9.9 1.88967 10.0004 1.51503 10.375L2.50497 11.365ZM2.91 11.3H4.53V9.9H2.91V11.3ZM4.53 11.3C4.66271 11.3 4.76265 11.3084 4.83492 11.3205C4.90908 11.3328 4.93725 11.3462 4.93695 11.3461L5.56305 10.0939C5.25677 9.94076 4.88575 9.9 4.53 9.9V11.3ZM4.9657 11.3597C4.95565 11.3552 4.95471 11.3513 4.9632 11.361C4.9736 11.3728 4.99673 11.4041 5.02385 11.4692L6.31615 10.9308C6.16997 10.5799 5.9247 10.2538 5.5343 10.0803L4.9657 11.3597ZM5.02796 11.4789L11.088 25.4289L12.372 24.8711L6.31204 10.9211L5.02796 11.4789ZM12.372 25.4289L18.432 11.4789L17.148 10.9211L11.088 24.8711L12.372 25.4289ZM18.4362 11.4692C18.4667 11.3959 18.4925 11.3577 18.5058 11.3414C18.5176 11.3269 18.5146 11.3353 18.4931 11.3461L17.8669 10.0939C17.5012 10.2768 17.2798 10.6046 17.1438 10.9308L18.4362 11.4692ZM18.4643 11.3597C18.516 11.3367 18.6541 11.3 18.93 11.3V9.9C18.5659 9.9 18.204 9.94333 17.8957 10.0803L18.4643 11.3597ZM18.93 11.3H20.55V9.9H18.93V11.3ZM20.55 11.3C20.7145 11.3 20.8174 11.3182 20.875 11.336C20.9296 11.353 20.921 11.3623 20.8968 11.3351L21.9432 10.4049C21.5793 9.99557 21.0296 9.9 20.55 9.9V11.3ZM20.925 11.365C20.926 11.3659 20.9294 11.3695 20.9344 11.3781C20.9397 11.3871 20.9477 11.4031 20.9561 11.4292C20.9734 11.4832 20.99 11.5726 20.99 11.71H22.39C22.39 11.2349 22.2788 10.7388 21.915 10.375L20.925 11.365ZM20.99 11.71V29.92H22.39V11.71H20.99ZM20.99 29.92C20.99 30.1721 20.9275 30.2326 20.925 30.235L21.915 31.225C22.2726 30.8674 22.39 30.3879 22.39 29.92H20.99ZM20.8968 30.2649C20.9166 30.2427 20.9229 30.2509 20.8758 30.2661C20.8249 30.2824 20.7316 30.3 20.58 30.3V31.7C21.0525 31.7 21.5843 31.5988 21.9432 31.1951L20.8968 30.2649ZM20.58 30.3H19.26V31.7H20.58V30.3ZM19.26 30.3C18.9428 30.3 18.8755 30.2255 18.885 30.235L17.895 31.225C18.2645 31.5945 18.7772 31.7 19.26 31.7V30.3ZM18.885 30.235C18.8826 30.2326 18.82 30.1721 18.82 29.92H17.42C17.42 30.3879 17.5375 30.8674 17.895 31.225L18.885 30.235ZM18.82 29.92V16.99H17.42V29.92H18.82ZM17.4814 16.7034L12.3514 28.1334L13.6286 28.7066L18.7586 17.2766L17.4814 16.7034ZM12.3639 28.107C12.2206 28.3936 12.1094 28.5304 12.049 28.5832L12.971 29.6368C13.2306 29.4096 13.4394 29.0864 13.6161 28.733L12.3639 28.107ZM12.049 28.5832C12.0679 28.5667 12.0666 28.5772 12.013 28.5916C11.9584 28.6063 11.8678 28.62 11.73 28.62V30.02C12.1512 30.02 12.6204 29.9435 12.971 29.6368L12.049 28.5832ZM11.73 28.62C11.4414 28.62 11.3538 28.5606 11.3498 28.5575L10.4902 29.6625C10.8462 29.9394 11.2986 30.02 11.73 30.02V28.62ZM11.381 28.5832C11.3328 28.541 11.2334 28.4184 11.1113 28.1394L9.82869 28.7006C9.98664 29.0616 10.1872 29.399 10.459 29.6368L11.381 28.5832ZM11.1086 28.1334L5.97863 16.7034L4.70137 17.2766L9.83137 28.7066L11.1086 28.1334ZM4.64 16.99V29.92H6.04V16.99H4.64ZM4.64 29.92C4.64 30.1721 4.57745 30.2326 4.57503 30.235L5.56498 31.225C5.92255 30.8674 6.04 30.3879 6.04 29.92H4.64ZM4.54681 30.2649C4.57102 30.2377 4.57964 30.247 4.52502 30.264C4.46741 30.2818 4.36451 30.3 4.2 30.3V31.7C4.67959 31.7 5.22929 31.6044 5.59319 31.1951L4.54681 30.2649ZM4.2 30.3H2.88V31.7H4.2V30.3Z" fill="#333333"/>
    <path d="M23.6 47.3C22.4667 47.3 21.6133 46.9867 21.04 46.36C20.4667 45.7333 20.18 44.8667 20.18 43.76V39.28H19.04C18.7733 39.28 18.5933 39.2333 18.5 39.14C18.42 39.0467 18.38 38.8733 18.38 38.62V38.08C18.38 37.8267 18.42 37.6533 18.5 37.56C18.5933 37.4533 18.7733 37.4 19.04 37.4H20.18V36.3C20.18 36.02 20.2267 35.76 20.32 35.52C20.4267 35.2667 20.5867 34.9533 20.8 34.58C20.88 34.42 20.9533 34.32 21.02 34.28C21.1 34.2267 21.2333 34.2 21.42 34.2H22.08C22.32 34.2 22.4867 34.26 22.58 34.38C22.6867 34.4867 22.74 34.6533 22.74 34.88V37.4H25.1C25.3667 37.4 25.54 37.4533 25.62 37.56C25.7133 37.6533 25.76 37.8267 25.76 38.08V38.62C25.76 38.8733 25.7133 39.0467 25.62 39.14C25.54 39.2333 25.3667 39.28 25.1 39.28H22.74V43.68C22.74 44.2933 22.8467 44.74 23.06 45.02C23.2733 45.2867 23.64 45.42 24.16 45.42C24.4667 45.42 24.7267 45.3867 24.94 45.32C25.1533 45.24 25.3867 45.1133 25.64 44.94C25.7067 44.8867 25.78 44.86 25.86 44.86C25.94 44.86 26.02 44.92 26.1 45.04L26.68 46C26.7333 46.0667 26.76 46.14 26.76 46.22C26.76 46.3133 26.6933 46.4067 26.56 46.5C25.7333 47.0333 24.7467 47.3 23.6 47.3Z" fill="#EA4335"/>
    <path d="M21.04 46.36L21.5565 45.8875L21.04 46.36ZM20.18 39.28H20.88C20.88 38.8934 20.5666 38.58 20.18 38.58V39.28ZM18.5 39.14L17.9685 39.5956C17.9802 39.6092 17.9924 39.6223 18.005 39.635L18.5 39.14ZM18.5 37.56L17.9732 37.099L17.9685 37.1044L18.5 37.56ZM20.18 37.4V38.1C20.5666 38.1 20.88 37.7866 20.88 37.4H20.18ZM20.32 35.52L19.6749 35.2484C19.6724 35.2543 19.6699 35.2603 19.6676 35.2663L20.32 35.52ZM20.8 34.58L21.4078 34.9273C21.4142 34.9161 21.4203 34.9046 21.4261 34.8931L20.8 34.58ZM21.02 34.28L21.3801 34.8802C21.3897 34.8745 21.3991 34.8686 21.4083 34.8624L21.02 34.28ZM22.58 34.38L22.0275 34.8098C22.0453 34.8327 22.0645 34.8544 22.085 34.875L22.58 34.38ZM22.74 37.4H22.04C22.04 37.7866 22.3534 38.1 22.74 38.1V37.4ZM25.62 37.56L25.06 37.98C25.0799 38.0065 25.1016 38.0316 25.125 38.055L25.62 37.56ZM25.62 39.14L25.125 38.645C25.1124 38.6577 25.1002 38.6708 25.0885 38.6844L25.62 39.14ZM22.74 39.28V38.58C22.3534 38.58 22.04 38.8934 22.04 39.28H22.74ZM23.06 45.02L22.5032 45.4442C22.5065 45.4486 22.5099 45.453 22.5134 45.4573L23.06 45.02ZM24.94 45.32L25.1488 45.9881C25.1612 45.9842 25.1736 45.98 25.1858 45.9754L24.94 45.32ZM25.64 44.94L26.0353 45.5177C26.0497 45.5079 26.0637 45.4975 26.0773 45.4866L25.64 44.94ZM26.1 45.04L26.6991 44.678C26.6938 44.6691 26.6882 44.6604 26.6824 44.6517L26.1 45.04ZM26.68 46L26.0809 46.362C26.0967 46.3882 26.1143 46.4134 26.1334 46.4373L26.68 46ZM26.56 46.5L26.9395 47.0882C26.9469 47.0834 26.9542 47.0785 26.9614 47.0735L26.56 46.5ZM23.6 46.6C22.5943 46.6 21.9569 46.3252 21.5565 45.8875L20.5235 46.8325C21.2697 47.6481 22.339 48 23.6 48V46.6ZM21.5565 45.8875C21.1334 45.4251 20.88 44.7462 20.88 43.76H19.48C19.48 44.9871 19.7999 46.0416 20.5235 46.8325L21.5565 45.8875ZM20.88 43.76V39.28H19.48V43.76H20.88ZM20.18 38.58H19.04V39.98H20.18V38.58ZM19.04 38.58C18.9933 38.58 18.9567 38.5779 18.929 38.575C18.901 38.5721 18.8858 38.5687 18.8807 38.5674C18.8753 38.566 18.8855 38.568 18.9054 38.5782C18.9258 38.5887 18.9591 38.6091 18.995 38.645L18.005 39.635C18.312 39.9419 18.7512 39.98 19.04 39.98V38.58ZM19.0315 38.6844C19.0623 38.7204 19.0785 38.7513 19.0858 38.7677C19.0932 38.784 19.0939 38.7905 19.0921 38.7826C19.0903 38.775 19.0871 38.758 19.0844 38.7297C19.0818 38.7015 19.08 38.6653 19.08 38.62H17.68C17.68 38.892 17.7116 39.2958 17.9685 39.5956L19.0315 38.6844ZM19.08 38.62V38.08H17.68V38.62H19.08ZM19.08 38.08C19.08 38.0347 19.0818 37.9985 19.0844 37.9703C19.0871 37.942 19.0903 37.925 19.0921 37.9174C19.0939 37.9095 19.0932 37.916 19.0858 37.9323C19.0785 37.9487 19.0623 37.9796 19.0315 38.0156L17.9685 37.1044C17.7116 37.4042 17.68 37.808 17.68 38.08H19.08ZM19.0268 38.021C18.995 38.0573 18.9632 38.0804 18.9399 38.0941C18.9284 38.1008 18.9193 38.1051 18.9132 38.1076C18.9102 38.1089 18.9078 38.1098 18.9063 38.1104C18.9047 38.1109 18.9039 38.1112 18.9039 38.1112C18.9038 38.1112 18.9045 38.111 18.906 38.1106C18.9075 38.1102 18.9098 38.1097 18.9128 38.1091C18.9188 38.1079 18.9275 38.1065 18.9392 38.1051C18.963 38.1022 18.9961 38.1 19.04 38.1V36.7C18.7338 36.7 18.2781 36.7506 17.9732 37.099L19.0268 38.021ZM19.04 38.1H20.18V36.7H19.04V38.1ZM20.88 37.4V36.3H19.48V37.4H20.88ZM20.88 36.3C20.88 36.0992 20.9132 35.926 20.9724 35.7737L19.6676 35.2663C19.5402 35.594 19.48 35.9408 19.48 36.3H20.88ZM20.9651 35.7916C21.0566 35.5744 21.2016 35.2882 21.4078 34.9273L20.1922 34.2327C19.9718 34.6185 19.7967 34.9589 19.6749 35.2484L20.9651 35.7916ZM21.4261 34.8931C21.4402 34.8649 21.4521 34.8432 21.4617 34.8268C21.4715 34.8103 21.4775 34.8016 21.4795 34.799C21.4818 34.7959 21.4768 34.8032 21.4637 34.8162C21.4569 34.823 21.4469 34.8324 21.4336 34.8431C21.4203 34.8538 21.4025 34.8668 21.3801 34.8802L20.6599 33.6798C20.5133 33.7677 20.4133 33.8855 20.3505 33.971C20.2828 34.0634 20.2245 34.1657 20.1739 34.2669L21.4261 34.8931ZM21.4083 34.8624C21.3764 34.8837 21.3503 34.895 21.3358 34.9004C21.3212 34.9059 21.314 34.9071 21.3173 34.9064C21.3203 34.9058 21.3301 34.9041 21.3481 34.9026C21.366 34.9011 21.3897 34.9 21.42 34.9V33.5C21.2042 33.5 20.8925 33.5237 20.6317 33.6976L21.4083 34.8624ZM21.42 34.9H22.08V33.5H21.42V34.9ZM22.08 34.9C22.146 34.9 22.1623 34.9088 22.1479 34.9036C22.1392 34.9005 22.1208 34.8927 22.0978 34.8768C22.0742 34.8604 22.0495 34.8381 22.0275 34.8098L23.1325 33.9502C22.8448 33.5803 22.41 33.5 22.08 33.5V34.9ZM22.085 34.875C22.0674 34.8573 22.0546 34.8397 22.0459 34.8249C22.0374 34.8104 22.034 34.8005 22.0333 34.7983C22.0327 34.7963 22.0345 34.8013 22.0363 34.8153C22.0382 34.8293 22.04 34.8505 22.04 34.88H23.44C23.44 34.5598 23.3662 34.1763 23.075 33.885L22.085 34.875ZM22.04 34.88V37.4H23.44V34.88H22.04ZM22.74 38.1H25.1V36.7H22.74V38.1ZM25.1 38.1C25.144 38.1 25.1762 38.1022 25.1983 38.1049C25.2207 38.1076 25.2281 38.1103 25.2241 38.109C25.2194 38.1076 25.1357 38.081 25.06 37.98L26.18 37.14C26.0243 36.9324 25.8139 36.8257 25.6359 36.771C25.4591 36.7166 25.2735 36.7 25.1 36.7V38.1ZM25.125 38.055C25.092 38.0219 25.0722 37.9909 25.0615 37.9704C25.051 37.9504 25.0483 37.9392 25.0491 37.942C25.0498 37.9447 25.0527 37.9568 25.0554 37.9811C25.058 38.0051 25.06 38.0377 25.06 38.08H26.46C26.46 37.7922 26.4175 37.3675 26.115 37.065L25.125 38.055ZM25.06 38.08V38.62H26.46V38.08H25.06ZM25.06 38.62C25.06 38.6623 25.058 38.6949 25.0554 38.7189C25.0527 38.7432 25.0498 38.7553 25.0491 38.758C25.0483 38.7608 25.051 38.7496 25.0615 38.7296C25.0722 38.7091 25.092 38.6781 25.125 38.645L26.115 39.635C26.4175 39.3325 26.46 38.9078 26.46 38.62H25.06ZM25.0885 38.6844C25.1316 38.6342 25.1751 38.6045 25.2039 38.5886C25.2183 38.5806 25.2297 38.5757 25.2369 38.5729C25.2406 38.5715 25.2434 38.5705 25.2452 38.5699C25.247 38.5693 25.248 38.5691 25.248 38.5691C25.248 38.5691 25.2472 38.5693 25.2455 38.5697C25.2438 38.57 25.2413 38.5705 25.238 38.5711C25.2312 38.5723 25.2215 38.5738 25.2087 38.5752C25.1826 38.5779 25.1468 38.58 25.1 38.58V39.98C25.2681 39.98 25.4448 39.9659 25.612 39.9209C25.7752 39.877 25.9866 39.788 26.1515 39.5956L25.0885 38.6844ZM25.1 38.58H22.74V39.98H25.1V38.58ZM22.04 39.28V43.68H23.44V39.28H22.04ZM22.04 43.68C22.04 44.3449 22.15 44.9806 22.5032 45.4442L23.6168 44.5958C23.5433 44.4994 23.44 44.2418 23.44 43.68H22.04ZM22.5134 45.4573C22.917 45.9619 23.5406 46.12 24.16 46.12V44.72C23.7394 44.72 23.6296 44.6115 23.6066 44.5827L22.5134 45.4573ZM24.16 46.12C24.5131 46.12 24.848 46.0821 25.1488 45.9881L24.7312 44.6519C24.6053 44.6912 24.4202 44.72 24.16 44.72V46.12ZM25.1858 45.9754C25.4665 45.8702 25.7504 45.7127 26.0353 45.5177L25.2447 44.3623C25.023 44.514 24.8402 44.6098 24.6942 44.6646L25.1858 45.9754ZM26.0773 45.4866C26.0567 45.5031 26.0256 45.5228 25.9842 45.5379C25.9423 45.5531 25.8995 45.56 25.86 45.56V44.16C25.61 44.16 25.3846 44.2479 25.2027 44.3934L26.0773 45.4866ZM25.86 45.56C25.7142 45.56 25.6104 45.5028 25.56 45.465C25.5152 45.4314 25.5038 45.4077 25.5176 45.4283L26.6824 44.6517C26.5742 44.4894 26.3116 44.16 25.86 44.16V45.56ZM25.5009 45.402L26.0809 46.362L27.2791 45.638L26.6991 44.678L25.5009 45.402ZM26.1334 46.4373C26.1169 46.4167 26.0972 46.3856 26.0821 46.3442C26.0669 46.3023 26.06 46.2595 26.06 46.22H27.46C27.46 45.97 27.3721 45.7446 27.2266 45.5627L26.1334 46.4373ZM26.06 46.22C26.06 46.0902 26.1086 45.9976 26.1404 45.9531C26.1682 45.9142 26.1852 45.9079 26.1586 45.9265L26.9614 47.0735C27.1452 46.9448 27.46 46.669 27.46 46.22H26.06ZM26.1805 45.9118C25.4847 46.3607 24.6348 46.6 23.6 46.6V48C24.8585 48 25.982 47.7059 26.9395 47.0882L26.1805 45.9118Z" fill="#EA4335"/>
    <path d="M33.2 47.3C31.4667 47.3 30.1267 46.8467 29.18 45.94C28.2467 45.02 27.78 43.7733 27.78 42.2C27.78 40.6267 28.2467 39.3867 29.18 38.48C30.1267 37.56 31.4667 37.1 33.2 37.1C34.9333 37.1 36.2733 37.56 37.22 38.48C38.1667 39.3867 38.64 40.6267 38.64 42.2C38.64 43.7733 38.1667 45.02 37.22 45.94C36.2733 46.8467 34.9333 47.3 33.2 47.3ZM33.2 45.42C34.1467 45.42 34.8667 45.1467 35.36 44.6C35.8533 44.0533 36.1 43.2533 36.1 42.2C36.1 41.16 35.8533 40.3733 35.36 39.84C34.8667 39.2933 34.1467 39.02 33.2 39.02C32.2667 39.02 31.5467 39.2933 31.04 39.84C30.5467 40.3733 30.3 41.16 30.3 42.2C30.3 43.24 30.5467 44.04 31.04 44.6C31.5467 45.1467 32.2667 45.42 33.2 45.42Z" fill="#333333"/>
    <path d="M29.18 45.94L28.6885 46.4386L28.6958 46.4455L29.18 45.94ZM29.18 38.48L29.6678 38.9821L29.6679 38.982L29.18 38.48ZM37.22 38.48L36.7321 38.982L36.7358 38.9855L37.22 38.48ZM37.22 45.94L37.7042 46.4456L37.7079 46.442L37.22 45.94ZM35.36 44.6L35.8797 45.069L35.36 44.6ZM35.36 39.84L34.8403 40.309L34.8461 40.3153L35.36 39.84ZM31.04 39.84L30.5266 39.3642L30.5261 39.3647L31.04 39.84ZM31.04 44.6L30.5147 45.0627C30.5186 45.0671 30.5226 45.0715 30.5266 45.0758L31.04 44.6ZM33.2 46.6C31.5872 46.6 30.4429 46.1803 29.6642 45.4345L28.6958 46.4455C29.8104 47.513 31.3461 48 33.2 48V46.6ZM29.6714 45.4415C28.8977 44.6789 28.48 43.6262 28.48 42.2H27.08C27.08 43.9204 27.5956 45.3611 28.6886 46.4385L29.6714 45.4415ZM28.48 42.2C28.48 40.7734 28.8978 39.7301 29.6678 38.9821L28.6923 37.9779C27.5955 39.0433 27.08 40.4799 27.08 42.2H28.48ZM29.6679 38.982C30.4469 38.2249 31.5899 37.8 33.2 37.8V36.4C31.3435 36.4 29.8064 36.8951 28.6921 37.978L29.6679 38.982ZM33.2 37.8C34.8101 37.8 35.9531 38.2249 36.7321 38.982L37.7079 37.978C36.5936 36.8951 35.0565 36.4 33.2 36.4V37.8ZM36.7358 38.9855C37.5175 39.7342 37.94 40.7764 37.94 42.2H39.34C39.34 40.477 38.8159 39.0392 37.7042 37.9745L36.7358 38.9855ZM37.94 42.2C37.94 43.6233 37.5175 44.6748 36.7321 45.438L37.7079 46.442C38.8158 45.3652 39.34 43.9234 39.34 42.2H37.94ZM36.7358 45.4345C35.9571 46.1803 34.8128 46.6 33.2 46.6V48C35.0539 48 36.5896 47.513 37.7042 46.4455L36.7358 45.4345ZM33.2 46.12C34.2846 46.12 35.218 45.8022 35.8797 45.069L34.8403 44.131C34.5153 44.4912 34.0087 44.72 33.2 44.72V46.12ZM35.8797 45.069C36.5306 44.3477 36.8 43.3526 36.8 42.2H35.4C35.4 43.154 35.1761 43.759 34.8403 44.131L35.8797 45.069ZM36.8 42.2C36.8 41.0594 36.5299 40.0739 35.8739 39.3647L34.8461 40.3153C35.1768 40.6728 35.4 41.2606 35.4 42.2H36.8ZM35.8797 39.371C35.218 38.6378 34.2846 38.32 33.2 38.32V39.72C34.0087 39.72 34.5153 39.9488 34.8403 40.309L35.8797 39.371ZM33.2 38.32C32.1243 38.32 31.1977 38.6401 30.5266 39.3642L31.5534 40.3158C31.8957 39.9465 32.409 39.72 33.2 39.72V38.32ZM30.5261 39.3647C29.8701 40.0739 29.6 41.0594 29.6 42.2H31C31 41.2606 31.2232 40.6728 31.5539 40.3153L30.5261 39.3647ZM29.6 42.2C29.6 43.3435 29.8713 44.3323 30.5147 45.0627L31.5653 44.1373C31.222 43.7477 31 43.1365 31 42.2H29.6ZM30.5266 45.0758C31.1977 45.7999 32.1243 46.12 33.2 46.12V44.72C32.409 44.72 31.8957 44.4935 31.5534 44.1242L30.5266 45.0758Z" fill="#333333"/>
    <path d="M46.2 47.3C44.4667 47.3 43.1267 46.8467 42.18 45.94C41.2467 45.02 40.78 43.7733 40.78 42.2C40.78 40.6267 41.2467 39.3867 42.18 38.48C43.1267 37.56 44.4667 37.1 46.2 37.1C47.9333 37.1 49.2733 37.56 50.22 38.48C51.1667 39.3867 51.64 40.6267 51.64 42.2C51.64 43.7733 51.1667 45.02 50.22 45.94C49.2733 46.8467 47.9333 47.3 46.2 47.3ZM46.2 45.42C47.1467 45.42 47.8667 45.1467 48.36 44.6C48.8533 44.0533 49.1 43.2533 49.1 42.2C49.1 41.16 48.8533 40.3733 48.36 39.84C47.8667 39.2933 47.1467 39.02 46.2 39.02C45.2667 39.02 44.5467 39.2933 44.04 39.84C43.5467 40.3733 43.3 41.16 43.3 42.2C43.3 43.24 43.5467 44.04 44.04 44.6C44.5467 45.1467 45.2667 45.42 46.2 45.42Z" fill="#333333"/>
    <path d="M42.18 45.94L41.6885 46.4386L41.6958 46.4455L42.18 45.94ZM42.18 38.48L42.6678 38.9821L42.6679 38.982L42.18 38.48ZM50.22 38.48L49.7321 38.982L49.7358 38.9855L50.22 38.48ZM50.22 45.94L50.7042 46.4456L50.7079 46.442L50.22 45.94ZM48.36 44.6L48.8797 45.069L48.36 44.6ZM48.36 39.84L47.8403 40.309L47.8461 40.3153L48.36 39.84ZM44.04 39.84L43.5266 39.3642L43.5261 39.3647L44.04 39.84ZM44.04 44.6L43.5147 45.0627C43.5186 45.0671 43.5226 45.0715 43.5266 45.0758L44.04 44.6ZM46.2 46.6C44.5872 46.6 43.4429 46.1803 42.6642 45.4345L41.6958 46.4455C42.8104 47.513 44.3461 48 46.2 48V46.6ZM42.6714 45.4415C41.8977 44.6789 41.48 43.6262 41.48 42.2H40.08C40.08 43.9204 40.5956 45.3611 41.6886 46.4385L42.6714 45.4415ZM41.48 42.2C41.48 40.7734 41.8978 39.7301 42.6678 38.9821L41.6923 37.9779C40.5955 39.0433 40.08 40.4799 40.08 42.2H41.48ZM42.6679 38.982C43.4469 38.2249 44.5899 37.8 46.2 37.8V36.4C44.3435 36.4 42.8064 36.8951 41.6921 37.978L42.6679 38.982ZM46.2 37.8C47.8101 37.8 48.9531 38.2249 49.7321 38.982L50.7079 37.978C49.5936 36.8951 48.0565 36.4 46.2 36.4V37.8ZM49.7358 38.9855C50.5175 39.7342 50.94 40.7764 50.94 42.2H52.34C52.34 40.477 51.8159 39.0392 50.7042 37.9745L49.7358 38.9855ZM50.94 42.2C50.94 43.6233 50.5175 44.6748 49.7321 45.438L50.7079 46.442C51.8158 45.3652 52.34 43.9234 52.34 42.2H50.94ZM49.7358 45.4345C48.9571 46.1803 47.8128 46.6 46.2 46.6V48C48.0539 48 49.5896 47.513 50.7042 46.4455L49.7358 45.4345ZM46.2 46.12C47.2846 46.12 48.218 45.8022 48.8797 45.069L47.8403 44.131C47.5153 44.4912 47.0087 44.72 46.2 44.72V46.12ZM48.8797 45.069C49.5306 44.3477 49.8 43.3526 49.8 42.2H48.4C48.4 43.154 48.1761 43.759 47.8403 44.131L48.8797 45.069ZM49.8 42.2C49.8 41.0594 49.5299 40.0739 48.8739 39.3647L47.8461 40.3153C48.1768 40.6728 48.4 41.2606 48.4 42.2H49.8ZM48.8797 39.371C48.218 38.6378 47.2846 38.32 46.2 38.32V39.72C47.0087 39.72 47.5153 39.9488 47.8403 40.309L48.8797 39.371ZM46.2 38.32C45.1243 38.32 44.1977 38.6401 43.5266 39.3642L44.5534 40.3158C44.8957 39.9465 45.409 39.72 46.2 39.72V38.32ZM43.5261 39.3647C42.8701 40.0739 42.6 41.0594 42.6 42.2H44C44 41.2606 44.2232 40.6728 44.5539 40.3153L43.5261 39.3647ZM42.6 42.2C42.6 43.3435 42.8713 44.3323 43.5147 45.0627L44.5653 44.1373C44.222 43.7477 44 43.1365 44 42.2H42.6ZM43.5266 45.0758C44.1977 45.7999 45.1243 46.12 46.2 46.12V44.72C45.409 44.72 44.8957 44.4935 44.5534 44.1242L43.5266 45.0758Z" fill="#333333"/>
    <mask id="mask0" mask-type="alpha" maskUnits="userSpaceOnUse" x="45" y="26" width="20" height="31">
        <path d="M53.4267 27.481L53.4267 27.481L53.4266 27.4764C53.4261 27.4584 53.4332 27.4374 53.4505 27.4201C54.3929 26.4763 55.9301 26.4751 56.8739 27.4175C56.8912 27.4348 56.8983 27.4558 56.8979 27.4738L56.8978 27.4738L56.8978 27.4783L56.5125 50.841L56.5041 51.3496L57.0128 51.3492L63.4391 51.3443C63.4393 51.3443 63.4395 51.3443 63.4398 51.3443C63.4648 51.3446 63.4857 51.3543 63.5011 51.3696C63.5164 51.385 63.5257 51.4053 63.5257 51.43L63.5289 55.5605C63.5289 55.6065 63.4909 55.6446 63.4449 55.6446L54.0247 55.651L54.0247 55.651C51.5517 55.6529 49.2296 54.6929 47.4806 52.9466L46.0338 51.502C46.0094 51.4776 46.0027 51.4405 46.0149 51.4108L46.0154 51.4097C46.028 51.3789 46.058 51.3584 46.0924 51.3584L46.092 50.8584L46.0924 51.3584L53.3473 51.3528L53.856 51.3524L53.8469 50.8438L53.4267 27.481Z" fill="black" stroke="#333333"/>
    </mask>
    <g mask="url(#mask0)">
        <rect x="45.0591" y="51.4092" width="18.9227" height="31.4666" fill="#333333" stroke="#333333"/>
    </g>
    <rect x="54.5001" y="9.4" width="4.3" height="46.2" fill="#333333" stroke="#333333" stroke-width="1.2" stroke-linecap="round" stroke-linejoin="round"/>
</svg>
