<svg width="92" height="38" viewBox="0 0 92 38" fill="none" xmlns="http://www.w3.org/2000/svg">
<path d="M65.5229 25.4578L64.9769 25.3852C64.7714 25.3583 64.6048 25.2064 64.5601 25.0051C64.5207 24.8391 64.4765 24.6759 64.427 24.5135C64.3651 24.3158 64.4344 24.1006 64.6003 23.9756L65.0416 23.6398C65.6971 23.1368 65.8217 22.2017 65.3202 21.5463L64.105 19.9645C63.6001 19.3113 62.6599 19.1864 62.0004 19.6847L61.5593 20.0196C61.3942 20.1455 61.1677 20.1555 60.9921 20.0447C60.8476 19.9546 60.7009 19.8693 60.5501 19.7849C60.3655 19.6895 60.2612 19.4889 60.2895 19.2839L60.3624 18.7407C60.4723 17.9226 59.8947 17.1708 59.0723 17.0615L57.0869 16.7976C56.2645 16.6882 55.5087 17.2628 55.3988 18.0809L55.3258 18.6241C55.2988 18.8284 55.1461 18.9941 54.9438 19.0387C54.7768 19.0778 54.6128 19.1218 54.4496 19.171C54.2508 19.2322 54.0349 19.1634 53.9089 18.9986L53.5712 18.5597C53.0664 17.907 52.1266 17.782 51.4672 18.28L49.8764 19.4934C49.2199 19.9956 49.0942 20.9309 49.5952 21.587L49.9318 22.0258C50.059 22.1897 50.0691 22.4154 49.9571 22.59C49.8665 22.7338 49.7808 22.8797 49.6984 23.0301C49.6014 23.2136 49.3988 23.3165 49.1925 23.287L48.6465 23.2144C47.8241 23.1051 47.0683 23.6797 46.9585 24.4978L46.6931 26.4729C46.5832 27.291 47.1608 28.0428 47.9832 28.1521L48.5292 28.2247C48.7347 28.2516 48.9013 28.4035 48.946 28.6048C48.9854 28.7708 49.0296 28.934 49.079 29.0964C49.141 29.2941 49.0717 29.5092 48.9058 29.6342L48.4645 29.9701C47.8084 30.4723 47.6828 31.4073 48.1834 32.0632L49.3987 33.6451C49.9035 34.2982 50.8437 34.4232 51.5032 33.9248L51.9443 33.5899C52.1094 33.4641 52.3359 33.454 52.5115 33.5648C52.656 33.6549 52.8027 33.7402 52.9536 33.8246C53.1392 33.9194 53.2446 34.1203 53.2166 34.326L53.1437 34.8691C53.0338 35.6873 53.6114 36.4391 54.4338 36.5484L56.4192 36.8123C57.2416 36.9216 57.9974 36.3471 58.1073 35.529L58.1803 34.9858C58.2073 34.7815 58.36 34.6157 58.5623 34.5712C58.7293 34.5321 58.8933 34.488 59.0565 34.4389C59.2553 34.3777 59.4712 34.4465 59.5972 34.6113L59.9348 35.0502C60.4406 35.7021 61.3804 35.8259 62.0393 35.3274L63.6294 34.1185C64.286 33.6163 64.4116 32.6809 63.9107 32.0249L63.574 31.5861C63.4469 31.4221 63.4368 31.1964 63.5487 31.0218C63.6393 30.8781 63.7251 30.7322 63.8099 30.5821C63.9059 30.3986 64.1075 30.2947 64.3136 30.3229L64.8596 30.3955C65.682 30.5048 66.4377 29.9302 66.5476 29.1121L66.813 27.137C66.9229 26.3189 66.3453 25.5671 65.5229 25.4578ZM65.5549 28.9801C65.5183 29.2528 65.2663 29.4444 64.9922 29.4079L64.4462 29.3354C63.8289 29.2556 63.2257 29.5616 62.9281 30.1056C62.857 30.2368 62.7818 30.3654 62.7025 30.4912C62.3721 31.0177 62.4019 31.6924 62.7778 32.1879L63.114 32.6261C63.2821 32.8446 63.2402 33.1573 63.0206 33.3245C63.0204 33.3246 63.0203 33.3247 63.0201 33.3248L61.43 34.5337C61.2102 34.7007 60.896 34.659 60.7281 34.4404L60.3909 34.0021C60.0092 33.5109 59.3624 33.305 58.7649 33.4844C58.6222 33.5272 58.4776 33.5658 58.3326 33.5998C57.7273 33.7426 57.2724 34.2408 57.1875 34.8538L57.1146 35.397C57.0779 35.6697 56.826 35.8612 56.5519 35.8248L54.5664 35.5609C54.2923 35.5244 54.0998 35.2738 54.1364 35.0011L54.2094 34.458C54.2895 33.8438 53.9819 33.2438 53.4351 32.9478C53.3032 32.877 53.1739 32.8022 53.0474 32.7234C52.5181 32.3947 51.84 32.4245 51.3418 32.7982L50.9013 33.1327C50.6817 33.2999 50.3674 33.2583 50.1993 33.0397C50.1992 33.0396 50.1991 33.0394 50.199 33.0393L48.9835 31.4589C48.8156 31.2403 48.8576 30.9278 49.0773 30.7607L49.5179 30.4253C50.0114 30.0453 50.2183 29.4021 50.0383 28.8078C49.9953 28.6658 49.9565 28.522 49.9223 28.3777C49.7793 27.775 49.2785 27.3219 48.6619 27.2372L48.1159 27.1646C47.8418 27.1281 47.6492 26.8775 47.6859 26.6048L47.9512 24.6297C47.9878 24.3571 48.2397 24.1655 48.5139 24.2019L49.0599 24.2745C49.6772 24.3543 50.2804 24.0483 50.578 23.5043C50.6491 23.3731 50.7243 23.2445 50.8036 23.1187C51.134 22.5922 51.1041 21.9175 50.7283 21.422L50.3901 20.9835C50.2221 20.765 50.2639 20.4523 50.4836 20.2851C50.4837 20.285 50.4838 20.2849 50.484 20.2848L52.0741 19.0759C52.2939 18.9089 52.6081 18.9507 52.776 19.1692L53.1132 19.6075C53.4949 20.0987 54.1417 20.3046 54.7392 20.1252C54.8819 20.0824 55.0265 20.0438 55.1715 20.0098C55.7776 19.8678 56.2333 19.3695 56.3186 18.756L56.3915 18.2129C56.4282 17.9402 56.6801 17.7487 56.9542 17.7851L58.9397 18.049C59.2138 18.0855 59.4063 18.3361 59.3697 18.6088L59.2967 19.1519C59.2166 19.766 59.5242 20.3661 60.071 20.6621C60.2029 20.7329 60.3321 20.8077 60.4587 20.8865C60.9878 21.2157 61.6663 21.1859 62.1643 20.8117L62.6048 20.4772C62.8251 20.3116 63.1383 20.3533 63.3071 20.5706L64.5224 22.1524C64.6903 22.371 64.6483 22.6836 64.4286 22.8506L63.988 23.1861C63.4946 23.566 63.2876 24.2092 63.4676 24.8036C63.5106 24.9455 63.5494 25.0894 63.5836 25.2337C63.7271 25.8358 64.2279 26.2883 64.8442 26.3727L65.3902 26.4453C65.6643 26.4817 65.8569 26.7324 65.8202 27.0051L65.5549 28.9801Z" fill="#B52828"/>
<path d="M61.2371 27.1999C61.2481 27.0807 61.2555 26.9616 61.2569 26.8422C61.258 26.7137 61.256 26.5857 61.2462 26.4593C61.2396 26.3765 61.2275 26.294 61.2164 26.2111C61.2022 26.1057 61.1844 26.0013 61.163 25.8979C61.1478 25.826 61.1317 25.7545 61.115 25.6834C61.0723 25.5168 61.0199 25.3527 60.9581 25.1922C60.9532 25.18 60.9509 25.1671 60.946 25.1549C60.8476 24.9091 60.7272 24.6725 60.5862 24.4482C60.5742 24.4285 60.5601 24.4095 60.5475 24.3902C60.4898 24.3006 60.4298 24.2133 60.3659 24.1289C60.3325 24.0837 60.2969 24.0408 60.2613 23.9969C60.2179 23.9443 60.1743 23.8923 60.1305 23.8423C60.0773 23.7822 60.0227 23.7237 59.9667 23.6667L59.8934 23.5956C59.2022 22.9213 58.3099 22.488 57.3502 22.361C57.3006 22.3544 57.2499 22.3552 57.2 22.3505C57.0939 22.3395 56.9869 22.3313 56.8787 22.3279C56.8218 22.3264 56.7644 22.3253 56.7072 22.3257C56.5426 22.3254 56.378 22.3339 56.2143 22.3512C53.7417 22.6479 51.979 24.8824 52.2772 27.3421C52.4738 28.9629 53.54 30.3495 55.061 30.9625C55.069 30.9636 55.0771 30.9672 55.0853 30.9703C55.251 31.0356 55.4202 31.0917 55.5922 31.1382C55.7059 31.1679 55.8212 31.1862 55.9366 31.2071C56.0135 31.2213 56.0834 31.2422 56.1644 31.2529C56.3058 31.2717 56.454 31.2819 56.6059 31.287C56.6218 31.2891 56.6383 31.2868 56.6564 31.2872C56.7788 31.2899 56.9033 31.2883 57.0312 31.2802C57.0821 31.2774 57.1299 31.2712 57.179 31.2667C57.2691 31.2581 57.3588 31.2484 57.4517 31.2341C57.524 31.2226 57.5947 31.2074 57.6659 31.1927C57.7371 31.178 57.811 31.1617 57.8851 31.1444C57.9591 31.1271 58.0223 31.1044 58.0903 31.0833C58.1788 31.0563 58.2668 31.0298 58.3546 30.9963L58.3576 30.9967C58.854 30.8115 59.3231 30.561 59.7526 30.2518C59.8683 30.1699 59.9725 30.0728 60.0621 29.9632C60.5325 29.3969 60.8799 28.7398 61.0822 28.0332C61.1089 27.9398 61.1342 27.8461 61.1547 27.7498C61.1736 27.6614 61.1905 27.5732 61.2045 27.4845C61.2082 27.4564 61.2158 27.4303 61.2196 27.4021C61.2294 27.3326 61.2311 27.2675 61.2371 27.1999ZM60.2044 27.3918C60.1989 27.4328 60.19 27.4733 60.182 27.5135C60.157 27.6318 60.1256 27.7492 60.0891 27.8665C59.7657 28.8685 59.0056 29.6721 58.0199 30.0541C57.9541 30.0781 57.8895 30.1001 57.8252 30.1197L57.7813 30.134C57.4754 30.2259 57.1587 30.2771 56.8394 30.2862C56.817 30.2868 56.7942 30.2878 56.7714 30.2877C56.7082 30.2884 56.6462 30.2877 56.5849 30.2851C56.504 30.2813 56.4231 30.2746 56.341 30.2652C56.3062 30.2606 56.272 30.256 56.2372 30.2514C56.12 30.2344 56.0037 30.2116 55.8887 30.183L55.8301 30.1681C55.696 30.1322 55.564 30.0889 55.4348 30.0382C53.6394 29.3177 52.771 27.2858 53.4952 25.4998C53.9737 24.3196 55.0605 23.4924 56.3308 23.3417L56.3309 23.3412C56.6256 23.3076 56.9234 23.31 57.2176 23.3485C57.3593 23.3682 57.4998 23.3966 57.6381 23.4336C57.6752 23.443 57.7115 23.4549 57.748 23.4653C57.853 23.4963 57.9563 23.5316 58.0575 23.5722C58.0906 23.5857 58.1237 23.5981 58.1562 23.612C58.41 23.7229 58.6498 23.8631 58.8706 24.0296C58.9058 24.0569 58.94 24.0851 58.9746 24.1133C59.0464 24.1731 59.1157 24.2326 59.1831 24.2988C59.2193 24.3333 59.2562 24.3673 59.2907 24.4036C59.3777 24.4939 59.4599 24.5887 59.537 24.6876C59.5675 24.7279 59.5945 24.7712 59.6238 24.8128C59.6726 24.8821 59.7197 24.9527 59.7638 25.0264C59.7944 25.0772 59.8233 25.1293 59.8516 25.1818C59.8917 25.2595 59.9314 25.3401 59.9659 25.4211C59.9853 25.4654 60.0047 25.5087 60.0244 25.554C60.0727 25.6798 60.1135 25.8082 60.1465 25.9387C60.1597 25.9907 60.17 26.0423 60.1812 26.0941C60.2013 26.1892 60.2167 26.2847 60.2286 26.3808C60.2344 26.4318 60.2424 26.4776 60.2463 26.5269C60.2574 26.6642 60.2603 26.802 60.2551 26.9397C60.2532 26.9761 60.2483 27.0127 60.2459 27.049C60.2376 27.1635 60.2243 27.2779 60.2044 27.3918Z" fill="#B52828"/>
<path d="M76.3787 19.8645L74.8176 19.657C74.6092 19.6314 74.4405 19.4763 74.3985 19.2716C74.3062 18.7925 74.1801 18.3204 74.0209 17.8589C73.9538 17.6598 74.0224 17.4403 74.1911 17.3141L75.4461 16.3586C76.1048 15.8575 76.2307 14.9202 75.7274 14.2646L73.8985 11.8879C73.3947 11.2327 72.4524 11.1074 71.7934 11.6081L70.5392 12.5612C70.3727 12.6899 70.1421 12.6984 69.9665 12.582C69.5607 12.307 69.1359 12.061 68.6953 11.8456C68.5069 11.7522 68.3997 11.5492 68.4295 11.3419L68.6381 9.78898C68.748 8.97086 68.1704 8.21904 67.348 8.10972L64.3698 7.71384C63.5474 7.60451 62.7916 8.17909 62.6817 8.99721L62.4731 10.5501C62.4474 10.7575 62.2915 10.9253 62.0857 10.967C61.6039 11.0597 61.1292 11.186 60.6652 11.3451C60.4651 11.4122 60.2443 11.344 60.1176 11.1758L59.1571 9.92738C58.6524 9.27371 57.7116 9.14865 57.052 9.64756L54.664 11.4631C54.005 11.9643 53.879 12.902 54.3826 13.5577L55.7923 15.3961C55.9637 15.612 56.2786 15.6488 56.4957 15.4783C56.7074 15.3119 56.7486 15.0085 56.5888 14.7923L55.1781 12.9543C55.0102 12.7357 55.0522 12.4231 55.2718 12.2561L57.6599 10.4405C57.8796 10.2735 58.1938 10.3153 58.3618 10.5338L59.3227 11.7823C59.7111 12.2909 60.3835 12.4945 60.9908 12.2875C61.4103 12.144 61.8394 12.0299 62.275 11.9461C62.9039 11.8235 63.3836 11.3144 63.4658 10.6821L63.6744 9.12917C63.7111 8.85648 63.963 8.66494 64.2371 8.70138L67.2153 9.09726C67.4894 9.1337 67.682 9.38433 67.6454 9.65702L67.4368 11.2099C67.3493 11.8414 67.6778 12.4577 68.2523 12.7402C68.6506 12.9348 69.0347 13.1572 69.4017 13.4056C69.9334 13.7625 70.635 13.7414 71.1442 13.3533L72.4009 12.4C72.6206 12.233 72.9348 12.2748 73.1027 12.4933L74.9277 14.8694C75.0953 15.0879 75.0534 15.4001 74.834 15.5671L73.579 16.5231C73.0681 16.9097 72.8635 17.5783 73.0711 18.1824C73.2154 18.5997 73.3301 19.0266 73.4143 19.4599C73.5375 20.0857 74.0493 20.5628 74.685 20.6446L76.2461 20.8521C76.5202 20.8885 76.7127 21.1391 76.6761 21.4118L76.2781 24.3744C76.2415 24.6471 75.9896 24.8387 75.7154 24.8022L74.1544 24.5947C73.5196 24.5078 72.9 24.8345 72.6161 25.406C72.4205 25.8023 72.1969 26.1844 71.9472 26.5494C71.5879 27.0782 71.6091 27.7765 71.9998 28.2828L72.9585 29.533C73.1264 29.7516 73.0844 30.0641 72.8647 30.2312L70.4757 32.0466C70.2561 32.2133 69.9422 32.1716 69.7743 31.9534L68.3608 30.1175C68.1963 29.8962 67.8828 29.8495 67.6604 30.0131C67.438 30.1766 67.391 30.4886 67.5554 30.7098C67.5589 30.7144 67.5624 30.719 67.566 30.7235L68.979 32.5593C69.4828 33.2146 70.4251 33.3398 71.0841 32.8392L73.4721 31.0241C74.1311 30.5229 74.2571 29.5853 73.7535 28.9295L72.796 27.681C72.6667 27.5153 72.6583 27.2859 72.7751 27.1113C73.0515 26.7076 73.2989 26.285 73.5153 25.8467C73.6093 25.6592 73.8133 25.5527 74.0217 25.5823L75.5828 25.7898C76.4052 25.8991 77.161 25.3245 77.2709 24.5064L77.6688 21.5438C77.7787 20.7257 77.2011 19.9738 76.3787 19.8645Z" fill="#B52828"/>
<path d="M69.2403 17.3113C67.0551 14.4732 62.9728 13.9305 60.1152 16.0983C59.8984 16.2692 59.8619 16.5825 60.0336 16.7982C60.2011 17.0085 60.5061 17.0491 60.7232 16.8898C63.128 15.036 66.5881 15.4726 68.4516 17.8648C70.3151 20.2569 69.8763 23.699 67.4715 25.5527C67.4521 25.5677 67.4325 25.5826 67.4129 25.5973C67.1902 25.7606 67.1428 26.0724 67.3069 26.2939C67.4711 26.5154 67.7845 26.5626 68.0072 26.3993C68.0118 26.3959 68.0164 26.3924 68.0209 26.3888C70.874 24.2151 71.4195 20.154 69.2403 17.3113Z" fill="#B52828"/>
<mask id="path-5-outside-1" maskUnits="userSpaceOnUse" x="0" y="0" width="92" height="20" fill="black">
<rect fill="white" width="92" height="20"/>
<path d="M2.74665 14.5567H10.7487V2.45467L6.17901 12.1929L1.60929 2.43447V15.1629L1 15.1427V1H1.60929L6.17901 10.7584L10.7487 1.0202L11.358 1V15.1629L2.74665 15.1427V14.5567Z"/>
<path d="M16.1716 14.5567H22.7926L18.6291 4.79831L14.2015 15.1629H13.5516L18.6291 3.24262L23.7066 15.1629H16.1716V14.5567Z"/>
<path d="M30.7761 9.28356L33.5382 15.1629H32.868L30.0247 9.10172C30.0517 9.08825 30.1668 9.03438 30.3699 8.94009C30.5866 8.83234 30.7355 8.75826 30.8167 8.71785C30.898 8.66397 31.0334 8.57642 31.2229 8.4552C31.4125 8.33398 31.5547 8.21949 31.6494 8.11174C31.7442 7.99051 31.8458 7.85582 31.9541 7.70766C32.0759 7.54603 32.164 7.37093 32.2181 7.18236C32.2723 6.98032 32.2994 6.76482 32.2994 6.53584C32.2994 5.68728 31.8932 5.06096 31.0808 4.65689C30.2684 4.25281 29.2596 4.05077 28.0546 4.05077H26.4298V15.1629H25.8205V3.44466H28.0546C29.6523 3.44466 30.8574 3.72078 31.6697 4.27301C32.4957 4.82525 32.9086 5.57953 32.9086 6.53584C32.9086 7.15542 32.6988 7.70766 32.279 8.19255C31.8593 8.66397 31.3583 9.02764 30.7761 9.28356Z"/>
<path d="M36.0897 15.1629V3.44466H36.699V15.1629H36.0897ZM43.6043 15.1629L37.3489 8.9805L42.9544 3.44466H43.8277L38.2222 8.9805L44.4776 15.1629H43.6043Z"/>
<path d="M54.2192 13.9708C53.4745 14.9002 52.2559 15.3649 50.5634 15.3649C48.871 15.3649 47.6591 14.8867 46.928 13.9304C46.1968 12.9741 45.8313 11.4319 45.8313 9.30376C45.8313 7.17563 46.1968 5.6334 46.928 4.67709C47.6591 3.72078 48.871 3.24262 50.5634 3.24262C52.5267 3.24262 53.8604 3.88241 54.5645 5.16198L49.5886 9.30376H48.634L53.7724 5.04076C53.1766 4.24608 52.107 3.84874 50.5634 3.84874C49.8864 3.84874 49.3178 3.92282 48.8574 4.07098C48.3971 4.20567 47.9706 4.46832 47.5779 4.85892C47.1988 5.23606 46.9144 5.79503 46.7249 6.53584C46.5353 7.26318 46.4405 8.18582 46.4405 9.30376C46.4405 10.4217 46.5353 11.3511 46.7249 12.0919C46.9144 12.8192 47.1988 13.3782 47.5779 13.7688C47.9706 14.1459 48.3971 14.4086 48.8574 14.5567C49.3178 14.6914 49.8864 14.7588 50.5634 14.7588C52.107 14.7588 53.1766 14.3614 53.7724 13.5668L54.2192 13.9708Z"/>
<path d="M64.8789 3.44466V4.05077H60.6138V15.1629H60.0045V4.05077H55.7394V3.44466H64.8789Z"/>
<path d="M67.0161 3.44466H67.6254V15.1629H67.0161V3.44466Z"/>
<path d="M71.2757 15.1629V3.44466H71.885L78.506 14.0517V3.44466H79.1153V15.1629H78.506L71.885 4.53566V15.1629H71.2757Z"/>
<path d="M87.5067 7.28338L90.2079 5.04076C89.6122 4.24608 88.5425 3.84874 86.999 3.84874C86.322 3.84874 85.7533 3.92282 85.2929 4.07098C84.8326 4.20567 84.4061 4.46832 84.0134 4.85892C83.6343 5.23606 83.35 5.79503 83.1604 6.53584C82.9708 7.26318 82.8761 8.18582 82.8761 9.30376C82.8761 10.4217 82.9708 11.3511 83.1604 12.0919C83.35 12.8192 83.6343 13.3782 84.0134 13.7688C84.4061 14.1459 84.8326 14.4086 85.2929 14.5567C85.7533 14.6914 86.322 14.7588 86.999 14.7588C88.529 14.7588 89.5918 14.3682 90.1876 13.587V10.0109H90.7969V15.3447C90.7969 17.9173 89.6122 19.2036 87.2427 19.2036H84.8664V18.5975H87.2427C88.2582 18.5975 89.0029 18.3281 89.4768 17.7894C89.9507 17.2641 90.1876 16.2539 90.1876 14.7588V14.4557C89.4564 15.0618 88.3936 15.3649 86.999 15.3649C85.3065 15.3649 84.0947 14.8867 83.3635 13.9304C82.6323 12.9741 82.2668 11.4319 82.2668 9.30376C82.2668 7.17563 82.6323 5.6334 83.3635 4.67709C84.0947 3.72078 85.3065 3.24262 86.999 3.24262C88.9622 3.24262 90.2959 3.88241 91 5.16198L88.4613 7.28338H87.5067Z"/>
</mask>
<path d="M2.74665 14.5567H10.7487V2.45467L6.17901 12.1929L1.60929 2.43447V15.1629L1 15.1427V1H1.60929L6.17901 10.7584L10.7487 1.0202L11.358 1V15.1629L2.74665 15.1427V14.5567Z" fill="#333333"/>
<path d="M16.1716 14.5567H22.7926L18.6291 4.79831L14.2015 15.1629H13.5516L18.6291 3.24262L23.7066 15.1629H16.1716V14.5567Z" fill="#333333"/>
<path d="M30.7761 9.28356L33.5382 15.1629H32.868L30.0247 9.10172C30.0517 9.08825 30.1668 9.03438 30.3699 8.94009C30.5866 8.83234 30.7355 8.75826 30.8167 8.71785C30.898 8.66397 31.0334 8.57642 31.2229 8.4552C31.4125 8.33398 31.5547 8.21949 31.6494 8.11174C31.7442 7.99051 31.8458 7.85582 31.9541 7.70766C32.0759 7.54603 32.164 7.37093 32.2181 7.18236C32.2723 6.98032 32.2994 6.76482 32.2994 6.53584C32.2994 5.68728 31.8932 5.06096 31.0808 4.65689C30.2684 4.25281 29.2596 4.05077 28.0546 4.05077H26.4298V15.1629H25.8205V3.44466H28.0546C29.6523 3.44466 30.8574 3.72078 31.6697 4.27301C32.4957 4.82525 32.9086 5.57953 32.9086 6.53584C32.9086 7.15542 32.6988 7.70766 32.279 8.19255C31.8593 8.66397 31.3583 9.02764 30.7761 9.28356Z" fill="#333333"/>
<path d="M36.0897 15.1629V3.44466H36.699V15.1629H36.0897ZM43.6043 15.1629L37.3489 8.9805L42.9544 3.44466H43.8277L38.2222 8.9805L44.4776 15.1629H43.6043Z" fill="#333333"/>
<path d="M54.2192 13.9708C53.4745 14.9002 52.2559 15.3649 50.5634 15.3649C48.871 15.3649 47.6591 14.8867 46.928 13.9304C46.1968 12.9741 45.8313 11.4319 45.8313 9.30376C45.8313 7.17563 46.1968 5.6334 46.928 4.67709C47.6591 3.72078 48.871 3.24262 50.5634 3.24262C52.5267 3.24262 53.8604 3.88241 54.5645 5.16198L49.5886 9.30376H48.634L53.7724 5.04076C53.1766 4.24608 52.107 3.84874 50.5634 3.84874C49.8864 3.84874 49.3178 3.92282 48.8574 4.07098C48.3971 4.20567 47.9706 4.46832 47.5779 4.85892C47.1988 5.23606 46.9144 5.79503 46.7249 6.53584C46.5353 7.26318 46.4405 8.18582 46.4405 9.30376C46.4405 10.4217 46.5353 11.3511 46.7249 12.0919C46.9144 12.8192 47.1988 13.3782 47.5779 13.7688C47.9706 14.1459 48.3971 14.4086 48.8574 14.5567C49.3178 14.6914 49.8864 14.7588 50.5634 14.7588C52.107 14.7588 53.1766 14.3614 53.7724 13.5668L54.2192 13.9708Z" fill="#333333"/>
<path d="M64.8789 3.44466V4.05077H60.6138V15.1629H60.0045V4.05077H55.7394V3.44466H64.8789Z" fill="#333333"/>
<path d="M67.0161 3.44466H67.6254V15.1629H67.0161V3.44466Z" fill="#333333"/>
<path d="M71.2757 15.1629V3.44466H71.885L78.506 14.0517V3.44466H79.1153V15.1629H78.506L71.885 4.53566V15.1629H71.2757Z" fill="#333333"/>
<path d="M87.5067 7.28338L90.2079 5.04076C89.6122 4.24608 88.5425 3.84874 86.999 3.84874C86.322 3.84874 85.7533 3.92282 85.2929 4.07098C84.8326 4.20567 84.4061 4.46832 84.0134 4.85892C83.6343 5.23606 83.35 5.79503 83.1604 6.53584C82.9708 7.26318 82.8761 8.18582 82.8761 9.30376C82.8761 10.4217 82.9708 11.3511 83.1604 12.0919C83.35 12.8192 83.6343 13.3782 84.0134 13.7688C84.4061 14.1459 84.8326 14.4086 85.2929 14.5567C85.7533 14.6914 86.322 14.7588 86.999 14.7588C88.529 14.7588 89.5918 14.3682 90.1876 13.587V10.0109H90.7969V15.3447C90.7969 17.9173 89.6122 19.2036 87.2427 19.2036H84.8664V18.5975H87.2427C88.2582 18.5975 89.0029 18.3281 89.4768 17.7894C89.9507 17.2641 90.1876 16.2539 90.1876 14.7588V14.4557C89.4564 15.0618 88.3936 15.3649 86.999 15.3649C85.3065 15.3649 84.0947 14.8867 83.3635 13.9304C82.6323 12.9741 82.2668 11.4319 82.2668 9.30376C82.2668 7.17563 82.6323 5.6334 83.3635 4.67709C84.0947 3.72078 85.3065 3.24262 86.999 3.24262C88.9622 3.24262 90.2959 3.88241 91 5.16198L88.4613 7.28338H87.5067Z" fill="#333333"/>
<path d="M2.74665 14.5567H10.7487V2.45467L6.17901 12.1929L1.60929 2.43447V15.1629L1 15.1427V1H1.60929L6.17901 10.7584L10.7487 1.0202L11.358 1V15.1629L2.74665 15.1427V14.5567Z" stroke="#333333" stroke-width="0.8" stroke-linecap="round" stroke-linejoin="round" mask="url(#path-5-outside-1)"/>
<path d="M16.1716 14.5567H22.7926L18.6291 4.79831L14.2015 15.1629H13.5516L18.6291 3.24262L23.7066 15.1629H16.1716V14.5567Z" stroke="#333333" stroke-width="0.8" stroke-linecap="round" stroke-linejoin="round" mask="url(#path-5-outside-1)"/>
<path d="M30.7761 9.28356L33.5382 15.1629H32.868L30.0247 9.10172C30.0517 9.08825 30.1668 9.03438 30.3699 8.94009C30.5866 8.83234 30.7355 8.75826 30.8167 8.71785C30.898 8.66397 31.0334 8.57642 31.2229 8.4552C31.4125 8.33398 31.5547 8.21949 31.6494 8.11174C31.7442 7.99051 31.8458 7.85582 31.9541 7.70766C32.0759 7.54603 32.164 7.37093 32.2181 7.18236C32.2723 6.98032 32.2994 6.76482 32.2994 6.53584C32.2994 5.68728 31.8932 5.06096 31.0808 4.65689C30.2684 4.25281 29.2596 4.05077 28.0546 4.05077H26.4298V15.1629H25.8205V3.44466H28.0546C29.6523 3.44466 30.8574 3.72078 31.6697 4.27301C32.4957 4.82525 32.9086 5.57953 32.9086 6.53584C32.9086 7.15542 32.6988 7.70766 32.279 8.19255C31.8593 8.66397 31.3583 9.02764 30.7761 9.28356Z" stroke="#333333" stroke-width="0.8" stroke-linecap="round" stroke-linejoin="round" mask="url(#path-5-outside-1)"/>
<path d="M36.0897 15.1629V3.44466H36.699V15.1629H36.0897ZM43.6043 15.1629L37.3489 8.9805L42.9544 3.44466H43.8277L38.2222 8.9805L44.4776 15.1629H43.6043Z" stroke="#333333" stroke-width="0.8" stroke-linecap="round" stroke-linejoin="round" mask="url(#path-5-outside-1)"/>
<path d="M54.2192 13.9708C53.4745 14.9002 52.2559 15.3649 50.5634 15.3649C48.871 15.3649 47.6591 14.8867 46.928 13.9304C46.1968 12.9741 45.8313 11.4319 45.8313 9.30376C45.8313 7.17563 46.1968 5.6334 46.928 4.67709C47.6591 3.72078 48.871 3.24262 50.5634 3.24262C52.5267 3.24262 53.8604 3.88241 54.5645 5.16198L49.5886 9.30376H48.634L53.7724 5.04076C53.1766 4.24608 52.107 3.84874 50.5634 3.84874C49.8864 3.84874 49.3178 3.92282 48.8574 4.07098C48.3971 4.20567 47.9706 4.46832 47.5779 4.85892C47.1988 5.23606 46.9144 5.79503 46.7249 6.53584C46.5353 7.26318 46.4405 8.18582 46.4405 9.30376C46.4405 10.4217 46.5353 11.3511 46.7249 12.0919C46.9144 12.8192 47.1988 13.3782 47.5779 13.7688C47.9706 14.1459 48.3971 14.4086 48.8574 14.5567C49.3178 14.6914 49.8864 14.7588 50.5634 14.7588C52.107 14.7588 53.1766 14.3614 53.7724 13.5668L54.2192 13.9708Z" stroke="#333333" stroke-width="0.8" stroke-linecap="round" stroke-linejoin="round" mask="url(#path-5-outside-1)"/>
<path d="M64.8789 3.44466V4.05077H60.6138V15.1629H60.0045V4.05077H55.7394V3.44466H64.8789Z" stroke="#333333" stroke-width="0.8" stroke-linecap="round" stroke-linejoin="round" mask="url(#path-5-outside-1)"/>
<path d="M67.0161 3.44466H67.6254V15.1629H67.0161V3.44466Z" stroke="#333333" stroke-width="0.8" stroke-linecap="round" stroke-linejoin="round" mask="url(#path-5-outside-1)"/>
<path d="M71.2757 15.1629V3.44466H71.885L78.506 14.0517V3.44466H79.1153V15.1629H78.506L71.885 4.53566V15.1629H71.2757Z" stroke="#333333" stroke-width="0.8" stroke-linecap="round" stroke-linejoin="round" mask="url(#path-5-outside-1)"/>
<path d="M87.5067 7.28338L90.2079 5.04076C89.6122 4.24608 88.5425 3.84874 86.999 3.84874C86.322 3.84874 85.7533 3.92282 85.2929 4.07098C84.8326 4.20567 84.4061 4.46832 84.0134 4.85892C83.6343 5.23606 83.35 5.79503 83.1604 6.53584C82.9708 7.26318 82.8761 8.18582 82.8761 9.30376C82.8761 10.4217 82.9708 11.3511 83.1604 12.0919C83.35 12.8192 83.6343 13.3782 84.0134 13.7688C84.4061 14.1459 84.8326 14.4086 85.2929 14.5567C85.7533 14.6914 86.322 14.7588 86.999 14.7588C88.529 14.7588 89.5918 14.3682 90.1876 13.587V10.0109H90.7969V15.3447C90.7969 17.9173 89.6122 19.2036 87.2427 19.2036H84.8664V18.5975H87.2427C88.2582 18.5975 89.0029 18.3281 89.4768 17.7894C89.9507 17.2641 90.1876 16.2539 90.1876 14.7588V14.4557C89.4564 15.0618 88.3936 15.3649 86.999 15.3649C85.3065 15.3649 84.0947 14.8867 83.3635 13.9304C82.6323 12.9741 82.2668 11.4319 82.2668 9.30376C82.2668 7.17563 82.6323 5.6334 83.3635 4.67709C84.0947 3.72078 85.3065 3.24262 86.999 3.24262C88.9622 3.24262 90.2959 3.88241 91 5.16198L88.4613 7.28338H87.5067Z" stroke="#333333" stroke-width="0.8" stroke-linecap="round" stroke-linejoin="round" mask="url(#path-5-outside-1)"/>
<path d="M10.3599 21.6281C10.3599 21.5176 10.2704 21.4281 10.1599 21.4281H1.02051C0.910051 21.4281 0.820508 21.5176 0.820508 21.6281V22.2342C0.820508 22.3446 0.910051 22.4342 1.02051 22.4342H5.08557V33.3463C5.08557 33.4567 5.17512 33.5463 5.28557 33.5463H5.89487C6.00532 33.5463 6.09487 33.4567 6.09487 33.3463V22.4342H10.1599C10.2704 22.4342 10.3599 22.3446 10.3599 22.2342V21.6281ZM18.1664 22.4448L18.1664 22.4448L18.1715 22.4463C18.5944 22.5701 18.985 22.8124 19.3434 23.1816L19.3433 23.1817L19.3484 23.1866C19.7054 23.5295 19.9826 24.0502 20.1665 24.7688L20.1667 24.7697C20.3504 25.4747 20.4446 26.3788 20.4446 27.4872C20.4446 28.5952 20.3505 29.5065 20.1665 30.2255C19.9829 30.9298 19.7056 31.4526 19.3459 31.8104C18.9874 32.167 18.5952 32.4113 18.169 32.5489C17.733 32.6761 17.1855 32.7422 16.5217 32.7422C15.8578 32.7422 15.3103 32.6761 14.8744 32.549C14.4483 32.4114 14.0493 32.1671 13.6772 31.8104C13.3308 31.4524 13.0603 30.9295 12.8768 30.2253C12.6928 29.5063 12.5988 28.5951 12.5988 27.4872C12.5988 26.3788 12.6929 25.4747 12.8766 24.7697L12.8769 24.7688C13.0611 24.0487 13.3323 23.5272 13.6772 23.1841C14.0499 22.8134 14.4481 22.5703 14.8718 22.4463L14.8718 22.4464L14.8769 22.4448C15.3113 22.305 15.8578 22.2321 16.5217 22.2321C17.1855 22.2321 17.732 22.305 18.1664 22.4448ZM30.2801 22.4448L30.2801 22.4448L30.2852 22.4463C30.7081 22.5701 31.0988 22.8124 31.4571 23.1816L31.457 23.1817L31.4621 23.1866C31.8191 23.5295 32.0963 24.0502 32.2802 24.7688L32.2804 24.7697C32.4641 25.4747 32.5583 26.3788 32.5583 27.4872C32.5583 28.5952 32.4642 29.5065 32.2802 30.2255C32.0966 30.9298 31.8193 31.4526 31.4596 31.8104C31.1011 32.167 30.7089 32.4113 30.2827 32.5489C29.8468 32.6761 29.2992 32.7422 28.6354 32.7422C27.9716 32.7422 27.424 32.6761 26.9881 32.549C26.562 32.4114 26.163 32.1671 25.7909 31.8104C25.4446 31.4524 25.1741 30.9296 24.9905 30.2255C24.8066 29.5065 24.7125 28.5952 24.7125 27.4872C24.7125 26.3788 24.8066 25.4747 24.9904 24.7697L24.9906 24.7688C25.1748 24.0487 25.446 23.5272 25.7909 23.1841C26.1636 22.8134 26.5618 22.5703 26.9855 22.4463L26.9855 22.4464L26.9906 22.4448C27.425 22.305 27.9715 22.2321 28.6354 22.2321C29.2992 22.2321 29.8457 22.305 30.2801 22.4448ZM43.5081 32.7402C43.5081 32.6297 43.4186 32.5402 43.3081 32.5402H37.3339V21.6281C37.3339 21.5176 37.2444 21.4281 37.1339 21.4281H36.5246C36.4142 21.4281 36.3246 21.5176 36.3246 21.6281V33.3463C36.3246 33.4567 36.4142 33.5463 36.5246 33.5463H43.3081C43.4186 33.5463 43.5081 33.4567 43.5081 33.3463V32.7402ZM16.5217 33.7483C18.2497 33.7483 19.5333 33.2591 20.316 32.2353C21.0876 31.2261 21.4539 29.6292 21.4539 27.4872C21.4539 25.3451 21.0876 23.7482 20.316 22.739C19.5333 21.7152 18.2497 21.226 16.5217 21.226C14.7937 21.226 13.5101 21.7152 12.7273 22.739C11.9557 23.7482 11.5895 25.3451 11.5895 27.4872C11.5895 29.6292 11.9557 31.2261 12.7273 32.2353C13.5101 33.2591 14.7937 33.7483 16.5217 33.7483ZM28.6354 33.7483C30.3634 33.7483 31.647 33.2591 32.4297 32.2353C33.2013 31.2261 33.5676 29.6292 33.5676 27.4872C33.5676 25.3451 33.2013 23.7482 32.4297 22.739C31.647 21.7152 30.3634 21.226 28.6354 21.226C26.9074 21.226 25.6238 21.7152 24.841 22.739C24.0694 23.7482 23.7032 25.3451 23.7032 27.4872C23.7032 29.6292 24.0694 31.2261 24.841 32.2353C25.6238 33.2591 26.9074 33.7483 28.6354 33.7483Z" fill="#333333" stroke="#333333" stroke-width="0.4" stroke-linecap="round" stroke-linejoin="round"/>
</svg>
