<svg width="141" height="54" viewBox="0 0 141 54" fill="none" xmlns="http://www.w3.org/2000/svg">
<path d="M69.6406 29H66.2275L59.6064 21.6904L58.0684 23.1699V29H55.4902V5.94336H58.0684V20.5918L65.8174 12.4473H69.04L61.5107 20.0645L69.6406 29Z" fill="#333333"/>
<path d="M69.6406 29V29.7C69.9177 29.7 70.1688 29.5365 70.2808 29.2831C70.3929 29.0296 70.3449 28.7339 70.1584 28.5289L69.6406 29ZM66.2275 29L65.7087 29.4699C65.8414 29.6164 66.0299 29.7 66.2275 29.7V29ZM59.6064 21.6904L60.1252 21.2205C59.9982 21.0802 59.8197 20.9974 59.6305 20.9908C59.4413 20.9843 59.2576 21.0547 59.1212 21.1859L59.6064 21.6904ZM58.0684 23.1699L57.5831 22.6654C57.4459 22.7974 57.3684 22.9796 57.3684 23.1699H58.0684ZM58.0684 29V29.7C58.455 29.7 58.7684 29.3866 58.7684 29H58.0684ZM55.4902 29H54.7902C54.7902 29.3866 55.1036 29.7 55.4902 29.7V29ZM55.4902 5.94336V5.24336C55.1036 5.24336 54.7902 5.55676 54.7902 5.94336H55.4902ZM58.0684 5.94336H58.7684C58.7684 5.55676 58.455 5.24336 58.0684 5.24336V5.94336ZM58.0684 20.5918H57.3684C57.3684 20.8781 57.5427 21.1355 57.8085 21.2418C58.0744 21.3481 58.3782 21.2817 58.5755 21.0743L58.0684 20.5918ZM65.8174 12.4473V11.7473C65.6257 11.7473 65.4424 11.8259 65.3102 11.9648L65.8174 12.4473ZM69.04 12.4473L69.5379 12.9394C69.7364 12.7385 69.7948 12.4381 69.686 12.1775C69.5772 11.9169 69.3224 11.7473 69.04 11.7473V12.4473ZM61.5107 20.0645L61.0129 19.5724C60.7513 19.8371 60.7425 20.2602 60.993 20.5355L61.5107 20.0645ZM69.6406 28.3H66.2275V29.7H69.6406V28.3ZM66.7463 28.5301L60.1252 21.2205L59.0876 22.1604L65.7087 29.4699L66.7463 28.5301ZM59.1212 21.1859L57.5831 22.6654L58.5536 23.6744L60.0917 22.1949L59.1212 21.1859ZM57.3684 23.1699V29H58.7684V23.1699H57.3684ZM58.0684 28.3H55.4902V29.7H58.0684V28.3ZM56.1902 29V5.94336H54.7902V29H56.1902ZM55.4902 6.64336H58.0684V5.24336H55.4902V6.64336ZM57.3684 5.94336V20.5918H58.7684V5.94336H57.3684ZM58.5755 21.0743L66.3245 12.9298L65.3102 11.9648L57.5612 20.1093L58.5755 21.0743ZM65.8174 13.1473H69.04V11.7473H65.8174V13.1473ZM68.5422 11.9552L61.0129 19.5724L62.0086 20.5565L69.5379 12.9394L68.5422 11.9552ZM60.993 20.5355L69.1229 29.4711L70.1584 28.5289L62.0285 19.5934L60.993 20.5355Z" fill="#333333"/>
<path d="M72.9111 19.0098H82.623C82.5449 15.7188 81.0361 14.0732 78.0967 14.0732C76.6123 14.0732 75.4111 14.5127 74.4932 15.3916C73.5752 16.2705 73.0479 17.4766 72.9111 19.0098ZM78.9609 29.3809C76.207 29.3809 74.0684 28.6387 72.5449 27.1543C71.0312 25.6602 70.2744 23.5508 70.2744 20.8262C70.2744 18.1211 71.002 15.9727 72.457 14.3809C73.9121 12.7793 75.8408 11.9785 78.2432 11.9785C80.4307 11.9785 82.125 12.6328 83.3262 13.9414C84.5371 15.25 85.1426 17.1152 85.1426 19.5371V20.958H72.9111C72.9111 22.9502 73.4482 24.4834 74.5225 25.5576C75.6064 26.6221 77.1006 27.1543 79.0049 27.1543C80.8994 27.1543 82.7939 26.4951 84.6885 25.1768H84.8057V27.9746C82.4521 28.9121 80.5039 29.3809 78.9609 29.3809Z" fill="#333333"/>
<path d="M72.9111 19.0098L72.2139 18.9476C72.1964 19.1433 72.262 19.3373 72.3946 19.4822C72.5273 19.6272 72.7147 19.7098 72.9111 19.7098V19.0098ZM82.623 19.0098V19.7098C82.8116 19.7098 82.9921 19.6337 83.1239 19.4988C83.2556 19.3639 83.3273 19.1816 83.3228 18.9932L82.623 19.0098ZM72.5449 27.1543L72.0532 27.6525L72.0564 27.6557L72.5449 27.1543ZM72.457 14.3809L72.9737 14.8532L72.9751 14.8516L72.457 14.3809ZM83.3262 13.9414L82.8105 14.4148L82.8124 14.4168L83.3262 13.9414ZM85.1426 20.958V21.658C85.5292 21.658 85.8426 21.3446 85.8426 20.958H85.1426ZM72.9111 20.958V20.258C72.5245 20.258 72.2111 20.5714 72.2111 20.958H72.9111ZM74.5225 25.5576L74.0275 26.0526L74.032 26.0571L74.5225 25.5576ZM84.6885 25.1768V24.4768C84.5455 24.4768 84.406 24.5205 84.2886 24.6022L84.6885 25.1768ZM84.8057 25.1768H85.5057C85.5057 24.7902 85.1923 24.4768 84.8057 24.4768V25.1768ZM84.8057 27.9746L85.0647 28.6249C85.331 28.5189 85.5057 28.2612 85.5057 27.9746H84.8057ZM72.9111 19.7098H82.623V18.3098H72.9111V19.7098ZM83.3228 18.9932C83.2816 17.2567 82.8615 15.8297 81.9488 14.8343C81.0233 13.8249 79.6972 13.3732 78.0967 13.3732V14.7732C79.4356 14.7732 80.3336 15.1443 80.9169 15.7804C81.513 16.4306 81.8863 17.4718 81.9232 19.0264L83.3228 18.9932ZM78.0967 13.3732C76.4644 13.3732 75.079 13.8615 74.0091 14.886L74.9773 15.8972C75.7432 15.1639 76.7602 14.7732 78.0967 14.7732V13.3732ZM74.0091 14.886C72.9442 15.9056 72.3623 17.2829 72.2139 18.9476L73.6084 19.0719C73.7334 17.6702 74.2062 16.6354 74.9773 15.8972L74.0091 14.886ZM78.9609 28.6809C76.3336 28.6809 74.3909 27.9756 73.0334 26.6529L72.0564 27.6557C73.7458 29.3017 76.0804 30.0809 78.9609 30.0809V28.6809ZM73.0367 26.6561C71.691 25.3278 70.9744 23.4188 70.9744 20.8262H69.5744C69.5744 23.6828 70.3715 25.9925 72.0532 27.6525L73.0367 26.6561ZM70.9744 20.8262C70.9744 18.2496 71.6644 16.2854 72.9737 14.8531L71.9404 13.9086C70.3395 15.6599 69.5744 17.9926 69.5744 20.8262H70.9744ZM72.9751 14.8516C74.2821 13.413 76.0139 12.6785 78.2432 12.6785V11.2785C75.6677 11.2785 73.5421 12.1456 71.9389 13.9101L72.9751 14.8516ZM78.2432 12.6785C80.2835 12.6785 81.7717 13.283 82.8105 14.4148L83.8419 13.4681C82.4783 11.9826 80.5779 11.2785 78.2432 11.2785V12.6785ZM82.8124 14.4168C83.8662 15.5557 84.4426 17.2274 84.4426 19.5371H85.8426C85.8426 17.003 85.208 14.9443 83.8399 13.466L82.8124 14.4168ZM84.4426 19.5371V20.958H85.8426V19.5371H84.4426ZM85.1426 20.258H72.9111V21.658H85.1426V20.258ZM72.2111 20.958C72.2111 23.0758 72.7849 24.81 74.0275 26.0526L75.0174 25.0626C74.1116 24.1568 73.6111 22.8246 73.6111 20.958H72.2111ZM74.032 26.0571C75.2781 27.2807 76.9661 27.8543 79.0049 27.8543V26.4543C77.2351 26.4543 75.9348 25.9635 75.0129 25.0582L74.032 26.0571ZM79.0049 27.8543C81.0711 27.8543 83.1024 27.1333 85.0883 25.7513L84.2886 24.6022C82.4855 25.857 80.7278 26.4543 79.0049 26.4543V27.8543ZM84.6885 25.8768H84.8057V24.4768H84.6885V25.8768ZM84.1057 25.1768V27.9746H85.5057V25.1768H84.1057ZM84.5466 27.3243C82.2294 28.2473 80.3763 28.6809 78.9609 28.6809V30.0809C80.6315 30.0809 82.6749 29.5769 85.0647 28.6249L84.5466 27.3243Z" fill="#333333"/>
<path d="M93.7197 29.3223C90.3018 29.3223 88.5928 27.4424 88.5928 23.6826V14.5566H86.7031V12.4473H88.6074V7.68652H91.1709V12.4473H96.9717V14.5566H91.1709V22.2178C91.1709 23.9561 91.2881 25.084 91.5225 25.6016C91.7666 26.1094 92.1328 26.4854 92.6211 26.7295C93.1094 26.9639 93.7344 27.0811 94.4961 27.0811C95.2188 27.0811 96.0146 26.9053 96.8838 26.5537H96.9717V28.8975C95.8096 29.1807 94.7256 29.3223 93.7197 29.3223Z" fill="#333333"/>
<path d="M88.5928 14.5566H89.2928C89.2928 14.17 88.9794 13.8566 88.5928 13.8566V14.5566ZM86.7031 14.5566H86.0031C86.0031 14.9432 86.3165 15.2566 86.7031 15.2566V14.5566ZM86.7031 12.4473V11.7473C86.3165 11.7473 86.0031 12.0607 86.0031 12.4473H86.7031ZM88.6074 12.4473V13.1473C88.994 13.1473 89.3074 12.8339 89.3074 12.4473H88.6074ZM88.6074 7.68652V6.98652C88.2208 6.98652 87.9074 7.29992 87.9074 7.68652H88.6074ZM91.1709 7.68652H91.8709C91.8709 7.29992 91.5575 6.98652 91.1709 6.98652V7.68652ZM91.1709 12.4473H90.4709C90.4709 12.8339 90.7843 13.1473 91.1709 13.1473V12.4473ZM96.9717 12.4473H97.6717C97.6717 12.0607 97.3583 11.7473 96.9717 11.7473V12.4473ZM96.9717 14.5566V15.2566C97.3583 15.2566 97.6717 14.9432 97.6717 14.5566H96.9717ZM91.1709 14.5566V13.8566C90.7843 13.8566 90.4709 14.17 90.4709 14.5566H91.1709ZM91.5225 25.6016L90.8848 25.8903C90.887 25.8952 90.8893 25.9 90.8916 25.9049L91.5225 25.6016ZM92.6211 26.7295L92.308 27.3557L92.3182 27.3606L92.6211 26.7295ZM96.8838 26.5537V25.8537C96.7938 25.8537 96.7047 25.8711 96.6213 25.9048L96.8838 26.5537ZM96.9717 26.5537H97.6717C97.6717 26.1671 97.3583 25.8537 96.9717 25.8537V26.5537ZM96.9717 28.8975L97.1374 29.5776C97.451 29.5011 97.6717 29.2202 97.6717 28.8975H96.9717ZM93.7197 28.6223C92.1367 28.6223 91.073 28.19 90.3925 27.4415C89.7005 26.6803 89.2928 25.4702 89.2928 23.6826H87.8928C87.8928 25.6548 88.3396 27.2645 89.3566 28.3832C90.3851 29.5146 91.8847 30.0223 93.7197 30.0223V28.6223ZM89.2928 23.6826V14.5566H87.8928V23.6826H89.2928ZM88.5928 13.8566H86.7031V15.2566H88.5928V13.8566ZM87.4031 14.5566V12.4473H86.0031V14.5566H87.4031ZM86.7031 13.1473H88.6074V11.7473H86.7031V13.1473ZM89.3074 12.4473V7.68652H87.9074V12.4473H89.3074ZM88.6074 8.38652H91.1709V6.98652H88.6074V8.38652ZM90.4709 7.68652V12.4473H91.8709V7.68652H90.4709ZM91.1709 13.1473H96.9717V11.7473H91.1709V13.1473ZM96.2717 12.4473V14.5566H97.6717V12.4473H96.2717ZM96.9717 13.8566H91.1709V15.2566H96.9717V13.8566ZM90.4709 14.5566V22.2178H91.8709V14.5566H90.4709ZM90.4709 22.2178C90.4709 23.0998 90.5005 23.8427 90.5625 24.4398C90.6228 25.0195 90.7191 25.5243 90.8848 25.8903L92.1601 25.3128C92.0915 25.1612 92.012 24.8433 91.955 24.2951C91.8999 23.7642 91.8709 23.074 91.8709 22.2178H90.4709ZM90.8916 25.9049C91.2006 26.5477 91.6762 27.0397 92.308 27.3556L92.9341 26.1034C92.5894 25.931 92.3326 25.6711 92.1533 25.2983L90.8916 25.9049ZM92.3182 27.3606C92.9313 27.6549 93.6694 27.7811 94.4961 27.7811V26.3811C93.7994 26.3811 93.2874 26.2729 92.924 26.0984L92.3182 27.3606ZM94.4961 27.7811C95.3311 27.7811 96.2174 27.5784 97.1463 27.2026L96.6213 25.9048C95.8119 26.2322 95.1064 26.3811 94.4961 26.3811V27.7811ZM96.8838 27.2537H96.9717V25.8537H96.8838V27.2537ZM96.2717 26.5537V28.8975H97.6717V26.5537H96.2717ZM96.8059 28.2174C95.6882 28.4898 94.6604 28.6223 93.7197 28.6223V30.0223C94.7908 30.0223 95.9309 29.8716 97.1374 29.5776L96.8059 28.2174Z" fill="#333333"/>
<path d="M102.259 9.13672H99.3438V6.45605H102.259V9.13672ZM102.098 29H99.5195V12.4473H102.098V29Z" fill="#333333"/>
<path d="M102.259 9.13672V9.83672C102.645 9.83672 102.959 9.52332 102.959 9.13672H102.259ZM99.3438 9.13672H98.6437C98.6437 9.52332 98.9572 9.83672 99.3438 9.83672V9.13672ZM99.3438 6.45605V5.75605C98.9572 5.75605 98.6437 6.06946 98.6437 6.45605H99.3438ZM102.259 6.45605H102.959C102.959 6.06946 102.645 5.75605 102.259 5.75605V6.45605ZM102.098 29V29.7C102.484 29.7 102.798 29.3866 102.798 29H102.098ZM99.5195 29H98.8195C98.8195 29.3866 99.1329 29.7 99.5195 29.7V29ZM99.5195 12.4473V11.7473C99.1329 11.7473 98.8195 12.0607 98.8195 12.4473H99.5195ZM102.098 12.4473H102.798C102.798 12.0607 102.484 11.7473 102.098 11.7473V12.4473ZM102.259 8.43672H99.3438V9.83672H102.259V8.43672ZM100.044 9.13672V6.45605H98.6437V9.13672H100.044ZM99.3438 7.15605H102.259V5.75605H99.3438V7.15605ZM101.559 6.45605V9.13672H102.959V6.45605H101.559ZM102.098 28.3H99.5195V29.7H102.098V28.3ZM100.22 29V12.4473H98.8195V29H100.22ZM99.5195 13.1473H102.098V11.7473H99.5195V13.1473ZM101.398 12.4473V29H102.798V12.4473H101.398Z" fill="#333333"/>
<path d="M120.172 29H117.594V19.7275C117.594 17.5791 117.311 16.1582 116.744 15.4648C116.178 14.7617 115.245 14.4102 113.946 14.4102C112.413 14.4102 110.787 15.123 109.068 16.5488V29H106.49V12.4473H109.068V14.4395C111.012 12.7988 112.931 11.9785 114.825 11.9785C116.534 11.9785 117.853 12.5156 118.78 13.5898C119.708 14.6543 120.172 16.1973 120.172 18.2188V29Z" fill="#333333"/>
<path d="M120.172 29V29.7C120.558 29.7 120.872 29.3866 120.872 29H120.172ZM117.594 29H116.894C116.894 29.3866 117.207 29.7 117.594 29.7V29ZM116.744 15.4648L116.199 15.904L116.202 15.9077L116.744 15.4648ZM109.068 16.5488L108.621 16.0101C108.461 16.1431 108.368 16.3405 108.368 16.5488H109.068ZM109.068 29V29.7C109.455 29.7 109.768 29.3866 109.768 29H109.068ZM106.49 29H105.79C105.79 29.3866 106.104 29.7 106.49 29.7V29ZM106.49 12.4473V11.7473C106.104 11.7473 105.79 12.0607 105.79 12.4473H106.49ZM109.068 12.4473H109.768C109.768 12.0607 109.455 11.7473 109.068 11.7473V12.4473ZM109.068 14.4395H108.368C108.368 14.7119 108.526 14.9596 108.773 15.0743C109.021 15.1891 109.312 15.1501 109.52 14.9743L109.068 14.4395ZM118.78 13.5898L118.25 14.0474L118.253 14.0498L118.78 13.5898ZM120.172 28.3H117.594V29.7H120.172V28.3ZM118.294 29V19.7275H116.894V29H118.294ZM118.294 19.7275C118.294 18.6271 118.222 17.6851 118.068 16.9137C117.916 16.1529 117.673 15.4959 117.286 15.022L116.202 15.9077C116.381 16.1271 116.563 16.5273 116.695 17.1874C116.824 17.8368 116.894 18.6795 116.894 19.7275H118.294ZM117.289 15.0257C116.539 14.0947 115.36 13.7102 113.946 13.7102V15.1102C115.13 15.1102 115.816 15.4287 116.199 15.904L117.289 15.0257ZM113.946 13.7102C112.19 13.7102 110.41 14.5264 108.621 16.0101L109.515 17.0876C111.164 15.7197 112.637 15.1102 113.946 15.1102V13.7102ZM108.368 16.5488V29H109.768V16.5488H108.368ZM109.068 28.3H106.49V29.7H109.068V28.3ZM107.19 29V12.4473H105.79V29H107.19ZM106.49 13.1473H109.068V11.7473H106.49V13.1473ZM108.368 12.4473V14.4395H109.768V12.4473H108.368ZM109.52 14.9743C111.38 13.4036 113.145 12.6785 114.825 12.6785V11.2785C112.716 11.2785 110.643 12.194 108.617 13.9046L109.52 14.9743ZM114.825 12.6785C116.376 12.6785 117.483 13.1585 118.25 14.0474L119.31 13.1323C118.222 11.8728 116.692 11.2785 114.825 11.2785V12.6785ZM118.253 14.0498C119.03 14.9413 119.472 16.2944 119.472 18.2188H120.872C120.872 16.1002 120.386 14.3673 119.308 13.1299L118.253 14.0498ZM119.472 18.2188V29H120.872V18.2188H119.472Z" fill="#333333"/>
<path d="M137.718 27.125C137.718 32.5547 135.145 35.2695 129.998 35.2695C128.309 35.2695 126.629 35.04 124.959 34.5811V31.915H125.076C126.785 32.6182 128.475 32.9697 130.145 32.9697C131.834 32.9697 133.089 32.5889 133.909 31.8271C134.729 31.0752 135.14 29.8545 135.14 28.165V26.5244C133.372 28.0088 131.521 28.751 129.588 28.751C127.625 28.751 126.087 28.0283 124.974 26.583C123.86 25.1377 123.304 23.1357 123.304 20.5771C123.304 18.0186 123.987 15.9482 125.354 14.3662C126.731 12.7744 128.436 11.9785 130.467 11.9785C132.068 11.9785 133.626 12.4131 135.14 13.2822L135.33 12.4473H137.718V27.125ZM135.14 24.4443V15.2891C133.685 14.6152 132.327 14.2783 131.067 14.2783C129.456 14.2783 128.201 14.8105 127.303 15.875C126.414 16.9395 125.97 18.4629 125.97 20.4453C125.97 24.3906 127.435 26.3633 130.364 26.3633C131.917 26.3633 133.509 25.7236 135.14 24.4443Z" fill="#333333"/>
<path d="M124.959 34.5811H124.259C124.259 34.8962 124.47 35.1725 124.773 35.256L124.959 34.5811ZM124.959 31.915V31.215C124.572 31.215 124.259 31.5284 124.259 31.915H124.959ZM125.076 31.915L125.343 31.2677C125.258 31.2329 125.168 31.215 125.076 31.215V31.915ZM133.909 31.8271L133.436 31.3111L133.433 31.3142L133.909 31.8271ZM135.14 26.5244H135.84C135.84 26.2523 135.682 26.0049 135.435 25.8899C135.189 25.775 134.898 25.8134 134.689 25.9884L135.14 26.5244ZM125.354 14.3662L124.825 13.9083L124.825 13.9085L125.354 14.3662ZM135.14 13.2822L134.791 13.8893C134.984 13.9998 135.217 14.0125 135.42 13.9235C135.624 13.8344 135.773 13.6543 135.822 13.4379L135.14 13.2822ZM135.33 12.4473V11.7473C135.003 11.7473 134.72 11.9732 134.648 12.2916L135.33 12.4473ZM137.718 12.4473H138.418C138.418 12.0607 138.104 11.7473 137.718 11.7473V12.4473ZM135.14 24.4443L135.572 24.9951C135.741 24.8624 135.84 24.6593 135.84 24.4443H135.14ZM135.14 15.2891H135.84C135.84 15.0163 135.681 14.7685 135.434 14.6539L135.14 15.2891ZM127.303 15.875L126.768 15.4235L126.765 15.4264L127.303 15.875ZM137.018 27.125C137.018 29.741 136.397 31.573 135.28 32.7519C134.169 33.9237 132.454 34.5695 129.998 34.5695V35.9695C132.689 35.9695 134.833 35.2579 136.296 33.7149C137.752 32.179 138.418 29.9387 138.418 27.125H137.018ZM129.998 34.5695C128.373 34.5695 126.756 34.3489 125.145 33.9061L124.773 35.256C126.502 35.7312 128.244 35.9695 129.998 35.9695V34.5695ZM125.659 34.5811V31.915H124.259V34.5811H125.659ZM124.959 32.615H125.076V31.215H124.959V32.615ZM124.81 32.5624C126.594 33.2966 128.374 33.6697 130.145 33.6697V32.2697C128.575 32.2697 126.976 31.9398 125.343 31.2677L124.81 32.5624ZM130.145 33.6697C131.923 33.6697 133.383 33.2708 134.385 32.3401L133.433 31.3142C132.794 31.907 131.745 32.2697 130.145 32.2697V33.6697ZM134.382 32.3432C135.408 31.4029 135.84 29.9493 135.84 28.165H134.44C134.44 29.7596 134.051 30.7475 133.436 31.3111L134.382 32.3432ZM135.84 28.165V26.5244H134.44V28.165H135.84ZM134.689 25.9884C133.022 27.3883 131.326 28.051 129.588 28.051V29.451C131.717 29.451 133.722 28.6293 135.59 27.0605L134.689 25.9884ZM129.588 28.051C127.823 28.051 126.498 27.4146 125.528 26.1558L124.419 27.0102C125.676 28.6421 127.427 29.451 129.588 29.451V28.051ZM125.528 26.1558C124.541 24.8737 124.004 23.042 124.004 20.5771H122.604C122.604 23.2294 123.18 25.4017 124.419 27.0102L125.528 26.1558ZM124.004 20.5771C124.004 18.1475 124.65 16.252 125.884 14.8239L124.825 13.9085C123.325 15.6445 122.604 17.8896 122.604 20.5771H124.004ZM125.884 14.8242C127.133 13.3797 128.647 12.6785 130.467 12.6785V11.2785C128.224 11.2785 126.329 12.1691 124.825 13.9083L125.884 14.8242ZM130.467 12.6785C131.935 12.6785 133.374 13.0754 134.791 13.8893L135.488 12.6752C133.878 11.7508 132.202 11.2785 130.467 11.2785V12.6785ZM135.822 13.4379L136.013 12.6029L134.648 12.2916L134.457 13.1266L135.822 13.4379ZM135.33 13.1473H137.718V11.7473H135.33V13.1473ZM137.018 12.4473V27.125H138.418V12.4473H137.018ZM135.84 24.4443V15.2891H134.44V24.4443H135.84ZM135.434 14.6539C133.911 13.9486 132.452 13.5783 131.067 13.5783V14.9783C132.202 14.9783 133.458 15.2819 134.845 15.9243L135.434 14.6539ZM131.067 13.5783C129.286 13.5783 127.821 14.1759 126.768 15.4235L127.838 16.3265C128.582 15.4452 129.626 14.9783 131.067 14.9783V13.5783ZM126.765 15.4264C125.735 16.6612 125.27 18.368 125.27 20.4453H126.67C126.67 18.5577 127.094 17.2177 127.84 16.3236L126.765 15.4264ZM125.27 20.4453C125.27 22.4842 125.645 24.1406 126.506 25.3011C127.397 26.5006 128.726 27.0633 130.364 27.0633V25.6633C129.073 25.6633 128.204 25.2396 127.63 24.4665C127.027 23.6543 126.67 22.3517 126.67 20.4453H125.27ZM130.364 27.0633C132.119 27.0633 133.859 26.3388 135.572 24.9951L134.708 23.8936C133.159 25.1085 131.715 25.6633 130.364 25.6633V27.0633Z" fill="#333333"/>
<path d="M43.4902 29V12.4473H46.0684V14.9961C48.1387 13.2969 50.0479 12.4473 51.7959 12.4473C52.4111 12.4473 53.0312 12.4961 53.6562 12.5938V15.2891H53.5537C52.7432 15.0938 51.9229 14.9961 51.0928 14.9961C49.4326 14.9961 47.7578 15.6992 46.0684 17.1055V29H43.4902Z" fill="#333333"/>
<path d="M43.4902 29H42.7902C42.7902 29.3866 43.1036 29.7 43.4902 29.7V29ZM43.4902 12.4473V11.7473C43.1036 11.7473 42.7902 12.0607 42.7902 12.4473H43.4902ZM46.0684 12.4473H46.7684C46.7684 12.0607 46.455 11.7473 46.0684 11.7473V12.4473ZM46.0684 14.9961H45.3684C45.3684 15.2668 45.5244 15.5132 45.7691 15.6289C46.0138 15.7446 46.3032 15.7089 46.5125 15.5372L46.0684 14.9961ZM53.6562 12.5938H54.3562C54.3562 12.2489 54.1051 11.9554 53.7643 11.9021L53.6562 12.5938ZM53.6562 15.2891V15.9891C54.0428 15.9891 54.3562 15.6757 54.3562 15.2891H53.6562ZM53.5537 15.2891L53.3897 15.9696C53.4434 15.9825 53.4985 15.9891 53.5537 15.9891V15.2891ZM46.0684 17.1055L45.6205 16.5675C45.4608 16.7005 45.3684 16.8976 45.3684 17.1055H46.0684ZM46.0684 29V29.7C46.455 29.7 46.7684 29.3866 46.7684 29H46.0684ZM44.1902 29V12.4473H42.7902V29H44.1902ZM43.4902 13.1473H46.0684V11.7473H43.4902V13.1473ZM45.3684 12.4473V14.9961H46.7684V12.4473H45.3684ZM46.5125 15.5372C48.5211 13.8886 50.2764 13.1473 51.7959 13.1473V11.7473C49.8194 11.7473 47.7563 12.7051 45.6243 14.455L46.5125 15.5372ZM51.7959 13.1473C52.3739 13.1473 52.9579 13.1931 53.5482 13.2854L53.7643 11.9021C53.1046 11.7991 52.4483 11.7473 51.7959 11.7473V13.1473ZM52.9563 12.5938V15.2891H54.3562V12.5938H52.9563ZM53.6562 14.5891H53.5537V15.9891H53.6562V14.5891ZM53.7177 14.6085C52.8537 14.4003 51.9783 14.2961 51.0928 14.2961V15.6961C51.8674 15.6961 52.6326 15.7872 53.3897 15.9696L53.7177 14.6085ZM51.0928 14.2961C49.2225 14.2961 47.3946 15.0907 45.6205 16.5675L46.5162 17.6435C48.121 16.3077 49.6427 15.6961 51.0928 15.6961V14.2961ZM45.3684 17.1055V29H46.7684V17.1055H45.3684ZM46.0684 28.3H43.4902V29.7H46.0684V28.3Z" fill="#333333"/>
<path d="M36.4805 25.0596V20.2549C32.8379 20.4209 30.4941 20.8262 29.4492 21.4707C28.4141 22.1055 27.8965 22.9844 27.8965 24.1074C27.8965 26.0898 29.0977 27.0811 31.5 27.0811C33.1309 27.0811 34.791 26.4072 36.4805 25.0596ZM36.4805 29V27.1543C35.1035 28.1504 33.9707 28.7803 33.082 29.0439C32.1934 29.3174 31.29 29.4541 30.3721 29.4541C28.8975 29.4541 27.6719 28.9658 26.6953 27.9893C25.7188 27.0127 25.2305 25.7725 25.2305 24.2686C25.2305 22.3447 25.9531 20.8994 27.3984 19.9326C28.8535 18.9561 31.8809 18.375 36.4805 18.1895V17.6914C36.4805 16.5391 36.1387 15.6895 35.4551 15.1426C34.7715 14.5859 33.5703 14.3076 31.8516 14.3076C30.3379 14.3076 28.6533 14.6982 26.7979 15.4795H26.6807V12.7988C28.5068 12.3008 30.2646 12.0518 31.9541 12.0518C34.4053 12.0518 36.1973 12.5107 37.3301 13.4287C38.4727 14.3369 39.0439 15.7529 39.0439 17.6768V29H36.4805Z" fill="#333333"/>
<path d="M36.4805 25.0596L36.917 25.6068C37.0835 25.474 37.1805 25.2726 37.1805 25.0596H36.4805ZM36.4805 20.2549H37.1805C37.1805 20.0637 37.1023 19.8808 36.964 19.7488C36.8258 19.6167 36.6396 19.5469 36.4486 19.5556L36.4805 20.2549ZM29.4492 21.4707L29.8151 22.0674L29.8167 22.0665L29.4492 21.4707ZM36.4805 29H35.7805C35.7805 29.3866 36.0939 29.7 36.4805 29.7V29ZM36.4805 27.1543H37.1805C37.1805 26.8913 37.0331 26.6505 36.7989 26.5309C36.5647 26.4113 36.2832 26.433 36.0702 26.5871L36.4805 27.1543ZM33.082 29.0439L32.8829 28.3728L32.8762 28.3749L33.082 29.0439ZM27.3984 19.9326L27.7876 20.5144L27.7885 20.5138L27.3984 19.9326ZM36.4805 18.1895L36.5087 18.8889C36.884 18.8737 37.1805 18.5651 37.1805 18.1895H36.4805ZM35.4551 15.1426L35.0131 15.6854L35.0178 15.6892L35.4551 15.1426ZM26.7979 15.4795V16.1795C26.8911 16.1795 26.9835 16.1608 27.0695 16.1246L26.7979 15.4795ZM26.6807 15.4795H25.9807C25.9807 15.8661 26.2941 16.1795 26.6807 16.1795V15.4795ZM26.6807 12.7988L26.4965 12.1235C26.1919 12.2066 25.9807 12.4832 25.9807 12.7988H26.6807ZM37.3301 13.4287L36.8893 13.9726L36.8945 13.9767L37.3301 13.4287ZM39.0439 29V29.7C39.4305 29.7 39.7439 29.3866 39.7439 29H39.0439ZM37.1805 25.0596V20.2549H35.7805V25.0596H37.1805ZM36.4486 19.5556C34.6117 19.6393 33.0831 19.7841 31.8715 19.9936C30.6784 20.1999 29.722 20.48 29.0817 20.8749L29.8167 22.0665C30.2214 21.8169 30.9593 21.5721 32.11 21.3731C33.242 21.1774 34.7067 21.0365 36.5123 20.9542L36.4486 19.5556ZM29.0833 20.874C27.8609 21.6236 27.1965 22.718 27.1965 24.1074H28.5965C28.5965 23.2508 28.9672 22.5874 29.8151 22.0674L29.0833 20.874ZM27.1965 24.1074C27.1965 25.2458 27.5478 26.2141 28.3518 26.8776C29.1301 27.5198 30.2201 27.7811 31.5 27.7811V26.3811C30.3775 26.3811 29.6658 26.1467 29.2429 25.7977C28.8457 25.47 28.5965 24.9515 28.5965 24.1074H27.1965ZM31.5 27.7811C33.3344 27.7811 35.144 27.0211 36.917 25.6068L36.044 24.5123C34.4381 25.7933 32.9273 26.3811 31.5 26.3811V27.7811ZM37.1805 29V27.1543H35.7805V29H37.1805ZM36.0702 26.5871C34.7132 27.5688 33.657 28.1432 32.8829 28.3729L33.2811 29.715C34.2844 29.4174 35.4939 28.732 36.8908 27.7215L36.0702 26.5871ZM32.8762 28.3749C32.0533 28.6281 31.2194 28.7541 30.3721 28.7541V30.1541C31.3607 30.1541 32.3334 30.0067 33.2879 29.713L32.8762 28.3749ZM30.3721 28.7541C29.0692 28.7541 28.026 28.33 27.1903 27.4943L26.2003 28.4842C27.3177 29.6016 28.7257 30.1541 30.3721 30.1541V28.7541ZM27.1903 27.4943C26.3573 26.6613 25.9305 25.605 25.9305 24.2686H24.5305C24.5305 25.9399 25.0802 27.3641 26.2003 28.4842L27.1903 27.4943ZM25.9305 24.2686C25.9305 22.5491 26.5597 21.3359 27.7876 20.5144L27.0092 19.3508C25.3466 20.463 24.5305 22.1403 24.5305 24.2686H25.9305ZM27.7885 20.5138C28.3999 20.1035 29.4114 19.7361 30.8922 19.4519C32.3594 19.1703 34.2285 18.9809 36.5087 18.8889L36.4523 17.49C34.1328 17.5836 32.1885 17.7775 30.6283 18.077C29.0818 18.3738 27.8521 18.7851 27.0083 19.3514L27.7885 20.5138ZM37.1805 18.1895V17.6914H35.7805V18.1895H37.1805ZM37.1805 17.6914C37.1805 16.3989 36.7914 15.3152 35.8924 14.596L35.0178 15.6892C35.486 16.0637 35.7805 16.6793 35.7805 17.6914H37.1805ZM35.8971 14.5998C35.0153 13.8817 33.6006 13.6076 31.8516 13.6076V15.0076C33.5401 15.0076 34.5277 15.2902 35.0131 15.6854L35.8971 14.5998ZM31.8516 13.6076C30.2193 13.6076 28.4408 14.0282 26.5262 14.8343L27.0695 16.1246C28.8658 15.3683 30.4565 15.0076 31.8516 15.0076V13.6076ZM26.7979 14.7795H26.6807V16.1795H26.7979V14.7795ZM27.3807 15.4795V12.7988H25.9807V15.4795H27.3807ZM26.8648 13.4742C28.6381 12.9905 30.3338 12.7518 31.9541 12.7518V11.3518C30.1955 11.3518 28.3756 11.611 26.4965 12.1235L26.8648 13.4742ZM31.9541 12.7518C34.3448 12.7518 35.9414 13.2044 36.8894 13.9726L37.7708 12.8849C36.4531 11.8171 34.4657 11.3518 31.9541 11.3518V12.7518ZM36.8945 13.9767C37.8201 14.7124 38.3439 15.8932 38.3439 17.6768H39.7439C39.7439 15.6127 39.1252 13.9614 37.7656 12.8807L36.8945 13.9767ZM38.3439 17.6768V29H39.7439V17.6768H38.3439ZM39.0439 28.3H36.4805V29.7H39.0439V28.3Z" fill="#333333"/>
<path d="M22.207 29H19.4824V10.0449L13.1104 22.9941H11.6162L5.24414 10.0449V29H2.70996V6.9248H6.19629L12.4512 19.625L18.6914 6.9248H22.207V29Z" fill="#333333"/>
<path d="M22.207 29V29.7C22.5936 29.7 22.907 29.3866 22.907 29H22.207ZM19.4824 29H18.7824C18.7824 29.3866 19.0958 29.7 19.4824 29.7V29ZM19.4824 10.0449H20.1824C20.1824 9.71945 19.9581 9.43691 19.6411 9.36314C19.3241 9.28937 18.9981 9.44382 18.8543 9.73586L19.4824 10.0449ZM13.1104 22.9941V23.6941C13.3771 23.6941 13.6207 23.5425 13.7384 23.3032L13.1104 22.9941ZM11.6162 22.9941L10.9881 23.3032C11.1059 23.5425 11.3495 23.6941 11.6162 23.6941V22.9941ZM5.24414 10.0449L5.87222 9.73586C5.72851 9.44382 5.40248 9.28937 5.08548 9.36314C4.76847 9.43691 4.54414 9.71945 4.54414 10.0449H5.24414ZM5.24414 29V29.7C5.63074 29.7 5.94414 29.3866 5.94414 29H5.24414ZM2.70996 29H2.00996C2.00996 29.3866 2.32336 29.7 2.70996 29.7V29ZM2.70996 6.9248V6.2248C2.32336 6.2248 2.00996 6.53821 2.00996 6.9248H2.70996ZM6.19629 6.9248L6.82426 6.61553C6.70644 6.37631 6.46295 6.2248 6.19629 6.2248V6.9248ZM12.4512 19.625L11.8232 19.9343C11.9411 20.1736 12.1847 20.3251 12.4515 20.325C12.7183 20.3249 12.9618 20.1731 13.0794 19.9337L12.4512 19.625ZM18.6914 6.9248V6.2248C18.4245 6.2248 18.1808 6.37657 18.0631 6.61611L18.6914 6.9248ZM22.207 6.9248H22.907C22.907 6.53821 22.5936 6.2248 22.207 6.2248V6.9248ZM22.207 28.3H19.4824V29.7H22.207V28.3ZM20.1824 29V10.0449H18.7824V29H20.1824ZM18.8543 9.73586L12.4823 22.6851L13.7384 23.3032L20.1105 10.354L18.8543 9.73586ZM13.1104 22.2941H11.6162V23.6941H13.1104V22.2941ZM12.2443 22.6851L5.87222 9.73586L4.61607 10.354L10.9881 23.3032L12.2443 22.6851ZM4.54414 10.0449V29H5.94414V10.0449H4.54414ZM5.24414 28.3H2.70996V29.7H5.24414V28.3ZM3.40996 29V6.9248H2.00996V29H3.40996ZM2.70996 7.6248H6.19629V6.2248H2.70996V7.6248ZM5.56832 7.23408L11.8232 19.9343L13.0791 19.3157L6.82426 6.61553L5.56832 7.23408ZM13.0794 19.9337L19.3197 7.2335L18.0631 6.61611L11.8229 19.3163L13.0794 19.9337ZM18.6914 7.6248H22.207V6.2248H18.6914V7.6248ZM21.507 6.9248V29H22.907V6.9248H21.507Z" fill="#333333"/>
<path d="M23.1465 46.2148C20.8678 46.2148 19.7285 44.9616 19.7285 42.4551V36.3711H18.4688V34.9648H19.7383V31.791H21.4473V34.9648H25.3145V36.3711H21.4473V41.4785C21.4473 42.6374 21.5254 43.3893 21.6816 43.7344C21.8444 44.0729 22.0885 44.3236 22.4141 44.4863C22.7396 44.6426 23.1562 44.7207 23.6641 44.7207C24.1458 44.7207 24.6764 44.6035 25.2559 44.3691H25.3145V45.9316C24.5397 46.1204 23.8171 46.2148 23.1465 46.2148Z" fill="#333333"/>
<path d="M19.7285 36.3711H20.4285C20.4285 35.9845 20.1151 35.6711 19.7285 35.6711V36.3711ZM18.4688 36.3711H17.7688C17.7688 36.7577 18.0822 37.0711 18.4688 37.0711V36.3711ZM18.4688 34.9648V34.2648C18.0822 34.2648 17.7688 34.5782 17.7688 34.9648H18.4688ZM19.7383 34.9648V35.6648C20.1249 35.6648 20.4383 35.3514 20.4383 34.9648H19.7383ZM19.7383 31.791V31.091C19.3517 31.091 19.0383 31.4044 19.0383 31.791H19.7383ZM21.4473 31.791H22.1473C22.1473 31.4044 21.8339 31.091 21.4473 31.091V31.791ZM21.4473 34.9648H20.7473C20.7473 35.3514 21.0607 35.6648 21.4473 35.6648V34.9648ZM25.3145 34.9648H26.0145C26.0145 34.5782 25.7011 34.2648 25.3145 34.2648V34.9648ZM25.3145 36.3711V37.0711C25.7011 37.0711 26.0145 36.7577 26.0145 36.3711H25.3145ZM21.4473 36.3711V35.6711C21.0607 35.6711 20.7473 35.9845 20.7473 36.3711H21.4473ZM21.6816 43.7344L21.044 44.0231C21.0462 44.028 21.0484 44.0329 21.0508 44.0377L21.6816 43.7344ZM22.4141 44.4863L22.101 45.1125L22.1112 45.1174L22.4141 44.4863ZM25.2559 44.3691V43.6691C25.1659 43.6691 25.0768 43.6865 24.9934 43.7202L25.2559 44.3691ZM25.3145 44.3691H26.0145C26.0145 43.9825 25.7011 43.6691 25.3145 43.6691V44.3691ZM25.3145 45.9316L25.4802 46.6117C25.7938 46.5353 26.0145 46.2544 26.0145 45.9316H25.3145ZM23.1465 45.5148C22.1332 45.5148 21.4966 45.2393 21.101 44.804C20.6938 44.3562 20.4285 43.6161 20.4285 42.4551H19.0285C19.0285 43.8006 19.3329 44.9404 20.065 45.7458C20.8087 46.5638 21.8812 46.9148 23.1465 46.9148V45.5148ZM20.4285 42.4551V36.3711H19.0285V42.4551H20.4285ZM19.7285 35.6711H18.4688V37.0711H19.7285V35.6711ZM19.1687 36.3711V34.9648H17.7688V36.3711H19.1687ZM18.4688 35.6648H19.7383V34.2648H18.4688V35.6648ZM20.4383 34.9648V31.791H19.0383V34.9648H20.4383ZM19.7383 32.491H21.4473V31.091H19.7383V32.491ZM20.7473 31.791V34.9648H22.1473V31.791H20.7473ZM21.4473 35.6648H25.3145V34.2648H21.4473V35.6648ZM24.6145 34.9648V36.3711H26.0145V34.9648H24.6145ZM25.3145 35.6711H21.4473V37.0711H25.3145V35.6711ZM20.7473 36.3711V41.4785H22.1473V36.3711H20.7473ZM20.7473 41.4785C20.7473 42.0708 20.7671 42.5749 20.8096 42.984C20.8503 43.3757 20.9173 43.7434 21.044 44.0231L22.3193 43.4456C22.2897 43.3803 22.2395 43.1995 22.2021 42.8393C22.1665 42.4964 22.1473 42.045 22.1473 41.4785H20.7473ZM21.0508 44.0377C21.2784 44.5112 21.632 44.8779 22.101 45.1124L22.7271 43.8602C22.5451 43.7692 22.4104 43.6346 22.3125 43.4311L21.0508 44.0377ZM22.1112 45.1174C22.5615 45.3336 23.0913 45.4207 23.6641 45.4207V44.0207C23.2212 44.0207 22.9176 43.9516 22.717 43.8553L22.1112 45.1174ZM23.6641 45.4207C24.2582 45.4207 24.8791 45.2766 25.5183 45.0181L24.9934 43.7202C24.4737 43.9304 24.0335 44.0207 23.6641 44.0207V45.4207ZM25.2559 45.0691H25.3145V43.6691H25.2559V45.0691ZM24.6145 44.3691V45.9316H26.0145V44.3691H24.6145ZM25.1487 45.2515C24.4183 45.4295 23.7519 45.5148 23.1465 45.5148V46.9148C23.8822 46.9148 24.6611 46.8114 25.4802 46.6117L25.1487 45.2515Z" fill="#333333"/>
<path d="M45.9375 46.3027C44.3685 46.3027 43.1283 45.7852 42.2168 44.75C41.3053 43.7083 40.8496 42.2891 40.8496 40.4922C40.8496 38.6953 41.3086 37.2728 42.2266 36.2246C43.1445 35.1764 44.3815 34.6523 45.9375 34.6523C47.4935 34.6523 48.7305 35.1732 49.6484 36.2148C50.5664 37.2565 51.0254 38.6823 51.0254 40.4922C51.0254 42.3021 50.5664 43.7246 49.6484 44.7598C48.737 45.7884 47.5 46.3027 45.9375 46.3027ZM45.9375 36.1172C44.8763 36.1172 44.0592 36.4915 43.4863 37.2402C42.9134 37.9889 42.627 39.0729 42.627 40.4922C42.627 41.8919 42.9134 42.9661 43.4863 43.7148C44.0592 44.4635 44.8763 44.8379 45.9375 44.8379C46.9987 44.8379 47.8158 44.4635 48.3887 43.7148C48.9616 42.9661 49.248 41.8919 49.248 40.4922C49.248 37.5755 48.1445 36.1172 45.9375 36.1172Z" fill="#333333"/>
<path d="M42.2168 44.75L41.69 45.211L41.6914 45.2126L42.2168 44.75ZM42.2266 36.2246L41.7 35.7634L42.2266 36.2246ZM49.6484 36.2148L49.1233 36.6777L49.6484 36.2148ZM49.6484 44.7598L49.1247 44.2953L49.1245 44.2955L49.6484 44.7598ZM43.4863 43.7148L42.9304 44.1402L43.4863 43.7148ZM45.9375 45.6027C44.5388 45.6027 43.5017 45.15 42.7422 44.2874L41.6914 45.2126C42.7548 46.4203 44.1981 47.0027 45.9375 47.0027V45.6027ZM42.7436 44.289C41.9737 43.4092 41.5496 42.1712 41.5496 40.4922H40.1496C40.1496 42.4069 40.637 44.0075 41.69 45.211L42.7436 44.289ZM41.5496 40.4922C41.5496 38.8146 41.9762 37.573 42.7532 36.6858L41.7 35.7634C40.641 36.9726 40.1496 38.576 40.1496 40.4922H41.5496ZM42.7532 36.6858C43.5218 35.8081 44.5569 35.3523 45.9375 35.3523V33.9523C44.2061 33.9523 42.7673 34.5447 41.7 35.7634L42.7532 36.6858ZM45.9375 35.3523C47.3196 35.3523 48.3551 35.806 49.1233 36.6777L50.1736 35.752C49.1059 34.5404 47.6674 33.9523 45.9375 33.9523V35.3523ZM49.1233 36.6777C49.8979 37.5567 50.3254 38.7998 50.3254 40.4922H51.7254C51.7254 38.5648 51.2349 36.9563 50.1736 35.752L49.1233 36.6777ZM50.3254 40.4922C50.3254 42.1848 49.8978 43.4235 49.1247 44.2953L50.1722 45.2242C51.235 44.0257 51.7254 42.4194 51.7254 40.4922H50.3254ZM49.1245 44.2955C48.3649 45.1529 47.3301 45.6027 45.9375 45.6027V47.0027C47.6699 47.0027 49.1091 46.4239 50.1724 45.224L49.1245 44.2955ZM45.9375 35.4172C44.6896 35.4172 43.6537 35.8696 42.9304 36.8148L44.0422 37.6656C44.4648 37.1134 45.063 36.8172 45.9375 36.8172V35.4172ZM42.9304 36.8148C42.2273 37.7336 41.927 38.9931 41.927 40.4922H43.327C43.327 39.1527 43.5995 38.2442 44.0422 37.6656L42.9304 36.8148ZM41.927 40.4922C41.927 41.9744 42.2284 43.2228 42.9304 44.1402L44.0422 43.2894C43.5984 42.7094 43.327 41.8095 43.327 40.4922H41.927ZM42.9304 44.1402C43.6537 45.0854 44.6896 45.5379 45.9375 45.5379V44.1379C45.063 44.1379 44.4648 43.8416 44.0422 43.2894L42.9304 44.1402ZM45.9375 45.5379C47.1854 45.5379 48.2213 45.0854 48.9446 44.1402L47.8328 43.2894C47.4102 43.8416 46.812 44.1379 45.9375 44.1379V45.5379ZM48.9446 44.1402C49.6466 43.2228 49.948 41.9744 49.948 40.4922H48.548C48.548 41.8095 48.2766 42.7094 47.8328 43.2894L48.9446 44.1402ZM49.948 40.4922C49.948 38.9656 49.6627 37.6927 48.9786 36.7885C48.2666 35.8476 47.2095 35.4172 45.9375 35.4172V36.8172C46.8725 36.8172 47.4707 37.1159 47.8622 37.6333C48.2816 38.1876 48.548 39.1021 48.548 40.4922H49.948Z" fill="#333333"/>
<path d="M32.9375 46.3027C31.3685 46.3027 30.1283 45.7852 29.2168 44.75C28.3053 43.7083 27.8496 42.2891 27.8496 40.4922C27.8496 38.6953 28.3086 37.2728 29.2266 36.2246C30.1445 35.1764 31.3815 34.6523 32.9375 34.6523C34.4935 34.6523 35.7305 35.1732 36.6484 36.2148C37.5664 37.2565 38.0254 38.6823 38.0254 40.4922C38.0254 42.3021 37.5664 43.7246 36.6484 44.7598C35.737 45.7884 34.5 46.3027 32.9375 46.3027ZM32.9375 36.1172C31.8763 36.1172 31.0592 36.4915 30.4863 37.2402C29.9134 37.9889 29.627 39.0729 29.627 40.4922C29.627 41.8919 29.9134 42.9661 30.4863 43.7148C31.0592 44.4635 31.8763 44.8379 32.9375 44.8379C33.9987 44.8379 34.8158 44.4635 35.3887 43.7148C35.9616 42.9661 36.248 41.8919 36.248 40.4922C36.248 37.5755 35.1445 36.1172 32.9375 36.1172Z" fill="#333333"/>
<path d="M29.2168 44.75L28.69 45.211L28.6914 45.2126L29.2168 44.75ZM29.2266 36.2246L28.7 35.7634L29.2266 36.2246ZM36.6484 36.2148L36.1233 36.6777L36.6484 36.2148ZM36.6484 44.7598L36.1247 44.2953L36.1245 44.2955L36.6484 44.7598ZM30.4863 43.7148L29.9304 44.1402L30.4863 43.7148ZM32.9375 45.6027C31.5388 45.6027 30.5017 45.15 29.7422 44.2874L28.6914 45.2126C29.7548 46.4203 31.1981 47.0027 32.9375 47.0027V45.6027ZM29.7436 44.289C28.9737 43.4092 28.5496 42.1712 28.5496 40.4922H27.1496C27.1496 42.4069 27.637 44.0075 28.69 45.211L29.7436 44.289ZM28.5496 40.4922C28.5496 38.8146 28.9762 37.573 29.7532 36.6858L28.7 35.7634C27.641 36.9726 27.1496 38.576 27.1496 40.4922H28.5496ZM29.7532 36.6858C30.5218 35.8081 31.5569 35.3523 32.9375 35.3523V33.9523C31.2061 33.9523 29.7673 34.5447 28.7 35.7634L29.7532 36.6858ZM32.9375 35.3523C34.3196 35.3523 35.3551 35.806 36.1233 36.6777L37.1736 35.752C36.1059 34.5404 34.6674 33.9523 32.9375 33.9523V35.3523ZM36.1233 36.6777C36.8979 37.5567 37.3254 38.7998 37.3254 40.4922H38.7254C38.7254 38.5648 38.2349 36.9563 37.1736 35.752L36.1233 36.6777ZM37.3254 40.4922C37.3254 42.1848 36.8978 43.4235 36.1247 44.2953L37.1722 45.2242C38.235 44.0257 38.7254 42.4194 38.7254 40.4922H37.3254ZM36.1245 44.2955C35.3649 45.1529 34.3301 45.6027 32.9375 45.6027V47.0027C34.6699 47.0027 36.1091 46.4239 37.1724 45.224L36.1245 44.2955ZM32.9375 35.4172C31.6896 35.4172 30.6537 35.8696 29.9304 36.8148L31.0422 37.6656C31.4648 37.1134 32.063 36.8172 32.9375 36.8172V35.4172ZM29.9304 36.8148C29.2273 37.7336 28.927 38.9931 28.927 40.4922H30.327C30.327 39.1527 30.5995 38.2442 31.0422 37.6656L29.9304 36.8148ZM28.927 40.4922C28.927 41.9744 29.2284 43.2228 29.9304 44.1402L31.0422 43.2894C30.5984 42.7094 30.327 41.8095 30.327 40.4922H28.927ZM29.9304 44.1402C30.6537 45.0854 31.6896 45.5379 32.9375 45.5379V44.1379C32.063 44.1379 31.4648 43.8416 31.0422 43.2894L29.9304 44.1402ZM32.9375 45.5379C34.1854 45.5379 35.2213 45.0854 35.9446 44.1402L34.8328 43.2894C34.4102 43.8416 33.812 44.1379 32.9375 44.1379V45.5379ZM35.9446 44.1402C36.6466 43.2228 36.948 41.9744 36.948 40.4922H35.548C35.548 41.8095 35.2766 42.7094 34.8328 43.2894L35.9446 44.1402ZM36.948 40.4922C36.948 38.9656 36.6627 37.6927 35.9786 36.7885C35.2666 35.8476 34.2095 35.4172 32.9375 35.4172V36.8172C33.8725 36.8172 34.4707 37.1159 34.8622 37.6333C35.2816 38.1876 35.548 39.1021 35.548 40.4922H36.948Z" fill="#333333"/>
<rect x="55.25" y="4.45" width="3.1" height="46.1" fill="#333333" stroke="#333333" stroke-width="1.1" stroke-linecap="round" stroke-linejoin="round"/>
<mask id="mask0" mask-type="alpha" maskUnits="userSpaceOnUse" x="45" y="23" width="20" height="31">
<path d="M53.427 24.481L53.427 24.481L53.4269 24.4764C53.4264 24.4584 53.4335 24.4374 53.4507 24.4201C54.3931 23.4763 55.9303 23.4751 56.8741 24.4175C56.8914 24.4348 56.8986 24.4558 56.8981 24.4738L56.8981 24.4738L56.898 24.4783L56.5127 47.841L56.5043 48.3496L57.013 48.3492L63.4393 48.3443C63.4395 48.3443 63.4398 48.3443 63.44 48.3443C63.465 48.3446 63.486 48.3543 63.5014 48.3696C63.5167 48.385 63.5259 48.4053 63.526 48.43L63.5291 52.5605C63.5292 52.6065 63.4912 52.6446 63.4451 52.6446L54.025 52.651L54.0249 52.651C51.552 52.6529 49.2298 51.6929 47.4809 49.9466L46.0341 48.502C46.0096 48.4776 46.0029 48.4405 46.0152 48.4108L46.0156 48.4097C46.0283 48.3789 46.0583 48.3584 46.0927 48.3584L46.0923 47.8584L46.0927 48.3584L53.3476 48.3528L53.8563 48.3524L53.8471 47.8438L53.427 24.481Z" fill="black" stroke="#333333"/>
</mask>
<g mask="url(#mask0)">
<rect x="45.0591" y="48.4092" width="18.9227" height="31.4666" fill="#333333" stroke="#333333"/>
</g>
</svg>
