<svg width="9" height="15" viewBox="0 0 9 15" fill="none" xmlns="http://www.w3.org/2000/svg">
<path d="M0.160045 14.9986C0.124791 14.9977 0.0907492 14.9843 0.0629701 14.9603C0.035191 14.9364 0.0151544 14.9032 0.00583289 14.8658C-0.00348866 14.8283 -0.0015986 14.7885 0.0112227 14.7523C0.024044 14.7161 0.0471135 14.6854 0.0770087 14.6648C0.794804 14.1706 2.31239 12.9443 2.97112 11.0343C3.84943 8.48727 3.68926 7.235 4.3063 5.94788C4.92334 4.66077 5.79748 4.40465 6.72617 4.6267C7.65486 4.84875 8.31081 5.60792 8.28684 6.79588C8.26287 7.98384 7.44848 9.45433 6.53161 10.7598C5.61473 12.0653 4.0499 13.6085 3.03435 14.1997C2.21407 14.6778 0.950801 15.0243 0.160045 14.9986Z" fill="#EA4335"/>
<path d="M8.29562 0.0403252L8.63089 0.418573C8.64323 0.43236 8.65265 0.448976 8.6585 0.467237C8.66434 0.485497 8.66646 0.504953 8.6647 0.524219C8.66294 0.543485 8.65735 0.562087 8.64832 0.578699C8.6393 0.595312 8.62706 0.609526 8.61247 0.62033C8.28346 0.865349 7.37839 1.58892 7.16611 2.28646C6.90519 3.14287 6.92534 3.27917 6.92534 3.27917C6.92534 3.27917 7.50521 3.59999 7.68969 4.3293C7.69811 4.36236 7.697 4.39748 7.68653 4.42982C7.67605 4.46215 7.65672 4.4901 7.6312 4.50981C7.60569 4.52952 7.57525 4.54002 7.54409 4.53984C7.51294 4.53967 7.48259 4.52884 7.45726 4.50885C7.08412 4.21943 6.3903 3.84501 5.61587 4.24431C5.59776 4.25433 5.5774 4.25833 5.55727 4.2558C5.53713 4.25327 5.51811 4.24433 5.50252 4.23007C5.48692 4.21581 5.47544 4.19686 5.46947 4.17552C5.4635 4.15418 5.4633 4.13139 5.46891 4.10993C5.55646 3.74011 5.81425 3.08966 6.53796 3.14249C6.53796 3.14249 6.44345 1.66779 6.99205 1.03992C7.42565 0.542231 7.9461 0.159389 8.14483 0.0208003C8.16815 0.00437412 8.1959 -0.00265609 8.22339 0.000902841C8.25087 0.00446177 8.27639 0.0183906 8.29562 0.0403252Z" fill="#EA4335"/>
</svg>
