<svg width="24" height="24" viewBox="0 0 24 24" fill="currentColor" xmlns="http://www.w3.org/2000/svg">
<path d="M8.29157 6.89062H4.60854C4.22716 6.89062 3.91797 7.19982 3.91797 7.58119C3.91797 7.96257 4.22716 8.27176 4.60854 8.27176H8.29157C8.67295 8.27176 8.98214 7.96257 8.98214 7.58119C8.98214 7.19982 8.67295 6.89062 8.29157 6.89062Z"/>
<path d="M8.29157 10.5742H4.60854C4.22716 10.5742 3.91797 10.8834 3.91797 11.2648C3.91797 11.6462 4.22716 11.9554 4.60854 11.9554H8.29157C8.67295 11.9554 8.98214 11.6462 8.98214 11.2648C8.98214 10.8834 8.67295 10.5742 8.29157 10.5742Z"/>
<path d="M8.29157 14.2559H4.60854C4.22716 14.2559 3.91797 14.5651 3.91797 14.9464C3.91797 15.3278 4.22716 15.637 4.60854 15.637H8.29157C8.67295 15.637 8.98214 15.3278 8.98214 14.9464C8.98214 14.5651 8.67295 14.2559 8.29157 14.2559Z"/>
<path d="M18.1908 12.872V6.56716C18.1908 5.65699 17.8399 4.79834 17.2026 4.14892L14.4007 1.25134C14.3993 1.24996 14.398 1.24853 14.3966 1.24715C13.7515 0.591112 12.8538 0.214844 11.9338 0.214844H3.04436C1.90202 0.214844 0.972656 1.14421 0.972656 2.28655V20.1953C0.972656 21.3377 1.90202 22.267 3.04436 22.267H13.7175C14.7016 23.2077 16.0346 23.7863 17.5003 23.7863C20.5465 23.7863 23.0248 21.3286 23.0248 18.3078C23.0248 15.5188 20.9124 13.21 18.1908 12.872ZM2.35379 20.1953V2.28655C2.35379 1.90577 2.66358 1.59598 3.04436 1.59598H11.9338C12.4851 1.59598 13.023 1.82115 13.4101 2.21372L16.2115 5.11084C16.2129 5.11222 16.2142 5.1136 16.2155 5.11494C16.5987 5.50474 16.8097 6.02046 16.8097 6.5672V12.8727C14.1136 13.2132 12.0218 15.5208 12.0218 18.3078C12.0218 19.2393 12.2557 20.1171 12.6675 20.8859H3.04436C2.66358 20.8859 2.35379 20.5761 2.35379 20.1953ZM17.5003 22.4051C15.241 22.4051 13.4029 20.5671 13.4029 18.3078C13.4029 16.0484 15.241 14.2104 17.5003 14.2104C19.785 14.2104 21.6437 16.0484 21.6437 18.3078C21.6437 20.5671 19.785 22.4051 17.5003 22.4051Z"/>
<path d="M19.0937 16.6717C18.8008 16.4277 18.3653 16.4672 18.1212 16.7602L16.9556 18.1588L16.6912 17.6301C16.5206 17.2889 16.1058 17.1506 15.7647 17.3212C15.4236 17.4918 15.2853 17.9066 15.4559 18.2477L16.1925 19.7209C16.2967 19.9294 16.4991 20.0712 16.7305 20.0981C16.7572 20.1011 16.7837 20.1027 16.8102 20.1027C17.0138 20.1027 17.2086 20.0126 17.3407 19.8542L19.1822 17.6444C19.4263 17.3513 19.3867 16.9159 19.0937 16.6717Z"/>
<path d="M11.9757 8.27176H12.7123C13.0937 8.27176 13.4029 7.96257 13.4029 7.58119C13.4029 7.19982 13.0937 6.89062 12.7123 6.89062H11.9757C11.5943 6.89062 11.2852 7.19982 11.2852 7.58119C11.2852 7.96257 11.5943 8.27176 11.9757 8.27176Z"/>
<path d="M13.4029 11.2648C13.4029 10.8834 13.0937 10.5742 12.7123 10.5742H11.9757C11.5943 10.5742 11.2852 10.8834 11.2852 11.2648C11.2852 11.6462 11.5943 11.9554 11.9757 11.9554H12.7123C13.0937 11.9554 13.4029 11.6462 13.4029 11.2648Z"/>
</svg>
