<svg width="154" height="33" viewBox="0 0 154 33" fill="none" xmlns="http://www.w3.org/2000/svg">
<path d="M95.8564 29.6434C91.1109 29.6434 88.7397 27.2982 88.743 22.6079V14.8006H86.8333C85.6094 14.8006 84.9984 14.2252 85 13.0744C85.0016 11.9236 85.6127 11.3482 86.8333 11.3482H88.7405V8.02157C88.7405 6.48115 89.5104 5.71094 91.05 5.71094C92.565 5.71094 93.3224 6.48115 93.3224 8.02157V11.3556H97.211C98.4332 11.3556 99.0443 11.931 99.0443 13.0818C99.0443 14.2326 98.4332 14.808 97.211 14.808H93.3249V22.3514C93.3249 23.5236 93.5815 24.4032 94.0947 24.9901C94.6079 25.577 95.4395 25.8696 96.5892 25.8679C96.9589 25.8721 97.328 25.8358 97.6897 25.7594C97.9675 25.6921 98.2494 25.6427 98.5335 25.6115C98.67 25.5953 98.8084 25.612 98.9371 25.66C99.0658 25.708 99.1813 25.7861 99.2737 25.8877C99.4695 26.0948 99.5674 26.5157 99.5674 27.1503C99.5724 27.5963 99.4886 28.039 99.3206 28.4523C99.2436 28.6385 99.1265 28.8055 98.9777 28.9415C98.8289 29.0774 98.652 29.179 98.4595 29.239C98.0505 29.3577 97.6343 29.45 97.2135 29.5152C96.7652 29.5937 96.3115 29.6366 95.8564 29.6434Z" fill="black"/>
<path d="M110.492 29.6408C108.868 29.6825 107.26 29.2896 105.824 28.4997C104.513 27.7516 103.443 26.6197 102.746 25.2446C102.013 23.8337 101.647 22.172 101.648 20.2594C101.65 18.3468 102.016 16.6916 102.746 15.2939C103.447 13.9264 104.517 12.8012 105.824 12.0562C107.274 11.305 108.873 10.9141 110.493 10.9141C112.113 10.9141 113.712 11.305 115.162 12.0562C116.469 12.8012 117.539 13.9264 118.24 15.2939C118.97 16.6933 119.336 18.3484 119.338 20.2594C119.339 22.1703 118.973 23.8321 118.24 25.2446C117.543 26.6197 116.473 27.7516 115.162 28.4997C113.725 29.2893 112.117 29.6822 110.492 29.6408ZM110.492 26.1457C111.097 26.1681 111.698 26.0458 112.251 25.7883C112.803 25.5308 113.291 25.145 113.677 24.6605C114.47 23.6703 114.871 22.205 114.879 20.2643C114.887 18.3237 114.486 16.8583 113.677 15.8682C113.272 15.41 112.78 15.0443 112.232 14.7942C111.684 14.544 111.092 14.4148 110.493 14.4148C109.895 14.4148 109.303 14.544 108.754 14.7942C108.206 15.0443 107.714 15.41 107.309 15.8682C106.506 16.8385 106.105 18.3039 106.105 20.2643C106.105 22.2248 106.506 23.6901 107.309 24.6605C107.695 25.1451 108.182 25.531 108.734 25.7886C109.286 26.0461 109.887 26.1682 110.492 26.1457Z" fill="black"/>
<path d="M131.627 30.0107C130.003 30.0525 128.395 29.6595 126.959 28.8696C125.649 28.1215 124.578 26.9897 123.881 25.6146C123.148 24.2037 122.782 22.542 122.784 20.6294C122.785 18.7168 123.151 17.0617 123.881 15.664C124.582 14.2964 125.652 13.1713 126.959 12.4263C128.41 11.6751 130.008 11.2842 131.628 11.2842C133.249 11.2842 134.847 11.6751 136.298 12.4263C137.605 13.1713 138.674 14.2964 139.376 15.664C140.107 17.0683 140.473 18.7234 140.473 20.6294C140.473 22.5354 140.107 24.1971 139.376 25.6146C138.681 26.9883 137.614 28.12 136.307 28.8696C134.867 29.6609 133.255 30.0538 131.627 30.0107ZM131.627 26.5156C132.232 26.538 132.834 26.4158 133.386 26.1583C133.938 25.9008 134.426 25.515 134.812 25.0304C135.614 24.0403 136.01 22.575 136.002 20.6343C135.994 18.6937 135.598 17.2283 134.812 16.2382C134.407 15.7801 133.915 15.4144 133.367 15.1642C132.819 14.9141 132.227 14.7849 131.628 14.7849C131.03 14.7849 130.438 14.9141 129.89 15.1642C129.342 15.4144 128.85 15.7801 128.444 16.2382C127.641 17.2085 127.24 18.6739 127.24 20.6343C127.24 22.5948 127.644 24.0585 128.452 25.0255C128.836 25.51 129.322 25.8963 129.873 26.1546C130.423 26.413 131.023 26.5365 131.627 26.5156Z" fill="black"/>
<path d="M150.814 30.0135C146.693 30.0135 144.634 27.7709 144.635 23.2856V6.26605C144.635 4.75535 145.399 4 146.926 4C148.453 4 149.229 4.75535 149.256 6.26605V23.0701C149.256 25.228 150.181 26.307 152.032 26.307C152.228 26.307 152.413 26.307 152.584 26.29C152.756 26.2731 152.93 26.2586 153.105 26.2344C153.238 26.1968 153.38 26.2041 153.508 26.2551C153.637 26.3061 153.744 26.3977 153.812 26.5152C153.934 26.7428 153.996 27.2044 153.996 27.9C154.026 28.3939 153.897 28.8846 153.627 29.3042C153.478 29.4825 153.292 29.6282 153.081 29.7316C152.87 29.8351 152.639 29.894 152.403 29.9046C151.876 29.9777 151.346 30.0141 150.814 30.0135Z" fill="black"/>
<path d="M62.1384 31.3221C66.3235 31.3221 69.7163 28.1556 69.7163 24.2494C69.7163 20.3433 66.3235 17.1768 62.1384 17.1768C57.9533 17.1768 54.5605 20.3433 54.5605 24.2494C54.5605 28.1556 57.9533 31.3221 62.1384 31.3221Z" fill="url(#paint0_linear)"/>
<path d="M52.0346 14.1453C56.2198 14.1453 59.6125 10.9788 59.6125 7.07267C59.6125 3.16654 56.2198 0 52.0346 0C47.8495 0 44.4568 3.16654 44.4568 7.07267C44.4568 10.9788 47.8495 14.1453 52.0346 14.1453Z" fill="url(#paint1_linear)"/>
<path d="M34.8581 24.249C39.0433 24.249 42.436 20.8563 42.436 16.6711C42.436 12.486 39.0433 9.09326 34.8581 9.09326C30.673 9.09326 27.2803 12.486 27.2803 16.6711C27.2803 20.8563 30.673 24.249 34.8581 24.249Z" fill="url(#paint2_linear)"/>
<path d="M7.57786 32.3325C11.763 32.3325 15.1557 28.9398 15.1557 24.7546C15.1557 20.5695 11.763 17.1768 7.57786 17.1768C3.39272 17.1768 0 20.5695 0 24.7546C0 28.9398 3.39272 32.3325 7.57786 32.3325Z" fill="url(#paint3_linear)"/>
<path d="M17.6816 15.1557C21.8668 15.1557 25.2595 11.763 25.2595 7.57786C25.2595 3.39272 21.8668 0 17.6816 0C13.4965 0 10.1038 3.39272 10.1038 7.57786C10.1038 11.763 13.4965 15.1557 17.6816 15.1557Z" fill="url(#paint4_linear)"/>
<defs>
<linearGradient id="paint0_linear" x1="69.7163" y1="24.2494" x2="54.5605" y2="24.2494" gradientUnits="userSpaceOnUse">
<stop stop-color="#C41E51"/>
<stop offset="0.21" stop-color="#B71A4B"/>
<stop offset="0.59" stop-color="#940F3A"/>
<stop offset="1" stop-color="#680225"/>
</linearGradient>
<linearGradient id="paint1_linear" x1="-26378.3" y1="348.541" x2="-25634.5" y2="348.541" gradientUnits="userSpaceOnUse">
<stop stop-color="#C41E51"/>
<stop offset="0.21" stop-color="#B71A4B"/>
<stop offset="0.59" stop-color="#940F3A"/>
<stop offset="1" stop-color="#680225"/>
</linearGradient>
<linearGradient id="paint2_linear" x1="-25523.7" y1="850.539" x2="-24780.1" y2="850.539" gradientUnits="userSpaceOnUse">
<stop stop-color="#C41E51"/>
<stop offset="0.21" stop-color="#B71A4B"/>
<stop offset="0.59" stop-color="#940F3A"/>
<stop offset="1" stop-color="#680225"/>
</linearGradient>
<linearGradient id="paint3_linear" x1="947.531" y1="1277.83" x2="1691.37" y2="1277.83" gradientUnits="userSpaceOnUse">
<stop stop-color="#C41E51"/>
<stop offset="0.21" stop-color="#B71A4B"/>
<stop offset="0.59" stop-color="#940F3A"/>
<stop offset="1" stop-color="#680225"/>
</linearGradient>
<linearGradient id="paint4_linear" x1="1475.66" y1="379.499" x2="2219.5" y2="379.499" gradientUnits="userSpaceOnUse">
<stop stop-color="#C41E51"/>
<stop offset="0.21" stop-color="#B71A4B"/>
<stop offset="0.59" stop-color="#940F3A"/>
<stop offset="1" stop-color="#680225"/>
</linearGradient>
</defs>
</svg>
