<svg width="45" height="33" viewBox="0 0 45 33" fill="none" xmlns="http://www.w3.org/2000/svg">
<path d="M20.5298 0.369904C20.3624 0.23165 20.1693 0.127801 19.9617 0.0643088C19.7541 0.000816472 19.5359 -0.0210701 19.3198 -9.63723e-05H17.0998C16.7862 -0.0128532 16.4732 0.0381766 16.1798 0.149904C15.9138 0.279066 15.7066 0.504156 15.5998 0.779904L10.5998 12.5899L5.54981 0.779904C5.45036 0.509315 5.2545 0.284972 4.99981 0.149904C4.6971 0.034094 4.37348 -0.0170038 4.04981 -9.63723e-05H1.82981C1.61526 -0.0208299 1.39873 0.00119601 1.19275 0.0647065C0.986772 0.128217 0.795434 0.231951 0.629813 0.369904C0.495322 0.522033 0.392457 0.699412 0.327216 0.891701C0.261976 1.08399 0.235663 1.28734 0.249813 1.4899V19.3099C0.222886 19.7171 0.355595 20.1189 0.619813 20.4299C0.951308 20.6997 1.37362 20.8321 1.79981 20.7999H3.62981C3.84593 20.8209 4.06405 20.799 4.27169 20.7355C4.47933 20.672 4.67239 20.5682 4.83981 20.4299C5.10403 20.1189 5.23674 19.7171 5.20981 19.3099V8.9099L8.81981 16.9999C8.94564 17.3818 9.16576 17.7257 9.45981 17.9999C9.78171 18.2221 10.1697 18.3279 10.5598 18.2999C10.9542 18.3409 11.3498 18.234 11.6698 17.9999C11.944 17.7116 12.1582 17.3717 12.2998 16.9999L15.9398 8.8899V19.2899C15.9129 19.6971 16.0456 20.0989 16.3098 20.4099C16.649 20.6872 17.0836 20.8201 17.5198 20.7799H19.3498C19.776 20.8121 20.1983 20.6797 20.5298 20.4099C20.794 20.0989 20.9267 19.6971 20.8998 19.2899V1.4899C20.9267 1.08267 20.794 0.680955 20.5298 0.369904Z" fill="#343434"/>
<path d="M26.6687 19.7598C25.8756 18.8456 25.4702 17.6582 25.5387 16.4498V11.8598H24.3687C24.2328 11.8796 24.0943 11.8711 23.9618 11.835C23.8293 11.7989 23.7057 11.7358 23.5987 11.6498C23.4476 11.4231 23.3804 11.1508 23.4087 10.8798V10.0898C23.3806 9.81573 23.4476 9.54031 23.5987 9.30983C23.7041 9.22033 23.827 9.15367 23.9595 9.11408C24.0921 9.07449 24.2314 9.06283 24.3687 9.07983H25.5387V8.07983C25.5473 7.73443 25.6255 7.39432 25.7687 7.07983C25.9652 6.63823 26.1855 6.20759 26.4287 5.78983C26.5155 5.61893 26.6383 5.46884 26.7887 5.34983C26.9757 5.26166 27.1825 5.22374 27.3886 5.23983H28.4887C28.6282 5.22274 28.7698 5.23529 28.9042 5.27664C29.0386 5.318 29.1628 5.38723 29.2687 5.47983C29.4434 5.69636 29.526 5.97293 29.4987 6.24983V9.07983H31.8786C32.0159 9.06283 32.1552 9.07449 32.2878 9.11408C32.4203 9.15367 32.5432 9.22033 32.6487 9.30983C32.7947 9.54245 32.8613 9.81613 32.8387 10.0898V10.8798C32.8621 11.1504 32.7953 11.4212 32.6487 11.6498C32.4291 11.8175 32.1529 11.8928 31.8786 11.8598H29.4987V16.3498C29.456 16.8253 29.5759 17.3013 29.8387 17.6998C29.9852 17.8466 30.1628 17.9587 30.3583 18.0279C30.5538 18.0971 30.7624 18.1217 30.9686 18.0998C31.2403 18.107 31.5111 18.0664 31.7687 17.9798C32.0264 17.8829 32.2715 17.7553 32.4987 17.5998C32.5845 17.5374 32.6838 17.4963 32.7887 17.4798C32.8666 17.4863 32.9414 17.5139 33.0048 17.5598C33.0682 17.6056 33.118 17.6678 33.1487 17.7398L33.9987 19.2598C34.0666 19.3501 34.1081 19.4574 34.1186 19.5698C34.1186 19.6798 34.0187 19.7998 33.8287 19.9298C32.6887 20.6636 31.3539 21.0365 29.9987 20.9998C29.3874 21.0411 28.7744 20.9519 28.2003 20.7381C27.6261 20.5243 27.104 20.1908 26.6687 19.7598Z" fill="#DA4D44"/>
<path d="M41.8881 15.7297L40.4381 14.2797C40.3943 14.2298 40.3352 14.1959 40.2701 14.1833C40.2049 14.1706 40.1374 14.1799 40.0781 14.2097C40.0181 14.2344 39.9665 14.2758 39.9293 14.329C39.8921 14.3821 39.8709 14.4448 39.8681 14.5097V22.3597H1.04813C0.912489 22.3595 0.778234 22.3869 0.653531 22.4403C0.528827 22.4936 0.41628 22.5718 0.322737 22.67C0.229194 22.7682 0.15661 22.8845 0.109401 23.0116C0.0621917 23.1388 0.0413439 23.2742 0.0481259 23.4097V26.7797C0.0479562 26.9153 0.0753817 27.0496 0.128734 27.1743C0.182086 27.299 0.26025 27.4115 0.35847 27.5051C0.45669 27.5986 0.572914 27.6712 0.70007 27.7184C0.827227 27.7656 0.962658 27.7864 1.09813 27.7797H39.8581V31.7797C39.8581 31.8243 39.8669 31.8685 39.884 31.9098C39.9011 31.951 39.9261 31.9885 39.9577 32.0201C39.9893 32.0517 40.0268 32.0767 40.068 32.0938C40.1093 32.1109 40.1535 32.1197 40.1981 32.1197H44.3281C44.4156 32.1197 44.4996 32.0849 44.5615 32.023C44.6234 31.9611 44.6581 31.8772 44.6581 31.7897V22.4497C44.6628 21.2022 44.4205 19.9661 43.9451 18.8127C43.4696 17.6593 42.7705 16.6115 41.8881 15.7297Z" fill="#343434"/>
</svg>
