<svg width="16" height="17" viewBox="0 0 16 17" fill="none" xmlns="http://www.w3.org/2000/svg">
<path d="M8 2.125C9.1 2.125 10 3.08125 10 4.25C10 5.41875 9.1 6.375 8 6.375C6.9 6.375 6 5.41875 6 4.25C6 3.08125 6.9 2.125 8 2.125ZM8 11.6875C10.7 11.6875 13.8 13.0581 14 13.8125V14.875H2V13.8231C2.2 13.0581 5.3 11.6875 8 11.6875ZM8 0C5.79 0 4 1.90188 4 4.25C4 6.59812 5.79 8.5 8 8.5C10.21 8.5 12 6.59812 12 4.25C12 1.90188 10.21 0 8 0ZM8 9.5625C5.33 9.5625 0 10.9862 0 13.8125V17H16V13.8125C16 10.9862 10.67 9.5625 8 9.5625Z" fill="#4285F4"/>
</svg>
