<svg width="27" height="24" viewBox="0 0 27 24" fill="none" xmlns="http://www.w3.org/2000/svg">
<path d="M26 12C26 17.9677 20.5175 23 13.5 23C6.48246 23 1 17.9677 1 12C1 6.03234 6.48246 1 13.5 1C20.5175 1 26 6.03234 26 12Z" fill="#C4C4C4" stroke="black" stroke-width="2"/>
<path d="M11.8086 10.8066H13.2539C13.9831 10.8001 14.5592 10.6113 14.9824 10.2402C15.4121 9.86914 15.627 9.33203 15.627 8.62891C15.627 7.95182 15.4479 7.42773 15.0898 7.05664C14.7383 6.67904 14.1979 6.49023 13.4688 6.49023C12.8307 6.49023 12.3066 6.67578 11.8965 7.04688C11.4863 7.41146 11.2812 7.88997 11.2812 8.48242H8.9082C8.9082 7.75326 9.10026 7.08919 9.48438 6.49023C9.875 5.89128 10.4154 5.42578 11.1055 5.09375C11.8021 4.75521 12.5801 4.58594 13.4395 4.58594C14.8587 4.58594 15.972 4.94401 16.7793 5.66016C17.5931 6.36979 18 7.35938 18 8.62891C18 9.26693 17.7949 9.86914 17.3848 10.4355C16.9811 10.9954 16.457 11.4186 15.8125 11.7051C16.5938 11.972 17.1862 12.3919 17.5898 12.9648C18 13.5378 18.2051 14.2214 18.2051 15.0156C18.2051 16.2917 17.7656 17.3073 16.8867 18.0625C16.0143 18.8177 14.8652 19.1953 13.4395 19.1953C12.0723 19.1953 10.9525 18.8307 10.0801 18.1016C9.20768 17.3724 8.77148 16.4023 8.77148 15.1914H11.1445C11.1445 15.8164 11.3529 16.3242 11.7695 16.7148C12.1927 17.1055 12.7591 17.3008 13.4688 17.3008C14.2044 17.3008 14.7839 17.1055 15.207 16.7148C15.6302 16.3242 15.8418 15.7578 15.8418 15.0156C15.8418 14.2669 15.6204 13.6908 15.1777 13.2871C14.735 12.8835 14.0775 12.6816 13.2051 12.6816H11.8086V10.8066Z" fill="black"/>
</svg>
