<svg width="29" height="29" viewBox="0 0 29 29" fill="none" xmlns="http://www.w3.org/2000/svg">
<path d="M19.2831 13.9328L13.2614 9.55549C13.0404 9.3953 12.747 9.37117 12.5048 9.49566C12.2606 9.61918 12.1082 9.87009 12.1082 10.1413V18.8931C12.1082 19.1672 12.2606 19.4171 12.5048 19.5406C12.608 19.5927 12.7209 19.6188 12.8348 19.6188C12.9834 19.6188 13.134 19.5715 13.2614 19.4779L19.2831 15.1044C19.4732 14.9645 19.5842 14.7483 19.5842 14.5186C19.5852 14.2851 19.4713 14.0699 19.2831 13.9328Z" fill="white"/>
<path d="M14.5005 0.00292969C6.49077 0.00292969 0 6.49369 0 14.5034C0 22.5102 6.49077 28.9991 14.5005 28.9991C22.5083 28.9991 29 22.5093 29 14.5034C29.001 6.49369 22.5083 0.00292969 14.5005 0.00292969ZM14.5005 26.5797C7.83022 26.5797 2.42222 21.1746 2.42222 14.5034C2.42222 7.83508 7.83022 2.42321 14.5005 2.42321C21.1698 2.42321 26.5768 7.83412 26.5768 14.5034C26.5778 21.1746 21.1698 26.5797 14.5005 26.5797Z" fill="white"/>
</svg>
