<svg width="31" height="31" viewBox="0 0 31 31" fill="none" xmlns="http://www.w3.org/2000/svg">
<g clip-path="url(#clip0)">
<path d="M19.9819 14.438L13.7419 9.902C13.5129 9.736 13.2089 9.711 12.9579 9.84C12.7049 9.968 12.5469 10.228 12.5469 10.509V19.578C12.5469 19.862 12.7049 20.121 12.9579 20.249C13.0649 20.303 13.1819 20.33 13.2999 20.33C13.4539 20.33 13.6099 20.281 13.7419 20.184L19.9819 15.652C20.1789 15.507 20.2939 15.283 20.2939 15.045C20.2949 14.803 20.1769 14.58 19.9819 14.438Z" fill="#4285F4"/>
<path d="M15.026 0.0019989C6.726 0.0019989 0 6.728 0 15.028C0 23.325 6.726 30.049 15.026 30.049C23.324 30.049 30.051 23.324 30.051 15.028C30.052 6.728 23.324 0.0019989 15.026 0.0019989ZM15.026 27.542C8.114 27.542 2.51 21.941 2.51 15.028C2.51 8.118 8.114 2.51 15.026 2.51C21.937 2.51 27.54 8.117 27.54 15.028C27.541 21.941 21.937 27.542 15.026 27.542Z" fill="#4285F4"/>
</g>
<defs>
<clipPath id="clip0">
<rect width="30.051" height="30.051" fill="white"/>
</clipPath>
</defs>
</svg>
