<svg width="402" height="402" viewBox="0 0 402 402" fill="none" xmlns="http://www.w3.org/2000/svg">
<path fill-rule="evenodd" clip-rule="evenodd" d="M220.381 34.8398C314.364 34.8398 334.15 165.086 334.535 166.158C334.931 167.262 335.304 168.399 335.665 169.502C336.398 171.742 337.341 173.899 338.074 176.124C338.523 177.482 339.347 178.607 339.9 179.889C340.971 182.339 342.285 184.676 343.82 186.866C344.454 187.733 344.952 188.692 345.297 189.709C345.54 190.487 346.343 190.694 346.69 191.381C347.251 192.493 347.999 193.509 348.647 194.576C348.794 194.952 349.133 195.219 349.533 195.274L349.407 196.334C349.641 196.716 349.721 196.2 349.967 196.291C350.274 196.704 350.712 197.072 350.756 197.701C350.797 198.293 351.488 198.349 351.724 198.865C352.242 199.986 353.684 200.557 353.663 202.028C354.699 202.678 355.209 203.795 355.991 204.671C356.393 205.075 356.637 205.606 356.684 206.17L356.691 206.301C356.685 206.862 357.768 206.736 357.477 207.501C359.135 208.746 359.565 210.779 360.441 212.464C361.845 215.167 363.464 217.778 364.418 220.738C364.895 222.218 365.822 223.619 366.336 225.118C367.495 228.488 368.885 231.784 369.638 235.293C369.948 236.743 370.582 238.124 370.879 239.578L371.221 241.258C371.732 243.779 372.215 246.307 372.536 248.862C372.701 249.438 372.701 250.049 372.536 250.626C372.259 251.282 372.994 251.702 373.053 252.36C373.127 253.14 372.814 253.88 373.039 254.708C373.162 255.165 373.039 255.899 373.181 256.428C373.643 258.151 373.058 259.928 373.56 261.639C373.64 262.3 373.57 262.971 373.357 263.602C373.009 265.709 373.645 267.86 373.011 269.917C372.714 270.931 372.657 271.999 372.844 273.038L372.923 273.438C372.979 273.735 373.016 274.023 372.87 274.223C372.292 275.013 372.441 275.944 372.326 276.808L372.304 276.952C372.138 277.919 372.309 278.933 372.017 279.919C371.618 280.884 371.394 281.912 371.356 282.955C371.503 284.724 370.908 286.311 370.543 287.953C370.361 288.774 370.512 289.749 369.609 290.36C369.149 290.67 370.233 291.273 369.576 291.727L369.499 291.775C369.016 292.047 369.037 292.487 369.173 293.013C369.298 293.494 368.457 293.826 368.698 294.318C368.938 294.81 369.047 295.527 368.766 295.617C368.064 295.847 368.778 296.611 368.188 296.756C368.13 296.787 368.09 296.844 368.08 296.909C367.879 298.756 366.689 300.273 366.395 302.12C366.172 303.222 365.743 304.273 365.129 305.216C364.621 306.127 364.189 307.078 363.838 308.06C363.178 309.711 362.049 311.09 361.413 312.733C361.24 313.178 360.088 313.029 360.674 313.942C360.002 314.179 360.206 314.875 359.936 315.31C359.638 315.639 359.291 315.92 358.908 316.143C358.659 317.121 358.184 318.027 357.519 318.787C356.359 320.485 355.091 322.108 353.725 323.646L352.597 324.909C351.089 326.594 349.532 328.242 347.544 329.403C347.033 329.702 347.266 330.268 346.845 330.575C344.408 332.374 342.164 334.415 339.391 335.778C338.231 336.349 337.236 337.364 336.05 337.958C333.802 339.086 331.715 340.491 329.311 341.37L328.883 341.519C327.352 342.029 325.845 342.801 324.29 343.361C321.097 344.616 317.764 345.482 314.364 345.941L312.266 346.173C310.401 346.379 308.534 346.569 306.651 346.621C305.759 346.645 304.904 346.362 304.088 346.464C303.293 346.565 302.486 346.5 301.718 346.273C301.111 346.104 300.597 346.626 299.944 346.345C299.442 346.031 298.82 345.984 298.279 346.213L298.172 346.263C297.862 346.442 297.252 346.111 296.78 346.004C296.091 345.908 295.415 345.741 294.761 345.505C294.254 345.271 293.608 346.023 293.255 345.223C292.614 345.72 249.073 335.373 209.076 356.385C205.819 358.543 202.007 359.49 198.527 361.166C196.909 361.947 195.09 362.304 193.348 362.837L192.976 362.954C189.902 363.947 186.749 364.626 183.601 365.334C180.708 365.96 177.778 366.396 174.828 366.638C172.707 366.829 170.576 366.919 168.46 367.15C167.602 367.243 166.761 366.638 165.922 367.158C164.035 366.644 162.055 367.268 160.174 366.687C158.923 367.058 157.748 366.599 156.598 366.26C155.72 366 154.893 366.54 154.006 366.157C153.199 365.736 152.295 365.535 151.385 365.574C149.875 365.806 148.56 365.252 147.184 364.959C143.988 364.278 140.803 363.542 137.629 362.751C136.59 362.491 135.422 362.592 134.532 361.797C133.75 361.099 132.518 361.537 131.75 360.713C131.47 360.413 131.112 360.994 130.691 360.767C129.868 360.325 128.81 360.617 128.041 359.82C127.471 359.229 126.396 359.629 125.765 358.916L125.682 358.812C125.31 358.295 124.328 359.514 124.037 358.362C122.864 358.272 121.891 357.632 120.846 357.194C119.98 356.832 118.958 357.036 118.176 356.283C117.511 355.64 116.252 356.113 115.676 355.15C114.265 355.138 113.224 354.082 111.879 353.804C110.859 353.536 109.878 353.133 108.965 352.605C107.517 351.86 106.047 351.159 104.565 350.493C104.034 350.246 103.516 349.97 103.016 349.666C102.735 349.502 102.666 349.138 102.265 349.049C99.7251 348.487 97.5888 347.006 95.4192 345.711C94.1819 345.072 92.9981 344.335 91.879 343.507L91.5083 343.228C91.1808 342.946 90.5006 342.808 90.2126 342.416C89.4098 341.326 88.2088 340.792 87.12 340.137L86.9396 340.027C86.3261 339.665 85.7685 339.217 85.2842 338.695C85.1926 338.596 85.1553 338.38 85.0579 338.356C83.2504 337.91 82.1718 336.417 80.7898 335.373C79.6011 334.477 78.5613 333.383 77.3907 332.469L76.9451 332.135C74.2058 330.176 44.2316 297.194 40.8351 291.502L39.8632 289.873C38.8926 288.241 37.9331 286.597 37.0498 284.92L36.2975 283.493C35.5464 282.063 34.8071 280.622 34.1535 279.157L33.2791 277.201C31.5344 273.286 29.8272 269.352 28.3721 265.311C27.0746 261.705 26.0004 258.04 24.916 254.372C24.2214 252.017 23.6345 249.651 23.1386 247.251C22.3464 243.417 21.64 239.566 21.0194 235.7C20.4406 232.06 20.6547 228.367 19.8817 224.768C20.3881 222.558 19.4571 220.315 20.0352 218.108C19.6063 217.018 19.9834 215.886 20.0237 214.812C20.0651 213.703 19.8163 212.541 20.2592 211.417C20.4621 210.906 19.9931 210.293 20.2472 209.669C20.5262 209.15 20.5584 208.534 20.335 207.989C21.0881 207.643 20.1904 207.11 20.5032 206.616C20.8404 206.081 20.9894 205.449 20.9265 204.82C20.7072 203.412 21.5184 202.111 21.376 200.839C21.2275 199.538 21.8701 198.435 21.8681 197.269L21.8598 197.049C21.7489 195.519 22.8432 194.366 22.8797 192.918C22.8832 192.791 23.1827 192.674 23.3469 192.548C23.2943 192.222 22.934 192.296 22.6784 192.043C23.0864 191.689 23.4434 191.28 23.7392 190.828C23.9631 190.209 24.1221 189.568 24.2137 188.916L23.1763 187.577C23.5591 186.812 23.4257 186.116 23.9368 185.515C24.1592 185.253 24.0352 184.451 24.0626 183.898C24.0988 183.171 25.033 182.738 24.8077 182.164C24.6338 181.503 24.6902 180.804 24.9674 180.179C26.3039 174.287 27.6653 168.401 29.0515 162.52C29.1973 161.89 29.0705 161.097 29.8462 160.727C28.9986 159.852 30.3297 159.547 30.3504 158.853C30.4584 158.205 30.7083 157.588 31.0822 157.047C31.6117 156.035 31.6604 154.778 31.9619 153.637C32.0414 152.831 32.3469 152.063 32.8434 151.422C33.3598 150.887 33.2854 149.956 33.6742 149.205C34.2235 148.298 34.6492 147.321 34.9401 146.302C35.0277 145.569 35.3198 144.876 35.783 144.301C36.1943 143.847 35.8565 142.907 36.6559 142.564C36.8801 141.246 37.6669 140.188 38.2494 139.033L38.356 138.816C39.7869 135.845 41.3951 132.962 43.172 130.183C44.6482 127.844 46.0846 125.481 47.5834 123.157C48.071 122.407 48.5894 121.659 49.1256 120.947C50.9882 118.328 52.9945 115.813 55.1352 113.415C57.0931 111.34 58.9594 109.172 61.0151 107.177C62.108 106.116 63.0023 104.813 64.0633 103.686C66.5635 101.025 69.1312 98.436 71.8317 95.9789C74.1123 93.7257 76.6063 91.6986 79.2788 89.9259C80.0053 89.4842 80.6028 88.8363 81.3041 88.3473C82.1556 87.8783 82.9726 87.3495 83.7489 86.765C84.6522 85.9155 85.7604 85.3752 86.6728 84.5883C87.381 83.9777 88.5139 84.3258 89.0208 83.2275C89.3902 82.4283 90.773 82.7211 91.2387 81.7873C92.5152 81.7449 93.1114 80.5089 94.2707 80.1026L94.4252 80.0544C95.6465 79.7213 96.6889 78.7354 97.8095 78.0364C98.8902 77.2711 100.021 76.5788 101.195 75.9644C103.398 74.9724 105.299 73.4608 107.452 72.4361C109.505 71.4605 111.353 70.0322 113.592 69.4883C114.121 69.3602 114.023 68.8937 114.387 68.6946C114.766 68.4864 115.181 68.6243 115.523 68.3841C116.939 67.4604 126.399 34.8398 220.381 34.8398Z" fill="#EDCD27"/>
<path fill-rule="evenodd" clip-rule="evenodd" d="M114.366 104.76C111.222 106.534 106.619 104.271 106.103 100.699C108.108 100.592 110.251 100.436 111.836 99.2029C113.421 97.9703 113.976 95.2408 112.387 94.0132C99.4514 92.4245 86.8675 88.0293 75.7554 81.2189C83.343 78.9326 89.8718 74.11 96.9986 70.645C104.125 67.1799 112.745 65.1306 119.853 68.6344C126.833 72.0748 134.867 67.6863 142.15 64.9468C154.815 60.1833 169.337 60.5826 181.72 66.0351C190.755 70.013 206.064 63.5562 215.824 62.0754C231.766 59.6565 247.33 70.8302 263.338 68.8951C261.621 70.0306 259.903 71.1662 258.186 72.3017C259.878 72.1471 261.577 72.0846 263.276 72.1145C249.99 78.472 236.705 84.8294 223.42 91.1868C226.785 92.5482 230.151 93.9095 233.516 95.2709C232.725 97.8073 229.889 99.5204 227.276 99.0402C229.379 100.714 231.481 102.387 233.584 104.06C231.34 105.654 228.499 106.387 225.763 106.077C228.677 107.958 231.081 110.619 232.658 113.707C239.598 111.395 247.2 111.111 254.293 112.897C247.884 113.737 241.476 114.577 235.067 115.418C236.034 118.053 237.002 120.688 237.97 123.323C246.343 121.407 255.24 121.842 263.386 124.567C255.309 124.773 247.232 124.978 239.155 125.184C238.966 135.9 233.631 146.828 224.264 152.035C214.896 157.243 196.178 161.873 189.978 146.711C185.231 149.826 185.567 157.314 188.952 161.873C192.336 166.432 197.713 168.955 202.575 171.886C218.728 181.62 230.911 197.741 235.867 215.938C240.822 234.135 238.496 254.207 229.51 270.788C241.625 272.671 252.883 279.566 260.066 289.502C275.536 282.304 284.104 265.88 295.954 253.603C309.433 239.639 328.041 230.737 347.373 229.006C358.811 227.982 371.855 230.187 378.526 239.534C387.198 251.683 379.203 270.572 365.361 276.157C354.388 280.584 342.012 278.357 330.209 279.194C306.476 280.875 285.639 294.87 266.069 308.402C265.271 312.784 266.873 317.528 270.164 320.528C277.164 313.292 285.994 307.841 295.6 304.825C299.151 303.71 304.473 304.001 304.867 307.702C305.016 309.102 304.28 310.431 303.534 311.626C297.13 321.892 288.1 330.506 277.543 336.418C271.97 339.539 265.743 341.958 259.366 341.601C252.989 341.243 246.495 337.563 244.329 331.554C243.325 328.77 243.217 325.547 241.316 323.278C238.1 319.44 231.923 320.589 227.415 322.769C222.907 324.949 218.102 327.914 213.265 326.62C201.173 323.386 188.588 321.999 176.082 322.523C160.155 323.189 143.927 326.897 128.496 322.897C123.341 321.561 117.572 319.454 113.006 322.193C104.006 327.592 110.077 344.874 100.844 349.864C97.5735 351.631 93.5656 350.979 89.9577 350.084C74.0139 346.126 59.059 338.246 46.7807 327.333C45.5974 326.281 44.3782 325.099 44.0465 323.551C43.0516 318.908 49.9057 316.976 54.576 317.836C62.5095 319.296 70.0971 322.603 76.5673 327.421C78.8354 329.109 82.2864 327.139 83.2474 324.48C84.2083 321.82 83.5471 318.892 83.172 316.089C80.8034 298.386 91.9096 279.773 108.614 273.452C98.5005 258.693 94.6547 239.782 98.2004 222.246C101.746 204.709 112.636 188.778 127.689 179.107C133.703 175.244 140.612 172.084 144.444 166.051C148.276 160.018 146.594 149.896 139.584 148.505C132.978 155.66 122.234 158.685 112.865 156.03C103.497 153.375 95.9384 145.161 94.0691 135.605C87.8511 137.705 81.633 139.805 75.415 141.905C80.934 137.651 87.47 134.727 94.3191 133.446C94.9764 130.598 95.6338 127.75 96.2911 124.901C84.4264 124.136 72.3945 126.089 61.3808 130.567C68.1582 125.465 76.7813 122.873 85.2482 123.392C93.8602 123.919 102.614 119.706 107.574 112.646C104.471 111.555 101.682 109.585 99.6161 107.026C102.781 105.308 106.614 104.863 110.088 105.809M175.233 291.56C174.668 292.109 174.06 292.762 174.1 293.549C174.14 294.337 175.321 294.924 175.728 294.249C177.952 290.566 181.818 287.918 186.056 287.176C190.294 286.434 194.831 287.612 198.173 290.321C199.339 291.266 200.38 292.395 201.712 293.087C202.192 293.335 203.013 293.342 203.033 292.802C203.039 292.625 202.938 292.464 202.838 292.317C200.438 288.779 196.849 286.063 192.792 284.715C189.236 283.534 185.116 283.459 181.935 285.441C180.78 286.16 179.795 287.118 178.82 288.067C177.624 289.231 176.428 290.395 175.233 291.56ZM157.987 285.123C153.382 284.514 148.426 286.059 145.36 289.547C144.819 290.162 144.328 290.854 144.142 291.651C143.956 292.449 144.131 293.371 144.749 293.908C147.12 290.224 151.335 287.794 155.712 287.587C160.089 287.381 164.513 289.403 167.221 292.848C167.645 293.387 168.049 293.976 168.65 294.305C169.251 294.634 170.126 294.592 170.491 294.012C170.928 293.32 170.4 292.435 169.861 291.82C166.802 288.325 162.591 285.731 157.987 285.123ZM190.461 280.409C190.39 281.188 191.418 281.672 192.157 281.417C192.896 281.162 193.386 280.482 193.881 279.876C197.997 274.843 205.834 273.326 211.531 276.461C212.278 275.83 212.321 274.62 211.821 273.779C211.321 272.939 210.408 272.423 209.476 272.125C207.458 271.48 205.268 271.7 203.191 272.12C198.277 273.114 193.313 275.444 190.729 279.741C190.605 279.948 190.483 280.168 190.461 280.409ZM171.143 296.741C169.123 296.881 167.146 297.416 165.256 298.14C162.642 299.14 160.069 300.597 158.54 302.94C160.783 303.575 162.933 301.902 164.983 300.79C169.579 298.295 175.542 298.553 179.906 301.435C181.275 302.34 183.035 303.508 184.37 302.553C181.246 298.638 176.139 296.394 171.143 296.741ZM179.44 295.478C180.972 294.68 182.197 293.384 183.716 292.562C185.809 291.43 188.416 291.299 190.611 292.216C191.804 292.714 192.859 293.493 194.034 294.031C195.209 294.569 196.608 294.848 197.778 294.3C197.908 294.24 198.042 294.16 198.097 294.027C198.186 293.812 198.028 293.58 197.874 293.405C195.256 290.415 191.152 288.796 187.198 289.19C183.243 289.585 179.541 291.984 177.565 295.432C177.977 295.975 178.836 295.794 179.44 295.478ZM148.761 295.621C149.581 295.154 150.223 294.433 150.974 293.86C152.474 292.714 154.429 292.186 156.305 292.404C158.395 292.647 160.28 293.753 162.008 294.953C162.514 295.304 163.03 295.673 163.629 295.812C164.229 295.952 164.943 295.801 165.282 295.287C165.617 294.779 165.483 294.07 165.124 293.579C164.765 293.087 164.226 292.764 163.701 292.456C161.564 291.203 159.306 289.95 156.833 289.822C153.741 289.663 150.867 291.274 148.193 292.835C147.108 293.468 145.863 294.426 146.093 295.661C146.835 296.244 147.94 296.088 148.761 295.621ZM162.686 283.635C163.244 284.358 164.337 283.583 164.953 282.91C166.851 280.836 169.587 279.552 172.396 279.417C175.204 279.282 178.051 280.298 180.139 282.181C180.666 282.656 181.221 283.217 181.93 283.236C182.639 283.255 183.277 282.266 182.715 281.834C179.705 279.521 176.202 277.631 172.414 277.381C168.626 277.132 164.543 278.831 162.79 282.198C162.555 282.649 162.375 283.233 162.686 283.635ZM196.178 283.002C196.678 282.791 197.045 282.361 197.427 281.976C200.342 279.044 205.28 278.388 208.858 280.458C209.753 280.976 211.099 281.547 211.619 280.654C212.053 279.908 211.28 279.041 210.543 278.594C205.73 275.676 198.868 276.787 195.223 281.076C194.851 281.513 194.495 282.112 194.75 282.626C194.992 283.112 195.678 283.214 196.178 283.002ZM198.839 283.278C198.632 283.451 198.425 283.645 198.338 283.9C198.095 284.612 198.961 285.279 199.712 285.22C200.462 285.16 201.101 284.677 201.782 284.356C203.442 283.573 205.438 283.76 207.123 284.488C207.79 284.776 208.436 285.147 209.154 285.256C209.873 285.364 210.711 285.126 211.038 284.477C208.181 280.937 202.33 280.361 198.839 283.278ZM153.676 281.919C154.102 282.119 154.684 282.081 154.958 281.698C155.331 281.177 154.931 280.469 154.535 279.965C153.195 278.261 151.753 276.583 149.91 275.439C148.067 274.296 145.747 273.746 143.694 274.447C143.486 275.205 144.429 275.719 145.172 275.978C148.03 276.975 150.624 278.719 152.627 280.989C152.938 281.343 153.249 281.719 153.676 281.919ZM178.936 283.821C175.563 281.67 170.958 281.632 167.55 283.728C166.958 284.092 166.349 284.604 166.303 285.298C166.257 285.992 167.199 286.636 167.666 286.121C169.549 284.045 172.989 283.615 175.326 285.162C176.473 285.922 178.12 285.818 179.163 284.921C179.655 284.869 179.354 284.088 178.936 283.821ZM203.475 295.462C198.682 295.139 194.222 297.958 190.743 301.271C190.996 301.857 191.86 301.702 192.445 301.448C196.407 299.734 200.37 298.019 204.332 296.304C204.63 295.91 203.968 295.495 203.475 295.462ZM157.857 297.597C158.446 297.931 159.023 298.386 159.701 298.386C160.379 298.387 161.05 297.571 160.621 297.047C159.267 295.397 157.14 294.41 155.006 294.443C152.872 294.475 150.776 295.527 149.473 297.217C149.634 297.832 150.386 298.115 151.014 298.023C151.643 297.931 152.196 297.577 152.779 297.325C154.391 296.626 156.328 296.73 157.857 297.597ZM181.627 297.147C181.573 297.618 182.108 297.979 182.582 297.954C183.056 297.928 183.473 297.65 183.889 297.421C185.635 296.459 187.785 296.262 189.677 296.89C190.889 297.293 192.402 297.951 193.277 297.02C193.354 296.489 192.82 296.087 192.346 295.835C190.647 294.931 188.776 294.249 186.851 294.267C184.926 294.285 182.94 295.092 181.841 296.672C181.741 296.816 181.647 296.972 181.627 297.147ZM178.048 276.436C180.029 277.146 181.875 278.233 183.456 279.622C184.108 280.195 184.732 280.829 185.522 281.186C186.313 281.543 187.339 281.553 187.958 280.945C186.589 279.894 185.464 278.527 184.697 276.982C184.284 276.149 183.182 275.996 182.254 275.951C180.897 275.885 179.54 275.818 178.183 275.752C178.039 275.945 177.989 276.203 178.048 276.436ZM160.35 281.201C161.05 280.546 161.567 279.721 162.214 279.014C163.218 277.918 164.54 277.116 165.977 276.733C166.596 276.568 167.411 276.25 167.317 275.616C165.562 275.311 163.559 275.065 162.174 276.187C160.235 277.758 158.698 279.821 157.746 282.128C158.683 282.335 159.649 281.855 160.35 281.201ZM144.744 280.406C146.002 281.226 147.26 282.046 148.518 282.865C149.051 283.212 149.731 283.568 150.283 283.253C150.796 282.962 150.875 282.21 150.607 281.684C150.34 281.158 149.83 280.806 149.341 280.477C148.317 279.787 147.292 279.097 146.268 278.408C145.41 277.83 144.013 277.369 143.546 278.292C143.144 279.088 143.997 279.919 144.744 280.406ZM171.235 290.261C171.716 290.739 172.391 291.255 173.002 290.962C173.281 290.828 173.461 290.554 173.626 290.293C174.172 289.431 174.717 288.569 175.262 287.707C173.834 286.119 171.031 286.076 169.556 287.62C169.442 287.739 169.332 287.875 169.312 288.037C169.279 288.295 169.479 288.518 169.663 288.702C170.187 289.221 170.711 289.741 171.235 290.261ZM149.218 302.588C150.241 302.947 151.449 303.053 152.351 302.452C150.993 300.889 149.4 299.531 147.644 298.435C147.146 298.124 146.584 297.823 146.002 297.906C145.421 297.989 144.906 298.65 145.188 299.165C146.052 300.747 147.517 301.991 149.218 302.588ZM205.354 290.029C205.837 289.445 206.321 288.861 206.804 288.276C206.971 288.075 207.147 287.848 207.137 287.587C207.123 287.256 206.82 287.017 206.531 286.855C205.526 286.29 204.34 286.054 203.195 286.191C202.757 286.244 202.301 286.363 201.994 286.679C201.686 286.995 201.597 287.555 201.907 287.869C202.609 288.58 203.311 289.291 204.013 290.002C204.242 290.235 204.533 290.487 204.852 290.418C205.063 290.372 205.216 290.195 205.354 290.029ZM154.898 277.406C155.331 277.873 155.876 278.351 156.511 278.299C157.873 278.186 158.312 275.836 159.673 275.965C160.038 275.363 159.041 274.881 158.337 274.87C156.515 274.841 154.693 274.812 152.87 274.783C153.465 275.716 154.145 276.596 154.898 277.406ZM166.152 303.019C169.943 303.003 173.734 302.986 177.524 302.97C177.192 302.221 176.303 301.916 175.5 301.75C172.87 301.205 170.111 301.288 167.519 301.991C166.938 302.148 166.276 302.43 166.152 303.019ZM189.558 299.03C188.304 299.087 187.049 299.144 185.795 299.2C185.39 299.219 184.871 299.336 184.821 299.738C184.798 299.918 184.889 300.091 184.976 300.249C185.308 300.852 185.661 301.478 186.234 301.857C186.807 302.236 187.67 302.274 188.117 301.751C188.459 301.35 188.486 300.724 188.893 300.39C189.156 300.175 189.52 300.132 189.811 299.956C190.102 299.78 190.287 299.324 190.017 299.117C189.891 299.02 189.717 299.023 189.558 299.03ZM157.083 301.128C157.418 300.606 157.101 299.865 156.579 299.529C156.057 299.193 155.404 299.152 154.784 299.121C154.099 299.088 153.197 299.214 153.074 299.889C153.015 300.21 153.179 300.526 153.337 300.811C153.802 301.651 154.486 302.613 155.441 302.518C156.181 302.445 156.682 301.755 157.083 301.128ZM206.627 293.607C207.19 293.653 207.694 293.272 208.089 292.868C209.294 291.637 210.06 289.985 210.221 288.27C209.823 288.015 209.335 288.41 209.03 288.771C208.004 289.984 206.979 291.197 205.953 292.409C205.588 292.841 206.064 293.56 206.627 293.607ZM143.888 285.016C144.46 285.731 145.563 285.956 146.369 285.52C146.782 285.297 147.13 284.854 147.048 284.392C146.975 283.981 146.601 283.702 146.255 283.467C145.757 283.127 145.258 282.787 144.759 282.447C144.607 282.343 144.432 282.234 144.251 282.271C144.127 282.297 144.027 282.389 143.943 282.484C143.341 283.174 143.316 284.3 143.888 285.016ZM188.181 277.461C188.78 277.964 189.668 277.444 190.262 276.936C190.907 276.385 191.552 275.834 192.197 275.283C191.832 274.934 191.249 275.013 190.754 275.115C189.318 275.412 187.882 275.709 186.447 276.006C187.025 276.491 187.603 276.976 188.181 277.461ZM210.732 270.417C211.094 270.867 211.855 270.77 212.269 270.368C212.684 269.966 212.837 269.372 212.956 268.807C212.984 268.671 213.011 268.524 212.954 268.398C212.809 268.076 212.331 268.173 212.012 268.322C211.151 268.723 210.138 269.677 210.732 270.417Z" fill="white"/>
<path fill-rule="evenodd" clip-rule="evenodd" d="M98.2043 222.246C101.75 204.709 113.873 190.029 128.926 180.358C121.315 190.791 97.9595 207.9 105.466 226.962C117.466 257.431 164.147 262.223 162.523 262.554C134.914 268.183 95.5644 235.303 98.2043 222.246Z" fill="#E7EAEE"/>
<path fill-rule="evenodd" clip-rule="evenodd" d="M186.515 70.0625C184.595 70.2955 182.902 71.8337 182.488 73.7235C198.036 65.3639 216.815 63.2147 233.85 67.8456C233.865 76.4364 227.838 84.6993 219.654 87.3104L201.91 92.9711C206.591 93.4902 211.4 92.8038 215.749 90.9961C217.294 93.4305 219.839 95.2086 222.657 95.8217L217.203 97.0178C218.007 99.468 219.649 101.635 221.79 103.071C219.973 102.449 217.951 102.443 216.13 103.054L217.351 107.488C209.308 106.373 200.715 107.468 193.941 111.944C187.167 116.421 182.618 124.65 183.839 132.677C185.267 123.95 191.248 116.098 199.282 112.402C207.317 108.706 217.171 109.274 224.727 113.868L219.601 117.665C221.57 118.448 223.903 118.248 225.709 117.141C229.655 118.886 228.562 126.105 224.277 126.605L229.945 126.999C230.928 136.638 224.974 146.578 216.012 150.26C207.05 153.942 195.827 151.058 189.75 143.512C182.206 147.365 182.735 159.041 188.111 165.586C191.865 170.155 197.033 173.124 202.21 176.097L202.21 176.097L202.21 176.097C204.45 177.383 206.69 178.67 208.819 180.088C220.126 187.619 228.554 199.364 232.07 212.487C225.93 216.598 220.468 221.72 215.971 227.584C222.624 227.274 229.14 224.56 234.045 220.055L235.093 230.189C229.707 231.847 224.867 235.233 221.463 239.724C226.263 240.213 231.213 239.092 235.334 236.582C233.858 248.242 231.194 259.751 227.397 270.874L215.017 270.772C217.954 262.655 220.929 253.923 218.765 245.567C216.602 237.21 206.896 230.313 199.257 234.332C208.043 227.251 214.696 217.557 218.144 206.813L196.02 235.37L179.043 235.514C178.509 227.515 177.995 219.317 180.269 211.629C182.543 203.942 188.221 196.745 196.044 194.992C196.892 194.802 197.795 194.647 198.71 194.491L198.711 194.49L198.712 194.49C202.535 193.835 206.567 193.145 207.689 189.689C195.008 188.952 182.296 197.07 177.632 208.885C174.308 217.304 174.894 226.689 175.53 235.718C163.807 234.028 151.803 234.299 140.168 236.519C138.148 229.634 136.053 222.594 131.816 216.804C127.579 211.013 120.701 206.621 113.562 207.336C125.06 209.045 130.755 221.821 135.091 232.607C139.427 243.392 147.297 255.712 158.872 254.644C162.169 254.341 163.218 259.755 160.692 261.895C158.165 264.034 154.411 263.626 151.177 262.919C134.518 259.273 118.965 250.719 106.965 238.603C104.628 236.244 102.369 233.663 101.289 230.523C99.9571 226.648 100.578 222.37 101.723 218.437C107.575 198.343 125.583 184.575 142.697 172.528C151.904 166.046 151.574 149.985 142.108 143.888C135.101 150.255 125.758 154.707 116.347 153.669C106.936 152.63 98.0294 144.925 97.7259 135.461C100.682 135.201 103.579 134.294 106.155 132.821C103.626 131.923 100.776 131.961 98.2728 132.927C97.592 130.377 98.0892 127.537 99.5958 125.37L104.961 124.797C103.883 123.577 102.378 122.742 100.773 122.471C104.645 116.018 113.633 114.252 120.835 116.433C128.038 118.613 133.871 123.808 139.451 128.856C133.632 116.098 117.853 111.985 104.076 109.371L110.088 105.809C106.614 104.863 102.781 105.308 99.6161 107.026C101.682 109.585 104.471 111.555 107.574 112.646C102.614 119.706 93.8602 123.919 85.2482 123.392C76.7813 122.873 68.1582 125.465 61.3808 130.567C72.3945 126.089 84.4264 124.136 96.2911 124.901L94.3191 133.446C87.47 134.727 80.934 137.651 75.415 141.905L94.0691 135.605C95.9384 145.161 103.497 153.375 112.865 156.03C122.234 158.685 132.978 155.66 139.584 148.505C146.594 149.896 148.276 160.018 144.444 166.051C141.409 170.828 136.446 173.804 131.526 176.754C130.232 177.529 128.941 178.303 127.689 179.107C112.636 188.778 101.746 204.709 98.2004 222.246C94.6547 239.782 98.5005 258.693 108.614 273.452C91.9096 279.773 80.8034 298.386 83.172 316.089C83.2259 316.492 83.2857 316.897 83.3457 317.303L83.346 317.305L83.3464 317.308L83.3465 317.308L83.3465 317.309L83.3466 317.309L83.3466 317.309L83.3467 317.31L83.3467 317.31L83.3468 317.311L83.3469 317.311L83.3469 317.312L83.347 317.312C83.7044 319.733 84.0692 322.205 83.2474 324.48C82.2864 327.139 78.8354 329.109 76.5673 327.421C70.0971 322.603 62.5095 319.296 54.576 317.836C49.9057 316.976 43.0516 318.908 44.0465 323.551C44.3782 325.099 45.5974 326.281 46.7807 327.333C59.059 338.246 74.0139 346.126 89.9577 350.084C93.5656 350.979 97.5735 351.631 100.844 349.864C105.5 347.348 106.264 341.705 107.032 336.037C107.787 330.466 108.545 324.87 113.006 322.193C117.034 319.777 121.998 321.132 126.651 322.402C127.273 322.572 127.889 322.74 128.496 322.897C139.56 325.765 151.033 324.671 162.511 323.576L162.512 323.576C167.043 323.144 171.575 322.711 176.082 322.523C188.588 321.999 201.173 323.386 213.265 326.62C217.477 327.747 221.664 325.645 225.651 323.644C226.244 323.346 226.832 323.051 227.415 322.769C231.923 320.589 238.1 319.44 241.316 323.278C242.587 324.796 243.057 326.741 243.529 328.695C243.763 329.663 243.997 330.632 244.329 331.554C246.495 337.563 252.989 341.243 259.366 341.601C265.743 341.958 271.97 339.539 277.543 336.418C288.1 330.506 297.13 321.892 303.534 311.626C304.28 310.431 305.016 309.102 304.867 307.702C304.473 304.001 299.151 303.71 295.6 304.825C285.994 307.841 277.164 313.292 270.164 320.528C266.873 317.528 265.271 312.784 266.069 308.402C285.639 294.87 306.476 280.875 330.209 279.194C333.927 278.93 337.702 278.971 341.472 279.011H341.473H341.473H341.473H341.474H341.474H341.474H341.474H341.475H341.475H341.475H341.475H341.476H341.476H341.476H341.477H341.477H341.477H341.477H341.478H341.478H341.478H341.479H341.479H341.479H341.479H341.48H341.48H341.48H341.48H341.481H341.481H341.481H341.482H341.482C349.676 279.1 357.848 279.188 365.361 276.157C379.203 270.572 387.198 251.683 378.526 239.534C371.855 230.187 358.811 227.982 347.373 229.006C328.041 230.737 309.433 239.639 295.954 253.603C292.209 257.484 288.791 261.778 285.38 266.065L285.38 266.065C277.998 275.34 270.647 284.579 260.066 289.502C252.883 279.566 241.625 272.671 229.51 270.788C238.496 254.207 240.822 234.135 235.867 215.938C230.911 197.741 218.728 181.62 202.575 171.886C201.698 171.357 200.804 170.842 199.908 170.325L199.905 170.323L199.905 170.323L199.905 170.323L199.904 170.323L199.904 170.323L199.904 170.323L199.904 170.323L199.903 170.322L199.903 170.322L199.903 170.322L199.903 170.322L199.903 170.322L199.902 170.322L199.902 170.322L199.902 170.321L199.902 170.321L199.901 170.321L199.901 170.321L199.901 170.321L199.901 170.321L199.9 170.321L199.9 170.32L199.9 170.32L199.9 170.32L199.9 170.32L199.899 170.32L199.899 170.32L199.899 170.32C195.831 167.975 191.723 165.607 188.952 161.873C185.567 157.314 185.231 149.826 189.978 146.711C196.29 155.372 209.536 157.243 218.904 152.035C228.271 146.828 233.606 135.9 233.795 125.184L258.026 124.567C249.88 121.842 240.983 121.407 232.61 123.323L229.707 115.418L248.933 112.897C241.84 111.111 234.238 111.395 227.298 113.707C225.721 110.619 223.317 107.958 220.403 106.077C223.139 106.387 225.98 105.654 228.224 104.06L221.916 99.0402C224.529 99.5204 227.365 97.8073 228.156 95.2709L218.06 91.1868L257.916 72.1145C256.217 72.0846 254.518 72.1471 252.826 72.3017L257.978 68.8951C250.112 69.8459 242.353 67.6317 234.605 65.4203C226.583 63.1312 218.573 60.8451 210.464 62.0754C207.278 62.5587 204.072 63.5722 200.885 64.5799C194.306 66.6595 187.806 68.7146 181.72 66.0351C169.337 60.5826 154.815 60.1833 142.15 64.9468C141.03 65.3681 139.893 65.8283 138.744 66.293C132.421 68.8508 125.759 71.5458 119.853 68.6344C112.745 65.1306 104.125 67.1799 96.9986 70.645C94.4968 71.8613 92.0687 73.245 89.6427 74.6275L89.6426 74.6275C85.1576 77.1833 80.6794 79.7352 75.7554 81.2189C86.8675 88.0293 99.4514 92.4245 112.387 94.0132C113.976 95.2408 113.421 97.9703 111.836 99.2029C110.251 100.436 108.108 100.592 106.103 100.699C106.619 104.271 111.222 106.534 114.366 104.76C113.044 105.006 112.946 102.86 113.495 101.633L116.92 93.9791C119.58 94.9558 122.89 93.3887 123.821 90.7123C117.234 91.5051 110.399 92.2764 104.089 90.2271C97.779 88.1779 92.141 82.4611 92.4368 75.8332C106.489 67.6915 125.353 68.794 138.361 78.5169C137.357 75.5856 134.888 73.1975 131.925 72.2912C135.346 68.923 139.888 66.7126 144.649 66.0981C141.821 68.3361 140.524 72.3372 141.503 75.8088L154.203 64.1277C152.12 67.8627 150.953 72.1045 150.833 76.3795C155.543 73.3015 159.296 68.7796 161.453 63.5827L167.102 64.3759C163.644 67.2983 161.717 71.9419 162.09 76.4547C166.395 73.7783 169.733 69.5807 171.37 64.7834C176.675 65.6405 181.827 67.4362 186.515 70.0625ZM342.578 276.847C339.738 276.753 336.895 276.659 334.07 276.739C313.037 277.336 293.482 287.58 276.129 299.48C275.885 299.647 275.642 299.814 275.398 299.982C272.105 302.247 268.779 304.534 265.02 305.87L260.603 292.998C260.366 292.308 260.221 291.358 260.863 291.011C267.616 287.359 273.782 282.625 279.055 277.045C282.568 273.327 285.684 269.242 288.796 265.161L288.796 265.16L288.796 265.16L288.796 265.16L288.796 265.16L288.796 265.16L288.797 265.16L288.797 265.16L288.797 265.16L288.797 265.159L288.797 265.159L288.797 265.159L288.797 265.159L288.797 265.159L288.797 265.159C293.204 259.38 297.604 253.611 303.114 248.909C311.913 241.4 322.99 237.102 334.105 233.896C342.33 231.524 350.949 229.663 359.41 230.966C367.871 232.269 376.201 237.319 379.304 245.297C381.768 251.634 380.562 259.109 376.765 264.75C372.969 270.39 366.805 274.229 360.199 275.839C354.454 277.24 348.521 277.044 342.578 276.847ZM100.571 304.114C101.016 305.172 101.297 306.583 100.409 307.31C99.2653 308.247 97.643 307.04 96.6821 305.917L88.492 296.347C86.5313 301.443 85.6318 306.946 85.8673 312.402C85.9146 313.497 86.0039 314.608 86.0934 315.724C86.4358 319.986 86.7826 324.304 84.8088 327.999C83.9431 329.62 82.4698 331.108 80.636 331.227C79.5965 331.295 78.5844 330.915 77.625 330.509C74.9955 329.397 72.4045 328.03 69.8143 326.664C63.1469 323.147 56.4847 319.633 49.1838 320.471C48.1868 320.586 46.9452 321.078 46.9841 322.081C47.0016 322.53 47.2945 322.915 47.5794 323.263C58.1056 336.119 74.5663 342.353 90.5007 347.059C93.1068 347.829 95.8534 348.579 98.5071 347.994C101.161 347.41 103.624 345.017 103.304 342.319C102.456 335.179 104.693 327.726 109.332 322.234C111.184 320.041 113.526 318.09 116.336 317.506C119.788 316.789 123.161 318.211 126.484 319.612C127.337 319.971 128.187 320.33 129.035 320.65C135.529 323.106 142.829 323.374 149.486 321.401C146.883 321.367 145.633 318.246 145.094 315.7C141.599 299.204 139.741 282.361 139.556 265.499C139.536 263.666 138.25 262.045 136.699 261.067C135.386 260.24 133.888 259.78 132.399 259.322C132.129 259.239 131.86 259.156 131.591 259.071C126.17 257.353 121.061 254.653 116.587 251.141C116.024 250.699 115.469 250.242 114.913 249.786C113.201 248.379 111.488 246.97 109.522 245.962C106.919 244.626 103.698 244.082 101.089 245.406C100.507 246.793 101.559 248.404 102.906 249.074C103.926 249.581 105.068 249.718 106.208 249.855C106.573 249.899 106.938 249.943 107.299 249.999C109.013 250.266 110.682 250.824 112.212 251.643C113.819 252.504 115.341 254.776 113.909 255.904C113.321 256.366 112.498 256.334 111.753 256.279L103.343 255.661C105.393 261.239 108.007 266.609 111.132 271.664C111.412 272.117 111.786 272.622 112.32 272.627C120.559 272.701 129.759 273.854 134.98 280.228C135.97 281.436 136.782 283.182 135.933 284.493C131.147 278.714 123.661 275.272 116.159 275.402C108.656 275.531 101.293 279.23 96.7098 285.17C100.755 287.878 103.972 291.808 105.826 296.309C106.385 297.669 106.282 299.892 104.812 299.861L95.9846 289.053C95.5901 288.57 95.1161 288.046 94.4928 288.026C93.9929 288.011 93.5523 288.331 93.1557 288.636C92.2971 289.295 91.406 289.995 90.9577 290.981C90.5095 291.967 90.6763 293.323 91.61 293.872C95.5896 296.209 98.7832 299.859 100.571 304.114ZM201.216 321.029C206.885 316.3 208.734 308.513 210.256 301.289L215.835 274.818C215.894 274.535 215.963 274.236 216.166 274.03C216.435 273.759 216.856 273.73 217.238 273.718C227.406 273.411 238.232 274.38 246.423 280.414C243.081 282.071 240.159 284.569 238.003 287.612C237.398 288.466 236.893 289.75 237.671 290.449C237.963 290.712 238.37 290.804 238.762 290.832C240.714 290.971 242.498 289.752 243.924 288.412C244.232 288.123 244.534 287.824 244.836 287.525C245.937 286.437 247.042 285.343 248.438 284.704C250.217 283.889 252.69 284.118 253.672 285.811C250.498 287.428 247.882 290.118 246.355 293.336C245.957 294.174 245.629 295.142 245.951 296.012C246.273 296.882 247.54 297.392 248.163 296.704L254.295 289.934C254.592 289.607 255.004 289.248 255.419 289.399C255.643 289.481 255.789 289.693 255.917 289.894C259.167 294.993 260.459 300.931 261.756 306.895C262.516 310.387 263.277 313.887 264.435 317.234C265.363 319.915 267.154 322.927 269.991 322.929C271.559 322.93 272.946 321.965 274.187 321.007C275.514 319.983 276.834 318.909 278.16 317.83C284.396 312.754 290.775 307.564 298.629 306.942C299.867 306.845 301.455 307.118 301.746 308.325C301.915 309.026 301.537 309.732 301.161 310.348C295.323 319.903 286.566 327.438 276.892 333.078C271.939 335.965 266.508 338.445 260.775 338.49C255.042 338.534 248.972 335.603 246.805 330.295C246.363 329.212 246.093 328.069 245.823 326.927C245.511 325.606 245.199 324.286 244.622 323.063C243.135 319.91 239.84 317.691 236.36 317.498C233.046 317.314 229.998 318.79 226.957 320.264C225.889 320.781 224.821 321.298 223.743 321.743C216.586 324.694 208.171 324.428 201.216 321.029ZM163.373 264.041C161.239 265.862 158.369 266.589 155.571 266.794C150.531 267.164 145.387 265.984 141.011 263.454L142.817 270.288C142.894 270.582 142.987 270.899 143.232 271.081C143.444 271.238 143.725 271.258 143.989 271.272L169.93 272.635C173.712 272.834 177.499 273.033 181.284 272.923C191.902 272.616 202.44 269.844 211.835 264.888C212.377 264.602 212.929 264.297 213.32 263.825C213.785 263.262 213.969 262.524 214.124 261.81C215.44 255.775 215.668 249.504 214.793 243.389C214.578 241.887 214.278 240.347 213.434 239.086C212.59 237.826 211.071 236.904 209.581 237.188C194.314 240.095 178.73 239.197 163.148 238.299C157.275 237.961 151.402 237.622 145.546 237.488C144.501 237.463 143.401 237.458 142.483 237.959C141.565 238.459 140.933 239.646 141.404 240.579C144.075 245.862 149.591 249.233 155.312 250.754C155.723 250.863 156.143 250.97 156.569 251.078C160.269 252.02 164.344 253.056 165.688 256.5C166.707 259.114 165.507 262.22 163.373 264.041ZM204.993 308.814C203.947 312.969 201.747 317.279 197.756 318.837C196.36 319.382 194.848 319.545 193.355 319.684C179.518 320.971 165.532 320.661 151.765 318.761C150.945 318.648 150.081 318.51 149.442 317.984C148.664 317.344 148.4 316.284 148.196 315.297C147.571 312.272 147.087 309.217 146.745 306.147C146.685 305.603 146.836 304.828 147.381 304.87C156.19 305.555 165.025 305.915 173.861 305.949C179.956 305.972 186.1 305.835 192.053 304.526C198.006 303.216 203.81 300.658 208.162 296.39C206.925 298.988 206.392 301.826 205.859 304.669C205.598 306.059 205.337 307.449 204.993 308.814ZM175.233 291.56C174.668 292.109 174.06 292.762 174.1 293.55C174.14 294.337 175.321 294.924 175.728 294.249C177.952 290.566 181.818 287.918 186.056 287.176C190.294 286.434 194.831 287.612 198.173 290.321C198.52 290.602 198.856 290.9 199.192 291.197L199.192 291.198C199.985 291.9 200.777 292.601 201.712 293.087C202.192 293.335 203.013 293.342 203.033 292.802C203.039 292.625 202.938 292.464 202.838 292.317C200.438 288.779 196.849 286.063 192.792 284.715C189.236 283.534 185.116 283.459 181.935 285.441C180.78 286.16 179.795 287.118 178.82 288.067L175.233 291.56ZM145.36 289.547C148.426 286.059 153.382 284.514 157.987 285.123C162.591 285.731 166.802 288.325 169.861 291.82C170.4 292.435 170.928 293.32 170.491 294.012C170.126 294.592 169.251 294.634 168.65 294.305C168.125 294.018 167.751 293.533 167.383 293.056L167.293 292.941L167.254 292.89L167.221 292.848C164.513 289.403 160.089 287.381 155.712 287.587C151.335 287.794 147.12 290.224 144.749 293.908C144.131 293.371 143.956 292.449 144.142 291.651C144.328 290.854 144.819 290.162 145.36 289.547ZM190.461 280.409C190.39 281.188 191.418 281.672 192.157 281.417C192.822 281.188 193.286 280.614 193.732 280.06L193.733 280.06L193.733 280.06L193.734 280.059C193.783 279.997 193.832 279.937 193.881 279.876C197.997 274.843 205.834 273.326 211.531 276.461C212.278 275.83 212.321 274.62 211.821 273.779C211.321 272.939 210.408 272.423 209.476 272.125C207.458 271.48 205.268 271.7 203.191 272.12C198.277 273.114 193.313 275.444 190.729 279.741C190.605 279.948 190.483 280.168 190.461 280.409ZM165.256 298.14C167.146 297.416 169.123 296.881 171.143 296.741C176.139 296.394 181.246 298.638 184.37 302.553C183.039 303.504 181.287 302.347 179.919 301.444L179.906 301.435C175.542 298.553 169.579 298.295 164.983 300.79C164.624 300.984 164.263 301.196 163.898 301.409L163.898 301.41L163.897 301.41C162.178 302.417 160.39 303.463 158.54 302.94C160.069 300.597 162.642 299.14 165.256 298.14ZM179.44 295.478C180.224 295.07 180.927 294.531 181.63 293.993L181.63 293.992C182.302 293.478 182.974 292.963 183.716 292.562C185.809 291.43 188.416 291.299 190.611 292.216C191.252 292.484 191.853 292.832 192.454 293.181L192.455 293.181C192.972 293.482 193.49 293.782 194.034 294.031C195.209 294.569 196.608 294.848 197.778 294.3C197.908 294.24 198.042 294.16 198.097 294.027C198.186 293.812 198.028 293.58 197.874 293.405C195.256 290.415 191.152 288.796 187.198 289.19C183.243 289.585 179.541 291.984 177.565 295.432C177.977 295.975 178.836 295.794 179.44 295.478ZM150.168 294.539C149.722 294.934 149.276 295.328 148.761 295.621C147.94 296.088 146.835 296.244 146.093 295.661C145.863 294.426 147.108 293.468 148.193 292.835C150.867 291.274 153.741 289.663 156.833 289.822C159.306 289.95 161.564 291.203 163.701 292.456C164.226 292.764 164.765 293.087 165.124 293.579C165.483 294.07 165.617 294.779 165.282 295.287C164.943 295.801 164.229 295.952 163.629 295.812C163.052 295.678 162.553 295.331 162.065 294.992L162.008 294.953C160.28 293.753 158.395 292.647 156.305 292.404C154.429 292.186 152.474 292.714 150.974 293.86C150.695 294.073 150.431 294.306 150.168 294.539ZM162.686 283.635C163.244 284.358 164.337 283.583 164.953 282.91C166.851 280.836 169.587 279.552 172.396 279.417C175.204 279.282 178.051 280.298 180.139 282.181C180.181 282.219 180.222 282.257 180.265 282.295L180.267 282.297C180.756 282.743 181.278 283.218 181.93 283.236C182.639 283.255 183.278 282.266 182.715 281.834C179.705 279.521 176.202 277.631 172.414 277.381C168.626 277.132 164.544 278.831 162.79 282.198C162.555 282.649 162.375 283.233 162.686 283.635ZM197.258 282.149C196.933 282.483 196.604 282.822 196.178 283.002C195.678 283.214 194.992 283.112 194.75 282.626C194.495 282.112 194.851 281.513 195.223 281.076C198.868 276.787 205.73 275.676 210.543 278.594C211.28 279.041 212.053 279.908 211.619 280.654C211.099 281.547 209.753 280.976 208.858 280.458C205.28 278.388 200.342 279.044 197.427 281.976C197.399 282.004 197.372 282.032 197.344 282.061L197.258 282.149ZM198.839 283.278C198.632 283.451 198.425 283.645 198.338 283.9C198.095 284.612 198.961 285.279 199.712 285.22C200.255 285.176 200.739 284.912 201.224 284.647C201.409 284.546 201.594 284.445 201.782 284.356C203.442 283.573 205.438 283.76 207.123 284.488C207.191 284.517 207.258 284.547 207.325 284.577C207.363 284.594 207.4 284.611 207.437 284.629C207.491 284.653 207.545 284.678 207.599 284.703L207.6 284.704C208.104 284.939 208.608 285.173 209.154 285.256C209.873 285.364 210.711 285.126 211.038 284.477C208.181 280.937 202.33 280.361 198.839 283.278ZM154.958 281.698C154.684 282.081 154.102 282.119 153.676 281.919C153.28 281.733 152.983 281.395 152.693 281.065L152.693 281.065L152.627 280.989C150.624 278.719 148.03 276.975 145.172 275.978C144.429 275.719 143.486 275.205 143.694 274.447C145.747 273.746 148.067 274.296 149.91 275.439C151.753 276.583 153.195 278.261 154.535 279.965C154.931 280.469 155.331 281.177 154.958 281.698ZM178.936 283.821C175.563 281.67 170.958 281.632 167.55 283.728C166.958 284.092 166.349 284.604 166.303 285.298C166.257 285.992 167.199 286.636 167.666 286.121C169.549 284.045 172.989 283.615 175.326 285.162C176.473 285.922 178.12 285.818 179.163 284.921C179.655 284.869 179.354 284.088 178.936 283.821ZM190.743 301.272C194.222 297.959 198.682 295.139 203.476 295.462C203.968 295.495 204.63 295.91 204.332 296.304L192.445 301.449C191.86 301.702 190.996 301.857 190.743 301.272ZM158.207 297.805L158.207 297.806C158.679 298.094 159.158 298.386 159.701 298.386C160.379 298.387 161.05 297.571 160.621 297.047C159.267 295.397 157.14 294.41 155.006 294.443C152.872 294.475 150.776 295.527 149.473 297.217C149.634 297.832 150.386 298.115 151.014 298.023C151.467 297.957 151.881 297.755 152.296 297.552C152.456 297.474 152.616 297.395 152.779 297.325C154.391 296.626 156.328 296.73 157.857 297.597C157.973 297.663 158.09 297.734 158.207 297.805ZM182.582 297.954C182.108 297.98 181.573 297.618 181.627 297.147C181.647 296.972 181.741 296.816 181.841 296.672C182.94 295.092 184.926 294.285 186.851 294.267C188.776 294.249 190.647 294.931 192.346 295.835C192.82 296.087 193.354 296.489 193.277 297.02C192.489 297.858 191.185 297.409 190.048 297.017L190.046 297.016C189.921 296.973 189.797 296.93 189.677 296.89C187.785 296.262 185.635 296.459 183.889 297.421C183.862 297.436 183.834 297.451 183.807 297.467L183.708 297.522C183.351 297.725 182.988 297.931 182.582 297.954ZM178.048 276.436C180.029 277.146 181.875 278.233 183.456 279.622C183.493 279.654 183.529 279.687 183.566 279.72C183.639 279.785 183.712 279.85 183.785 279.916C184.323 280.401 184.865 280.89 185.522 281.186C186.313 281.543 187.339 281.553 187.958 280.945C186.589 279.894 185.464 278.527 184.697 276.982C184.284 276.149 183.182 275.996 182.254 275.951L178.183 275.752C178.039 275.945 177.989 276.203 178.048 276.436ZM161.458 279.929C161.11 280.373 160.761 280.816 160.349 281.201C159.649 281.855 158.682 282.335 157.746 282.128C158.698 279.821 160.235 277.758 162.174 276.187C163.559 275.065 165.562 275.311 167.317 275.616C167.411 276.25 166.596 276.568 165.977 276.733C164.54 277.116 163.218 277.918 162.214 279.014C161.947 279.306 161.703 279.617 161.458 279.929ZM144.744 280.406L148.518 282.865C149.051 283.212 149.731 283.568 150.283 283.253C150.796 282.962 150.875 282.21 150.607 281.684C150.34 281.158 149.83 280.806 149.341 280.477L146.268 278.408C145.41 277.83 144.013 277.369 143.546 278.292C143.144 279.088 143.997 279.919 144.744 280.406ZM173.002 290.962C172.391 291.255 171.716 290.739 171.235 290.261L169.663 288.702C169.479 288.518 169.279 288.295 169.312 288.037C169.332 287.875 169.442 287.739 169.556 287.62C171.031 286.076 173.834 286.119 175.262 287.707L173.626 290.293C173.461 290.554 173.281 290.828 173.002 290.962ZM149.218 302.588C150.241 302.947 151.449 303.053 152.351 302.452C150.993 300.889 149.4 299.531 147.644 298.435C147.146 298.124 146.584 297.823 146.002 297.906C145.421 297.989 144.906 298.65 145.188 299.165C146.052 300.747 147.517 301.991 149.218 302.588ZM206.805 288.276L205.354 290.029C205.216 290.195 205.063 290.372 204.852 290.418C204.533 290.487 204.242 290.235 204.013 290.002L201.907 287.869C201.597 287.555 201.686 286.995 201.994 286.679C202.301 286.363 202.757 286.244 203.195 286.191C204.34 286.054 205.526 286.29 206.531 286.855C206.82 287.017 207.123 287.256 207.137 287.587C207.147 287.848 206.971 288.075 206.805 288.276ZM154.898 277.406C155.331 277.873 155.876 278.351 156.511 278.299C157.169 278.244 157.612 277.668 158.047 277.1C158.513 276.494 158.97 275.898 159.673 275.965C160.038 275.363 159.041 274.881 158.337 274.87L152.87 274.783C153.465 275.716 154.145 276.596 154.898 277.406ZM177.524 302.97L166.152 303.019C166.276 302.43 166.938 302.148 167.519 301.991C170.111 301.288 172.87 301.205 175.5 301.75C176.303 301.916 177.192 302.221 177.524 302.97ZM189.558 299.03L185.795 299.2C185.39 299.219 184.871 299.336 184.821 299.738C184.799 299.918 184.889 300.091 184.976 300.249C185.308 300.852 185.661 301.478 186.234 301.857C186.807 302.236 187.67 302.274 188.117 301.751C188.27 301.571 188.36 301.345 188.45 301.122C188.56 300.847 188.669 300.574 188.893 300.39C189.042 300.268 189.224 300.201 189.406 300.135C189.545 300.084 189.685 300.032 189.811 299.956C190.102 299.78 190.287 299.324 190.017 299.117C189.891 299.02 189.717 299.023 189.558 299.03ZM156.58 299.529C157.102 299.865 157.419 300.606 157.084 301.128C156.683 301.755 156.182 302.445 155.442 302.518C154.487 302.613 153.803 301.651 153.338 300.811C153.18 300.526 153.016 300.21 153.075 299.889C153.198 299.214 154.1 299.088 154.785 299.121C155.405 299.152 156.058 299.193 156.58 299.529ZM206.627 293.607C207.19 293.653 207.694 293.272 208.089 292.868C209.294 291.637 210.06 289.985 210.221 288.27C209.823 288.015 209.335 288.41 209.03 288.771L205.953 292.41C205.588 292.841 206.064 293.561 206.627 293.607ZM146.369 285.52C145.563 285.956 144.46 285.731 143.888 285.016C143.316 284.3 143.341 283.174 143.943 282.484C144.027 282.389 144.127 282.297 144.251 282.271C144.432 282.234 144.607 282.343 144.759 282.447L146.255 283.467C146.601 283.702 146.975 283.981 147.048 284.392C147.13 284.854 146.782 285.297 146.369 285.52ZM188.181 277.461C188.78 277.964 189.668 277.444 190.262 276.936L192.197 275.283C191.832 274.934 191.249 275.013 190.754 275.115L186.447 276.006L188.181 277.461ZM101.092 239.572C100.652 239.181 100.54 238.541 100.526 237.953C100.512 237.289 100.589 236.623 100.757 235.98L103.612 239.697C103.783 239.919 103.922 240.3 103.671 240.422C103.314 240.182 102.875 240.115 102.439 240.047C101.945 239.971 101.456 239.895 101.092 239.572ZM210.732 270.417C211.094 270.867 211.855 270.77 212.269 270.368C212.684 269.966 212.837 269.372 212.956 268.807C212.984 268.671 213.011 268.524 212.954 268.398C212.809 268.076 212.331 268.173 212.012 268.322C211.151 268.723 210.138 269.677 210.732 270.417ZM178.419 106.071C178.768 105.198 179.582 104.608 180.383 104.116C182.8 102.632 185.485 101.583 188.269 101.036C188.935 100.905 189.729 100.841 190.191 101.339C190.711 101.898 190.451 102.865 189.874 103.365C189.359 103.81 188.682 103.993 188.02 104.171L187.962 104.187C187.901 104.204 187.839 104.22 187.778 104.237C185.551 104.854 183.457 105.942 181.673 107.41C180.987 107.974 180.174 108.639 179.318 108.401C178.412 108.15 178.069 106.943 178.419 106.071ZM128.343 106.275C127.697 105.925 127.26 105.051 127.662 104.436C127.896 104.078 128.333 103.915 128.747 103.81C132.103 102.958 135.579 104.462 138.614 106.128C139.298 106.503 140.001 106.911 140.432 107.561C140.863 108.211 140.926 109.174 140.364 109.714C139.423 110.618 137.931 109.688 136.869 108.93C135.009 107.603 132.774 106.808 130.494 106.662C130.392 106.655 130.29 106.65 130.187 106.644C129.549 106.61 128.9 106.576 128.343 106.275ZM163.53 154.398L161.322 148.101C159.357 149.519 157.888 151.611 157.222 153.941C156.618 153.45 156.596 152.621 156.574 151.806C156.568 151.563 156.561 151.321 156.539 151.089C156.409 149.717 155.547 148.435 154.324 147.797C153.102 147.158 151.558 147.183 150.357 147.861C150.675 148.558 151.426 148.779 152.198 149.007L152.198 149.007C152.711 149.158 153.234 149.312 153.647 149.611C154.518 150.241 154.767 151.428 154.781 152.503C154.784 152.772 154.777 153.044 154.77 153.316C154.75 154.128 154.729 154.941 154.983 155.705C155.065 155.952 155.181 156.198 155.381 156.365C155.947 156.836 156.804 156.444 157.378 155.982C158.674 154.937 159.692 153.553 160.304 152.005C160.843 152.544 161.043 153.3 161.24 154.051C161.298 154.272 161.356 154.492 161.423 154.705C161.715 155.647 162.414 156.654 163.399 156.608C164.056 156.578 164.585 156.084 165.05 155.619L167.721 152.951C168.043 152.629 168.392 152.22 168.288 151.777C168.189 151.352 167.685 151.124 167.252 151.185C166.82 151.246 166.45 151.519 166.111 151.795C165.163 152.569 164.296 153.443 163.53 154.398ZM157.427 129.139C157.57 127.985 157.648 126.641 156.8 125.845C155.218 124.36 153.832 122.666 152.691 120.821C152.193 120.016 151.725 119.076 151.962 118.16C152.321 116.776 154.003 116.276 155.422 116.103C157.692 115.827 159.989 115.78 162.269 115.963C163.248 116.042 164.286 116.189 165.036 116.824C165.786 117.46 166.056 118.748 165.333 119.413C161.786 122.673 159.71 127.475 159.763 132.292C161.078 133.145 162.415 134.009 163.913 134.471C165.411 134.933 167.119 134.948 168.47 134.153C169.039 133.818 169.516 133.361 169.995 132.902C170.325 132.585 170.656 132.268 171.017 131.99C171.903 131.311 173.171 130.89 174.119 131.478L170.509 134.802C169.071 136.126 167.284 137.551 165.38 137.105C164.749 136.957 164.195 136.616 163.64 136.274L163.64 136.274C163.309 136.07 162.977 135.866 162.629 135.702C160.764 134.825 158.576 135.152 156.561 135.585C156.439 135.611 156.316 135.638 156.193 135.665C154.291 136.077 152.323 136.503 150.457 135.991C148.469 135.446 146.726 133.38 147.348 131.415C148.599 133.246 150.778 134.407 152.995 134.424C153.847 134.431 154.725 134.268 155.43 133.791C156.874 132.814 157.214 130.869 157.427 129.139Z" fill="#00160A"/>
</svg>
