<svg width="21" height="20" viewBox="0 0 21 20" fill="none" xmlns="http://www.w3.org/2000/svg">
<path fill-rule="evenodd" clip-rule="evenodd" d="M16.02 13.6591C18.606 10.3378 18.3725 5.53277 15.3193 2.47959C12.0132 -0.826529 6.65289 -0.826528 3.34677 2.47959C0.0406588 5.7857 0.0406588 11.146 3.34677 14.4521C6.39996 17.5053 11.205 17.7388 14.5263 15.1528C14.5406 15.169 14.5555 15.1849 14.571 15.2004L19.0607 19.6901C19.4739 20.1033 20.144 20.1033 20.5572 19.6901C20.9705 19.2768 20.9705 18.6068 20.5572 18.1935L16.0676 13.7038C16.0521 13.6883 16.0362 13.6734 16.02 13.6591ZM13.8227 3.97615C16.3023 6.45573 16.3023 10.4759 13.8227 12.9555C11.3431 15.4351 7.32292 15.4351 4.84334 12.9555C2.36375 10.4759 2.36375 6.45573 4.84334 3.97615C7.32292 1.49656 11.3431 1.49656 13.8227 3.97615Z" fill="#4285F4"/>
</svg>
