<svg width="40" height="40" viewBox="0 0 40 40" fill="none" xmlns="http://www.w3.org/2000/svg">
<circle cx="20" cy="20" r="20" fill="#4285F4"/>
<path d="M13.2969 21.1787V21.4111C13.3151 22.1904 13.3994 22.7396 13.5498 23.0586C13.7048 23.373 14.0329 23.5303 14.5342 23.5303C15.0309 23.5303 15.359 23.3571 15.5186 23.0107C15.6143 22.8057 15.6621 22.4593 15.6621 21.9717V14.9238H17.7676V21.9375C17.7676 22.7943 17.6195 23.4733 17.3232 23.9746C16.8219 24.8223 15.9173 25.2461 14.6094 25.2461C13.3014 25.2461 12.4242 24.9043 11.9775 24.2207C11.5309 23.5326 11.3076 22.596 11.3076 21.4111V21.1787H13.2969ZM21.4538 21.8896C21.5176 22.3499 21.6429 22.694 21.8298 22.9219C22.1716 23.3366 22.7572 23.5439 23.5866 23.5439C24.0833 23.5439 24.4867 23.4893 24.7966 23.3799C25.3845 23.1702 25.6784 22.7806 25.6784 22.2109C25.6784 21.8783 25.5326 21.6208 25.2409 21.4385C24.9492 21.2607 24.4912 21.1035 23.8669 20.9668L22.8005 20.7275C21.7523 20.4906 21.0277 20.2331 20.6266 19.9551C19.9476 19.4902 19.6081 18.7633 19.6081 17.7744C19.6081 16.8721 19.9362 16.1224 20.5925 15.5254C21.2487 14.9284 22.2126 14.6299 23.4841 14.6299C24.5459 14.6299 25.4505 14.9124 26.1979 15.4775C26.9499 16.0381 27.3441 16.8538 27.3805 17.9248H25.3571C25.3207 17.3187 25.0563 16.888 24.5641 16.6328C24.236 16.4642 23.8281 16.3799 23.3405 16.3799C22.7982 16.3799 22.3652 16.4893 22.0417 16.708C21.7181 16.9268 21.5563 17.2321 21.5563 17.624C21.5563 17.984 21.7158 18.2529 22.0348 18.4307C22.2399 18.5492 22.6774 18.6882 23.3473 18.8477L25.0837 19.2646C25.8447 19.4469 26.419 19.6908 26.8063 19.9961C27.4079 20.4701 27.7087 21.1559 27.7087 22.0537C27.7087 22.9743 27.3555 23.7399 26.6491 24.3506C25.9473 24.9567 24.9538 25.2598 23.6686 25.2598C22.3561 25.2598 21.3239 24.9613 20.572 24.3643C19.82 23.7627 19.444 22.9378 19.444 21.8896H21.4538Z" fill="white"/>
</svg>
