<svg width="128" height="164" viewBox="0 0 128 164" fill="currentColor" xmlns="http://www.w3.org/2000/svg">
<path d="M99.3327 54.75C99.885 54.75 100.333 55.1977 100.333 55.75V145.583H27.666V55.75C27.666 55.1977 28.1137 54.75 28.666 54.75H99.3327ZM87.5864 1.12868C87.0238 0.566071 86.2607 0.25 85.4651 0.25H42.5337C41.738 0.25 40.9749 0.56607 40.4123 1.12868L32.2077 9.33333H2.41602C1.31145 9.33333 0.416016 10.2288 0.416016 11.3333V25.5C0.416016 26.6046 1.31145 27.5 2.41602 27.5H125.583C126.687 27.5 127.583 26.6046 127.583 25.5V11.3333C127.583 10.2288 126.687 9.33333 125.583 9.33333H95.791L87.5864 1.12868ZM118.499 40.5833C118.499 38.3742 116.709 36.5833 114.499 36.5833H13.4994C11.2902 36.5833 9.49935 38.3742 9.49935 40.5833V145.583C9.49935 155.575 17.6744 163.75 27.666 163.75H100.333C110.324 163.75 118.499 155.575 118.499 145.583V40.5833Z" />
</svg>
