<svg width="27" height="27" viewBox="0 0 27 27" fill="none" xmlns="http://www.w3.org/2000/svg">
<path fill-rule="evenodd" clip-rule="evenodd" d="M10.4799 4.99994C9.51342 4.99994 8.72992 5.78344 8.72992 6.74994V7.4954C8.72992 7.58043 8.73598 7.66405 8.7477 7.74584H6.75C5.7835 7.74584 5 8.52934 5 9.49584V19.8504C5 20.8169 5.7835 21.6004 6.75 21.6004H19.6667C20.6332 21.6004 21.4167 20.8169 21.4167 19.8504V9.49584C21.4167 8.52934 20.6332 7.74584 19.6667 7.74584H17.6705C17.6822 7.66405 17.6883 7.58043 17.6883 7.49539V6.74994C17.6883 5.78344 16.9047 4.99994 15.9383 4.99994H10.4799ZM10.2299 6.74994C10.2299 6.61187 10.3418 6.49994 10.4799 6.49994H15.9383C16.0763 6.49994 16.1883 6.61187 16.1883 6.74994V7.49539C16.1883 7.63347 16.0763 7.7454 15.9383 7.7454H10.4799C10.3418 7.7454 10.2299 7.63347 10.2299 7.4954V6.74994ZM6.75 9.24584C6.61193 9.24584 6.5 9.35777 6.5 9.49584V19.8504C6.5 19.9885 6.61193 20.1004 6.75 20.1004H19.6667C19.8047 20.1004 19.9167 19.9885 19.9167 19.8504V9.49584C19.9167 9.35777 19.8047 9.24584 19.6667 9.24584H6.75ZM9.43776 13.537C9.43776 12.5705 10.2213 11.787 11.1878 11.787H15.4528C16.4193 11.787 17.2028 12.5705 17.2028 13.537V14.6696C17.2028 15.6361 16.4193 16.4196 15.4528 16.4196H11.1878C10.2213 16.4196 9.43776 15.6361 9.43776 14.6696V13.537ZM11.1878 13.287C11.0497 13.287 10.9378 13.399 10.9378 13.537V14.6696C10.9378 14.8076 11.0497 14.9196 11.1878 14.9196H15.4528C15.5909 14.9196 15.7028 14.8076 15.7028 14.6696V13.537C15.7028 13.399 15.5909 13.287 15.4528 13.287H11.1878Z" fill="#EDCD27"/>
</svg>
