<svg width="27" height="27" viewBox="0 0 27 27" fill="none" xmlns="http://www.w3.org/2000/svg">
<path fill-rule="evenodd" clip-rule="evenodd" d="M11.5049 14.8445C11.6194 14.9701 11.7815 15.0418 11.9515 15.0421C11.9691 15.0421 11.9879 15.0414 12.0067 15.0396L13.6394 14.8911L17.2585 11.2727H18.6612V17.8182H5.70248V11.2727H12.9705L11.4939 12.7487L11.3455 14.3814C11.3302 14.5515 11.3882 14.7199 11.5049 14.8445ZM14.4255 9.81817H5.70248C4.68007 9.81817 3.85124 10.4694 3.85124 11.2727V17.8182H2V18.5454C2 19.3488 2.82883 20 3.85124 20H20.5124C21.5348 20 22.3636 19.3488 22.3636 18.5454V17.8182H20.5124V11.2727C20.5124 10.4829 19.7113 9.84018 18.7127 9.81873L20.497 8.03478L18.3533 5.89175L14.4255 9.81817ZM18.7818 5.46327L20.9249 7.6063L20.9255 7.60569L22.2103 6.32084C22.3241 6.20716 22.3881 6.05291 22.3881 5.89205C22.3881 5.7312 22.3241 5.57694 22.2103 5.46327L20.9249 4.17781C20.8112 4.06401 20.6569 4.00006 20.4961 4.00006C20.3352 4.00006 20.181 4.06401 20.0673 4.17781L18.7818 5.46327Z" fill="#EE6B1D"/>
</svg>
