<svg width="27" height="27" viewBox="0 0 27 27" fill="none" xmlns="http://www.w3.org/2000/svg">
<path d="M23 22C23 22.5523 22.5523 23 22 23H6C5.44772 23 5 22.5523 5 22V6C5 5.44772 5.44772 5 6 5C6.55228 5 7 5.44772 7 6V20C7 20.5523 7.44772 21 8 21H22C22.5523 21 23 21.4477 23 22ZM11.0449 17.3422C10.6715 17.7078 10.0745 17.7078 9.70106 17.3422C9.31629 16.9656 9.3162 16.3463 9.70087 15.9696L13.856 11.9C14.2383 11.5285 14.8467 11.5285 15.229 11.9L16.7566 13.3961C17.1453 13.7767 17.7669 13.7768 18.1557 13.3964L20.955 10.6575C21.3285 10.2921 21.9255 10.2922 22.2989 10.6577C22.6837 11.0344 22.6838 11.6537 22.299 12.0305L18.144 16.1C17.7617 16.4715 17.1533 16.4715 16.771 16.1L15.2425 14.6031C14.8538 14.2224 14.2321 14.2223 13.8433 14.6029L11.0449 17.3422Z" fill="#DA4B7B" stroke="#DA4B7B" stroke-width="0.5"/>
</svg>
