<svg width="27" height="27" viewBox="0 0 27 27" fill="none" xmlns="http://www.w3.org/2000/svg">
<path fill-rule="evenodd" clip-rule="evenodd" d="M5 7.74988C5 6.78338 5.7835 5.99988 6.75 5.99988H20.2423C21.2088 5.99988 21.9923 6.78338 21.9923 7.74988V18.5812C21.9923 19.5477 21.2088 20.3312 20.2423 20.3312H6.75C5.7835 20.3312 5 19.5477 5 18.5812V7.74988ZM6.75 7.49988C6.61193 7.49988 6.5 7.61181 6.5 7.74988V18.5812C6.5 18.7192 6.61193 18.8312 6.75 18.8312H20.2423C20.3804 18.8312 20.4923 18.7192 20.4923 18.5812V7.74988C20.4923 7.61181 20.3804 7.49988 20.2423 7.49988H6.75Z" fill="#FF995C"/>
<rect x="10.3589" y="8.77808" width="6.50682" height="1.62671" rx="0.813353" fill="#FF995C"/>
<rect x="8.18994" y="12.0315" width="10.8447" height="1.62671" rx="0.813353" fill="#FF995C"/>
<rect x="8.18994" y="15.2849" width="10.8447" height="1.62671" rx="0.813353" fill="#FF995C"/>
</svg>
