<svg width="27" height="27" viewBox="0 0 27 27" fill="none" xmlns="http://www.w3.org/2000/svg">
<path d="M13.0757 24C13.6655 24.0017 14.2315 23.7673 14.6474 23.3491L23.3491 14.6463C23.8082 14.1884 24.0437 13.5523 23.9933 12.9057L23.4379 5.6125C23.3587 4.5155 22.4847 3.64382 21.3875 3.5676L14.0943 3.01222C14.0376 3 13.9799 3 13.9232 3C13.3347 3.00151 12.7706 3.23546 12.3537 3.6509L3.65098 12.3526C3.23417 12.7692 3 13.3344 3 13.9237C3 14.5131 3.23417 15.0783 3.65098 15.4949L11.5051 23.3491C11.9207 23.7671 12.4863 24.0015 13.0757 24ZM13.9243 5.22151L21.2231 5.77689L21.7784 13.0757L13.0757 21.7785L5.22269 13.9254L13.9243 5.22151ZM17.7886 11.4329C18.8485 11.4331 19.7609 10.6846 19.9678 9.64518C20.1748 8.60575 19.6187 7.56486 18.6396 7.1591C17.6605 6.75334 16.5312 7.09571 15.9422 7.97684C15.3532 8.85797 15.4687 10.0324 16.218 10.782C16.6336 11.2 17.1992 11.4343 17.7886 11.4329Z" fill="#43A047"/>
</svg>
