<svg width="27" height="27" viewBox="0 0 27 27" fill="none" xmlns="http://www.w3.org/2000/svg">
<path d="M6.24077 21.0122C6.09176 21.544 5.65759 22 5.10531 22H5C4.44772 22 3.99055 21.5483 4.09046 21.0051C4.5992 18.2392 7.19285 16.1338 10.3159 16.1338C13.439 16.1338 16.0327 18.2392 16.5414 21.0051C16.6413 21.5483 16.1841 22 15.6319 22H15.5266C14.9743 22 14.5401 21.544 14.3911 21.0122C13.9199 19.3306 12.274 18.0892 10.3159 18.0892C8.35786 18.0892 6.71196 19.3306 6.24077 21.0122ZM21.8734 17.7787C21.5277 18.1721 20.9288 18.1684 20.5451 17.812L20.5261 17.7944C20.1002 17.3988 20.1069 16.7278 20.4673 16.2716C21.3896 15.1046 21.8957 13.6876 21.8957 12.2221C21.8957 10.7565 21.3896 9.3395 20.4673 8.17248C20.1069 7.71636 20.1002 7.04534 20.5261 6.64971L20.5451 6.63212C20.9288 6.27572 21.5277 6.272 21.8734 6.66539C24.7089 9.89212 24.7089 14.552 21.8734 17.7787ZM18.2477 15.6792L17.5466 15.0271C17.1213 14.6315 17.1438 13.9597 17.3995 13.4382C17.7773 12.6675 17.7772 11.7762 17.3993 11.0056C17.1436 10.4842 17.121 9.81264 17.546 9.41703L17.5671 9.39742C17.9507 9.04035 18.5559 9.03442 18.8676 9.4557C20.2763 11.3592 20.0701 13.9833 18.2491 15.6759C18.2482 15.6767 18.2477 15.6779 18.2477 15.6792ZM10.3159 15.1551C7.99047 15.1551 6.10531 13.4042 6.10531 11.2444C6.10531 9.0845 7.99047 7.33358 10.3159 7.33358C12.6414 7.33358 14.5265 9.0845 14.5265 11.2444C14.5265 12.2816 14.0829 13.2763 13.2933 14.0097C12.5036 14.7431 11.4327 15.1551 10.3159 15.1551ZM10.3159 9.28897C9.16579 9.29005 8.22945 10.1482 8.21297 11.2163C8.19649 12.2845 9.10597 13.1672 10.2556 13.1989C11.4052 13.2306 12.3695 12.3995 12.4212 11.3324V11.7234V11.2444C12.4212 10.1644 11.4787 9.28897 10.3159 9.28897Z" fill="#7B1FA2"/>
</svg>
