<svg width="27" height="27" viewBox="0 0 27 27" fill="none" xmlns="http://www.w3.org/2000/svg">
<path d="M14.8662 16.6246C15.0565 16.8168 15.3146 16.9249 15.5837 16.9249H16.1784C16.4476 16.9249 16.7056 16.8168 16.8959 16.6246L20.9899 12.4896C21.366 12.1097 21.9798 12.1097 22.3559 12.4896C22.96 13.0997 24 12.672 24 11.8134V9C24 8.44772 23.5523 8 23 8H20.2516C19.384 8 18.9473 9.0469 19.5577 9.6634C19.9344 10.0439 19.9345 10.6569 19.5577 11.0374L16.5917 14.0331C16.2004 14.4283 15.5618 14.4283 15.1704 14.0331L12.8365 11.6757C12.6462 11.4835 12.3881 11.3755 12.1189 11.3754H11.5242C11.2551 11.3755 10.997 11.4835 10.8067 11.6757L4.6966 17.847C4.31076 18.2367 4.31076 18.8645 4.6966 19.2542L4.7244 19.2823C5.11572 19.6775 5.75433 19.6775 6.14564 19.2823L11.111 14.2672C11.5023 13.872 12.1409 13.872 12.5322 14.2672L14.8662 16.6246Z" fill="#EA4335"/>
</svg>
