<svg width="36" height="36" viewBox="0 0 36 36" fill="none" xmlns="http://www.w3.org/2000/svg">
<path d="M13.7998 21.6C10.486 21.6 7.7998 24.2863 7.7998 27.6C7.7998 30.9138 10.486 33.6 13.7998 33.6C17.1136 33.6 19.7998 30.9138 19.7998 27.6C19.7963 24.2877 17.1121 21.6036 13.7998 21.6ZM13.7998 32.4C11.1487 32.4 8.9998 30.2511 8.9998 27.6C8.9998 24.949 11.1487 22.8 13.7998 22.8C16.4509 22.8 18.5998 24.949 18.5998 27.6C18.5969 30.2496 16.4494 32.3971 13.7998 32.4Z" fill="#9E9E9E"/>
<path d="M13.7999 25.8C14.5326 25.8 14.9999 26.1551 14.9999 26.4H16.1999C16.1999 25.5475 15.4446 24.8569 14.3999 24.6601V24H13.1999V24.6601C12.1552 24.8555 11.3999 25.5463 11.3999 26.4C11.3999 27.4099 12.454 28.2 13.7999 28.2C14.5326 28.2 14.9999 28.5551 14.9999 28.8C14.9999 29.0449 14.5326 29.4 13.7999 29.4C13.0672 29.4 12.5999 29.0449 12.5999 28.8H11.3999C11.3999 29.6525 12.1552 30.3431 13.1999 30.5399V31.2H14.3999V30.5399C15.4446 30.3445 16.1999 29.6537 16.1999 28.8C16.1999 27.7901 15.1458 27 13.7999 27C13.0672 27 12.5999 26.6449 12.5999 26.4C12.5999 26.1551 13.0672 25.8 13.7999 25.8Z" fill="#9E9E9E"/>
<path d="M30.6 34.8H5.4V20.4H15C15.994 20.4 16.8 19.594 16.8 18.6V3.6H23.4V10.8H30.6V19.2H31.8V9.95156L24.2484 2.4H16.8V1.8C16.8 0.805957 15.994 0 15 0H1.8C0.805957 0 0 0.805957 0 1.8V18.6C0 19.594 0.805957 20.4 1.8 20.4H4.2V36H31.8V27.6H30.6V34.8ZM24.6 4.44844L29.7516 9.6H24.6V4.44844ZM1.2 18.6V1.8C1.2 1.46865 1.46865 1.2 1.8 1.2H15C15.3313 1.2 15.6 1.46865 15.6 1.8V18.6C15.6 18.9313 15.3313 19.2 15 19.2H1.8C1.46865 19.2 1.2 18.9313 1.2 18.6Z" fill="#9E9E9E"/>
<path d="M19.2002 15H20.4002V16.2H19.2002V15Z" fill="#9E9E9E"/>
<path d="M21.6001 15H28.8001V16.2H21.6001V15Z" fill="#9E9E9E"/>
<path d="M19.2002 12.6H20.4002V13.8H19.2002V12.6Z" fill="#9E9E9E"/>
<path d="M21.6001 12.6H28.8001V13.8H21.6001V12.6Z" fill="#9E9E9E"/>
<path d="M19.2002 17.4H20.4002V18.6H19.2002V17.4Z" fill="#9E9E9E"/>
<path d="M21.6001 17.4H28.8001V18.6H21.6001V17.4Z" fill="#9E9E9E"/>
<path d="M19.2002 19.8H20.4002V21H19.2002V19.8Z" fill="#9E9E9E"/>
<path d="M21.6001 19.8H28.8001V21H21.6001V19.8Z" fill="#9E9E9E"/>
<path d="M15.0003 1.79999H1.80029V5.99999H15.0003V1.79999ZM13.8003 4.79999H3.00029V2.99999H13.8003V4.79999Z" fill="#9E9E9E"/>
<path d="M4.7999 6.59998H3.5999C2.93721 6.59998 2.3999 7.13728 2.3999 7.79998V8.99998C2.3999 9.66267 2.93721 10.2 3.5999 10.2H4.7999C5.4626 10.2 5.9999 9.66267 5.9999 8.99998V7.79998C5.9999 7.13728 5.4626 6.59998 4.7999 6.59998ZM3.5999 8.99998V7.79998H4.7999V8.99998H3.5999Z" fill="#9E9E9E"/>
<path d="M9.0001 6.59998H7.8001C7.1374 6.59998 6.6001 7.13728 6.6001 7.79998V8.99998C6.6001 9.66267 7.1374 10.2 7.8001 10.2H9.0001C9.66279 10.2 10.2001 9.66267 10.2001 8.99998V7.79998C10.2001 7.13728 9.66279 6.59998 9.0001 6.59998ZM7.8001 8.99998V7.79998H9.0001V8.99998H7.8001Z" fill="#9E9E9E"/>
<path d="M13.2003 6.59998H12.0003C11.3376 6.59998 10.8003 7.13728 10.8003 7.79998V8.99998C10.8003 9.66267 11.3376 10.2 12.0003 10.2H13.2003C13.863 10.2 14.4003 9.66267 14.4003 8.99998V7.79998C14.4003 7.13728 13.863 6.59998 13.2003 6.59998ZM12.0003 8.99998V7.79998H13.2003V8.99998H12.0003Z" fill="#9E9E9E"/>
<path d="M4.7999 10.8H3.5999C2.93721 10.8 2.3999 11.3373 2.3999 12V13.2C2.3999 13.8627 2.93721 14.4 3.5999 14.4H4.7999C5.4626 14.4 5.9999 13.8627 5.9999 13.2V12C5.9999 11.3373 5.4626 10.8 4.7999 10.8ZM3.5999 13.2V12H4.7999V13.2H3.5999Z" fill="#9E9E9E"/>
<path d="M9.0001 10.8H7.8001C7.1374 10.8 6.6001 11.3373 6.6001 12V13.2C6.6001 13.8627 7.1374 14.4 7.8001 14.4H9.0001C9.66279 14.4 10.2001 13.8627 10.2001 13.2V12C10.2001 11.3373 9.66279 10.8 9.0001 10.8ZM7.8001 13.2V12H9.0001V13.2H7.8001Z" fill="#9E9E9E"/>
<path d="M13.2003 10.8H12.0003C11.3376 10.8 10.8003 11.3373 10.8003 12V13.2C10.8003 13.8627 11.3376 14.4 12.0003 14.4H13.2003C13.863 14.4 14.4003 13.8627 14.4003 13.2V12C14.4003 11.3373 13.863 10.8 13.2003 10.8ZM12.0003 13.2V12H13.2003V13.2H12.0003Z" fill="#9E9E9E"/>
<path d="M4.7999 15H3.5999C2.93721 15 2.3999 15.5373 2.3999 16.2V17.4C2.3999 18.0627 2.93721 18.6 3.5999 18.6H4.7999C5.4626 18.6 5.9999 18.0627 5.9999 17.4V16.2C5.9999 15.5373 5.4626 15 4.7999 15ZM3.5999 17.4V16.2H4.7999V17.4H3.5999Z" fill="#9E9E9E"/>
<path d="M9.0001 15H7.8001C7.1374 15 6.6001 15.5373 6.6001 16.2V17.4C6.6001 18.0627 7.1374 18.6 7.8001 18.6H9.0001C9.66279 18.6 10.2001 18.0627 10.2001 17.4V16.2C10.2001 15.5373 9.66279 15 9.0001 15ZM7.8001 17.4V16.2H9.0001V17.4H7.8001Z" fill="#9E9E9E"/>
<path d="M13.2003 15H12.0003C11.3376 15 10.8003 15.5373 10.8003 16.2V17.4C10.8003 18.0627 11.3376 18.6 12.0003 18.6H13.2003C13.863 18.6 14.4003 18.0627 14.4003 17.4V16.2C14.4003 15.5373 13.863 15 13.2003 15ZM12.0003 17.4V16.2H13.2003V17.4H12.0003Z" fill="#9E9E9E"/>
<path d="M35.455 19.1449C34.7428 18.465 33.6222 18.465 32.91 19.1449L22.6242 29.4305C22.5744 29.4809 22.5336 29.5395 22.5041 29.6039L21.0556 32.7492C20.951 32.9772 20.9994 33.2464 21.1769 33.4236C21.3541 33.6012 21.6234 33.6495 21.8513 33.5449L24.9966 32.0965C25.0611 32.0669 25.1197 32.0265 25.1701 31.9764L35.455 21.6905C36.1582 20.9877 36.1582 19.8478 35.455 19.1449ZM24.3966 31.0512L22.8246 31.7754L23.5488 30.2033L31.2178 22.5337L32.0663 23.3821L24.3966 31.0512ZM32.9165 22.5311L32.068 21.6829L32.4881 21.2628L33.3366 22.1112L32.9165 22.5311ZM34.6086 20.8392L34.1844 21.2634L33.336 20.415L33.7608 19.9907C33.9978 19.764 34.3713 19.764 34.6086 19.9907C34.8427 20.2251 34.8427 20.6048 34.6086 20.8392Z" fill="#9E9E9E"/>
</svg>
