<svg width="36" height="36" viewBox="0 0 36 36" fill="none" xmlns="http://www.w3.org/2000/svg">
<path d="M35.4375 11.1285V6.8715L33.8659 6.48506C33.7967 6.29831 33.7185 6.11156 33.6319 5.92537L34.4711 4.53881L31.4606 1.52831L30.0746 2.36812C29.8884 2.2815 29.7017 2.20331 29.5149 2.13412L29.1285 0.5625H24.8715L24.4851 2.13412C24.2983 2.20331 24.1116 2.2815 23.9254 2.36812L22.5388 1.52887L19.5283 4.53937L20.3676 5.92594C20.2809 6.11212 20.2027 6.29887 20.1336 6.48563L18.5625 6.8715V10.6875H3.375C1.82419 10.6875 0.5625 11.9492 0.5625 13.5V27C0.5625 28.5508 1.82419 29.8125 3.375 29.8125H7.875V32.0625H5.625C5.00456 32.0625 4.5 32.5671 4.5 33.1875V34.3125C4.5 34.9329 5.00456 35.4375 5.625 35.4375H17.4375H18.585H35.4375V33.1875C35.4375 29.0947 32.6886 25.6371 28.9412 24.5492C30.1444 23.7403 30.9375 22.3678 30.9375 20.8125C30.9375 19.3449 30.2282 18.0433 29.1381 17.2215L29.1954 17.1658L29.5149 15.8659C29.7017 15.7967 29.8884 15.7185 30.0746 15.6319L31.4612 16.4711L34.4717 13.4606L33.6324 12.0741C33.7191 11.8879 33.7972 11.7011 33.8664 11.5144L35.4375 11.1285ZM3.375 11.8125H22.5C23.4304 11.8125 24.1875 12.5696 24.1875 13.5V16.9211C23.7639 17.1669 23.3843 17.4802 23.0625 17.8459V14.0625C23.0625 13.4421 22.5579 12.9375 21.9375 12.9375H3.9375C3.31706 12.9375 2.8125 13.4421 2.8125 14.0625V25.3125H1.6875V13.5C1.6875 12.5696 2.44463 11.8125 3.375 11.8125ZM23.0625 9C23.0625 6.82931 24.8293 5.0625 27 5.0625C29.1707 5.0625 30.9375 6.82931 30.9375 9C30.9375 11.1707 29.1707 12.9375 27 12.9375C26.3318 12.9375 25.6815 12.7614 25.1021 12.4408C24.8164 11.7416 24.2584 11.1836 23.5586 10.8979C23.2386 10.3174 23.0625 9.66769 23.0625 9ZM29.1746 30.9201L27.2362 34.3125H27.1777L29.5048 25.9346C29.745 26.0364 29.979 26.1512 30.2068 26.2755L29.8502 28.4169L28.566 29.7011L29.1746 30.9201ZM25.6388 34.3125L23.7004 30.9201L24.3096 29.7017L23.0254 28.4175L22.6687 26.2761C22.896 26.1518 23.13 26.037 23.3708 25.9352L25.6973 34.3125H25.6388ZM19.6875 25.3125H18.5625V16.3125H19.6875V25.3125ZM23.0625 24.8501V23.7791C23.319 24.0711 23.6098 24.3321 23.9338 24.5492C23.6368 24.6353 23.346 24.7348 23.0625 24.8501ZM21.9375 25.3125H20.8125V15.1875H17.4375V25.3125H16.3125V17.4375H12.9375V25.3125H11.8125V19.6875H8.4375V25.3125H3.9375V14.0625H21.9375V25.3125ZM15.1875 25.3125H14.0625V18.5625H15.1875V25.3125ZM10.6875 25.3125H9.5625V20.8125H10.6875V25.3125ZM1.6875 27V26.4375H20.5048C19.773 27.0816 19.1475 27.8398 18.6553 28.6875H3.375C2.44463 28.6875 1.6875 27.9304 1.6875 27ZM9 29.8125H18.1001C17.8116 30.5224 17.6141 31.2767 17.5157 32.0625H9V29.8125ZM5.625 34.3125V33.1875H17.4375V34.3125H5.625ZM18.5625 34.3125V33.1875C18.5625 30.6506 19.773 28.3967 21.6416 26.9556L21.9752 28.9575L22.941 29.9233L22.4252 30.9549L24.3433 34.3125H21.375V29.8125H20.25V34.3125H18.585H18.5625ZM34.3125 33.1875V34.3125H32.625V29.8125H31.5V34.3125H28.5317L30.4504 30.9549L29.9346 29.9233L30.9004 28.9575L31.2339 26.9556C33.102 28.3967 34.3125 30.6506 34.3125 33.1875ZM28.4355 25.5791L26.4375 32.7724L24.4395 25.5791C25.0791 25.4109 25.7462 25.3125 26.4375 25.3125C27.1288 25.3125 27.7959 25.4109 28.4355 25.5791ZM29.8125 20.8125C29.8125 22.6738 28.2988 24.1875 26.4375 24.1875C24.5762 24.1875 23.0625 22.6738 23.0625 20.8125C23.0625 18.9512 24.5762 17.4375 26.4375 17.4375C28.2988 17.4375 29.8125 18.9512 29.8125 20.8125ZM33.0519 13.2896L31.2896 15.0519L30.123 14.346L29.8429 14.4917C29.5206 14.6593 29.1938 14.796 28.8726 14.8978L28.5711 14.9929L28.1801 16.5847L28.1205 16.6427C27.6002 16.4312 27.0326 16.3125 26.4375 16.3125C26.0483 16.3125 25.6731 16.3671 25.3125 16.4604V13.761C25.8525 13.9522 26.4201 14.0625 27 14.0625C29.7917 14.0625 32.0625 11.7917 32.0625 9C32.0625 6.20831 29.7917 3.9375 27 3.9375C24.2083 3.9375 21.9375 6.20831 21.9375 9C21.9375 9.57994 22.0478 10.1475 22.239 10.6875H19.6875V7.7535L21.0077 7.42894L21.1027 7.12744C21.2046 6.80681 21.3412 6.48 21.5089 6.15713L21.6546 5.877L20.9486 4.71037L22.7109 2.94806L23.8776 3.654L24.1577 3.50831C24.48 3.34069 24.8068 3.204 25.128 3.10219L25.4295 3.00712L25.7535 1.6875H28.2465L28.5711 3.00769L28.8726 3.10275C29.1932 3.20456 29.52 3.34125 29.8429 3.50887L30.123 3.65456L31.2896 2.94863L33.0519 4.71094L32.346 5.87756L32.4917 6.15769C32.6593 6.48 32.796 6.80681 32.8978 7.128L32.9929 7.4295L34.3125 7.7535V10.2465L32.9923 10.5711L32.8972 10.872C32.7954 11.1932 32.6588 11.52 32.4911 11.8429L32.3454 12.123L33.0519 13.2896Z" fill="#9E9E9E"/>
<path d="M27 11.8125C28.5508 11.8125 29.8125 10.5508 29.8125 9C29.8125 7.44919 28.5508 6.1875 27 6.1875C25.4492 6.1875 24.1875 7.44919 24.1875 9C24.1875 10.5508 25.4492 11.8125 27 11.8125ZM27 7.3125C27.9304 7.3125 28.6875 8.06963 28.6875 9C28.6875 9.93038 27.9304 10.6875 27 10.6875C26.0696 10.6875 25.3125 9.93038 25.3125 9C25.3125 8.06963 26.0696 7.3125 27 7.3125Z" fill="#9E9E9E"/>
<path d="M5.0625 15.1875H6.1875V16.3125H5.0625V15.1875Z" fill="#9E9E9E"/>
<path d="M7.3125 15.1875H8.4375V16.3125H7.3125V15.1875Z" fill="#9E9E9E"/>
<path d="M9.5625 15.1875H10.6875V16.3125H9.5625V15.1875Z" fill="#9E9E9E"/>
<path d="M5.0625 17.4375H10.6875V18.5625H5.0625V17.4375Z" fill="#9E9E9E"/>
</svg>
