<svg width="86" height="88" viewBox="0 0 86 88" fill="none" xmlns="http://www.w3.org/2000/svg">
<g>
<mask id="path-1-inside-1" fill="white">
<path class="first-path" fill-rule="evenodd" clip-rule="evenodd" d="M49.4486 72.7619H50.0093L53 70.4762L50.0093 68H49.4486V69.1429H45.8037V69.7143V71.0476V71.619H46.3645H49.4486V72.7619ZM46.3645 71.0476H49.4486H50.0093V71.619V72.1492L52.2906 70.4103L50.0093 68.6713V69.1429V69.7143H49.4486H46.3645V71.0476ZM33 78.0952H34.6822V74.4762C34.6822 74.2658 34.8496 74.0952 35.0561 74.0952H36.1172C36.1831 74.036 36.2697 74 36.3645 74H37.7663C37.8612 74 37.9477 74.036 38.0136 74.0952H38.8878C39.0943 74.0952 39.2617 74.2658 39.2617 74.4762V78.0952H40.5701V74.4762C40.5701 74.2658 40.7375 74.0952 40.9439 74.0952H44.7757C44.9821 74.0952 45.1495 74.2658 45.1495 74.4762V78.0952H46.4579V74.4762C46.4579 74.2658 46.6253 74.0952 46.8318 74.0952H50.6635C50.87 74.0952 51.0374 74.2658 51.0374 74.4762V78.0952H52.6261V78.6667H50.6635H46.8318H44.7757H40.9439H38.8878H35.0561H33V78.0952ZM50.4766 78.0952V74.6667H49.9159V76.2857C49.9159 76.4961 49.7485 76.6667 49.542 76.6667H48.1402C47.9337 76.6667 47.7663 76.4961 47.7663 76.2857V74.6667H47.0187V78.0952H50.4766ZM44.5888 78.0952H41.1308V74.6667H41.8785V76.2857C41.8785 76.4961 42.0459 76.6667 42.2523 76.6667H43.6542C43.8607 76.6667 44.028 76.4961 44.028 76.2857V74.6667H44.5888V78.0952ZM36.5514 74.6667H37.5794V75.9048H36.5514V74.6667ZM35.9907 74.6667V76.0952C35.9907 76.3056 36.158 76.4762 36.3645 76.4762H37.7663C37.9728 76.4762 38.1402 76.3056 38.1402 76.0952V74.6667H38.7009V78.0952H35.243V74.6667H35.9907ZM33.0935 87.4286H52.7196V88H33.0935V87.4286ZM36.5287 80.0689H36.8896V80.4367H36.5287V80.0689ZM40.4637 79.8095H40.1028V80.1773H40.4637V79.8095ZM40.1028 85.8095H40.4637V86.1773H40.1028V85.8095ZM41.7721 79.8095H41.4112V80.1773H41.7721V79.8095ZM41.4112 85.8095H41.7721V86.1773H41.4112V85.8095ZM43.0805 79.8095H42.7196V80.1773H43.0805V79.8095ZM42.7196 85.8095H43.0805V86.1773H42.7196V85.8095ZM44.3889 79.8095H44.028V80.1773H44.3889V79.8095ZM44.028 85.8095H44.3889V86.1773H44.028V85.8095ZM45.6974 79.8095H45.3364V80.1773H45.6974V79.8095ZM45.3364 85.8095H45.6974V86.1773H45.3364V85.8095ZM34.9221 80.7473L34.6669 81.0073L34.9221 81.2674L35.1773 81.0073L34.9221 80.7473ZM39.9574 81.9079H39.0693C39.0531 81.8647 39.0356 81.8213 39.0163 81.7773L39.6446 81.1368C39.6785 81.1023 39.6975 81.0556 39.6975 81.0068C39.6975 80.958 39.6785 80.9113 39.6446 80.8768L38.6232 79.8359C38.5894 79.8014 38.5435 79.7821 38.4957 79.7821C38.4478 79.7821 38.4019 79.8014 38.3681 79.8359L37.7397 80.4763C37.7019 80.459 37.6643 80.4437 37.627 80.4285L37.6114 80.4222V79.5172C37.6114 79.4685 37.5924 79.4217 37.5586 79.3872C37.5247 79.3527 37.4788 79.3333 37.4309 79.3333H35.9873C35.9394 79.3333 35.8935 79.3527 35.8597 79.3872C35.8258 79.4217 35.8068 79.4685 35.8068 79.5172V80.4222C35.7644 80.4387 35.7216 80.4566 35.6785 80.4763L35.0501 79.8359C35.0163 79.8014 34.9704 79.7821 34.9226 79.7821C34.8747 79.7821 34.8288 79.8014 34.795 79.8359L33.7736 80.8768C33.7397 80.9113 33.7207 80.958 33.7207 81.0068C33.7207 81.0556 33.7397 81.1023 33.7736 81.1368L34.4019 81.7771C34.3849 81.8158 34.3699 81.8542 34.355 81.8923L34.3489 81.9079H33.4608C33.413 81.9079 33.3671 81.9273 33.3332 81.9618C33.2994 81.9962 33.2804 82.043 33.2804 82.0918V83.563C33.2804 83.6117 33.2994 83.6585 33.3332 83.693C33.3671 83.7275 33.413 83.7469 33.4608 83.7469H34.3489C34.3651 83.7901 34.3826 83.8337 34.4019 83.8776L33.7736 84.518C33.7397 84.5524 33.7207 84.5992 33.7207 84.648C33.7207 84.6967 33.7397 84.7435 33.7736 84.778L34.795 85.8188C34.8288 85.8533 34.8747 85.8727 34.9226 85.8727C34.9704 85.8727 35.0163 85.8533 35.0501 85.8188L35.6785 85.1785C35.7165 85.1958 35.7542 85.2112 35.7916 85.2264L35.8068 85.2326V86.1375C35.8068 86.1863 35.8258 86.2331 35.8597 86.2676C35.8935 86.3021 35.9394 86.3214 35.9873 86.3214H37.4309C37.4788 86.3214 37.5247 86.3021 37.5586 86.2676C37.5924 86.2331 37.6114 86.1863 37.6114 86.1375V85.2326C37.6538 85.216 37.6966 85.1982 37.7397 85.1785L38.3681 85.8188C38.4026 85.8521 38.4482 85.8706 38.4957 85.8706C38.5431 85.8706 38.5888 85.8521 38.6232 85.8188L39.6446 84.778C39.6785 84.7435 39.6975 84.6967 39.6975 84.648C39.6975 84.5992 39.6785 84.5524 39.6446 84.518L39.0163 83.8774C39.0337 83.8378 39.049 83.7987 39.0643 83.7597L39.0693 83.7469H39.9574C40.0052 83.7469 40.0511 83.7275 40.085 83.693C40.1188 83.6585 40.1378 83.6117 40.1378 83.563V82.0918C40.1378 82.043 40.1188 81.9962 40.085 81.9618C40.0511 81.9273 40.0052 81.9079 39.9574 81.9079ZM39.7769 83.3791H38.9414C38.903 83.3791 38.8657 83.3916 38.8347 83.4148C38.8038 83.4379 38.7809 83.4705 38.7694 83.5078C38.7338 83.62 38.6897 83.7292 38.6375 83.8344C38.6206 83.8689 38.6147 83.908 38.6208 83.9461C38.6268 83.9841 38.6445 84.0193 38.6712 84.0466L39.2619 84.648L38.4957 85.4288L37.905 84.8269C37.8782 84.7996 37.8437 84.7816 37.8063 84.7755C37.769 84.7693 37.7306 84.7753 37.6968 84.7925C37.5935 84.8457 37.4864 84.8907 37.3763 84.9269C37.3397 84.9387 37.3077 84.962 37.285 84.9935C37.2622 85.025 37.25 85.0631 37.2499 85.1022V85.9536H36.1677V85.1022C36.1677 85.0631 36.1554 85.025 36.1327 84.9935C36.11 84.962 36.078 84.9387 36.0414 84.9269C35.9313 84.8907 35.8241 84.8457 35.7209 84.7925C35.687 84.7753 35.6487 84.7693 35.6113 84.7755C35.574 84.7816 35.5394 84.7996 35.5127 84.8269L34.9226 85.4288L34.1563 84.648L34.747 84.0461C34.7737 84.0188 34.7914 83.9836 34.7974 83.9455C34.8035 83.9074 34.7976 83.8684 34.7807 83.8339C34.7285 83.7286 34.6844 83.6194 34.6488 83.5072C34.6373 83.4699 34.6144 83.4374 34.5835 83.4142C34.5526 83.3911 34.5152 83.3786 34.4768 83.3785H33.6413V82.2757H34.4768C34.5152 82.2757 34.5526 82.2632 34.5835 82.24C34.6144 82.2169 34.6373 82.1843 34.6488 82.147C34.6844 82.0348 34.7285 81.9256 34.7807 81.8204C34.7976 81.7859 34.8035 81.7468 34.7974 81.7087C34.7914 81.6706 34.7737 81.6354 34.747 81.6081L34.1563 81.0068L34.9226 80.226L35.5132 80.8279C35.54 80.8551 35.5745 80.8731 35.6119 80.8793C35.6493 80.8855 35.6876 80.8795 35.7215 80.8623C35.8245 80.809 35.9315 80.7641 36.0414 80.7278C36.078 80.7161 36.11 80.6928 36.1327 80.6613C36.1554 80.6298 36.1677 80.5917 36.1677 80.5526V79.7011H37.2505V80.5526C37.2505 80.5917 37.2628 80.6298 37.2855 80.6613C37.3082 80.6928 37.3402 80.7161 37.3768 80.7278C37.4869 80.7641 37.5941 80.809 37.6973 80.8623C37.7312 80.8795 37.7695 80.8855 37.8069 80.8793C37.8442 80.8731 37.8788 80.8551 37.9056 80.8279L38.4957 80.226L39.2619 81.0068L38.6712 81.6087C38.6445 81.636 38.6268 81.6712 38.6208 81.7093C38.6147 81.7473 38.6206 81.7864 38.6375 81.8209C38.6897 81.9261 38.7338 82.0353 38.7694 82.1475C38.7809 82.1848 38.8038 82.2174 38.8347 82.2406C38.8657 82.2637 38.903 82.2762 38.9414 82.2762H39.7769V83.3791ZM35.907 81.6041C36.1445 81.4425 36.4236 81.3562 36.7091 81.3562C37.0919 81.3566 37.4588 81.5118 37.7295 81.7876C38.0001 82.0634 38.1524 82.4373 38.1528 82.8274C38.1528 83.1184 38.0681 83.4028 37.9095 83.6447C37.7508 83.8867 37.5254 84.0752 37.2616 84.1866C36.9978 84.2979 36.7075 84.3271 36.4275 84.2703C36.1474 84.2135 35.8902 84.0734 35.6883 83.8677C35.4864 83.6619 35.3489 83.3998 35.2932 83.1144C35.2375 82.829 35.2661 82.5332 35.3753 82.2644C35.4846 81.9956 35.6696 81.7658 35.907 81.6041ZM36.1076 83.7448C36.2856 83.8661 36.495 83.9308 36.7091 83.9308C36.9962 83.9305 37.2714 83.8141 37.4744 83.6073C37.6774 83.4004 37.7916 83.1199 37.7919 82.8274C37.7919 82.6092 37.7284 82.3958 37.6094 82.2144C37.4904 82.0329 37.3213 81.8915 37.1235 81.808C36.9256 81.7245 36.7079 81.7026 36.4979 81.7452C36.2878 81.7878 36.0949 81.8929 35.9435 82.0472C35.7921 82.2015 35.6889 82.3981 35.6472 82.6121C35.6054 82.8262 35.6268 83.048 35.7088 83.2496C35.7907 83.4512 35.9295 83.6236 36.1076 83.7448ZM34.0022 82.6435H34.3631V83.0113H34.0022V82.6435ZM34.9216 84.3878L34.6664 84.6479L34.9216 84.908L35.1768 84.6479L34.9216 84.3878ZM36.5287 85.218H36.8896V85.5858H36.5287V85.218ZM38.4941 84.3882L38.2389 84.6483L38.4941 84.9084L38.7494 84.6483L38.4941 84.3882ZM39.0551 82.6435H39.416V83.0113H39.0551V82.6435ZM38.4946 80.7477L38.2394 81.0077L38.4946 81.2678L38.7498 81.0077L38.4946 80.7477ZM48.9586 80.0689H49.3195V80.4367H48.9586V80.0689ZM47.352 80.7473L47.0968 81.0073L47.352 81.2674L47.6072 81.0073L47.352 80.7473ZM52.3873 81.9079H51.4992C51.483 81.8647 51.4655 81.8213 51.4462 81.7773L52.0745 81.1368C52.1084 81.1023 52.1274 81.0556 52.1274 81.0068C52.1274 80.958 52.1084 80.9113 52.0745 80.8768L51.0531 79.8359C51.0193 79.8014 50.9734 79.7821 50.9255 79.7821C50.8777 79.7821 50.8318 79.8014 50.798 79.8359L50.1696 80.4763C50.1316 80.4589 50.0939 80.4436 50.0565 80.4284L50.0413 80.4222V79.5172C50.0413 79.4685 50.0223 79.4217 49.9884 79.3872C49.9546 79.3527 49.9087 79.3333 49.8608 79.3333H48.4172C48.3693 79.3333 48.3234 79.3527 48.2896 79.3872C48.2557 79.4217 48.2367 79.4685 48.2367 79.5172V80.4222C48.1943 80.4387 48.1515 80.4566 48.1084 80.4763L47.48 79.8359C47.4462 79.8014 47.4003 79.7821 47.3524 79.7821C47.3046 79.7821 47.2587 79.8014 47.2249 79.8359L46.2035 80.8768C46.1696 80.9113 46.1506 80.958 46.1506 81.0068C46.1506 81.0556 46.1696 81.1023 46.2035 81.1368L46.8318 81.7771C46.8148 81.8158 46.7998 81.8542 46.7849 81.8924L46.7788 81.9079H45.8907C45.8429 81.9079 45.797 81.9273 45.7631 81.9618C45.7293 81.9962 45.7103 82.043 45.7103 82.0918V83.563C45.7103 83.6117 45.7293 83.6585 45.7631 83.693C45.797 83.7275 45.8429 83.7469 45.8907 83.7469H46.7788C46.795 83.7901 46.8125 83.8337 46.8318 83.8776L46.2035 84.518C46.1696 84.5524 46.1506 84.5992 46.1506 84.648C46.1506 84.6967 46.1696 84.7435 46.2035 84.778L47.2249 85.8188C47.2587 85.8533 47.3046 85.8727 47.3524 85.8727C47.4003 85.8727 47.4462 85.8533 47.48 85.8188L48.1084 85.1785C48.1464 85.1958 48.1841 85.2112 48.2215 85.2264L48.2367 85.2326V86.1375C48.2367 86.1863 48.2557 86.2331 48.2896 86.2676C48.3234 86.3021 48.3693 86.3214 48.4172 86.3214H49.8608C49.9087 86.3214 49.9546 86.3021 49.9884 86.2676C50.0223 86.2331 50.0413 86.1863 50.0413 86.1375V85.2326C50.0837 85.216 50.1265 85.1982 50.1696 85.1785L50.798 85.8188C50.8324 85.8521 50.8781 85.8706 50.9255 85.8706C50.973 85.8706 51.0187 85.8521 51.0531 85.8188L52.0745 84.778C52.1084 84.7435 52.1274 84.6967 52.1274 84.648C52.1274 84.5992 52.1084 84.5524 52.0745 84.518L51.4462 83.8774C51.4636 83.8379 51.4789 83.7987 51.4942 83.7598L51.4992 83.7469H52.3873C52.4351 83.7469 52.481 83.7275 52.5149 83.693C52.5487 83.6585 52.5677 83.6117 52.5677 83.563V82.0918C52.5677 82.043 52.5487 81.9962 52.5149 81.9618C52.481 81.9273 52.4351 81.9079 52.3873 81.9079ZM52.2068 83.3791H51.3713C51.3329 83.3791 51.2955 83.3916 51.2646 83.4148C51.2337 83.4379 51.2108 83.4705 51.1993 83.5078C51.1637 83.62 51.1196 83.7292 51.0674 83.8344C51.0505 83.8689 51.0446 83.908 51.0507 83.9461C51.0567 83.9841 51.0744 84.0193 51.1011 84.0466L51.6918 84.648L50.9255 85.4288L50.3349 84.8269C50.3081 84.7996 50.2736 84.7816 50.2362 84.7755C50.1989 84.7693 50.1605 84.7753 50.1267 84.7925C50.0234 84.8457 49.9163 84.8907 49.8062 84.9269C49.7696 84.9387 49.7376 84.962 49.7149 84.9935C49.6921 85.025 49.6799 85.0631 49.6798 85.1022V85.9536H48.5976V85.1022C48.5976 85.0631 48.5853 85.025 48.5626 84.9935C48.5399 84.962 48.5079 84.9387 48.4713 84.9269C48.3612 84.8907 48.254 84.8457 48.1508 84.7925C48.1169 84.7753 48.0786 84.7693 48.0412 84.7755C48.0039 84.7816 47.9693 84.7996 47.9426 84.8269L47.3524 85.4288L46.5862 84.648L47.1769 84.0461C47.2036 84.0188 47.2213 83.9836 47.2273 83.9455C47.2334 83.9074 47.2275 83.8684 47.2106 83.8339C47.1584 83.7286 47.1143 83.6194 47.0787 83.5072C47.0672 83.4699 47.0443 83.4374 47.0134 83.4142C46.9824 83.3911 46.9451 83.3786 46.9067 83.3785H46.0712V82.2757H46.9067C46.9451 82.2757 46.9824 82.2632 47.0134 82.24C47.0443 82.2169 47.0672 82.1843 47.0787 82.147C47.1143 82.0348 47.1584 81.9256 47.2106 81.8204C47.2275 81.7859 47.2334 81.7468 47.2273 81.7087C47.2213 81.6706 47.2036 81.6354 47.1769 81.6081L46.5862 81.0068L47.3524 80.226L47.9431 80.8279C47.9699 80.8551 48.0044 80.8731 48.0418 80.8793C48.0791 80.8855 48.1175 80.8795 48.1513 80.8623C48.2544 80.809 48.3614 80.7641 48.4713 80.7278C48.5079 80.7161 48.5399 80.6928 48.5626 80.6613C48.5853 80.6298 48.5976 80.5917 48.5976 80.5526V79.7011H49.6804V80.5526C49.6804 80.5917 49.6927 80.6298 49.7154 80.6613C49.7381 80.6928 49.7701 80.7161 49.8067 80.7278C49.9168 80.7641 50.024 80.809 50.1272 80.8623C50.1611 80.8795 50.1994 80.8855 50.2368 80.8793C50.2741 80.8731 50.3087 80.8551 50.3354 80.8279L50.9255 80.226L51.6918 81.0068L51.1011 81.6087C51.0744 81.636 51.0567 81.6712 51.0507 81.7093C51.0446 81.7473 51.0505 81.7864 51.0674 81.8209C51.1196 81.9261 51.1637 82.0353 51.1993 82.1475C51.2108 82.1848 51.2337 82.2174 51.2646 82.2406C51.2955 82.2637 51.3329 82.2762 51.3713 82.2762H52.2068V83.3791ZM48.3369 81.6041C48.5743 81.4425 48.8535 81.3562 49.139 81.3562C49.5217 81.3566 49.8887 81.5118 50.1594 81.7876C50.43 82.0634 50.5822 82.4373 50.5827 82.8274C50.5827 83.1184 50.498 83.4028 50.3394 83.6447C50.1807 83.8867 49.9553 84.0752 49.6915 84.1866C49.4277 84.2979 49.1374 84.3271 48.8573 84.2703C48.5773 84.2135 48.3201 84.0734 48.1182 83.8677C47.9163 83.6619 47.7788 83.3998 47.7231 83.1144C47.6674 82.829 47.6959 82.5332 47.8052 82.2644C47.9145 81.9956 48.0995 81.7658 48.3369 81.6041ZM48.5374 83.7448C48.7155 83.8661 48.9248 83.9308 49.139 83.9308C49.4261 83.9305 49.7013 83.8141 49.9043 83.6073C50.1073 83.4004 50.2215 83.1199 50.2218 82.8274C50.2218 82.6092 50.1583 82.3958 50.0393 82.2144C49.9203 82.0329 49.7512 81.8915 49.5533 81.808C49.3555 81.7245 49.1378 81.7026 48.9278 81.7452C48.7177 81.7878 48.5248 81.8929 48.3734 82.0472C48.2219 82.2015 48.1188 82.3981 48.077 82.6121C48.0353 82.8262 48.0567 83.048 48.1387 83.2496C48.2206 83.4512 48.3594 83.6236 48.5374 83.7448ZM46.4321 82.6435H46.793V83.0113H46.4321V82.6435ZM47.3515 84.3878L47.0963 84.6479L47.3515 84.908L47.6067 84.6479L47.3515 84.3878ZM48.9586 85.218H49.3195V85.5858H48.9586V85.218ZM50.924 84.3882L50.6688 84.6483L50.924 84.9084L51.1792 84.6483L50.924 84.3882ZM51.485 82.6435H51.8459V83.0113H51.485V82.6435ZM50.9245 80.7477L50.6693 81.0077L50.9245 81.2678L51.1797 81.0077L50.9245 80.7477ZM42.4392 74.7619V76.0952H43.4673V74.7619H42.4392ZM48.3271 76.0952V74.7619H49.3551V76.0952H48.3271Z"/>
</mask>
<path fill-rule="evenodd" clip-rule="evenodd" d="M49.4486 72.7619H50.0093L53 70.4762L50.0093 68H49.4486V69.1429H45.8037V69.7143V71.0476V71.619H46.3645H49.4486V72.7619ZM46.3645 71.0476H49.4486H50.0093V71.619V72.1492L52.2906 70.4103L50.0093 68.6713V69.1429V69.7143H49.4486H46.3645V71.0476ZM33 78.0952H34.6822V74.4762C34.6822 74.2658 34.8496 74.0952 35.0561 74.0952H36.1172C36.1831 74.036 36.2697 74 36.3645 74H37.7663C37.8612 74 37.9477 74.036 38.0136 74.0952H38.8878C39.0943 74.0952 39.2617 74.2658 39.2617 74.4762V78.0952H40.5701V74.4762C40.5701 74.2658 40.7375 74.0952 40.9439 74.0952H44.7757C44.9821 74.0952 45.1495 74.2658 45.1495 74.4762V78.0952H46.4579V74.4762C46.4579 74.2658 46.6253 74.0952 46.8318 74.0952H50.6635C50.87 74.0952 51.0374 74.2658 51.0374 74.4762V78.0952H52.6261V78.6667H50.6635H46.8318H44.7757H40.9439H38.8878H35.0561H33V78.0952ZM50.4766 78.0952V74.6667H49.9159V76.2857C49.9159 76.4961 49.7485 76.6667 49.542 76.6667H48.1402C47.9337 76.6667 47.7663 76.4961 47.7663 76.2857V74.6667H47.0187V78.0952H50.4766ZM44.5888 78.0952H41.1308V74.6667H41.8785V76.2857C41.8785 76.4961 42.0459 76.6667 42.2523 76.6667H43.6542C43.8607 76.6667 44.028 76.4961 44.028 76.2857V74.6667H44.5888V78.0952ZM36.5514 74.6667H37.5794V75.9048H36.5514V74.6667ZM35.9907 74.6667V76.0952C35.9907 76.3056 36.158 76.4762 36.3645 76.4762H37.7663C37.9728 76.4762 38.1402 76.3056 38.1402 76.0952V74.6667H38.7009V78.0952H35.243V74.6667H35.9907ZM33.0935 87.4286H52.7196V88H33.0935V87.4286ZM36.5287 80.0689H36.8896V80.4367H36.5287V80.0689ZM40.4637 79.8095H40.1028V80.1773H40.4637V79.8095ZM40.1028 85.8095H40.4637V86.1773H40.1028V85.8095ZM41.7721 79.8095H41.4112V80.1773H41.7721V79.8095ZM41.4112 85.8095H41.7721V86.1773H41.4112V85.8095ZM43.0805 79.8095H42.7196V80.1773H43.0805V79.8095ZM42.7196 85.8095H43.0805V86.1773H42.7196V85.8095ZM44.3889 79.8095H44.028V80.1773H44.3889V79.8095ZM44.028 85.8095H44.3889V86.1773H44.028V85.8095ZM45.6974 79.8095H45.3364V80.1773H45.6974V79.8095ZM45.3364 85.8095H45.6974V86.1773H45.3364V85.8095ZM34.9221 80.7473L34.6669 81.0073L34.9221 81.2674L35.1773 81.0073L34.9221 80.7473ZM39.9574 81.9079H39.0693C39.0531 81.8647 39.0356 81.8213 39.0163 81.7773L39.6446 81.1368C39.6785 81.1023 39.6975 81.0556 39.6975 81.0068C39.6975 80.958 39.6785 80.9113 39.6446 80.8768L38.6232 79.8359C38.5894 79.8014 38.5435 79.7821 38.4957 79.7821C38.4478 79.7821 38.4019 79.8014 38.3681 79.8359L37.7397 80.4763C37.7019 80.459 37.6643 80.4437 37.627 80.4285L37.6114 80.4222V79.5172C37.6114 79.4685 37.5924 79.4217 37.5586 79.3872C37.5247 79.3527 37.4788 79.3333 37.4309 79.3333H35.9873C35.9394 79.3333 35.8935 79.3527 35.8597 79.3872C35.8258 79.4217 35.8068 79.4685 35.8068 79.5172V80.4222C35.7644 80.4387 35.7216 80.4566 35.6785 80.4763L35.0501 79.8359C35.0163 79.8014 34.9704 79.7821 34.9226 79.7821C34.8747 79.7821 34.8288 79.8014 34.795 79.8359L33.7736 80.8768C33.7397 80.9113 33.7207 80.958 33.7207 81.0068C33.7207 81.0556 33.7397 81.1023 33.7736 81.1368L34.4019 81.7771C34.3849 81.8158 34.3699 81.8542 34.355 81.8923L34.3489 81.9079H33.4608C33.413 81.9079 33.3671 81.9273 33.3332 81.9618C33.2994 81.9962 33.2804 82.043 33.2804 82.0918V83.563C33.2804 83.6117 33.2994 83.6585 33.3332 83.693C33.3671 83.7275 33.413 83.7469 33.4608 83.7469H34.3489C34.3651 83.7901 34.3826 83.8337 34.4019 83.8776L33.7736 84.518C33.7397 84.5524 33.7207 84.5992 33.7207 84.648C33.7207 84.6967 33.7397 84.7435 33.7736 84.778L34.795 85.8188C34.8288 85.8533 34.8747 85.8727 34.9226 85.8727C34.9704 85.8727 35.0163 85.8533 35.0501 85.8188L35.6785 85.1785C35.7165 85.1958 35.7542 85.2112 35.7916 85.2264L35.8068 85.2326V86.1375C35.8068 86.1863 35.8258 86.2331 35.8597 86.2676C35.8935 86.3021 35.9394 86.3214 35.9873 86.3214H37.4309C37.4788 86.3214 37.5247 86.3021 37.5586 86.2676C37.5924 86.2331 37.6114 86.1863 37.6114 86.1375V85.2326C37.6538 85.216 37.6966 85.1982 37.7397 85.1785L38.3681 85.8188C38.4026 85.8521 38.4482 85.8706 38.4957 85.8706C38.5431 85.8706 38.5888 85.8521 38.6232 85.8188L39.6446 84.778C39.6785 84.7435 39.6975 84.6967 39.6975 84.648C39.6975 84.5992 39.6785 84.5524 39.6446 84.518L39.0163 83.8774C39.0337 83.8378 39.049 83.7987 39.0643 83.7597L39.0693 83.7469H39.9574C40.0052 83.7469 40.0511 83.7275 40.085 83.693C40.1188 83.6585 40.1378 83.6117 40.1378 83.563V82.0918C40.1378 82.043 40.1188 81.9962 40.085 81.9618C40.0511 81.9273 40.0052 81.9079 39.9574 81.9079ZM39.7769 83.3791H38.9414C38.903 83.3791 38.8657 83.3916 38.8347 83.4148C38.8038 83.4379 38.7809 83.4705 38.7694 83.5078C38.7338 83.62 38.6897 83.7292 38.6375 83.8344C38.6206 83.8689 38.6147 83.908 38.6208 83.9461C38.6268 83.9841 38.6445 84.0193 38.6712 84.0466L39.2619 84.648L38.4957 85.4288L37.905 84.8269C37.8782 84.7996 37.8437 84.7816 37.8063 84.7755C37.769 84.7693 37.7306 84.7753 37.6968 84.7925C37.5935 84.8457 37.4864 84.8907 37.3763 84.9269C37.3397 84.9387 37.3077 84.962 37.285 84.9935C37.2622 85.025 37.25 85.0631 37.2499 85.1022V85.9536H36.1677V85.1022C36.1677 85.0631 36.1554 85.025 36.1327 84.9935C36.11 84.962 36.078 84.9387 36.0414 84.9269C35.9313 84.8907 35.8241 84.8457 35.7209 84.7925C35.687 84.7753 35.6487 84.7693 35.6113 84.7755C35.574 84.7816 35.5394 84.7996 35.5127 84.8269L34.9226 85.4288L34.1563 84.648L34.747 84.0461C34.7737 84.0188 34.7914 83.9836 34.7974 83.9455C34.8035 83.9074 34.7976 83.8684 34.7807 83.8339C34.7285 83.7286 34.6844 83.6194 34.6488 83.5072C34.6373 83.4699 34.6144 83.4374 34.5835 83.4142C34.5526 83.3911 34.5152 83.3786 34.4768 83.3785H33.6413V82.2757H34.4768C34.5152 82.2757 34.5526 82.2632 34.5835 82.24C34.6144 82.2169 34.6373 82.1843 34.6488 82.147C34.6844 82.0348 34.7285 81.9256 34.7807 81.8204C34.7976 81.7859 34.8035 81.7468 34.7974 81.7087C34.7914 81.6706 34.7737 81.6354 34.747 81.6081L34.1563 81.0068L34.9226 80.226L35.5132 80.8279C35.54 80.8551 35.5745 80.8731 35.6119 80.8793C35.6493 80.8855 35.6876 80.8795 35.7215 80.8623C35.8245 80.809 35.9315 80.7641 36.0414 80.7278C36.078 80.7161 36.11 80.6928 36.1327 80.6613C36.1554 80.6298 36.1677 80.5917 36.1677 80.5526V79.7011H37.2505V80.5526C37.2505 80.5917 37.2628 80.6298 37.2855 80.6613C37.3082 80.6928 37.3402 80.7161 37.3768 80.7278C37.4869 80.7641 37.5941 80.809 37.6973 80.8623C37.7312 80.8795 37.7695 80.8855 37.8069 80.8793C37.8442 80.8731 37.8788 80.8551 37.9056 80.8279L38.4957 80.226L39.2619 81.0068L38.6712 81.6087C38.6445 81.636 38.6268 81.6712 38.6208 81.7093C38.6147 81.7473 38.6206 81.7864 38.6375 81.8209C38.6897 81.9261 38.7338 82.0353 38.7694 82.1475C38.7809 82.1848 38.8038 82.2174 38.8347 82.2406C38.8657 82.2637 38.903 82.2762 38.9414 82.2762H39.7769V83.3791ZM35.907 81.6041C36.1445 81.4425 36.4236 81.3562 36.7091 81.3562C37.0919 81.3566 37.4588 81.5118 37.7295 81.7876C38.0001 82.0634 38.1524 82.4373 38.1528 82.8274C38.1528 83.1184 38.0681 83.4028 37.9095 83.6447C37.7508 83.8867 37.5254 84.0752 37.2616 84.1866C36.9978 84.2979 36.7075 84.3271 36.4275 84.2703C36.1474 84.2135 35.8902 84.0734 35.6883 83.8677C35.4864 83.6619 35.3489 83.3998 35.2932 83.1144C35.2375 82.829 35.2661 82.5332 35.3753 82.2644C35.4846 81.9956 35.6696 81.7658 35.907 81.6041ZM36.1076 83.7448C36.2856 83.8661 36.495 83.9308 36.7091 83.9308C36.9962 83.9305 37.2714 83.8141 37.4744 83.6073C37.6774 83.4004 37.7916 83.1199 37.7919 82.8274C37.7919 82.6092 37.7284 82.3958 37.6094 82.2144C37.4904 82.0329 37.3213 81.8915 37.1235 81.808C36.9256 81.7245 36.7079 81.7026 36.4979 81.7452C36.2878 81.7878 36.0949 81.8929 35.9435 82.0472C35.7921 82.2015 35.6889 82.3981 35.6472 82.6121C35.6054 82.8262 35.6268 83.048 35.7088 83.2496C35.7907 83.4512 35.9295 83.6236 36.1076 83.7448ZM34.0022 82.6435H34.3631V83.0113H34.0022V82.6435ZM34.9216 84.3878L34.6664 84.6479L34.9216 84.908L35.1768 84.6479L34.9216 84.3878ZM36.5287 85.218H36.8896V85.5858H36.5287V85.218ZM38.4941 84.3882L38.2389 84.6483L38.4941 84.9084L38.7494 84.6483L38.4941 84.3882ZM39.0551 82.6435H39.416V83.0113H39.0551V82.6435ZM38.4946 80.7477L38.2394 81.0077L38.4946 81.2678L38.7498 81.0077L38.4946 80.7477ZM48.9586 80.0689H49.3195V80.4367H48.9586V80.0689ZM47.352 80.7473L47.0968 81.0073L47.352 81.2674L47.6072 81.0073L47.352 80.7473ZM52.3873 81.9079H51.4992C51.483 81.8647 51.4655 81.8213 51.4462 81.7773L52.0745 81.1368C52.1084 81.1023 52.1274 81.0556 52.1274 81.0068C52.1274 80.958 52.1084 80.9113 52.0745 80.8768L51.0531 79.8359C51.0193 79.8014 50.9734 79.7821 50.9255 79.7821C50.8777 79.7821 50.8318 79.8014 50.798 79.8359L50.1696 80.4763C50.1316 80.4589 50.0939 80.4436 50.0565 80.4284L50.0413 80.4222V79.5172C50.0413 79.4685 50.0223 79.4217 49.9884 79.3872C49.9546 79.3527 49.9087 79.3333 49.8608 79.3333H48.4172C48.3693 79.3333 48.3234 79.3527 48.2896 79.3872C48.2557 79.4217 48.2367 79.4685 48.2367 79.5172V80.4222C48.1943 80.4387 48.1515 80.4566 48.1084 80.4763L47.48 79.8359C47.4462 79.8014 47.4003 79.7821 47.3524 79.7821C47.3046 79.7821 47.2587 79.8014 47.2249 79.8359L46.2035 80.8768C46.1696 80.9113 46.1506 80.958 46.1506 81.0068C46.1506 81.0556 46.1696 81.1023 46.2035 81.1368L46.8318 81.7771C46.8148 81.8158 46.7998 81.8542 46.7849 81.8924L46.7788 81.9079H45.8907C45.8429 81.9079 45.797 81.9273 45.7631 81.9618C45.7293 81.9962 45.7103 82.043 45.7103 82.0918V83.563C45.7103 83.6117 45.7293 83.6585 45.7631 83.693C45.797 83.7275 45.8429 83.7469 45.8907 83.7469H46.7788C46.795 83.7901 46.8125 83.8337 46.8318 83.8776L46.2035 84.518C46.1696 84.5524 46.1506 84.5992 46.1506 84.648C46.1506 84.6967 46.1696 84.7435 46.2035 84.778L47.2249 85.8188C47.2587 85.8533 47.3046 85.8727 47.3524 85.8727C47.4003 85.8727 47.4462 85.8533 47.48 85.8188L48.1084 85.1785C48.1464 85.1958 48.1841 85.2112 48.2215 85.2264L48.2367 85.2326V86.1375C48.2367 86.1863 48.2557 86.2331 48.2896 86.2676C48.3234 86.3021 48.3693 86.3214 48.4172 86.3214H49.8608C49.9087 86.3214 49.9546 86.3021 49.9884 86.2676C50.0223 86.2331 50.0413 86.1863 50.0413 86.1375V85.2326C50.0837 85.216 50.1265 85.1982 50.1696 85.1785L50.798 85.8188C50.8324 85.8521 50.8781 85.8706 50.9255 85.8706C50.973 85.8706 51.0187 85.8521 51.0531 85.8188L52.0745 84.778C52.1084 84.7435 52.1274 84.6967 52.1274 84.648C52.1274 84.5992 52.1084 84.5524 52.0745 84.518L51.4462 83.8774C51.4636 83.8379 51.4789 83.7987 51.4942 83.7598L51.4992 83.7469H52.3873C52.4351 83.7469 52.481 83.7275 52.5149 83.693C52.5487 83.6585 52.5677 83.6117 52.5677 83.563V82.0918C52.5677 82.043 52.5487 81.9962 52.5149 81.9618C52.481 81.9273 52.4351 81.9079 52.3873 81.9079ZM52.2068 83.3791H51.3713C51.3329 83.3791 51.2955 83.3916 51.2646 83.4148C51.2337 83.4379 51.2108 83.4705 51.1993 83.5078C51.1637 83.62 51.1196 83.7292 51.0674 83.8344C51.0505 83.8689 51.0446 83.908 51.0507 83.9461C51.0567 83.9841 51.0744 84.0193 51.1011 84.0466L51.6918 84.648L50.9255 85.4288L50.3349 84.8269C50.3081 84.7996 50.2736 84.7816 50.2362 84.7755C50.1989 84.7693 50.1605 84.7753 50.1267 84.7925C50.0234 84.8457 49.9163 84.8907 49.8062 84.9269C49.7696 84.9387 49.7376 84.962 49.7149 84.9935C49.6921 85.025 49.6799 85.0631 49.6798 85.1022V85.9536H48.5976V85.1022C48.5976 85.0631 48.5853 85.025 48.5626 84.9935C48.5399 84.962 48.5079 84.9387 48.4713 84.9269C48.3612 84.8907 48.254 84.8457 48.1508 84.7925C48.1169 84.7753 48.0786 84.7693 48.0412 84.7755C48.0039 84.7816 47.9693 84.7996 47.9426 84.8269L47.3524 85.4288L46.5862 84.648L47.1769 84.0461C47.2036 84.0188 47.2213 83.9836 47.2273 83.9455C47.2334 83.9074 47.2275 83.8684 47.2106 83.8339C47.1584 83.7286 47.1143 83.6194 47.0787 83.5072C47.0672 83.4699 47.0443 83.4374 47.0134 83.4142C46.9824 83.3911 46.9451 83.3786 46.9067 83.3785H46.0712V82.2757H46.9067C46.9451 82.2757 46.9824 82.2632 47.0134 82.24C47.0443 82.2169 47.0672 82.1843 47.0787 82.147C47.1143 82.0348 47.1584 81.9256 47.2106 81.8204C47.2275 81.7859 47.2334 81.7468 47.2273 81.7087C47.2213 81.6706 47.2036 81.6354 47.1769 81.6081L46.5862 81.0068L47.3524 80.226L47.9431 80.8279C47.9699 80.8551 48.0044 80.8731 48.0418 80.8793C48.0791 80.8855 48.1175 80.8795 48.1513 80.8623C48.2544 80.809 48.3614 80.7641 48.4713 80.7278C48.5079 80.7161 48.5399 80.6928 48.5626 80.6613C48.5853 80.6298 48.5976 80.5917 48.5976 80.5526V79.7011H49.6804V80.5526C49.6804 80.5917 49.6927 80.6298 49.7154 80.6613C49.7381 80.6928 49.7701 80.7161 49.8067 80.7278C49.9168 80.7641 50.024 80.809 50.1272 80.8623C50.1611 80.8795 50.1994 80.8855 50.2368 80.8793C50.2741 80.8731 50.3087 80.8551 50.3354 80.8279L50.9255 80.226L51.6918 81.0068L51.1011 81.6087C51.0744 81.636 51.0567 81.6712 51.0507 81.7093C51.0446 81.7473 51.0505 81.7864 51.0674 81.8209C51.1196 81.9261 51.1637 82.0353 51.1993 82.1475C51.2108 82.1848 51.2337 82.2174 51.2646 82.2406C51.2955 82.2637 51.3329 82.2762 51.3713 82.2762H52.2068V83.3791ZM48.3369 81.6041C48.5743 81.4425 48.8535 81.3562 49.139 81.3562C49.5217 81.3566 49.8887 81.5118 50.1594 81.7876C50.43 82.0634 50.5822 82.4373 50.5827 82.8274C50.5827 83.1184 50.498 83.4028 50.3394 83.6447C50.1807 83.8867 49.9553 84.0752 49.6915 84.1866C49.4277 84.2979 49.1374 84.3271 48.8573 84.2703C48.5773 84.2135 48.3201 84.0734 48.1182 83.8677C47.9163 83.6619 47.7788 83.3998 47.7231 83.1144C47.6674 82.829 47.6959 82.5332 47.8052 82.2644C47.9145 81.9956 48.0995 81.7658 48.3369 81.6041ZM48.5374 83.7448C48.7155 83.8661 48.9248 83.9308 49.139 83.9308C49.4261 83.9305 49.7013 83.8141 49.9043 83.6073C50.1073 83.4004 50.2215 83.1199 50.2218 82.8274C50.2218 82.6092 50.1583 82.3958 50.0393 82.2144C49.9203 82.0329 49.7512 81.8915 49.5533 81.808C49.3555 81.7245 49.1378 81.7026 48.9278 81.7452C48.7177 81.7878 48.5248 81.8929 48.3734 82.0472C48.2219 82.2015 48.1188 82.3981 48.077 82.6121C48.0353 82.8262 48.0567 83.048 48.1387 83.2496C48.2206 83.4512 48.3594 83.6236 48.5374 83.7448ZM46.4321 82.6435H46.793V83.0113H46.4321V82.6435ZM47.3515 84.3878L47.0963 84.6479L47.3515 84.908L47.6067 84.6479L47.3515 84.3878ZM48.9586 85.218H49.3195V85.5858H48.9586V85.218ZM50.924 84.3882L50.6688 84.6483L50.924 84.9084L51.1792 84.6483L50.924 84.3882ZM51.485 82.6435H51.8459V83.0113H51.485V82.6435ZM50.9245 80.7477L50.6693 81.0077L50.9245 81.2678L51.1797 81.0077L50.9245 80.7477ZM42.4392 74.7619V76.0952H43.4673V74.7619H42.4392ZM48.3271 76.0952V74.7619H49.3551V76.0952H48.3271Z" fill="#9E9E9E" stroke="#9E9E9E" stroke-width="2" mask="url(#path-1-inside-1)"/>
</g>
<!-- <g clip-path="url(#clip0)"> -->
<path d="M79.2698 74.1173C79.446 74.1173 79.5889 73.9863 79.5889 73.8248C79.5889 73.6632 79.446 73.5322 79.2698 73.5322H73.2137C73.0374 73.5322 72.8945 73.6632 72.8945 73.8248C72.8945 73.9863 73.0374 74.1173 73.2137 74.1173H79.2698Z" fill="#9E9E9E"/>
<path d="M69.6797 75.5233C69.6797 75.6848 69.8226 75.8158 69.9988 75.8158H77.4413C77.6175 75.8158 77.7604 75.6848 77.7604 75.5233C77.7604 75.3617 77.6175 75.2307 77.4413 75.2307H69.9988C69.8226 75.2307 69.6797 75.3617 69.6797 75.5233Z" fill="#9E9E9E"/>
<path d="M69.9988 77.5143H76.2424C76.4187 77.5143 76.5616 77.3833 76.5616 77.2217C76.5616 77.0602 76.4187 76.9292 76.2424 76.9292H69.9988C69.8226 76.9292 69.6797 77.0602 69.6797 77.2217C69.6797 77.3833 69.8226 77.5143 69.9988 77.5143Z" fill="#9E9E9E"/>
<path d="M69.9988 79.2125H75.7263C75.9026 79.2125 76.0455 79.0815 76.0455 78.92C76.0455 78.7584 75.9026 78.6274 75.7263 78.6274H69.9988C69.8226 78.6274 69.6797 78.7584 69.6797 78.92C69.6797 79.0816 69.8226 79.2125 69.9988 79.2125Z" fill="#9E9E9E"/>
<path d="M69.9988 80.911H75.7263C75.9026 80.911 76.0455 80.78 76.0455 80.6185C76.0455 80.4569 75.9026 80.3259 75.7263 80.3259H69.9988C69.8226 80.3259 69.6797 80.4569 69.6797 80.6185C69.6797 80.78 69.8226 80.911 69.9988 80.911Z" fill="#9E9E9E"/>
<path d="M69.9988 82.6093H76.2424C76.4187 82.6093 76.5616 82.4783 76.5616 82.3167C76.5616 82.1552 76.4187 82.0242 76.2424 82.0242H69.9988C69.8226 82.0242 69.6797 82.1552 69.6797 82.3167C69.6797 82.4783 69.8226 82.6093 69.9988 82.6093Z" fill="#9E9E9E"/>
<path d="M69.9988 84.3078H79.2705C79.4467 84.3078 79.5896 84.1768 79.5896 84.0152C79.5896 83.8536 79.4467 83.7227 79.2705 83.7227H69.9988C69.8226 83.7227 69.6797 83.8536 69.6797 84.0152C69.6797 84.1768 69.8226 84.3078 69.9988 84.3078Z" fill="#9E9E9E"/>
<path d="M69.9988 86.006H79.2705C79.4467 86.006 79.5896 85.875 79.5896 85.7134C79.5896 85.5519 79.4467 85.4209 79.2705 85.4209H69.9988C69.8226 85.4209 69.6797 85.5519 69.6797 85.7134C69.6797 85.875 69.8226 86.006 69.9988 86.006Z" fill="#9E9E9E"/>
<path d="M81.6051 75.1803C81.5833 75.1803 81.5617 75.1812 81.54 75.1814V71.4618C81.54 70.9746 81.1076 70.5783 80.5761 70.5783H78.1168V70.132C78.1168 69.8403 77.859 69.6031 77.5421 69.6031H76.2262V69.4693C76.2262 68.6591 75.5125 68 74.6352 68C73.758 68 73.0443 68.6591 73.0443 69.4692V69.603H71.7284C71.4115 69.603 71.1537 69.8403 71.1537 70.132V70.5783H68.6943C68.1629 70.5783 67.7305 70.9746 67.7305 71.4618V72.8473C67.7305 73.0089 67.8734 73.1399 68.0496 73.1399C68.2259 73.1399 68.3688 73.0089 68.3688 72.8473V71.4618C68.3688 71.2972 68.5148 71.1634 68.6943 71.1634H71.1537V71.6097C71.1537 71.9013 71.4115 72.1386 71.7284 72.1386H77.5421C77.859 72.1386 78.1168 71.9013 78.1168 71.6097V71.1634H80.5762C80.7557 71.1634 80.9017 71.2972 80.9017 71.4618V75.2304C80.197 75.3317 79.5319 75.5854 78.949 75.9791C78.8071 76.0749 78.7768 76.258 78.8813 76.3881C78.9859 76.5182 79.1857 76.5459 79.3275 76.4501C79.9909 76.0021 80.7785 75.7654 81.6051 75.7654C83.7248 75.7654 85.4492 77.3461 85.4492 79.2891C85.4492 81.2321 83.7248 82.8129 81.6051 82.8129C79.4855 82.8129 77.761 81.2321 77.761 79.2891C77.761 78.5989 77.9786 77.9306 78.3902 77.3565C78.487 77.2215 78.446 77.0401 78.2988 76.9514C78.1515 76.8627 77.9536 76.9002 77.8568 77.0352C77.3766 77.705 77.1227 78.4844 77.1227 79.2891C77.1227 81.3354 78.7631 83.0369 80.9017 83.3472V87.1165C80.9017 87.281 80.7556 87.4149 80.5761 87.4149H68.6943C68.5148 87.4149 68.3688 87.281 68.3688 87.1165V74.2046C68.3688 74.0431 68.2259 73.9121 68.0496 73.9121C67.8734 73.9121 67.7305 74.0431 67.7305 74.2046V87.1165C67.7305 87.6037 68.1629 88 68.6943 88H80.5762C81.1076 88 81.54 87.6037 81.54 87.1165V83.3972C81.5617 83.3975 81.5834 83.398 81.6051 83.398C84.0767 83.398 86.0875 81.5547 86.0875 79.2891C86.0875 77.0235 84.0767 75.1803 81.6051 75.1803ZM77.4785 71.5536H71.7919V70.1881H73.3633C73.5396 70.1881 73.6825 70.0571 73.6825 69.8956V69.4692C73.6825 68.9817 74.1099 68.5851 74.6352 68.5851C75.1606 68.5851 75.5879 68.9817 75.5879 69.4692V69.8955C75.5879 70.0571 75.7308 70.1881 75.9071 70.1881H77.4785V71.5536H77.4785Z" fill="#9E9E9E"/>
<path d="M81.0234 81.3398C81.0326 81.3398 81.0418 81.3397 81.0519 81.3394C81.3185 81.3324 81.5751 81.2254 81.7559 81.0459L84.0462 78.772C84.2268 78.5926 84.3204 78.3596 84.3099 78.1157C84.2993 77.8718 84.1857 77.6463 83.99 77.4807C83.7944 77.3151 83.5403 77.2295 83.2741 77.239C83.008 77.2487 82.762 77.3528 82.5814 77.5322L80.9829 79.1191L80.5876 78.7689C80.1924 78.4188 79.56 78.4287 79.178 78.7909C78.796 79.1532 78.8068 79.7329 79.202 80.083L80.3307 81.083C80.5175 81.2486 80.7635 81.3398 81.0234 81.3398ZM79.6369 79.1976C79.7072 79.131 79.801 79.0975 79.8949 79.0975C79.9847 79.0975 80.0745 79.1281 80.144 79.1896L80.7742 79.7479C80.836 79.8026 80.9194 79.8321 81.005 79.83C81.0909 79.8277 81.1721 79.7938 81.2304 79.736C81.2304 79.736 83.0497 77.9297 83.0503 77.9291C83.1867 77.7937 83.4075 77.784 83.557 77.9105C83.7014 78.0327 83.7107 78.2426 83.5772 78.3751L81.2869 80.649C81.2219 80.7136 81.1296 80.7521 81.0346 80.7546L81.0235 80.7547C80.93 80.7547 80.8415 80.7219 80.7743 80.6623L79.6455 79.6624C79.5034 79.5364 79.4995 79.3279 79.6369 79.1976Z" fill="#9E9E9E"/>
<!-- </g> -->
<path d="M59.9375 38.5103V34.4897L58.4532 34.1248C58.3878 33.9484 58.314 33.772 58.2322 33.5962L59.0248 32.2867L56.1816 29.4434L54.8726 30.2366C54.6967 30.1547 54.5203 30.0809 54.344 30.0156L53.979 28.5312H49.9585L49.5935 30.0156C49.4172 30.0809 49.2408 30.1547 49.0649 30.2366L47.7554 29.4439L44.9122 32.2872L45.7048 33.5967C45.623 33.7726 45.5491 33.9489 45.4838 34.1253L44 34.4897V38.0938H29.6562C28.1916 38.0938 27 39.2853 27 40.75V53.5C27 54.9647 28.1916 56.1562 29.6562 56.1562H33.9062V58.2812H31.7812C31.1953 58.2812 30.7188 58.7578 30.7188 59.3438V60.4062C30.7188 60.9922 31.1953 61.4688 31.7812 61.4688H42.9375H44.0212H59.9375V59.3438C59.9375 55.4784 57.3413 52.2128 53.8021 51.1853C54.9384 50.4214 55.6875 49.1252 55.6875 47.6562C55.6875 46.2702 55.0176 45.0409 53.988 44.2647L54.0422 44.2122L54.344 42.9844C54.5203 42.9191 54.6967 42.8453 54.8726 42.7634L56.1821 43.5561L59.0253 40.7128L58.2327 39.4033C58.3145 39.2274 58.3884 39.0511 58.4537 38.8747L59.9375 38.5103ZM29.6562 39.1562H47.7188C48.5974 39.1562 49.3125 39.8713 49.3125 40.75V43.9811C48.9125 44.2132 48.5539 44.5091 48.25 44.8544V41.2812C48.25 40.6953 47.7735 40.2188 47.1875 40.2188H30.1875C29.6015 40.2188 29.125 40.6953 29.125 41.2812V51.9062H28.0625V40.75C28.0625 39.8713 28.7776 39.1562 29.6562 39.1562ZM48.25 36.5C48.25 34.4499 49.9187 32.7812 51.9688 32.7812C54.0188 32.7812 55.6875 34.4499 55.6875 36.5C55.6875 38.5501 54.0188 40.2188 51.9688 40.2188C51.3376 40.2188 50.7235 40.0525 50.1763 39.7497C49.9064 39.0893 49.3794 38.5623 48.7186 38.2924C48.4163 37.7442 48.25 37.1306 48.25 36.5ZM54.0226 57.2023L52.1919 60.4062H52.1366L54.3344 52.4938C54.5612 52.59 54.7822 52.6983 54.9974 52.8158L54.6606 54.8382L53.4478 56.0511L54.0226 57.2023ZM50.6831 60.4062L48.8524 57.2023L49.4278 56.0516L48.2149 54.8387L47.8781 52.8163C48.0927 52.6989 48.3137 52.5905 48.5411 52.4943L50.7384 60.4062H50.6831ZM45.0625 51.9062H44V43.4062H45.0625V51.9062ZM48.25 51.4696V50.4581C48.4922 50.7338 48.7669 50.9803 49.0729 51.1853C48.7924 51.2666 48.5177 51.3607 48.25 51.4696ZM47.1875 51.9062H46.125V42.3438H42.9375V51.9062H41.875V44.4688H38.6875V51.9062H37.625V46.5938H34.4375V51.9062H30.1875V41.2812H47.1875V51.9062ZM40.8125 51.9062H39.75V45.5312H40.8125V51.9062ZM36.5625 51.9062H35.5V47.6562H36.5625V51.9062ZM28.0625 53.5V52.9688H45.8344C45.1432 53.577 44.5525 54.2932 44.0877 55.0938H29.6562C28.7776 55.0938 28.0625 54.3787 28.0625 53.5ZM34.9688 56.1562H43.5633C43.2908 56.8267 43.1043 57.5391 43.0113 58.2812H34.9688V56.1562ZM31.7812 60.4062V59.3438H42.9375V60.4062H31.7812ZM44 60.4062V59.3438C44 56.9478 45.1432 54.8191 46.9081 53.458L47.2231 55.3487L48.1353 56.2609L47.6481 57.2352L49.4597 60.4062H46.6562V56.1562H45.5938V60.4062H44.0212H44ZM58.875 59.3438V60.4062H57.2812V56.1562H56.2188V60.4062H53.4153L55.2274 57.2352L54.7403 56.2609L55.6524 55.3487L55.9675 53.458C57.7317 54.8191 58.875 56.9478 58.875 59.3438ZM53.3245 52.1581L51.4375 58.9517L49.5505 52.1581C50.1545 51.9992 50.7846 51.9062 51.4375 51.9062C52.0904 51.9062 52.7205 51.9992 53.3245 52.1581ZM54.625 47.6562C54.625 49.4142 53.1954 50.8438 51.4375 50.8438C49.6796 50.8438 48.25 49.4142 48.25 47.6562C48.25 45.8983 49.6796 44.4688 51.4375 44.4688C53.1954 44.4688 54.625 45.8983 54.625 47.6562ZM57.6845 40.5513L56.0201 42.2157L54.9182 41.549L54.6537 41.6866C54.3493 41.8449 54.0406 41.974 53.7373 42.0702L53.4525 42.1599L53.0833 43.6634L53.027 43.7181C52.5356 43.5183 51.9996 43.4062 51.4375 43.4062C51.0699 43.4062 50.7155 43.4578 50.375 43.546V40.9965C50.885 41.1771 51.421 41.2812 51.9688 41.2812C54.6053 41.2812 56.75 39.1366 56.75 36.5C56.75 33.8634 54.6053 31.7188 51.9688 31.7188C49.3322 31.7188 47.1875 33.8634 47.1875 36.5C47.1875 37.0477 47.2916 37.5837 47.4722 38.0938H45.0625V35.3228L46.3093 35.0162L46.3991 34.7315C46.4953 34.4287 46.6244 34.12 46.7827 33.8151L46.9203 33.5505L46.2536 32.4487L47.918 30.7843L49.0198 31.451L49.2843 31.3134C49.5887 31.1551 49.8974 31.026 50.2008 30.9298L50.4855 30.8401L50.7915 29.5938H53.146L53.4525 30.8406L53.7373 30.9304C54.0401 31.0265 54.3487 31.1556 54.6537 31.3139L54.9182 31.4515L56.0201 30.7848L57.6845 32.4492L57.0177 33.551L57.1553 33.8156C57.3137 34.12 57.4427 34.4287 57.5389 34.732L57.6287 35.0167L58.875 35.3228V37.6772L57.6282 37.9838L57.5384 38.268C57.4422 38.5713 57.3131 38.88 57.1548 39.1849L57.0172 39.4495L57.6845 40.5513Z" fill="#9E9E9E"/>
<path fill-rule="evenodd" clip-rule="evenodd" d="M1.74624 71.259L0.155255 72.85C0.0576235 72.9476 0.0576235 73.1059 0.155255 73.2036C0.252886 73.3012 0.411177 73.3012 0.508808 73.2036L1.67302 72.0393V86.0386H1.91912V86.0615H19.1578L17.9936 87.2258C17.896 87.3234 17.896 87.4817 17.9936 87.5793C18.0912 87.6769 18.2495 87.6769 18.3472 87.5793L19.9381 85.9883C20.0358 85.8907 20.0358 85.7324 19.9381 85.6348L18.3472 84.0438C18.2495 83.9461 18.0912 83.9461 17.9936 84.0438C17.896 84.1414 17.896 84.2997 17.9936 84.3973L19.1578 85.5615H15.8488V85.4939V78.6172V78.1172H15.3488H13.6505H13.1505V78.6172V85.4939V85.5615H12.3831V85.4947V80.4766V79.9766H11.8831H10.1847H9.68474V80.4766V85.4947V85.5615H8.91827V85.4956V81.9819V81.4819H8.41827H6.7199H6.2199V81.9819V85.4956V85.5615H5.44603V85.4934V83.5728V83.0728H4.94603H3.24766H2.74766V83.5728V85.4934V85.5615H2.17302V72.0393L3.33724 73.2036C3.43487 73.3012 3.59316 73.3012 3.69079 73.2036C3.78842 73.1059 3.78842 72.9476 3.69079 72.85L2.0998 71.259C2.00217 71.1614 1.84388 71.1614 1.74624 71.259ZM8.4596 73.161C8.583 73.0345 8.79589 73.0297 8.92893 73.1607C9.01448 73.245 9.06292 73.361 9.06292 73.4777V73.7764H8.33708V73.4622C8.33708 73.3497 8.38105 73.2416 8.4596 73.161ZM10.0629 73.4777V73.7764H10.8022H11.3022V74.2764V76.9175V77.4175H10.8022H6.62224H6.12224V76.9175V74.2764V73.7764H6.62224H7.33708V73.4622C7.33708 73.0888 7.48297 72.7302 7.74362 72.4629C8.26082 71.9325 9.10967 71.9353 9.63051 72.4481C9.90457 72.718 10.0629 73.0897 10.0629 73.4777ZM9.06292 74.8171V74.2764H8.33708V74.8171H7.33708V74.2764H6.62224V76.9175H10.8022V74.2764H10.0629V74.8171H9.06292ZM3.24766 83.5728H4.94603V85.4934H3.24766V83.5728ZM6.7199 81.9819H8.41827V85.4956H6.7199V81.9819ZM11.8831 80.4766H10.1847V85.4947H11.8831V80.4766ZM13.6505 78.6172H15.3488V85.4939H13.6505V78.6172Z" fill="#9E9E9E"/>
<path d="M71.3125 3.4375C71.3125 2.40344 70.4716 1.5625 69.4375 1.5625C68.4034 1.5625 67.5625 2.40344 67.5625 3.4375C67.5625 4.47156 68.4034 5.3125 69.4375 5.3125C70.4716 5.3125 71.3125 4.47156 71.3125 3.4375ZM68.1875 3.4375C68.1875 2.74812 68.7481 2.1875 69.4375 2.1875C70.1269 2.1875 70.6875 2.74812 70.6875 3.4375C70.6875 4.12687 70.1269 4.6875 69.4375 4.6875C68.7481 4.6875 68.1875 4.12687 68.1875 3.4375Z" fill="#9E9E9E"/>
<path d="M83.1484 2.41016L83.5904 1.96821L84.0323 2.41016L83.5904 2.8521L83.1484 2.41016Z" fill="#9E9E9E"/>
<path d="M82.2656 3.2937L82.7076 2.85176L83.1495 3.2937L82.7076 3.73564L82.2656 3.2937Z" fill="#9E9E9E"/>
<path d="M81.4023 4.15527L81.822 3.73565L82.2639 4.17759L81.8443 4.59722L81.4023 4.15527Z" fill="#9E9E9E"/>
<path d="M84.75 13.4376H83.0166C83.5381 12.3729 83.8125 11.1954 83.8125 10.0001C83.8125 8.41258 83.3387 6.90039 82.4497 5.60133C82.6856 5.43664 82.9159 5.26383 83.14 5.08227L85.0625 7.00445L85.7325 6.33445L84.795 3.52164L84.895 3.42164C85.2047 3.11258 85.375 2.70133 85.375 2.2632C85.375 1.36008 84.64 0.625078 83.7366 0.625078C83.2994 0.625078 82.8878 0.795391 82.5781 1.10445L82.4775 1.20508L79.6653 0.267578L78.9956 0.937578L80.9181 2.86008C80.7362 3.08383 80.5637 3.31445 80.3991 3.55008C79.0997 2.66133 77.5875 2.18758 76 2.18758C74.7922 2.18758 73.6019 2.46789 72.5284 3.00039C72.3147 1.48414 71.0119 0.312578 69.4375 0.312578C67.7144 0.312578 66.3125 1.71445 66.3125 3.43758V3.52352C66.3125 4.14227 66.4941 4.74164 66.8375 5.25695L68.5147 7.77258C68.3003 8.49289 68.1875 9.24102 68.1875 10.0001C68.1875 10.9738 68.3641 11.9176 68.7103 12.8126H68.5C67.9831 12.8126 67.5625 13.2332 67.5625 13.7501C67.5625 14.157 67.8247 14.5007 68.1875 14.6301V15.3126H66.3125V16.3591C66.3125 18.1945 67.8056 19.6876 69.6409 19.6876H73.1C74.3841 19.6876 75.5447 18.9382 76.0941 17.8101C77.0344 17.7991 77.9466 17.6248 78.8128 17.2898V18.7501C78.8128 19.267 79.2334 19.6876 79.7503 19.6876H84.7503C85.2672 19.6876 85.6878 19.267 85.6878 18.7501V14.3751C85.6875 13.8582 85.2669 13.4376 84.75 13.4376ZM81.3125 14.0626H83.1875V14.6876H81.3125V14.0626ZM79.75 13.4376H78.8169C78.9978 12.4926 79.105 11.4363 79.1219 10.3126H83.1772C83.1297 11.4085 82.8325 12.4788 82.3094 13.4376H79.75ZM76.3028 17.1245L76.3125 16.5626H74.9431L73.9466 14.5691C74.1472 14.4595 74.3022 14.2804 74.38 14.0626H78.0397C77.6172 15.7457 76.9594 16.8582 76.3028 17.1245ZM74.38 13.4376C74.2744 13.1413 74.0259 12.9138 73.7159 12.8401C73.5897 12.0366 73.5197 11.1891 73.5062 10.3126H78.4969C78.4791 11.4679 78.3631 12.521 78.18 13.4376H74.38ZM68.8244 9.68758C68.8441 9.22758 68.9028 8.77227 69.0087 8.32758C69.1384 8.39852 69.285 8.43758 69.4375 8.43758C69.7378 8.43758 70.0166 8.2882 70.1834 8.03852L71.1672 6.56258H73.1831C73.0022 7.50758 72.895 8.56383 72.8781 9.68758H68.8244ZM73.8219 6.56258H78.1822C78.3716 7.5182 78.4772 8.58195 78.4944 9.68758H73.5059C73.5241 8.53258 73.6384 7.47852 73.8219 6.56258ZM76 2.81258C76.5553 2.81258 77.1266 3.44133 77.585 4.5357L77.3475 4.7732L77.755 4.97695C77.8612 5.27852 77.9578 5.5982 78.0425 5.93758H73.9622C74.4506 3.99664 75.2519 2.81258 76 2.81258ZM79.4625 5.13195L78.4025 4.60195L78.5959 4.40883L79.6941 4.6832C79.6134 4.8307 79.5372 4.9807 79.4625 5.13195ZM79.2 5.69945C79.1975 5.70508 79.1947 5.7107 79.1922 5.71633C79.1616 5.78727 79.1453 5.86195 79.1356 5.93758H78.6837C78.6375 5.74164 78.5872 5.55195 78.5341 5.36664L79.2 5.69945ZM83.1753 9.68758H79.1194C79.1028 8.5882 79 7.52727 78.8169 6.56258H79.3119C79.4644 6.75164 79.6947 6.87508 79.9559 6.87508C80.0684 6.87508 80.1784 6.85258 80.2834 6.80789C80.2894 6.80539 80.2947 6.80258 80.3006 6.80008L81.2269 8.65258L82.2834 7.5957L81.8791 5.97789C81.8959 5.96758 81.9122 5.95633 81.9291 5.9457C82.6912 7.05726 83.1178 8.33852 83.1753 9.68758ZM81.3169 6.30602L81.5912 7.40414L81.3978 7.59727L80.8678 6.53727C81.0194 6.46289 81.1694 6.38664 81.3169 6.30602ZM84.9725 6.0307L83.6169 4.67508C83.7741 4.53352 83.9284 4.38852 84.0784 4.2382L84.3006 4.01602L84.9725 6.0307ZM83.7366 1.25008C84.2953 1.25008 84.75 1.70445 84.75 2.2632C84.75 2.53414 84.6447 2.78852 84.4531 2.97977L83.6366 3.79633C82.5981 4.83477 81.3869 5.65477 80.0378 6.2332C79.9056 6.28883 79.75 6.1857 79.75 6.04414C79.75 6.01602 79.7556 5.98852 79.7666 5.96258C80.3453 4.61289 81.165 3.40195 82.2034 2.3632L83.0197 1.54664C83.2116 1.35508 83.4662 1.25008 83.7366 1.25008ZM79.9697 1.02758L81.9841 1.69914L81.7619 1.92164C81.6116 2.07195 81.4666 2.22633 81.325 2.3832L79.9697 1.02758ZM80.0219 4.12102L78.4044 3.71633L78.0612 4.05945C77.8559 3.61352 77.6287 3.24102 77.3841 2.95008C78.3391 3.13539 79.2419 3.51352 80.0544 4.0707C80.0434 4.08789 80.0322 4.10414 80.0219 4.12102ZM72.5497 3.69727C73.2025 3.33945 73.9062 3.08477 74.6359 2.94414C74.0847 3.59727 73.6275 4.63945 73.3172 5.93758H71.5837L72.0375 5.25695C72.3484 4.79039 72.5187 4.25383 72.5497 3.69727ZM66.9375 3.52352V3.43758C66.9375 2.05914 68.0591 0.937578 69.4375 0.937578C70.8159 0.937578 71.9375 2.05914 71.9375 3.43758V3.52352C71.9375 4.01883 71.7922 4.4982 71.5175 4.91039L69.6631 7.69164C69.5622 7.84289 69.3125 7.84289 69.2116 7.69164L67.3572 4.91039C67.0828 4.49852 66.9375 4.01883 66.9375 3.52352ZM68.8206 10.3126H72.8812C72.8944 11.177 72.9609 12.0145 73.0803 12.8126H69.3862C69.0478 12.0182 68.8575 11.1798 68.8206 10.3126ZM68.5 13.4376H73.5C73.6722 13.4376 73.8125 13.5776 73.8125 13.7501C73.8125 13.9226 73.6722 14.0626 73.5 14.0626H68.5C68.3278 14.0626 68.1875 13.9226 68.1875 13.7501C68.1875 13.5776 68.3278 13.4376 68.5 13.4376ZM68.8125 14.6876H73.3069L74.2444 16.5626H69.9431L69.3181 15.3126H68.8125V14.6876ZM73.1 19.0626H69.6409C68.1503 19.0626 66.9375 17.8498 66.9375 16.3591V15.9376H68.9319L69.5569 17.1876H75.6734C75.3162 18.296 74.2706 19.0626 73.1 19.0626ZM77.3637 17.0563C77.915 16.4032 78.3725 15.3607 78.6828 14.0626H78.87C78.835 14.1607 78.8125 14.2651 78.8125 14.3751V16.6135C78.3437 16.8135 77.86 16.9613 77.3637 17.0563ZM85.0625 18.7501C85.0625 18.9226 84.9222 19.0626 84.75 19.0626H79.75C79.5778 19.0626 79.4375 18.9226 79.4375 18.7501V14.3751C79.4375 14.2026 79.5778 14.0626 79.75 14.0626H80.6875V15.3126H83.8125V14.0626H84.75C84.9222 14.0626 85.0625 14.2026 85.0625 14.3751V18.7501Z" fill="#9E9E9E"/>
<path d="M83.8125 17.8125H84.4375V18.4375H83.8125V17.8125Z" fill="#9E9E9E"/>
<path d="M82.5625 17.8125H83.1875V18.4375H82.5625V17.8125Z" fill="#9E9E9E"/>
<path d="M71.3125 15.3125H71.9375V15.9375H71.3125V15.3125Z" fill="#9E9E9E"/>
<path d="M72.5625 15.3125H73.1875V15.9375H72.5625V15.3125Z" fill="#9E9E9E"/>
<path d="M70.0625 15.3125H70.6875V15.9375H70.0625V15.3125Z" fill="#9E9E9E"/>
<path d="M74.4375 10.9375H75.0625V11.5625H74.4375V10.9375Z" fill="#9E9E9E"/>
<path d="M76.9375 10.9375H77.5625V11.5625H76.9375V10.9375Z" fill="#9E9E9E"/>
<path d="M75.6875 10.9375H76.3125V11.5625H75.6875V10.9375Z" fill="#9E9E9E"/>
<path d="M76.9375 8.4375H77.5625V9.0625H76.9375V8.4375Z" fill="#9E9E9E"/>
<path d="M75.6875 8.4375H76.3125V9.0625H75.6875V8.4375Z" fill="#9E9E9E"/>
<path d="M74.4375 8.4375H75.0625V9.0625H74.4375V8.4375Z" fill="#9E9E9E"/>
<path d="M40.6654 12C38.8244 12 37.332 13.4924 37.332 15.3333C37.332 17.1743 38.8244 18.6667 40.6654 18.6667C42.5063 18.6667 43.9987 17.1743 43.9987 15.3333C43.9967 13.4932 42.5055 12.002 40.6654 12ZM40.6654 18C39.1925 18 37.9987 16.8062 37.9987 15.3333C37.9987 13.8605 39.1925 12.6667 40.6654 12.6667C42.1382 12.6667 43.332 13.8605 43.332 15.3333C43.3304 16.8053 42.1374 17.9984 40.6654 18Z" fill="#9E9E9E"/>
<path d="M40.6654 14.3333C41.0724 14.3333 41.332 14.5305 41.332 14.6666H41.9987C41.9987 14.193 41.5791 13.8093 40.9987 13.7V13.3333H40.332V13.7C39.7516 13.8085 39.332 14.1923 39.332 14.6666C39.332 15.2276 39.9176 15.6666 40.6654 15.6666C41.0724 15.6666 41.332 15.8638 41.332 15.9999C41.332 16.136 41.0724 16.3332 40.6654 16.3332C40.2583 16.3332 39.9987 16.136 39.9987 15.9999H39.332C39.332 16.4735 39.7516 16.8572 40.332 16.9666V17.3332H40.9987V16.9666C41.5791 16.858 41.9987 16.4742 41.9987 15.9999C41.9987 15.4389 41.4131 14.9999 40.6654 14.9999C40.2583 14.9999 39.9987 14.8027 39.9987 14.6666C39.9987 14.5305 40.2583 14.3333 40.6654 14.3333Z" fill="#9E9E9E"/>
<path d="M50 19.3333H36V11.3333H41.3333C41.8856 11.3333 42.3333 10.8856 42.3333 10.3333V2H46V6H50V10.6667H50.6667V5.52865L46.4714 1.33333H42.3333V1C42.3333 0.447754 41.8856 0 41.3333 0H34C33.4478 0 33 0.447754 33 1V10.3333C33 10.8856 33.4478 11.3333 34 11.3333H35.3333V20H50.6667V15.3333H50V19.3333ZM46.6667 2.47135L49.5286 5.33333H46.6667V2.47135ZM33.6667 10.3333V1C33.6667 0.815918 33.8159 0.666667 34 0.666667H41.3333C41.5174 0.666667 41.6667 0.815918 41.6667 1V10.3333C41.6667 10.5174 41.5174 10.6667 41.3333 10.6667H34C33.8159 10.6667 33.6667 10.5174 33.6667 10.3333Z" fill="#9E9E9E"/>
<path d="M43.668 8.33325H44.3346V8.99992H43.668V8.33325Z" fill="#9E9E9E"/>
<path d="M45 8.33325H49V8.99992H45V8.33325Z" fill="#9E9E9E"/>
<path d="M43.668 7H44.3346V7.66667H43.668V7Z" fill="#9E9E9E"/>
<path d="M45 7H49V7.66667H45V7Z" fill="#9E9E9E"/>
<path d="M43.668 9.6665H44.3346V10.3332H43.668V9.6665Z" fill="#9E9E9E"/>
<path d="M45 9.6665H49V10.3332H45V9.6665Z" fill="#9E9E9E"/>
<path d="M43.668 11H44.3346V11.6667H43.668V11Z" fill="#9E9E9E"/>
<path d="M45 11H49V11.6667H45V11Z" fill="#9E9E9E"/>
<path d="M41.3333 1H34V3.33333H41.3333V1ZM40.6667 2.66667H34.6667V1.66667H40.6667V2.66667Z" fill="#9E9E9E"/>
<path d="M35.6654 3.6665H34.9987C34.6305 3.6665 34.332 3.96501 34.332 4.33317V4.99984C34.332 5.368 34.6305 5.6665 34.9987 5.6665H35.6654C36.0335 5.6665 36.332 5.368 36.332 4.99984V4.33317C36.332 3.96501 36.0335 3.6665 35.6654 3.6665ZM34.9987 4.99984V4.33317H35.6654V4.99984H34.9987Z" fill="#9E9E9E"/>
<path d="M38.0013 3.6665H37.3346C36.9665 3.6665 36.668 3.96501 36.668 4.33317V4.99984C36.668 5.368 36.9665 5.6665 37.3346 5.6665H38.0013C38.3695 5.6665 38.668 5.368 38.668 4.99984V4.33317C38.668 3.96501 38.3695 3.6665 38.0013 3.6665ZM37.3346 4.99984V4.33317H38.0013V4.99984H37.3346Z" fill="#9E9E9E"/>
<path d="M40.3333 3.6665H39.6667C39.2985 3.6665 39 3.96501 39 4.33317V4.99984C39 5.368 39.2985 5.6665 39.6667 5.6665H40.3333C40.7015 5.6665 41 5.368 41 4.99984V4.33317C41 3.96501 40.7015 3.6665 40.3333 3.6665ZM39.6667 4.99984V4.33317H40.3333V4.99984H39.6667Z" fill="#9E9E9E"/>
<path d="M35.6654 6H34.9987C34.6305 6 34.332 6.2985 34.332 6.66667V7.33333C34.332 7.7015 34.6305 8 34.9987 8H35.6654C36.0335 8 36.332 7.7015 36.332 7.33333V6.66667C36.332 6.2985 36.0335 6 35.6654 6ZM34.9987 7.33333V6.66667H35.6654V7.33333H34.9987Z" fill="#9E9E9E"/>
<path d="M38.0013 6H37.3346C36.9665 6 36.668 6.2985 36.668 6.66667V7.33333C36.668 7.7015 36.9665 8 37.3346 8H38.0013C38.3695 8 38.668 7.7015 38.668 7.33333V6.66667C38.668 6.2985 38.3695 6 38.0013 6ZM37.3346 7.33333V6.66667H38.0013V7.33333H37.3346Z" fill="#9E9E9E"/>
<path d="M40.3333 6H39.6667C39.2985 6 39 6.2985 39 6.66667V7.33333C39 7.7015 39.2985 8 39.6667 8H40.3333C40.7015 8 41 7.7015 41 7.33333V6.66667C41 6.2985 40.7015 6 40.3333 6ZM39.6667 7.33333V6.66667H40.3333V7.33333H39.6667Z" fill="#9E9E9E"/>
<path d="M35.6654 8.33325H34.9987C34.6305 8.33325 34.332 8.63175 34.332 8.99992V9.66658C34.332 10.0347 34.6305 10.3333 34.9987 10.3333H35.6654C36.0335 10.3333 36.332 10.0347 36.332 9.66658V8.99992C36.332 8.63175 36.0335 8.33325 35.6654 8.33325ZM34.9987 9.66658V8.99992H35.6654V9.66658H34.9987Z" fill="#9E9E9E"/>
<path d="M38.0013 8.33325H37.3346C36.9665 8.33325 36.668 8.63175 36.668 8.99992V9.66658C36.668 10.0347 36.9665 10.3333 37.3346 10.3333H38.0013C38.3695 10.3333 38.668 10.0347 38.668 9.66658V8.99992C38.668 8.63175 38.3695 8.33325 38.0013 8.33325ZM37.3346 9.66658V8.99992H38.0013V9.66658H37.3346Z" fill="#9E9E9E"/>
<path d="M40.3333 8.33325H39.6667C39.2985 8.33325 39 8.63175 39 8.99992V9.66658C39 10.0347 39.2985 10.3333 39.6667 10.3333H40.3333C40.7015 10.3333 41 10.0347 41 9.66658V8.99992C41 8.63175 40.7015 8.33325 40.3333 8.33325ZM39.6667 9.66658V8.99992H40.3333V9.66658H39.6667Z" fill="#9E9E9E"/>
<path d="M52.698 10.6361C52.3023 10.2583 51.6798 10.2583 51.2841 10.6361L45.5697 16.3503C45.5421 16.3783 45.5194 16.4108 45.503 16.4467L44.6983 18.1941C44.6402 18.3207 44.6671 18.4703 44.7657 18.5687C44.8642 18.6674 45.0138 18.6942 45.1404 18.6361L46.8878 17.8314C46.9236 17.815 46.9561 17.7925 46.9841 17.7647L52.698 12.0503C53.0886 11.6599 53.0886 11.0266 52.698 10.6361ZM46.5544 17.2507L45.6811 17.653L46.0834 16.7797L50.344 12.5188L50.8153 12.9901L46.5544 17.2507ZM51.2877 12.5173L50.8163 12.0461L51.0497 11.8127L51.5211 12.2841L51.2877 12.5173ZM52.2278 11.5774L51.9921 11.813L51.5208 11.3417L51.7568 11.106C51.8884 10.98 52.0959 10.98 52.2278 11.106C52.3578 11.2362 52.3578 11.4471 52.2278 11.5774Z" fill="#9E9E9E"/>
<path d="M18.9997 4.33357H18.3331V4.00024H18.6664C18.9316 4.00024 19.1859 3.89489 19.3735 3.70735C19.561 3.51982 19.6664 3.26547 19.6664 3.00026C19.6664 2.73505 19.561 2.4807 19.3735 2.29316C19.1859 2.10563 18.9316 2.00027 18.6664 2.00027H18.3331V0.333632C18.3335 0.281445 18.3214 0.229919 18.2976 0.183474C18.2738 0.137029 18.239 0.0970515 18.1964 0.0669695C18.1551 0.0357079 18.107 0.0145926 18.0561 0.00532824C18.0051 -0.00393611 17.9527 -0.00108994 17.9031 0.0136369L13.6165 1.33362H11.3332C11.2448 1.33362 11.16 1.36874 11.0975 1.43125C11.035 1.49376 10.9998 1.57854 10.9998 1.66695V2.00027H10.3332C10.2448 2.00027 10.16 2.03539 10.0975 2.0979C10.035 2.16041 9.99985 2.2452 9.99985 2.3336V3.66691C9.99985 3.75532 10.035 3.8401 10.0975 3.90261C10.16 3.96512 10.2448 4.00024 10.3332 4.00024H10.9998V4.33357H8.99987V1.33362C8.99987 1.24521 8.96475 1.16043 8.90224 1.09792C8.83972 1.03541 8.75494 1.00029 8.66654 1.00029H1.99997C1.91157 1.00029 1.82678 1.03541 1.76427 1.09792C1.70176 1.16043 1.66664 1.24521 1.66664 1.33362V4.33357H0.999985C0.735016 4.33436 0.481125 4.43997 0.293763 4.62733C0.106401 4.8147 0.000791352 5.06859 0 5.33356V16.0001C0.000791352 16.265 0.106401 16.5189 0.293763 16.7063C0.481125 16.8936 0.735016 16.9993 0.999985 17H8.66654V18H6.66657C6.57816 18 6.49338 18.0351 6.43087 18.0977C6.36836 18.1602 6.33324 18.245 6.33324 18.3334V19.6667C6.33324 19.7551 6.36836 19.8399 6.43087 19.9024C6.49338 19.9649 6.57816 20 6.66657 20H13.3331C13.4215 20 13.5063 19.9649 13.5688 19.9024C13.6313 19.8399 13.6665 19.7551 13.6665 19.6667V18.3334C13.6665 18.245 13.6313 18.1602 13.5688 18.0977C13.5063 18.0351 13.4215 18 13.3331 18H11.3332V17H18.9997C19.2647 16.9993 19.5186 16.8936 19.7059 16.7063C19.8933 16.5189 19.9989 16.265 19.9997 16.0001V5.33356C19.9989 5.06859 19.8933 4.8147 19.7059 4.62733C19.5186 4.43997 19.2647 4.33436 18.9997 4.33357ZM18.3331 2.66693H18.6664C18.7548 2.66693 18.8396 2.70205 18.9021 2.76456C18.9646 2.82707 18.9997 2.91185 18.9997 3.00026C18.9997 3.08866 18.9646 3.17345 18.9021 3.23596C18.8396 3.29847 18.7548 3.33359 18.6664 3.33359H18.3331V2.66693ZM13.9998 1.91361L17.6664 0.783625V5.21689L13.9998 4.08691V1.91361ZM11.6665 2.00027H13.3331V4.00024H11.6665V2.00027ZM12.6165 4.6669L12.3765 6.33354H11.9998V4.6669H12.6165ZM10.6665 3.33359V2.66693H10.9998V3.33359H10.6665ZM2.3333 1.66695H8.33321V6.33354H2.3333V1.66695ZM12.9998 18.6667V19.3333H6.9999V18.6667H12.9998ZM9.33319 18V17H10.6665V18H9.33319ZM19.333 16.0001C19.333 16.0885 19.2979 16.1732 19.2354 16.2358C19.1729 16.2983 19.0881 16.3334 18.9997 16.3334H0.999985C0.911581 16.3334 0.826798 16.2983 0.764286 16.2358C0.701775 16.1732 0.666657 16.0885 0.666657 16.0001V15.6667H19.333V16.0001ZM19.333 15.0001H0.666657V5.33356C0.666657 5.24515 0.701775 5.16037 0.764286 5.09786C0.826798 5.03535 0.911581 5.00023 0.999985 5.00023H1.66664V6.66687C1.66664 6.75527 1.70176 6.84006 1.76427 6.90257C1.82678 6.96508 1.91157 7.0002 1.99997 7.0002H8.66654C8.75494 7.0002 8.83972 6.96508 8.90224 6.90257C8.96475 6.84006 8.99987 6.75527 8.99987 6.66687V5.00023H11.3332V6.66687C11.3332 6.75527 11.3683 6.84006 11.4308 6.90257C11.4933 6.96508 11.5781 7.0002 11.6665 7.0002H12.6665C12.7468 7.00019 12.8244 6.97118 12.885 6.91851C12.9457 6.86584 12.9852 6.79306 12.9965 6.71354L13.2898 4.6669H13.6165L17.9031 5.98688C17.9344 5.99643 17.967 6.00093 17.9997 6.00021C18.0877 5.99892 18.1718 5.96339 18.234 5.90115C18.2962 5.83892 18.3318 5.75489 18.3331 5.66688V5.00023H18.9997C19.0881 5.00023 19.1729 5.03535 19.2354 5.09786C19.2979 5.16037 19.333 5.24515 19.333 5.33356V15.0001Z" fill="#9E9E9E"/>
<path d="M1.66536 14.3332H10.3319C10.4203 14.3332 10.5051 14.298 10.5676 14.2355C10.6301 14.173 10.6652 14.0882 10.6652 13.9998V8.66658C10.6652 8.57818 10.6301 8.49339 10.5676 8.43088C10.5051 8.36837 10.4203 8.33325 10.3319 8.33325H1.66536C1.57696 8.33325 1.49217 8.36837 1.42966 8.43088C1.36715 8.49339 1.33203 8.57818 1.33203 8.66658V13.9998C1.33203 14.0882 1.36715 14.173 1.42966 14.2355C1.49217 14.298 1.57696 14.3332 1.66536 14.3332ZM1.99869 13.6665V9.2629L5.82396 11.6172C5.87649 11.6495 5.93695 11.6666 5.99863 11.6666C6.0603 11.6666 6.12076 11.6495 6.17329 11.6172L9.99856 9.2629V13.6665H1.99869ZM2.84301 8.99991H9.15424L5.99863 10.9419L2.84301 8.99991Z" fill="#9E9E9E"/>
<path d="M11.6654 12.3331H12.332V13.3331C12.332 13.4215 12.3671 13.5063 12.4296 13.5688C12.4922 13.6313 12.5769 13.6664 12.6653 13.6664H18.3319C18.4203 13.6664 18.5051 13.6313 18.5676 13.5688C18.6301 13.5063 18.6652 13.4215 18.6652 13.3331V9.33315C18.6652 9.24474 18.6301 9.15996 18.5676 9.09745C18.5051 9.03493 18.4203 8.99982 18.3319 8.99982H17.9986V7.99983C17.9986 7.91143 17.9635 7.82664 17.901 7.76413C17.8384 7.70162 17.7537 7.6665 17.6653 7.6665H11.6654C11.577 7.6665 11.4922 7.70162 11.4297 7.76413C11.3671 7.82664 11.332 7.91143 11.332 7.99983V11.9998C11.332 12.0882 11.3671 12.173 11.4297 12.2355C11.4922 12.298 11.577 12.3331 11.6654 12.3331ZM17.9986 12.9998H12.9987V9.66647H17.9986V12.9998ZM11.9987 8.33316H17.3319V8.99982H12.6653C12.5769 8.99982 12.4922 9.03493 12.4296 9.09745C12.3671 9.15996 12.332 9.24474 12.332 9.33315V11.6664H11.9987V8.33316Z" fill="#9E9E9E"/>
<path d="M13.668 10.3337H14.3346V11.0004H13.668V10.3337Z" fill="#9E9E9E"/>
<path d="M15 10.3337H17.3333V11.0004H15V10.3337Z" fill="#9E9E9E"/>
<path d="M13.668 11.6672H15.0013V12.3339H13.668V11.6672Z" fill="#9E9E9E"/>
<path d="M15.6641 11.6672H17.3307V12.3339H15.6641V11.6672Z" fill="#9E9E9E"/>
<path d="M4.49003 5.28362C4.53836 5.3135 4.59352 5.33054 4.65029 5.33311C4.70705 5.33567 4.76353 5.32369 4.81436 5.29828L6.81433 4.2983C6.86979 4.27065 6.91646 4.22809 6.94907 4.17539C6.98169 4.12269 6.99897 4.06195 6.99897 3.99997C6.99897 3.938 6.98169 3.87725 6.94907 3.82455C6.91646 3.77185 6.86979 3.72929 6.81433 3.70164L4.81436 2.70166C4.76353 2.67626 4.70704 2.66427 4.65028 2.66685C4.59351 2.66942 4.53835 2.68646 4.49002 2.71635C4.44169 2.74624 4.40181 2.78799 4.37416 2.83763C4.34651 2.88728 4.332 2.94316 4.33203 2.99999V4.99995C4.332 5.05678 4.3465 5.11268 4.37416 5.16232C4.40181 5.21197 4.4417 5.25372 4.49003 5.28362ZM4.99869 3.53931L5.92001 3.99997L4.99869 4.46063V3.53931Z" fill="#9E9E9E"/>
<defs>
<clipPath id="clip0">
<rect width="20" height="20" fill="white" transform="translate(66 68)"/>
</clipPath>
</defs>
</svg>
