<svg width="36" height="36" viewBox="0 0 36 36" fill="none" xmlns="http://www.w3.org/2000/svg">
<path d="M9.5625 6.1875C9.5625 4.32619 8.04881 2.8125 6.1875 2.8125C4.32619 2.8125 2.8125 4.32619 2.8125 6.1875C2.8125 8.04881 4.32619 9.5625 6.1875 9.5625C8.04881 9.5625 9.5625 8.04881 9.5625 6.1875ZM3.9375 6.1875C3.9375 4.94662 4.94662 3.9375 6.1875 3.9375C7.42838 3.9375 8.4375 4.94662 8.4375 6.1875C8.4375 7.42838 7.42838 8.4375 6.1875 8.4375C4.94662 8.4375 3.9375 7.42838 3.9375 6.1875Z" fill="#9E9E9E"/>
<path d="M30.8652 4.33838L31.6607 3.54288L32.4562 4.33838L31.6607 5.13387L30.8652 4.33838Z" fill="#9E9E9E"/>
<path d="M29.2744 5.92883L30.0699 5.13334L30.8654 5.92883L30.0699 6.72433L29.2744 5.92883Z" fill="#9E9E9E"/>
<path d="M27.7241 7.47961L28.4794 6.72429L29.2749 7.51979L28.5196 8.27511L27.7241 7.47961Z" fill="#9E9E9E"/>
<path d="M33.75 24.1874H30.6298C31.5686 22.271 32.0625 20.1515 32.0625 17.9999C32.0625 15.1424 31.2097 12.4205 29.6094 10.0822C30.0341 9.78576 30.4487 9.4747 30.852 9.14788L34.3125 12.6078L35.5185 11.4018L33.831 6.33876L34.011 6.15876C34.5684 5.60245 34.875 4.8622 34.875 4.07357C34.875 2.44795 33.552 1.12495 31.9258 1.12495C31.1389 1.12495 30.3981 1.43151 29.8406 1.98782L29.6595 2.16895L24.5976 0.481445L23.3921 1.68745L26.8526 5.14795C26.5252 5.5507 26.2147 5.96582 25.9183 6.38995C23.5794 4.79019 20.8575 3.93745 18 3.93745C15.8259 3.93745 13.6834 4.44201 11.7512 5.40051C11.3664 2.67126 9.02137 0.562445 6.1875 0.562445C3.08587 0.562445 0.5625 3.08582 0.5625 6.18745V6.34213C0.5625 7.45588 0.889313 8.53476 1.5075 9.46232L4.52644 13.9904C4.14056 15.287 3.9375 16.6336 3.9375 17.9999C3.9375 19.7527 4.25531 21.4514 4.87856 23.0624H4.5C3.56962 23.0624 2.8125 23.8196 2.8125 24.7499C2.8125 25.4823 3.28444 26.1011 3.9375 26.3339V27.5624H0.5625V29.4463C0.5625 32.7498 3.25012 35.4374 6.55369 35.4374H12.78C15.0913 35.4374 17.1804 34.0886 18.1693 32.0579C19.8619 32.0383 21.5038 31.7244 23.0631 31.1214V33.7499C23.0631 34.6803 23.8202 35.4374 24.7506 35.4374H33.7506C34.6809 35.4374 35.4381 34.6803 35.4381 33.7499V25.8749C35.4375 24.9446 34.6804 24.1874 33.75 24.1874ZM27.5625 25.3124H30.9375V26.4374H27.5625V25.3124ZM24.75 24.1874H23.0704C23.3961 22.4864 23.589 20.5852 23.6194 18.5624H30.9189C30.8334 20.5351 30.2985 22.4617 29.3569 24.1874H24.75ZM18.5451 30.8238L18.5625 29.8124H16.0976L14.3038 26.2243C14.6649 26.0268 14.9439 25.7045 15.084 25.3124H21.6714C20.9109 28.3421 19.7269 30.3446 18.5451 30.8238ZM15.084 24.1874C14.8939 23.6542 14.4467 23.2447 13.8887 23.1119C13.6614 21.6658 13.5354 20.1403 13.5112 18.5624H22.4944C22.4623 20.642 22.2536 22.5376 21.924 24.1874H15.084ZM5.08387 17.4374C5.11931 16.6094 5.22506 15.7899 5.41575 14.9894C5.64919 15.1171 5.913 15.1874 6.1875 15.1874C6.72806 15.1874 7.22981 14.9186 7.53019 14.4691L9.30094 11.8124H12.9296C12.6039 13.5134 12.411 15.4147 12.3806 17.4374H5.08387ZM14.0794 11.8124H21.9279C22.2688 13.5326 22.4589 15.4473 22.4899 17.4374H13.5107C13.5433 15.3584 13.7492 13.4611 14.0794 11.8124ZM18 5.06245C18.9996 5.06245 20.0278 6.19419 20.853 8.16407L20.4255 8.59157L21.159 8.95832C21.3502 9.50113 21.5241 10.0766 21.6765 10.6874H14.3319C15.2111 7.19376 16.6534 5.06245 18 5.06245ZM24.2325 9.23732L22.3245 8.28332L22.6727 7.9357L24.6493 8.42957C24.5042 8.69507 24.3669 8.96507 24.2325 9.23732ZM23.76 10.2588C23.7555 10.2689 23.7504 10.2791 23.7459 10.2892C23.6908 10.4169 23.6616 10.5513 23.6441 10.6874H22.8307C22.7475 10.3348 22.6569 9.99332 22.5613 9.65976L23.76 10.2588ZM30.9156 17.4374H23.6149C23.5851 15.4586 23.4 13.5489 23.0704 11.8124H23.9614C24.2359 12.1528 24.6504 12.3749 25.1207 12.3749C25.3232 12.3749 25.5212 12.3344 25.7102 12.254C25.7209 12.2495 25.7304 12.2444 25.7411 12.2399L27.4084 15.5744L29.3102 13.6721L28.5823 10.76C28.6127 10.7414 28.6419 10.7212 28.6723 10.7021C30.0442 12.7029 30.8121 15.0091 30.9156 17.4374ZM27.5704 11.3506L28.0642 13.3273L27.7161 13.6749L26.7621 11.7669C27.0349 11.633 27.3049 11.4958 27.5704 11.3506ZM34.1505 10.8551L31.7104 8.41495C31.9933 8.16013 32.2712 7.89913 32.5412 7.62857L32.9411 7.22863L34.1505 10.8551ZM31.9258 2.24995C32.9316 2.24995 33.75 3.06782 33.75 4.07357C33.75 4.56126 33.5604 5.01913 33.2156 5.36338L31.7458 6.8332C29.8766 8.70238 27.6964 10.1784 25.2681 11.2196C25.0301 11.3197 24.75 11.1341 24.75 10.8793C24.75 10.8286 24.7601 10.7791 24.7798 10.7324C25.8216 8.30301 27.297 6.12332 29.1662 4.25357L30.6354 2.78376C30.9808 2.43895 31.4392 2.24995 31.9258 2.24995ZM25.1454 1.84945L28.7713 3.05826L28.3714 3.45876C28.1008 3.72932 27.8398 4.0072 27.585 4.28957L25.1454 1.84945ZM25.2394 7.41763L22.3279 6.6892L21.7102 7.30682C21.3407 6.50413 20.9317 5.83363 20.4913 5.30995C22.2103 5.64351 23.8354 6.32413 25.2979 7.32707C25.2782 7.35801 25.2579 7.38726 25.2394 7.41763ZM11.7894 6.65488C12.9645 6.01082 14.2312 5.55238 15.5447 5.29926C14.5524 6.47488 13.7295 8.35082 13.1709 10.6874H10.0507L10.8675 9.46232C11.4272 8.62251 11.7337 7.6567 11.7894 6.65488ZM1.6875 6.34213V6.18745C1.6875 3.70626 3.70631 1.68745 6.1875 1.68745C8.66869 1.68745 10.6875 3.70626 10.6875 6.18745V6.34213C10.6875 7.2337 10.4259 8.09657 9.9315 8.83851L6.59362 13.8448C6.41194 14.117 5.9625 14.117 5.78081 13.8448L2.44294 8.83851C1.94906 8.09713 1.6875 7.2337 1.6875 6.34213ZM5.07712 18.5624H12.3862C12.4099 20.1183 12.5297 21.6258 12.7446 23.0624H6.09525C5.48606 21.6326 5.1435 20.1234 5.07712 18.5624ZM4.5 24.1874H13.5C13.8099 24.1874 14.0625 24.4394 14.0625 24.7499C14.0625 25.0604 13.8099 25.3124 13.5 25.3124H4.5C4.19006 25.3124 3.9375 25.0604 3.9375 24.7499C3.9375 24.4394 4.19006 24.1874 4.5 24.1874ZM5.0625 26.4374H13.1524L14.8399 29.8124H7.09762L5.97262 27.5624H5.0625V26.4374ZM12.78 34.3124H6.55369C3.87056 34.3124 1.6875 32.1294 1.6875 29.4463V28.6874H5.27737L6.40237 30.9374H17.4122C16.7692 32.9326 14.8871 34.3124 12.78 34.3124ZM20.4547 30.7012C21.447 29.5256 22.2705 27.6491 22.8291 25.3124H23.166C23.103 25.4891 23.0625 25.6769 23.0625 25.8749V29.9041C22.2187 30.2641 21.348 30.5302 20.4547 30.7012ZM34.3125 33.7499C34.3125 34.0604 34.0599 34.3124 33.75 34.3124H24.75C24.4401 34.3124 24.1875 34.0604 24.1875 33.7499V25.8749C24.1875 25.5644 24.4401 25.3124 24.75 25.3124H26.4375V27.5624H32.0625V25.3124H33.75C34.0599 25.3124 34.3125 25.5644 34.3125 25.8749V33.7499Z" fill="#9E9E9E"/>
<path d="M32.0625 32.0625H33.1875V33.1875H32.0625V32.0625Z" fill="#9E9E9E"/>
<path d="M29.8125 32.0625H30.9375V33.1875H29.8125V32.0625Z" fill="#9E9E9E"/>
<path d="M9.5625 27.5625H10.6875V28.6875H9.5625V27.5625Z" fill="#9E9E9E"/>
<path d="M11.8125 27.5625H12.9375V28.6875H11.8125V27.5625Z" fill="#9E9E9E"/>
<path d="M7.3125 27.5625H8.4375V28.6875H7.3125V27.5625Z" fill="#9E9E9E"/>
<path d="M15.1875 19.6875H16.3125V20.8125H15.1875V19.6875Z" fill="#9E9E9E"/>
<path d="M19.6875 19.6875H20.8125V20.8125H19.6875V19.6875Z" fill="#9E9E9E"/>
<path d="M17.4375 19.6875H18.5625V20.8125H17.4375V19.6875Z" fill="#9E9E9E"/>
<path d="M19.6875 15.1875H20.8125V16.3125H19.6875V15.1875Z" fill="#9E9E9E"/>
<path d="M17.4375 15.1875H18.5625V16.3125H17.4375V15.1875Z" fill="#9E9E9E"/>
<path d="M15.1875 15.1875H16.3125V16.3125H15.1875V15.1875Z" fill="#9E9E9E"/>
</svg>
