<svg width="36" height="36" viewBox="0 0 36 36" fill="none" xmlns="http://www.w3.org/2000/svg">
<path d="M33.1875 8.43752H32.0625V7.87502H32.625C33.0726 7.87502 33.5018 7.69724 33.8182 7.38077C34.1347 7.0643 34.3125 6.63508 34.3125 6.18752C34.3125 5.73997 34.1347 5.31075 33.8182 4.99428C33.5018 4.67781 33.0726 4.50002 32.625 4.50002H32.0625V1.68752C32.0633 1.59946 32.0428 1.51251 32.0026 1.43413C31.9624 1.35575 31.9038 1.28829 31.8319 1.23752C31.7622 1.18477 31.6811 1.14914 31.5951 1.1335C31.5091 1.11787 31.4207 1.12267 31.3369 1.14752L24.1031 3.37502H20.25C20.1008 3.37502 19.9577 3.43429 19.8523 3.53978C19.7468 3.64527 19.6875 3.78834 19.6875 3.93752V4.50002H18.5625C18.4133 4.50002 18.2702 4.55929 18.1648 4.66478C18.0593 4.77027 18 4.91334 18 5.06252V7.31252C18 7.46171 18.0593 7.60478 18.1648 7.71027C18.2702 7.81576 18.4133 7.87502 18.5625 7.87502H19.6875V8.43752H16.3125V3.37502C16.3125 3.22584 16.2532 3.08277 16.1477 2.97728C16.0423 2.87179 15.8992 2.81252 15.75 2.81252H4.5C4.35082 2.81252 4.20774 2.87179 4.10225 2.97728C3.99676 3.08277 3.9375 3.22584 3.9375 3.37502V8.43752H2.8125C2.36536 8.43886 1.93691 8.61708 1.62073 8.93326C1.30455 9.24944 1.12634 9.67788 1.125 10.125V28.125C1.12634 28.5722 1.30455 29.0006 1.62073 29.3168C1.93691 29.633 2.36536 29.8112 2.8125 29.8125H15.75V31.5H12.375C12.2258 31.5 12.0827 31.5593 11.9773 31.6648C11.8718 31.7703 11.8125 31.9133 11.8125 32.0625V34.3125C11.8125 34.4617 11.8718 34.6048 11.9773 34.7103C12.0827 34.8158 12.2258 34.875 12.375 34.875H23.625C23.7742 34.875 23.9173 34.8158 24.0227 34.7103C24.1282 34.6048 24.1875 34.4617 24.1875 34.3125V32.0625C24.1875 31.9133 24.1282 31.7703 24.0227 31.6648C23.9173 31.5593 23.7742 31.5 23.625 31.5H20.25V29.8125H33.1875C33.6346 29.8112 34.0631 29.633 34.3793 29.3168C34.6954 29.0006 34.8737 28.5722 34.875 28.125V10.125C34.8737 9.67788 34.6954 9.24944 34.3793 8.93326C34.0631 8.61708 33.6346 8.43886 33.1875 8.43752ZM32.0625 5.62502H32.625C32.7742 5.62502 32.9173 5.68429 33.0227 5.78978C33.1282 5.89527 33.1875 6.03834 33.1875 6.18752C33.1875 6.33671 33.1282 6.47978 33.0227 6.58527C32.9173 6.69076 32.7742 6.75002 32.625 6.75002H32.0625V5.62502ZM24.75 4.35377L30.9375 2.4469V9.92815L24.75 8.02127V4.35377ZM20.8125 4.50002H23.625V7.87502H20.8125V4.50002ZM22.4156 9.00002L22.0106 11.8125H21.375V9.00002H22.4156ZM19.125 6.75002V5.62502H19.6875V6.75002H19.125ZM5.0625 3.93752H15.1875V11.8125H5.0625V3.93752ZM23.0625 32.625V33.75H12.9375V32.625H23.0625ZM16.875 31.5V29.8125H19.125V31.5H16.875ZM33.75 28.125C33.75 28.2742 33.6907 28.4173 33.5852 28.5228C33.4798 28.6283 33.3367 28.6875 33.1875 28.6875H2.8125C2.66332 28.6875 2.52024 28.6283 2.41475 28.5228C2.30926 28.4173 2.25 28.2742 2.25 28.125V27.5625H33.75V28.125ZM33.75 26.4375H2.25V10.125C2.25 9.97584 2.30926 9.83277 2.41475 9.72728C2.52024 9.62179 2.66332 9.56252 2.8125 9.56252H3.9375V12.375C3.9375 12.5242 3.99676 12.6673 4.10225 12.7728C4.20774 12.8783 4.35082 12.9375 4.5 12.9375H15.75C15.8992 12.9375 16.0423 12.8783 16.1477 12.7728C16.2532 12.6673 16.3125 12.5242 16.3125 12.375V9.56252H20.25V12.375C20.25 12.5242 20.3093 12.6673 20.4148 12.7728C20.5202 12.8783 20.6633 12.9375 20.8125 12.9375H22.5C22.6355 12.9375 22.7665 12.8886 22.8688 12.7997C22.9711 12.7108 23.0379 12.588 23.0569 12.4538L23.5519 9.00002H24.1031L31.3369 11.2275C31.3897 11.2436 31.4448 11.2512 31.5 11.25C31.6485 11.2478 31.7903 11.1879 31.8953 11.0829C32.0004 10.9778 32.0603 10.836 32.0625 10.6875V9.56252H33.1875C33.3367 9.56252 33.4798 9.62179 33.5852 9.72728C33.6907 9.83277 33.75 9.97584 33.75 10.125V26.4375Z" fill="#9E9E9E"/>
<path d="M3.9375 25.3125H18.5625C18.7117 25.3125 18.8548 25.2532 18.9602 25.1477C19.0657 25.0423 19.125 24.8992 19.125 24.75V15.75C19.125 15.6008 19.0657 15.4577 18.9602 15.3523C18.8548 15.2468 18.7117 15.1875 18.5625 15.1875H3.9375C3.78832 15.1875 3.64524 15.2468 3.53975 15.3523C3.43426 15.4577 3.375 15.6008 3.375 15.75V24.75C3.375 24.8992 3.43426 25.0423 3.53975 25.1477C3.64524 25.2532 3.78832 25.3125 3.9375 25.3125ZM4.5 24.1875V16.7563L10.9552 20.7293C11.0439 20.7838 11.1459 20.8127 11.25 20.8127C11.3541 20.8127 11.4561 20.7838 11.5448 20.7293L18 16.7563V24.1875H4.5ZM5.92481 16.3125H16.5752L11.25 19.5896L5.92481 16.3125Z" fill="#9E9E9E"/>
<path d="M20.8125 21.9375H21.9375V23.625C21.9375 23.7742 21.9968 23.9173 22.1023 24.0227C22.2077 24.1282 22.3508 24.1875 22.5 24.1875H32.0625C32.2117 24.1875 32.3548 24.1282 32.4602 24.0227C32.5657 23.9173 32.625 23.7742 32.625 23.625V16.875C32.625 16.7258 32.5657 16.5827 32.4602 16.4773C32.3548 16.3718 32.2117 16.3125 32.0625 16.3125H31.5V14.625C31.5 14.4758 31.4407 14.3327 31.3352 14.2273C31.2298 14.1218 31.0867 14.0625 30.9375 14.0625H20.8125C20.6633 14.0625 20.5202 14.1218 20.4148 14.2273C20.3093 14.3327 20.25 14.4758 20.25 14.625V21.375C20.25 21.5242 20.3093 21.6673 20.4148 21.7727C20.5202 21.8782 20.6633 21.9375 20.8125 21.9375ZM31.5 23.0625H23.0625V17.4375H31.5V23.0625ZM21.375 15.1875H30.375V16.3125H22.5C22.3508 16.3125 22.2077 16.3718 22.1023 16.4773C21.9968 16.5827 21.9375 16.7258 21.9375 16.875V20.8125H21.375V15.1875Z" fill="#9E9E9E"/>
<path d="M24.1875 18.5625H25.3125V19.6875H24.1875V18.5625Z" fill="#9E9E9E"/>
<path d="M26.4375 18.5625H30.375V19.6875H26.4375V18.5625Z" fill="#9E9E9E"/>
<path d="M24.1875 20.8125H26.4375V21.9375H24.1875V20.8125Z" fill="#9E9E9E"/>
<path d="M27.5625 20.8125H30.375V21.9375H27.5625V20.8125Z" fill="#9E9E9E"/>
<path d="M8.70413 10.0411C8.78568 10.0915 8.87877 10.1203 8.97456 10.1246C9.07036 10.1289 9.16566 10.1087 9.25144 10.0658L12.6264 8.37833C12.72 8.33168 12.7988 8.25985 12.8538 8.17092C12.9089 8.08199 12.938 7.97948 12.938 7.87489C12.938 7.77031 12.9089 7.66779 12.8538 7.57886C12.7988 7.48993 12.72 7.41811 12.6264 7.37146L9.25144 5.68396C9.16566 5.64109 9.07035 5.62087 8.97455 5.62521C8.87876 5.62955 8.78566 5.6583 8.70411 5.70875C8.62255 5.75919 8.55525 5.82964 8.50859 5.91342C8.46193 5.99719 8.43746 6.0915 8.4375 6.1874V9.56239C8.43745 9.65829 8.46192 9.75261 8.50859 9.83639C8.55525 9.92017 8.62256 9.99063 8.70413 10.0411ZM9.5625 7.09752L11.1172 7.87489L9.5625 8.65227V7.09752Z" fill="#9E9E9E"/>
</svg>
