<svg width="36" height="36" viewBox="0 0 36 36" fill="none" xmlns="http://www.w3.org/2000/svg">
<path fill-rule="evenodd" clip-rule="evenodd" d="M29.6074 8.57143H30.6168L36 4.45714L35.9999 4.4571L30.6168 0H29.6074V2.05714H23.0467V3.08571V5.48571V6.51429H24.056H29.6074V8.57143ZM24.056 5.48571H29.6074H30.6168V6.51429V7.46862L34.723 4.33846L30.6168 1.20831V2.05714V3.08571H29.6074H24.056V5.48571ZM0 18.1714H3.02803V11.6571C3.02803 11.2784 3.3293 10.9714 3.70093 10.9714H5.61098C5.7296 10.8647 5.88541 10.8 6.05607 10.8H8.57943C8.75008 10.8 8.9059 10.8647 9.02452 10.9714H10.5981C10.9697 10.9714 11.271 11.2784 11.271 11.6571V18.1714H13.6261V11.6571C13.6261 11.2784 13.9274 10.9714 14.299 10.9714H21.1962C21.5679 10.9714 21.8691 11.2784 21.8691 11.6571V18.1714H24.2243V11.6571C24.2243 11.2784 24.5255 10.9714 24.8972 10.9714H31.7943C32.166 10.9714 32.4672 11.2784 32.4672 11.6571V18.1714H35.3271V19.2H31.7943H24.8972H21.1962H14.299H10.5981H3.70093H0V18.1714ZM31.4579 18.1714V12H30.4486V14.9143C30.4486 15.293 30.1473 15.6 29.7757 15.6H27.2523C26.8807 15.6 26.5794 15.293 26.5794 14.9143V12H25.2336V18.1714H31.4579ZM20.8598 18.1714H14.6355V12H15.9813V14.9143C15.9813 15.293 16.2826 15.6 16.6542 15.6H19.1775C19.5492 15.6 19.8504 15.293 19.8504 14.9143V12H20.8598V18.1714ZM6.39251 12H8.24298V14.2286H6.39251V12ZM5.38317 12V14.5714C5.38317 14.9501 5.68444 15.2571 6.05607 15.2571H8.57943C8.95106 15.2571 9.25232 14.9501 9.25232 14.5714V12H10.2617V18.1714H4.03738V12H5.38317ZM0.168224 34.9714H35.4953V36H0.168224V34.9714ZM6.35161 21.7241H7.00126V22.3861H6.35161V21.7241ZM13.4347 21.2571H12.785V21.9192H13.4347V21.2571ZM12.785 32.0571H13.4347V32.7192H12.785V32.0571ZM15.7898 21.2571H15.1402V21.9192H15.7898V21.2571ZM15.1402 32.0571H15.7898V32.7192H15.1402V32.0571ZM18.145 21.2571H17.4953V21.9192H18.145V21.2571ZM17.4953 32.0571H18.145V32.7192H17.4953V32.0571ZM20.5001 21.2571H19.8504V21.9192H20.5001V21.2571ZM19.8504 32.0571H20.5001V32.7192H19.8504V32.0571ZM22.8552 21.2571H22.2056V21.9192H22.8552V21.2571ZM22.2056 32.0571H22.8552V32.7192H22.2056V32.0571ZM3.45979 22.9451L3.00041 23.4132L3.45979 23.8813L3.91916 23.4132L3.45979 22.9451ZM12.5233 25.0342H10.9248C10.8956 24.9564 10.8641 24.8783 10.8293 24.7992L11.9604 23.6463C12.0213 23.5842 12.0555 23.5 12.0555 23.4122C12.0555 23.3245 12.0213 23.2403 11.9604 23.1782L10.1218 21.3047C10.0609 21.2426 9.97832 21.2077 9.89218 21.2077C9.80605 21.2077 9.72344 21.2426 9.66253 21.3047L8.53148 22.4573C8.46335 22.4262 8.39572 22.3987 8.32859 22.3714L8.32857 22.3714L8.32855 22.3713L8.32853 22.3713L8.32851 22.3713L8.32849 22.3713L8.32847 22.3713L8.32845 22.3713L8.32843 22.3713L8.32841 22.3713L8.32839 22.3713L8.32838 22.3713L8.32836 22.3713L8.32834 22.3713L8.32832 22.3713L8.3283 22.3712L8.32828 22.3712L8.32826 22.3712L8.32824 22.3712L8.32822 22.3712L8.3282 22.3712L8.32818 22.3712L8.32816 22.3712L8.32796 22.3711L8.30053 22.3599V20.731C8.30053 20.6432 8.26631 20.559 8.20539 20.497C8.14447 20.4349 8.06185 20.4 7.9757 20.4H5.37708C5.29093 20.4 5.20831 20.4349 5.1474 20.497C5.08648 20.559 5.05226 20.6432 5.05226 20.731V22.3599C4.97592 22.3897 4.89894 22.4218 4.8213 22.4573L3.69025 21.3047C3.62934 21.2426 3.54673 21.2077 3.4606 21.2077C3.37447 21.2077 3.29186 21.2426 3.23095 21.3047L1.39243 23.1782C1.33153 23.2403 1.29732 23.3245 1.29732 23.4122C1.29732 23.5 1.33153 23.5842 1.39243 23.6463L2.52347 24.7989C2.49288 24.8685 2.46582 24.9376 2.43895 25.0062L2.42797 25.0342H0.8295C0.74335 25.0342 0.660729 25.0691 0.599812 25.1312C0.538895 25.1932 0.504672 25.2774 0.504672 25.3652V28.0133C0.504672 28.1011 0.538895 28.1853 0.599812 28.2474C0.660729 28.3095 0.74335 28.3444 0.8295 28.3444H2.42797C2.45721 28.4221 2.48872 28.5006 2.52347 28.5797L1.39243 29.7323C1.33153 29.7944 1.29732 29.8786 1.29732 29.9663C1.29732 30.0541 1.33153 30.1383 1.39243 30.2004L3.23095 32.0739C3.29186 32.136 3.37447 32.1708 3.4606 32.1708C3.54673 32.1708 3.62934 32.136 3.69025 32.0739L4.8213 30.9213C4.88965 30.9525 4.95749 30.9801 5.02483 31.0075L5.05226 31.0186V32.6476C5.05226 32.7353 5.08648 32.8195 5.1474 32.8816C5.20831 32.9437 5.29093 32.9786 5.37708 32.9786H7.9757C8.06185 32.9786 8.14447 32.9437 8.20539 32.8816C8.26631 32.8195 8.30053 32.7353 8.30053 32.6476V31.0186C8.37686 30.9888 8.45385 30.9567 8.53148 30.9213L9.66253 32.0739C9.72459 32.1337 9.80677 32.167 9.89218 32.167C9.9776 32.167 10.0598 32.1337 10.1218 32.0739L11.9604 30.2004C12.0213 30.1383 12.0555 30.0541 12.0555 29.9663C12.0555 29.8786 12.0213 29.7944 11.9604 29.7323L10.8293 28.5794C10.8606 28.5081 10.8883 28.4376 10.9158 28.3674L10.9248 28.3444H12.5233C12.6094 28.3444 12.6921 28.3095 12.753 28.2474C12.8139 28.1853 12.8481 28.1011 12.8481 28.0133V25.3652C12.8481 25.2774 12.8139 25.1932 12.753 25.1312C12.6921 25.0691 12.6094 25.0342 12.5233 25.0342ZM12.1985 27.6823H10.6945C10.6254 27.6824 10.5582 27.7049 10.5025 27.7466C10.4469 27.7882 10.4057 27.8469 10.3849 27.914C10.3209 28.116 10.2415 28.3126 10.1475 28.5019C10.117 28.564 10.1065 28.6344 10.1174 28.7029C10.1283 28.7715 10.1601 28.8348 10.2082 28.8839L11.2714 29.9663L9.89218 31.3718L8.82902 30.2884C8.78081 30.2393 8.71867 30.2069 8.6514 30.1958C8.58413 30.1847 8.51513 30.1955 8.45417 30.2265C8.26834 30.3223 8.07546 30.4032 7.87728 30.4685C7.81139 30.4896 7.75382 30.5316 7.71293 30.5883C7.67205 30.645 7.64997 30.7136 7.6499 30.7839V32.3165H5.70191V30.7839C5.70185 30.7136 5.67977 30.645 5.63888 30.5883C5.59799 30.5316 5.54042 30.4896 5.47453 30.4685C5.27635 30.4032 5.08347 30.3223 4.89764 30.2265C4.83668 30.1955 4.76768 30.1847 4.70041 30.1958C4.63314 30.2069 4.571 30.2393 4.52279 30.2884L3.4606 31.3718L2.08138 29.9663L3.14454 28.8829C3.19271 28.8338 3.2245 28.7705 3.2354 28.7019C3.2463 28.6334 3.23576 28.563 3.20529 28.5009C3.11125 28.3116 3.03186 28.115 2.96784 27.913C2.94712 27.8459 2.90593 27.7872 2.85027 27.7456C2.7946 27.7039 2.72735 27.6814 2.65828 27.6813H1.15433V25.6962H2.65828C2.72735 25.6962 2.7946 25.6737 2.85027 25.632C2.90593 25.5903 2.94712 25.5317 2.96784 25.4645C3.03186 25.2626 3.11125 25.066 3.20529 24.8766C3.23576 24.8145 3.2463 24.7442 3.2354 24.6757C3.2245 24.6071 3.19271 24.5438 3.14454 24.4947L2.08138 23.4122L3.4606 22.0067L4.52376 23.0902C4.57197 23.1392 4.63411 23.1716 4.70139 23.1827C4.76866 23.1939 4.83766 23.1831 4.89861 23.1521C5.08413 23.0563 5.27668 22.9754 5.47453 22.9101C5.54042 22.889 5.59799 22.847 5.63888 22.7903C5.67977 22.7335 5.70185 22.665 5.70191 22.5946V21.062H7.65087V22.5946C7.65094 22.665 7.67302 22.7335 7.71391 22.7903C7.7548 22.847 7.81237 22.889 7.87825 22.9101C8.07644 22.9753 8.26932 23.0562 8.45515 23.1521C8.5161 23.1831 8.5851 23.1939 8.65237 23.1827C8.71965 23.1716 8.78179 23.1392 8.83 23.0902L9.89218 22.0067L11.2714 23.4122L10.2082 24.4956C10.1601 24.5448 10.1283 24.6081 10.1174 24.6767C10.1065 24.7452 10.117 24.8155 10.1475 24.8776C10.2415 25.067 10.3209 25.2636 10.3849 25.4655C10.4057 25.5327 10.4469 25.5913 10.5025 25.633C10.5582 25.6747 10.6254 25.6972 10.6945 25.6972H12.1985V27.6823ZM5.23267 24.4875C5.66002 24.1965 6.16243 24.0412 6.67639 24.0412C7.36535 24.042 8.02587 24.3212 8.51304 24.8176C9.0002 25.3141 9.27423 25.9872 9.27501 26.6893C9.27501 27.213 9.1226 27.725 8.83706 28.1605C8.55152 28.596 8.14567 28.9354 7.67084 29.1358C7.196 29.3363 6.67351 29.3887 6.16942 29.2865C5.66534 29.1843 5.20231 28.9321 4.83889 28.5618C4.47547 28.1914 4.22797 27.7196 4.1277 27.2059C4.02743 26.6922 4.07889 26.1598 4.27558 25.6759C4.47226 25.192 4.80533 24.7784 5.23267 24.4875ZM5.5936 28.3407C5.91411 28.5589 6.29092 28.6754 6.67639 28.6754C7.19313 28.6748 7.68856 28.4654 8.05395 28.0931C8.41934 27.7207 8.62484 27.2159 8.62535 26.6893C8.62535 26.2965 8.51105 25.9125 8.29689 25.5859C8.08274 25.2593 7.77835 25.0047 7.42223 24.8544C7.0661 24.7041 6.67423 24.6647 6.29616 24.7414C5.9181 24.818 5.57083 25.0071 5.29826 25.2849C5.0257 25.5627 4.84007 25.9165 4.76487 26.3018C4.68967 26.6871 4.72827 27.0864 4.87578 27.4493C5.02329 27.8122 5.2731 28.1224 5.5936 28.3407ZM1.80394 26.3583H2.45359V27.0203H1.80394V26.3583ZM3.45886 29.4981L2.99949 29.9663L3.45886 30.4344L3.91824 29.9663L3.45886 29.4981ZM6.3516 30.9925H7.00125V31.6545H6.3516V30.9925ZM9.88946 29.4988L9.43008 29.967L9.88946 30.4351L10.3488 29.967L9.88946 29.4988ZM10.8992 26.3583H11.5488V27.0203H10.8992V26.3583ZM9.89029 22.9458L9.43091 23.4139L9.89029 23.882L10.3497 23.4139L9.89029 22.9458ZM28.7254 21.7241H29.3751V22.3861H28.7254V21.7241ZM25.8336 22.9451L25.3742 23.4132L25.8336 23.8813L26.293 23.4132L25.8336 22.9451ZM34.8971 25.0342H33.2986C33.2694 24.9564 33.2379 24.8783 33.2031 24.7992L34.3342 23.6463C34.3951 23.5842 34.4293 23.5 34.4293 23.4122C34.4293 23.3245 34.3951 23.2403 34.3342 23.1782L32.4956 21.3047C32.4347 21.2426 32.3521 21.2077 32.266 21.2077C32.1799 21.2077 32.0972 21.2426 32.0363 21.3047L30.9053 22.4573C30.8369 22.4261 30.7691 22.3985 30.7018 22.3711L30.6743 22.3599V20.731C30.6743 20.6432 30.6401 20.559 30.5792 20.497C30.5183 20.4349 30.4357 20.4 30.3495 20.4H27.7509C27.6647 20.4 27.5821 20.4349 27.5212 20.497C27.4603 20.559 27.4261 20.6432 27.4261 20.731V22.3599C27.3497 22.3897 27.2727 22.4218 27.1951 22.4573L26.0641 21.3047C26.0031 21.2426 25.9205 21.2077 25.8344 21.2077C25.7483 21.2077 25.6657 21.2426 25.6047 21.3047L23.7662 23.1782C23.7053 23.2403 23.6711 23.3245 23.6711 23.4122C23.6711 23.5 23.7053 23.5842 23.7662 23.6463L24.8973 24.7989C24.8667 24.8685 24.8396 24.9376 24.8127 25.0063L24.8018 25.0342H23.2033C23.1172 25.0342 23.0345 25.0691 22.9736 25.1312C22.9127 25.1932 22.8785 25.2774 22.8785 25.3652V28.0133C22.8785 28.1011 22.9127 28.1853 22.9736 28.2474C23.0345 28.3095 23.1172 28.3444 23.2033 28.3444H24.8018C24.831 28.4221 24.8625 28.5006 24.8973 28.5797L23.7662 29.7323C23.7053 29.7944 23.6711 29.8786 23.6711 29.9663C23.6711 30.0541 23.7053 30.1383 23.7662 30.2004L25.6047 32.0739C25.6657 32.136 25.7483 32.1708 25.8344 32.1708C25.9205 32.1708 26.0031 32.136 26.0641 32.0739L27.1951 30.9213C27.2634 30.9525 27.3313 30.9801 27.3986 31.0075L27.4261 31.0186V32.6476C27.4261 32.7353 27.4603 32.8195 27.5212 32.8816C27.5821 32.9437 27.6647 32.9786 27.7509 32.9786H30.3495C30.4357 32.9786 30.5183 32.9437 30.5792 32.8816C30.6401 32.8195 30.6743 32.7353 30.6743 32.6476V31.0186C30.7507 30.9888 30.8276 30.9567 30.9053 30.9213L32.0363 32.0739C32.0984 32.1337 32.1806 32.167 32.266 32.167C32.3514 32.167 32.4336 32.1337 32.4956 32.0739L34.3342 30.2004C34.3951 30.1383 34.4293 30.0541 34.4293 29.9663C34.4293 29.8786 34.3951 29.7944 34.3342 29.7323L33.2031 28.5794C33.2344 28.5081 33.262 28.4377 33.2895 28.3676L33.2895 28.3676L33.2895 28.3675L33.2895 28.3675L33.2896 28.3675L33.2896 28.3675L33.2896 28.3674L33.2896 28.3674L33.2896 28.3674L33.2896 28.3674L33.2896 28.3674L33.2896 28.3673L33.2986 28.3444H34.8971C34.9832 28.3444 35.0659 28.3095 35.1268 28.2474C35.1877 28.1853 35.2219 28.1011 35.2219 28.0133V25.3652C35.2219 25.2774 35.1877 25.1932 35.1268 25.1312C35.0659 25.0691 34.9832 25.0342 34.8971 25.0342ZM34.5723 27.6823H33.0683C32.9992 27.6824 32.932 27.7049 32.8763 27.7466C32.8207 27.7882 32.7795 27.8469 32.7587 27.914C32.6947 28.116 32.6153 28.3126 32.5213 28.5019C32.4908 28.564 32.4803 28.6344 32.4912 28.7029C32.5021 28.7715 32.5339 28.8348 32.582 28.8839L33.6452 29.9663L32.266 31.3718L31.2028 30.2884C31.1546 30.2393 31.0925 30.2069 31.0252 30.1958C30.9579 30.1847 30.8889 30.1955 30.828 30.2265C30.6421 30.3223 30.4493 30.4032 30.2511 30.4685C30.1852 30.4896 30.1276 30.5316 30.0867 30.5883C30.0458 30.645 30.0238 30.7136 30.0237 30.7839V32.3165H28.0757V30.7839C28.0756 30.7136 28.0536 30.645 28.0127 30.5883C27.9718 30.5316 27.9142 30.4896 27.8483 30.4685C27.6502 30.4032 27.4573 30.3223 27.2714 30.2265C27.2105 30.1955 27.1415 30.1847 27.0742 30.1958C27.0069 30.2069 26.9448 30.2393 26.8966 30.2884L25.8344 31.3718L24.4552 29.9663L25.5183 28.8829C25.5665 28.8338 25.5983 28.7705 25.6092 28.7019C25.6201 28.6334 25.6096 28.563 25.5791 28.5009C25.4851 28.3116 25.4057 28.115 25.3416 27.913C25.3209 27.8459 25.2797 27.7872 25.2241 27.7456C25.1684 27.7039 25.1011 27.6814 25.0321 27.6813H23.5281V25.6962H25.0321C25.1011 25.6962 25.1684 25.6737 25.2241 25.632C25.2797 25.5903 25.3209 25.5317 25.3416 25.4645C25.4057 25.2626 25.4851 25.066 25.5791 24.8766C25.6096 24.8145 25.6201 24.7442 25.6092 24.6757C25.5983 24.6071 25.5665 24.5438 25.5183 24.4947L24.4552 23.4122L25.8344 22.0067L26.8976 23.0902C26.9458 23.1392 27.0079 23.1716 27.0752 23.1827C27.1425 23.1939 27.2115 23.1831 27.2724 23.1521C27.4579 23.0563 27.6505 22.9754 27.8483 22.9101C27.9142 22.889 27.9718 22.847 28.0127 22.7903C28.0536 22.7335 28.0756 22.665 28.0757 22.5946V21.062H30.0247V22.5946C30.0247 22.665 30.0468 22.7335 30.0877 22.7903C30.1286 22.847 30.1862 22.889 30.2521 22.9101C30.4502 22.9753 30.6431 23.0562 30.8289 23.1521C30.8899 23.1831 30.9589 23.1939 31.0262 23.1827C31.0934 23.1716 31.1556 23.1392 31.2038 23.0902L32.266 22.0067L33.6452 23.4122L32.582 24.4956C32.5339 24.5448 32.5021 24.6081 32.4912 24.6767C32.4803 24.7452 32.4908 24.8155 32.5213 24.8776C32.6153 25.067 32.6947 25.2636 32.7587 25.4655C32.7795 25.5327 32.8207 25.5913 32.8763 25.633C32.932 25.6747 32.9992 25.6972 33.0683 25.6972H34.5723V27.6823ZM27.6065 24.4875C28.0338 24.1965 28.5362 24.0412 29.0502 24.0412C29.7391 24.042 30.3997 24.3212 30.8868 24.8176C31.374 25.3141 31.648 25.9872 31.6488 26.6893C31.6488 27.213 31.4964 27.725 31.2109 28.1605C30.9253 28.596 30.5195 28.9354 30.0446 29.1358C29.5698 29.3363 29.0473 29.3887 28.5432 29.2865C28.0391 29.1843 27.5761 28.9321 27.2127 28.5618C26.8493 28.1914 26.6018 27.7196 26.5015 27.2059C26.4012 26.6922 26.4527 26.1598 26.6494 25.6759C26.8461 25.192 27.1791 24.7784 27.6065 24.4875ZM27.9674 28.3407C28.2879 28.5589 28.6647 28.6754 29.0502 28.6754C29.5669 28.6748 30.0624 28.4654 30.4277 28.0931C30.7931 27.7207 30.9986 27.2159 30.9992 26.6893C30.9992 26.2965 30.8849 25.9125 30.6707 25.5859C30.4565 25.2593 30.1522 25.0047 29.796 24.8544C29.4399 24.7041 29.048 24.6647 28.67 24.7414C28.2919 24.818 27.9446 25.0071 27.6721 25.2849C27.3995 25.5627 27.2139 25.9165 27.1387 26.3018C27.0635 26.6871 27.1021 27.0864 27.2496 27.4493C27.3971 27.8122 27.6469 28.1224 27.9674 28.3407ZM24.1777 26.3583H24.8274V27.0203H24.1777V26.3583ZM25.8327 29.4981L25.3733 29.9663L25.8327 30.4344L26.292 29.9663L25.8327 29.4981ZM28.7254 30.9925H29.3751V31.6545H28.7254V30.9925ZM32.2633 29.4988L31.8039 29.967L32.2633 30.4351L32.7226 29.967L32.2633 29.4988ZM33.273 26.3583H33.9226V27.0203H33.273V26.3583ZM32.2641 22.9458L31.8047 23.4139L32.2641 23.882L32.7235 23.4139L32.2641 22.9458ZM16.9906 12.1714V14.5714H18.8411V12.1714H16.9906ZM27.5887 14.5714V12.1714H29.4392V14.5714H27.5887Z" fill="#9E9E9E"/>
</svg>
