<svg width="36" height="36" viewBox="0 0 36 36" fill="none" xmlns="http://www.w3.org/2000/svg">
<g clip-path="url(#clip0)">
<path d="M21.8975 11.0111C22.1883 11.0111 22.4241 10.7753 22.4241 10.4845C22.4241 10.1937 22.1883 9.95795 21.8975 9.95795H11.905C11.6142 9.95795 11.3784 10.1937 11.3784 10.4845C11.3784 10.7753 11.6142 11.0111 11.905 11.0111H21.8975Z" fill="#9E9E9E"/>
<path d="M6.07275 13.5417C6.07275 13.8325 6.30853 14.0683 6.59934 14.0683H18.8794C19.1702 14.0683 19.406 13.8325 19.406 13.5417C19.406 13.2509 19.1702 13.0151 18.8794 13.0151H6.59934C6.30853 13.0151 6.07275 13.2509 6.07275 13.5417Z" fill="#9E9E9E"/>
<path d="M6.59934 17.1254H16.9013C17.1921 17.1254 17.4279 16.8897 17.4279 16.5989C17.4279 16.308 17.1921 16.0723 16.9013 16.0723H6.59934C6.30853 16.0723 6.07275 16.308 6.07275 16.5989C6.07275 16.8897 6.30853 17.1254 6.59934 17.1254Z" fill="#9E9E9E"/>
<path d="M6.59934 20.1824H16.0497C16.3405 20.1824 16.5763 19.9467 16.5763 19.6559C16.5763 19.365 16.3405 19.1293 16.0497 19.1293H6.59934C6.30853 19.1293 6.07275 19.365 6.07275 19.6559C6.07275 19.9467 6.30853 20.1824 6.59934 20.1824Z" fill="#9E9E9E"/>
<path d="M6.59934 23.2396H16.0497C16.3405 23.2396 16.5763 23.0039 16.5763 22.713C16.5763 22.4222 16.3405 22.1865 16.0497 22.1865H6.59934C6.30853 22.1865 6.07275 22.4222 6.07275 22.713C6.07275 23.0039 6.30853 23.2396 6.59934 23.2396Z" fill="#9E9E9E"/>
<path d="M6.59934 26.2968H16.9013C17.1921 26.2968 17.4279 26.061 17.4279 25.7702C17.4279 25.4794 17.1921 25.2437 16.9013 25.2437H6.59934C6.30853 25.2437 6.07275 25.4794 6.07275 25.7702C6.07275 26.061 6.30853 26.2968 6.59934 26.2968Z" fill="#9E9E9E"/>
<path d="M6.59934 29.3538H21.8976C22.1884 29.3538 22.4242 29.118 22.4242 28.8272C22.4242 28.5364 22.1884 28.3007 21.8976 28.3007H6.59934C6.30853 28.3007 6.07275 28.5364 6.07275 28.8272C6.07275 29.1181 6.30853 29.3538 6.59934 29.3538Z" fill="#9E9E9E"/>
<path d="M6.59934 32.411H21.8976C22.1884 32.411 22.4242 32.1752 22.4242 31.8844C22.4242 31.5936 22.1884 31.3578 21.8976 31.3578H6.59934C6.30853 31.3578 6.07275 31.5936 6.07275 31.8844C6.07275 32.1753 6.30853 32.411 6.59934 32.411Z" fill="#9E9E9E"/>
<path d="M25.7486 12.9245C25.7127 12.9245 25.677 12.9261 25.6412 12.9266V6.23125C25.6412 5.35433 24.9277 4.64088 24.0508 4.64088H19.9929V3.83761C19.9929 3.31257 19.5675 2.8855 19.0446 2.8855H16.8735V2.64466C16.8735 1.18635 15.6958 0 14.2483 0C12.8009 0 11.6232 1.18635 11.6232 2.64459V2.88543H9.45201C8.92922 2.88543 8.50384 3.31257 8.50384 3.83754V4.64088H4.44584C3.56892 4.64088 2.85547 5.35433 2.85547 6.23125V8.72516C2.85547 9.01597 3.09125 9.25175 3.38205 9.25175C3.67286 9.25175 3.90864 9.01597 3.90864 8.72516V6.23125C3.90864 5.93503 4.14962 5.69405 4.44584 5.69405H8.50384V6.49739C8.50384 7.02235 8.92922 7.4495 9.45201 7.4495H19.0447C19.5675 7.4495 19.9929 7.02235 19.9929 6.49739V5.69405H24.0509C24.3471 5.69405 24.5881 5.93503 24.5881 6.23125V13.0147C23.4253 13.197 22.3279 13.6537 21.366 14.3624C21.1318 14.5348 21.0819 14.8645 21.2544 15.0986C21.4269 15.3327 21.7566 15.3827 21.9906 15.2102C23.0852 14.4038 24.3847 13.9777 25.7486 13.9777C29.2461 13.9777 32.0915 16.823 32.0915 20.3204C32.0915 23.8178 29.2461 26.6632 25.7486 26.6632C22.2512 26.6632 19.4058 23.8178 19.4058 20.3204C19.4058 19.0781 19.7648 17.8752 20.444 16.8417C20.6037 16.5987 20.5362 16.2722 20.2931 16.1125C20.0502 15.9528 19.7237 16.0203 19.5639 16.2633C18.7715 17.469 18.3527 18.8719 18.3527 20.3204C18.3527 24.0037 21.0593 27.0665 24.588 27.625V34.4096C24.588 34.7058 24.347 34.9468 24.0508 34.9468H4.44584C4.14962 34.9468 3.90864 34.7058 3.90864 34.4096V11.1683C3.90864 10.8775 3.67286 10.6418 3.38205 10.6418C3.09125 10.6418 2.85547 10.8775 2.85547 11.1683V34.4097C2.85547 35.2866 3.56892 36.0001 4.44584 36.0001H24.0509C24.9278 36.0001 25.6412 35.2866 25.6412 34.4097V27.715C25.677 27.7155 25.7128 27.7163 25.7487 27.7163C29.8268 27.7163 33.1446 24.3985 33.1446 20.3204C33.1446 16.2423 29.8267 12.9245 25.7486 12.9245ZM18.9398 6.3964H9.55687V3.9386H12.1497C12.4405 3.9386 12.6763 3.70282 12.6763 3.41202V2.64459C12.6763 1.76704 13.3815 1.0531 14.2483 1.0531C15.1151 1.0531 15.8203 1.76704 15.8203 2.64459V3.41195C15.8203 3.70275 16.0561 3.93853 16.3469 3.93853H18.9397V6.3964H18.9398Z" fill="#9E9E9E"/>
<path d="M24.79 24.0118C24.8051 24.0118 24.8202 24.0116 24.8369 24.0111C25.2768 23.9986 25.7002 23.8059 25.9985 23.4827L29.7774 19.3897C30.0755 19.0669 30.23 18.6474 30.2125 18.2084C30.195 17.7694 30.0076 17.3635 29.6848 17.0654C29.362 16.7674 28.9427 16.6132 28.5035 16.6304C28.0644 16.6479 27.6585 16.8353 27.3605 17.1581L24.7231 20.0146L24.0708 19.3842C23.4187 18.754 22.3753 18.7719 21.745 19.4239C21.1147 20.076 21.1325 21.1193 21.7846 21.7496L23.6469 23.5496C23.9552 23.8477 24.3611 24.0118 24.79 24.0118ZM22.5022 20.1558C22.6181 20.0359 22.7729 19.9756 22.9278 19.9756C23.076 19.9756 23.2243 20.0307 23.3389 20.1416L24.3786 21.1464C24.4806 21.2449 24.6182 21.298 24.7595 21.2941C24.9012 21.29 25.0353 21.2291 25.1314 21.1249C25.1314 21.1249 28.1332 17.8737 28.1343 17.8725C28.3593 17.6289 28.7236 17.6114 28.9704 17.8391C29.2085 18.059 29.2239 18.4368 29.0037 18.6753L25.2247 22.7684C25.1174 22.8847 24.9651 22.9539 24.8083 22.9584L24.79 22.9587C24.6358 22.9587 24.4897 22.8996 24.3788 22.7924L22.5164 20.9925C22.2818 20.7658 22.2754 20.3904 22.5022 20.1558Z" fill="#9E9E9E"/>
</g>
<defs>
<clipPath id="clip0">
<rect width="36" height="36" fill="white"/>
</clipPath>
</defs>
</svg>
