<svg width="32" height="36" viewBox="0 0 32 36" fill="none" xmlns="http://www.w3.org/2000/svg">
    <path d="M19.898 11.0112C20.1888 11.0112 20.4246 10.7754 20.4246 10.4846C20.4246 10.1938 20.1888 9.95801 19.898 9.95801H9.90549C9.61468 9.95801 9.37891 10.1938 9.37891 10.4846C9.37891 10.7754 9.61468 11.0112 9.90549 11.0112H19.898Z" fill="#9E9E9E"/>
    <path d="M4.07422 13.5412C4.07422 13.832 4.31 14.0678 4.6008 14.0678H16.8809C17.1717 14.0678 17.4074 13.832 17.4074 13.5412C17.4074 13.2504 17.1717 13.0146 16.8809 13.0146H4.6008C4.31 13.0146 4.07422 13.2504 4.07422 13.5412Z" fill="#9E9E9E"/>
    <path d="M4.6008 17.1254H14.9028C15.1936 17.1254 15.4294 16.8897 15.4294 16.5989C15.4294 16.308 15.1936 16.0723 14.9028 16.0723H4.6008C4.31 16.0723 4.07422 16.308 4.07422 16.5989C4.07422 16.8897 4.31 17.1254 4.6008 17.1254Z" fill="#9E9E9E"/>
    <path d="M4.6008 20.1821H14.0512C14.342 20.1821 14.5777 19.9463 14.5777 19.6555C14.5777 19.3647 14.342 19.1289 14.0512 19.1289H4.6008C4.31 19.1289 4.07422 19.3647 4.07422 19.6555C4.07422 19.9464 4.31 20.1821 4.6008 20.1821Z" fill="#9E9E9E"/>
    <path d="M4.6008 23.2397H14.0512C14.342 23.2397 14.5777 23.0039 14.5777 22.7131C14.5777 22.4223 14.342 22.1865 14.0512 22.1865H4.6008C4.31 22.1865 4.07422 22.4223 4.07422 22.7131C4.07422 23.0039 4.31 23.2397 4.6008 23.2397Z" fill="#9E9E9E"/>
    <path d="M4.6008 26.2963H14.9028C15.1936 26.2963 15.4294 26.0606 15.4294 25.7697C15.4294 25.4789 15.1936 25.2432 14.9028 25.2432H4.6008C4.31 25.2432 4.07422 25.4789 4.07422 25.7697C4.07422 26.0606 4.31 26.2963 4.6008 26.2963Z" fill="#9E9E9E"/>
    <path d="M4.6008 29.3539H19.899C20.1898 29.3539 20.4256 29.1182 20.4256 28.8274C20.4256 28.5366 20.1898 28.3008 19.899 28.3008H4.6008C4.31 28.3008 4.07422 28.5366 4.07422 28.8274C4.07422 29.1182 4.31 29.3539 4.6008 29.3539Z" fill="#9E9E9E"/>
    <path d="M4.6008 32.4106H19.899C20.1898 32.4106 20.4256 32.1748 20.4256 31.884C20.4256 31.5932 20.1898 31.3574 19.899 31.3574H4.6008C4.31 31.3574 4.07422 31.5932 4.07422 31.884C4.07422 32.1749 4.31 32.4106 4.6008 32.4106Z" fill="#9E9E9E"/>
    <path d="M23.7486 12.9245C23.7127 12.9245 23.677 12.9261 23.6412 12.9266V6.23125C23.6412 5.35433 22.9277 4.64088 22.0508 4.64088H17.9929V3.83761C17.9929 3.31257 17.5675 2.8855 17.0446 2.8855H14.8735V2.64466C14.8735 1.18635 13.6958 0 12.2483 0C10.8009 0 9.62322 1.18635 9.62322 2.64459V2.88543H7.45201C6.92922 2.88543 6.50384 3.31257 6.50384 3.83754V4.64088H2.44584C1.56892 4.64088 0.855469 5.35433 0.855469 6.23125V8.72516C0.855469 9.01597 1.09125 9.25175 1.38205 9.25175C1.67286 9.25175 1.90864 9.01597 1.90864 8.72516V6.23125C1.90864 5.93503 2.14962 5.69405 2.44584 5.69405H6.50384V6.49739C6.50384 7.02235 6.92922 7.4495 7.45201 7.4495H17.0447C17.5675 7.4495 17.9929 7.02235 17.9929 6.49739V5.69405H22.0509C22.3471 5.69405 22.5881 5.93503 22.5881 6.23125V13.0147C21.4253 13.197 20.3279 13.6537 19.366 14.3624C19.1318 14.5348 19.0819 14.8645 19.2544 15.0986C19.4269 15.3327 19.7566 15.3827 19.9906 15.2102C21.0852 14.4038 22.3847 13.9777 23.7486 13.9777C27.2461 13.9777 30.0915 16.823 30.0915 20.3204C30.0915 23.8178 27.2461 26.6632 23.7486 26.6632C20.2512 26.6632 17.4058 23.8178 17.4058 20.3204C17.4058 19.0781 17.7648 17.8752 18.444 16.8417C18.6037 16.5987 18.5362 16.2722 18.2931 16.1125C18.0502 15.9528 17.7237 16.0203 17.5639 16.2633C16.7715 17.469 16.3527 18.8719 16.3527 20.3204C16.3527 24.0037 19.0593 27.0665 22.588 27.625V34.4096C22.588 34.7058 22.347 34.9468 22.0508 34.9468H2.44584C2.14962 34.9468 1.90864 34.7058 1.90864 34.4096V11.1683C1.90864 10.8775 1.67286 10.6418 1.38205 10.6418C1.09125 10.6418 0.855469 10.8775 0.855469 11.1683V34.4097C0.855469 35.2866 1.56892 36.0001 2.44584 36.0001H22.0509C22.9278 36.0001 23.6412 35.2866 23.6412 34.4097V27.715C23.677 27.7155 23.7128 27.7163 23.7487 27.7163C27.8268 27.7163 31.1446 24.3985 31.1446 20.3204C31.1446 16.2423 27.8267 12.9245 23.7486 12.9245ZM16.9398 6.3964H7.55687V3.9386H10.1497C10.4405 3.9386 10.6763 3.70282 10.6763 3.41202V2.64459C10.6763 1.76704 11.3815 1.0531 12.2483 1.0531C13.1151 1.0531 13.8203 1.76704 13.8203 2.64459V3.41195C13.8203 3.70275 14.0561 3.93853 14.3469 3.93853H16.9397V6.3964H16.9398Z" fill="#9E9E9E"/>
    <path d="M22.7914 24.0116C22.8066 24.0116 22.8217 24.0114 22.8384 24.011C23.2782 23.9984 23.7016 23.8057 24 23.4825L27.7789 19.3895C28.077 19.0668 28.2314 18.6472 28.214 18.2082C28.1965 17.7692 28.0091 17.3633 27.6863 17.0652C27.3635 16.7672 26.9442 16.613 26.5049 16.6302C26.0659 16.6477 25.66 16.8351 25.362 17.1579L22.7246 20.0145L22.0723 19.384C21.4202 18.7538 20.3768 18.7717 19.7465 19.4237C19.1162 20.0758 19.134 21.1191 19.7861 21.7494L21.6484 23.5494C21.9567 23.8475 22.3626 24.0116 22.7914 24.0116ZM20.5036 20.1556C20.6196 20.0357 20.7743 19.9754 20.9293 19.9754C21.0774 19.9754 21.2257 20.0305 21.3404 20.1414L22.3801 21.1462C22.4821 21.2447 22.6197 21.2978 22.761 21.2939C22.9027 21.2898 23.0368 21.2289 23.1329 21.1248C23.1329 21.1248 26.1347 17.8735 26.1358 17.8723C26.3607 17.6287 26.7251 17.6112 26.9718 17.839C27.21 18.0589 27.2253 18.4366 27.0052 18.6751L23.2262 22.7682C23.1188 22.8845 22.9665 22.9537 22.8098 22.9582L22.7915 22.9585C22.6372 22.9585 22.4912 22.8995 22.3803 22.7922L20.5179 20.9923C20.2833 20.7656 20.2769 20.3902 20.5036 20.1556Z" fill="#9E9E9E"/>
</svg>
