<svg width="37" height="36" viewBox="0 0 37 36" fill="none" xmlns="http://www.w3.org/2000/svg">
<path fill-rule="evenodd" clip-rule="evenodd" d="M4.32843 2.14645L1.14645 5.32843C0.951185 5.52369 0.951185 5.84027 1.14645 6.03553C1.34171 6.2308 1.65829 6.2308 1.85355 6.03553L4.18198 3.70711V30.5737H4.68134V30.6391H34.4742L32.1458 32.9675C31.9505 33.1628 31.9505 33.4794 32.1458 33.6746C32.3411 33.8699 32.6577 33.8699 32.8529 33.6746L36.0349 30.4927C36.2302 30.2974 36.2302 29.9808 36.0349 29.7856L32.8529 26.6036C32.6577 26.4083 32.3411 26.4083 32.1458 26.6036C31.9505 26.7988 31.9505 27.1154 32.1458 27.3107L34.4742 29.6391H28.9269V29.4884V16.3456V15.3456H27.9269H25.2364H24.2364V16.3456V29.4884V29.6391H22.8966V29.4886V19.9188V18.9188H21.8966H19.2061H18.2061V19.9188V29.4886V29.6391H16.8674V29.4889V22.8116V21.8116H15.8674H13.1768H12.1768V22.8116V29.4889V29.6391H10.8371V29.4892V25.8745V24.8745H9.83708H7.14653H6.14653V25.8745V29.4892V29.6391H5.18198V3.70711L7.51041 6.03553C7.70567 6.2308 8.02225 6.2308 8.21751 6.03553C8.41278 5.84027 8.41278 5.52369 8.21751 5.32843L5.03553 2.14645C4.84027 1.95119 4.52369 1.95119 4.32843 2.14645ZM15.7816 5.53618C16.1497 5.11864 16.8122 5.11246 17.1958 5.53022C17.3905 5.74216 17.5 6.02173 17.5 6.3066V7H15.5V6.28144C15.5 6.00702 15.6001 5.74203 15.7816 5.53618ZM18.5 6.3066V7H20H21V8V13V14H20H13H12V13V8V7H13H14.5V6.28144C14.5 5.7635 14.689 5.26337 15.0315 4.87486C15.7993 4.00394 17.1542 4.00644 17.9324 4.85382C18.2945 5.24814 18.5 5.76835 18.5 6.3066ZM17.5 9V8H15.5V9H14.5V8H13V13H20V8H18.5V9H17.5ZM7.14653 25.8745H9.83708V29.4892H7.14653V25.8745ZM13.1768 22.8116H15.8674V29.4889H13.1768V22.8116ZM21.8966 19.9188H19.2061V29.4886H21.8966V19.9188ZM25.2364 16.3456H27.9269V29.4884H25.2364V16.3456Z" fill="#9E9E9E"/>
<path d="M1.14645 5.32843L0.96967 5.15165L0.96967 5.15165L1.14645 5.32843ZM4.32843 2.14645L4.15165 1.96967L4.15165 1.96967L4.32843 2.14645ZM1.85355 6.03553L1.67678 5.85876L1.67678 5.85876L1.85355 6.03553ZM4.18198 3.70711H4.43198V3.10355L4.0052 3.53033L4.18198 3.70711ZM4.18198 30.5737H3.93198V30.8237H4.18198V30.5737ZM4.68134 30.5737H4.93134V30.3237H4.68134V30.5737ZM4.68134 30.6391H4.43134V30.8891H4.68134V30.6391ZM34.4742 30.6391L34.651 30.8159L35.0778 30.3891H34.4742V30.6391ZM34.4742 29.6391V29.8891H35.0778L34.651 29.4623L34.4742 29.6391ZM28.9269 29.6391H28.6769V29.8891H28.9269V29.6391ZM28.9269 15.3456H29.1769V15.0956H28.9269V15.3456ZM24.2364 15.3456V15.0956H23.9864V15.3456H24.2364ZM24.2364 29.6391V29.8891H24.4864V29.6391H24.2364ZM22.8966 29.6391H22.6466V29.8891H22.8966V29.6391ZM22.8966 18.9188H23.1466V18.6688H22.8966V18.9188ZM18.2061 18.9188V18.6688H17.9561V18.9188H18.2061ZM18.2061 29.6391V29.8891H18.4561V29.6391H18.2061ZM16.8674 29.6391H16.6174V29.8891H16.8674V29.6391ZM16.8674 21.8116H17.1174V21.5616H16.8674V21.8116ZM12.1768 21.8116V21.5616H11.9268V21.8116H12.1768ZM12.1768 29.6391V29.8891H12.4268V29.6391H12.1768ZM10.8371 29.6391H10.5871V29.8891H10.8371V29.6391ZM10.8371 24.8745H11.0871V24.6245H10.8371V24.8745ZM6.14653 24.8745V24.6245H5.89653V24.8745H6.14653ZM6.14653 29.6391V29.8891H6.39653V29.6391H6.14653ZM5.18198 29.6391H4.93198V29.8891H5.18198V29.6391ZM5.18198 3.70711L5.35876 3.53033L4.93198 3.10355V3.70711H5.18198ZM7.51041 6.03553L7.68719 5.85876L7.68718 5.85876L7.51041 6.03553ZM8.21751 6.03553L8.04074 5.85876L8.04074 5.85876L8.21751 6.03553ZM8.21751 5.32843L8.39429 5.15165V5.15165L8.21751 5.32843ZM5.03553 2.14645L5.21231 1.96967L5.21231 1.96967L5.03553 2.14645ZM17.1958 5.53022L17.0117 5.69933V5.69933L17.1958 5.53022ZM15.7816 5.53618L15.5941 5.37085V5.37085L15.7816 5.53618ZM17.5 7V7.25H17.75V7H17.5ZM15.5 7H15.25V7.25H15.5V7ZM18.5 7H18.25V7.25H18.5V7ZM21 7H21.25V6.75H21V7ZM21 14V14.25H21.25V14H21ZM12 14H11.75V14.25H12V14ZM12 7V6.75H11.75V7H12ZM14.5 7V7.25H14.75V7H14.5ZM15.0315 4.87486L14.844 4.70954L15.0315 4.87486ZM17.9324 4.85382L17.7482 5.02292V5.02292L17.9324 4.85382ZM17.5 8H17.75V7.75H17.5V8ZM17.5 9H17.25V9.25H17.5V9ZM15.5 8V7.75H15.25V8H15.5ZM15.5 9V9.25H15.75V9H15.5ZM14.5 9H14.25V9.25H14.5V9ZM14.5 8H14.75V7.75H14.5V8ZM13 8V7.75H12.75V8H13ZM13 13H12.75V13.25H13V13ZM20 13V13.25H20.25V13H20ZM20 8H20.25V7.75H20V8ZM18.5 8V7.75H18.25V8H18.5ZM18.5 9V9.25H18.75V9H18.5ZM9.83708 25.8745H10.0871V25.6245H9.83708V25.8745ZM7.14653 25.8745V25.6245H6.89653V25.8745H7.14653ZM9.83708 29.4892V29.7392H10.0871V29.4892H9.83708ZM7.14653 29.4892H6.89653V29.7392H7.14653V29.4892ZM15.8674 22.8116H16.1174V22.5616H15.8674V22.8116ZM13.1768 22.8116V22.5616H12.9268V22.8116H13.1768ZM15.8674 29.4889V29.7389H16.1174V29.4889H15.8674ZM13.1768 29.4889H12.9268V29.7389H13.1768V29.4889ZM19.2061 19.9188V19.6688H18.9561V19.9188H19.2061ZM21.8966 19.9188H22.1466V19.6688H21.8966V19.9188ZM19.2061 29.4886H18.9561V29.7386H19.2061V29.4886ZM21.8966 29.4886V29.7386H22.1466V29.4886H21.8966ZM27.9269 16.3456H28.1769V16.0956H27.9269V16.3456ZM25.2364 16.3456V16.0956H24.9864V16.3456H25.2364ZM27.9269 29.4884V29.7384H28.1769V29.4884H27.9269ZM25.2364 29.4884H24.9864V29.7384H25.2364V29.4884ZM1.32322 5.5052L4.5052 2.32322L4.15165 1.96967L0.96967 5.15165L1.32322 5.5052ZM1.32322 5.85876C1.22559 5.76113 1.22559 5.60283 1.32322 5.5052L0.96967 5.15165C0.676777 5.44454 0.676777 5.91942 0.96967 6.21231L1.32322 5.85876ZM1.67678 5.85876C1.57915 5.95639 1.42085 5.95639 1.32322 5.85876L0.96967 6.21231C1.26256 6.5052 1.73744 6.5052 2.03033 6.21231L1.67678 5.85876ZM4.0052 3.53033L1.67678 5.85876L2.03033 6.21231L4.35876 3.88388L4.0052 3.53033ZM4.43198 30.5737V3.70711H3.93198V30.5737H4.43198ZM4.68134 30.3237H4.18198V30.8237H4.68134V30.3237ZM4.93134 30.6391V30.5737H4.43134V30.6391H4.93134ZM34.4742 30.3891H4.68134V30.8891H34.4742V30.3891ZM32.3226 33.1443L34.651 30.8159L34.2975 30.4623L31.969 32.7908L32.3226 33.1443ZM32.3226 33.4979C32.225 33.4002 32.225 33.2419 32.3226 33.1443L31.969 32.7908C31.6761 33.0837 31.6761 33.5585 31.969 33.8514L32.3226 33.4979ZM32.6761 33.4979C32.5785 33.5955 32.4202 33.5955 32.3226 33.4979L31.969 33.8514C32.2619 34.1443 32.7368 34.1443 33.0297 33.8514L32.6761 33.4979ZM35.8581 30.3159L32.6761 33.4979L33.0297 33.8514L36.2117 30.6694L35.8581 30.3159ZM35.8581 29.9623C35.9558 30.06 35.9558 30.2183 35.8581 30.3159L36.2117 30.6694C36.5046 30.3765 36.5046 29.9017 36.2117 29.6088L35.8581 29.9623ZM32.6761 26.7803L35.8581 29.9623L36.2117 29.6088L33.0297 26.4268L32.6761 26.7803ZM32.3226 26.7803C32.4202 26.6827 32.5785 26.6827 32.6761 26.7803L33.0297 26.4268C32.7368 26.1339 32.2619 26.1339 31.969 26.4268L32.3226 26.7803ZM32.3226 27.1339C32.225 27.0363 32.225 26.878 32.3226 26.7803L31.969 26.4268C31.6761 26.7197 31.6761 27.1946 31.969 27.4875L32.3226 27.1339ZM34.651 29.4623L32.3226 27.1339L31.969 27.4875L34.2975 29.8159L34.651 29.4623ZM28.9269 29.8891H34.4742V29.3891H28.9269V29.8891ZM29.1769 29.6391V29.4884H28.6769V29.6391H29.1769ZM29.1769 29.4884V16.3456H28.6769V29.4884H29.1769ZM29.1769 16.3456V15.3456H28.6769V16.3456H29.1769ZM28.9269 15.0956H27.9269V15.5956H28.9269V15.0956ZM27.9269 15.0956H25.2364V15.5956H27.9269V15.0956ZM25.2364 15.0956H24.2364V15.5956H25.2364V15.0956ZM23.9864 15.3456V16.3456H24.4864V15.3456H23.9864ZM23.9864 16.3456V29.4884H24.4864V16.3456H23.9864ZM23.9864 29.4884V29.6391H24.4864V29.4884H23.9864ZM22.8966 29.8891H24.2364V29.3891H22.8966V29.8891ZM22.6466 29.4886V29.6391H23.1466V29.4886H22.6466ZM22.6466 19.9188V29.4886H23.1466V19.9188H22.6466ZM22.6466 18.9188V19.9188H23.1466V18.9188H22.6466ZM21.8966 19.1688H22.8966V18.6688H21.8966V19.1688ZM19.2061 19.1688H21.8966V18.6688H19.2061V19.1688ZM18.2061 19.1688H19.2061V18.6688H18.2061V19.1688ZM18.4561 19.9188V18.9188H17.9561V19.9188H18.4561ZM18.4561 29.4886V19.9188H17.9561V29.4886H18.4561ZM18.4561 29.6391V29.4886H17.9561V29.6391H18.4561ZM16.8674 29.8891H18.2061V29.3891H16.8674V29.8891ZM16.6174 29.4889V29.6391H17.1174V29.4889H16.6174ZM16.6174 22.8116V29.4889H17.1174V22.8116H16.6174ZM16.6174 21.8116V22.8116H17.1174V21.8116H16.6174ZM15.8674 22.0616H16.8674V21.5616H15.8674V22.0616ZM13.1768 22.0616H15.8674V21.5616H13.1768V22.0616ZM12.1768 22.0616H13.1768V21.5616H12.1768V22.0616ZM12.4268 22.8116V21.8116H11.9268V22.8116H12.4268ZM12.4268 29.4889V22.8116H11.9268V29.4889H12.4268ZM12.4268 29.6391V29.4889H11.9268V29.6391H12.4268ZM10.8371 29.8891H12.1768V29.3891H10.8371V29.8891ZM10.5871 29.4892V29.6391H11.0871V29.4892H10.5871ZM10.5871 25.8745V29.4892H11.0871V25.8745H10.5871ZM10.5871 24.8745V25.8745H11.0871V24.8745H10.5871ZM9.83708 25.1245H10.8371V24.6245H9.83708V25.1245ZM7.14653 25.1245H9.83708V24.6245H7.14653V25.1245ZM6.14653 25.1245H7.14653V24.6245H6.14653V25.1245ZM6.39653 25.8745V24.8745H5.89653V25.8745H6.39653ZM6.39653 29.4892V25.8745H5.89653V29.4892H6.39653ZM6.39653 29.6391V29.4892H5.89653V29.6391H6.39653ZM5.18198 29.8891H6.14653V29.3891H5.18198V29.8891ZM4.93198 3.70711V29.6391H5.43198V3.70711H4.93198ZM7.68718 5.85876L5.35876 3.53033L5.0052 3.88388L7.33363 6.21231L7.68718 5.85876ZM8.04074 5.85876C7.94311 5.95639 7.78482 5.95639 7.68719 5.85876L7.33363 6.21231C7.62652 6.5052 8.1014 6.5052 8.39429 6.21231L8.04074 5.85876ZM8.04074 5.5052C8.13837 5.60283 8.13837 5.76113 8.04074 5.85876L8.39429 6.21231C8.68718 5.91942 8.68718 5.44454 8.39429 5.15165L8.04074 5.5052ZM4.85876 2.32322L8.04074 5.5052L8.39429 5.15165L5.21231 1.96967L4.85876 2.32322ZM4.5052 2.32322C4.60283 2.22559 4.76113 2.22559 4.85876 2.32322L5.21231 1.96967C4.91942 1.67678 4.44454 1.67678 4.15165 1.96967L4.5052 2.32322ZM17.38 5.36112C16.8973 4.83558 16.0618 4.84034 15.5941 5.37085L15.9691 5.70151C16.2377 5.39695 16.727 5.38933 17.0117 5.69933L17.38 5.36112ZM17.75 6.3066C17.75 5.9584 17.6165 5.61867 17.38 5.36112L17.0117 5.69933C17.1645 5.86565 17.25 6.08505 17.25 6.3066H17.75ZM17.75 7V6.3066H17.25V7H17.75ZM15.5 7.25H17.5V6.75H15.5V7.25ZM15.25 6.28144V7H15.75V6.28144H15.25ZM15.5941 5.37085C15.3723 5.62236 15.25 5.94614 15.25 6.28144H15.75C15.75 6.0679 15.8279 5.86169 15.9691 5.70151L15.5941 5.37085ZM18.75 7V6.3066H18.25V7H18.75ZM20 6.75H18.5V7.25H20V6.75ZM21 6.75H20V7.25H21V6.75ZM21.25 8V7H20.75V8H21.25ZM21.25 13V8H20.75V13H21.25ZM21.25 14V13H20.75V14H21.25ZM20 14.25H21V13.75H20V14.25ZM13 14.25H20V13.75H13V14.25ZM12 14.25H13V13.75H12V14.25ZM11.75 13V14H12.25V13H11.75ZM11.75 8V13H12.25V8H11.75ZM11.75 7V8H12.25V7H11.75ZM13 6.75H12V7.25H13V6.75ZM14.5 6.75H13V7.25H14.5V6.75ZM14.25 6.28144V7H14.75V6.28144H14.25ZM14.844 4.70954C14.4612 5.1437 14.25 5.70263 14.25 6.28144H14.75C14.75 5.82438 14.9168 5.38303 15.219 5.04019L14.844 4.70954ZM18.1165 4.68472C17.2398 3.73011 15.7119 3.72508 14.844 4.70954L15.219 5.04019C15.8868 4.28279 17.0685 4.28276 17.7482 5.02292L18.1165 4.68472ZM18.75 6.3066C18.75 5.705 18.5205 5.12463 18.1165 4.68472L17.7482 5.02292C18.0685 5.37165 18.25 5.8317 18.25 6.3066H18.75ZM17.25 8V9H17.75V8H17.25ZM15.5 8.25H17.5V7.75H15.5V8.25ZM15.75 9V8H15.25V9H15.75ZM14.5 9.25H15.5V8.75H14.5V9.25ZM14.25 8V9H14.75V8H14.25ZM13 8.25H14.5V7.75H13V8.25ZM13.25 13V8H12.75V13H13.25ZM20 12.75H13V13.25H20V12.75ZM19.75 8V13H20.25V8H19.75ZM18.5 8.25H20V7.75H18.5V8.25ZM18.75 9V8H18.25V9H18.75ZM17.5 9.25H18.5V8.75H17.5V9.25ZM9.83708 25.6245H7.14653V26.1245H9.83708V25.6245ZM10.0871 29.4892V25.8745H9.58708V29.4892H10.0871ZM7.14653 29.7392H9.83708V29.2392H7.14653V29.7392ZM6.89653 25.8745V29.4892H7.39653V25.8745H6.89653ZM15.8674 22.5616H13.1768V23.0616H15.8674V22.5616ZM16.1174 29.4889V22.8116H15.6174V29.4889H16.1174ZM13.1768 29.7389H15.8674V29.2389H13.1768V29.7389ZM12.9268 22.8116V29.4889H13.4268V22.8116H12.9268ZM19.2061 20.1688H21.8966V19.6688H19.2061V20.1688ZM19.4561 29.4886V19.9188H18.9561V29.4886H19.4561ZM21.8966 29.2386H19.2061V29.7386H21.8966V29.2386ZM21.6466 19.9188V29.4886H22.1466V19.9188H21.6466ZM27.9269 16.0956H25.2364V16.5956H27.9269V16.0956ZM28.1769 29.4884V16.3456H27.6769V29.4884H28.1769ZM25.2364 29.7384H27.9269V29.2384H25.2364V29.7384ZM24.9864 16.3456V29.4884H25.4864V16.3456H24.9864Z" fill="#9E9E9E"/>
</svg>
