<svg width="36" height="36" viewBox="0 0 36 36" fill="none" xmlns="http://www.w3.org/2000/svg">
<path d="M11.6104 22.6717C12.6527 21.6293 12.6527 19.933 11.6104 18.8907C11.1053 18.3859 10.434 18.1077 9.71988 18.1077C9.30707 18.1077 8.90881 18.201 8.54874 18.3771C7.27899 16.5605 6.6102 14.4347 6.6102 12.1987C6.6102 6.47616 11.0805 1.73556 16.7871 1.40597C17.1752 1.38345 17.4713 1.05084 17.449 0.663022C17.4265 0.27493 17.0939 -0.0203275 16.7061 0.00109578C10.2557 0.373807 5.20312 5.73156 5.20312 12.1987C5.20312 14.7788 5.99167 17.2296 7.48663 19.3112C6.80356 20.3483 6.91782 21.7601 7.82941 22.6717C8.3345 23.1765 9.00577 23.4547 9.71988 23.4547C10.434 23.4547 11.1053 23.1765 11.6104 22.6717ZM8.82422 19.8858C9.07114 19.6389 9.39551 19.5153 9.71988 19.5153C10.044 19.5153 10.3683 19.6389 10.6153 19.8858C11.1091 20.3794 11.1091 21.183 10.6153 21.6766C10.1214 22.1704 9.31805 22.1704 8.82422 21.6766C8.33066 21.183 8.33066 20.3796 8.82422 19.8858Z" fill="white"/>
<path d="M28.2666 24.375C27.8219 24.375 27.4039 24.4909 27.041 24.6942C26.7194 23.6744 25.7647 22.9328 24.64 22.9328C23.9283 22.9328 23.2848 23.2297 22.8267 23.706C22.6995 23.5741 22.5581 23.4563 22.4051 23.3544C24.0267 22.6285 25.4859 21.5502 26.6667 20.1843C28.5822 17.9678 29.6371 15.1317 29.6371 12.1986C29.6371 9.61985 28.8486 7.1677 27.3539 5.08579C28.037 4.04868 27.9227 2.63721 27.0108 1.72535C25.9685 0.683022 24.2725 0.683022 23.2299 1.72535C22.1876 2.76768 22.1876 4.46397 23.2299 5.50629C23.7512 6.0276 24.4356 6.28825 25.1204 6.28825C25.5216 6.28825 25.9224 6.19788 26.2907 6.01881C27.561 7.83595 28.23 9.96345 28.23 12.1986C28.23 17.288 24.7751 21.59 19.9035 22.7232V18.9363C22.6935 17.9063 24.5996 15.2094 24.5996 12.1986C24.5996 8.23942 21.3784 5.01823 17.419 5.01823C13.4598 5.01823 10.2386 8.23914 10.2386 12.1986C10.2386 13.7611 10.7321 15.247 11.6654 16.4951C12.4795 17.5836 13.6059 18.429 14.8696 18.9113V29.2601L13.9857 27.8102C13.2431 26.591 11.6926 26.1955 10.4564 26.909C9.28057 27.588 8.82189 29.0777 9.41543 30.3066L12.0398 35.6083C12.1626 35.8563 12.4119 35.9999 12.6709 35.9999C12.7759 35.9999 12.8822 35.9766 12.9824 35.9269C13.3307 35.7544 13.4732 35.3323 13.301 34.9843L10.6794 29.6886C10.4078 29.1258 10.6187 28.4403 11.1601 28.1277C11.7195 27.8047 12.4482 27.9906 12.7844 28.5424L14.9723 32.1325C15.1366 32.4016 15.4598 32.5288 15.7633 32.4437C16.0668 32.3585 16.2767 32.0817 16.2767 31.7661V15.6239C16.2767 15.0119 16.7746 14.5143 17.3865 14.5143C17.9985 14.5143 18.4964 15.0119 18.4964 15.6239V18.4067C18.4962 18.4117 18.4964 18.4166 18.4964 18.4218V28.9857C18.4964 29.3744 18.8112 29.6891 19.1998 29.6891C19.5885 29.6891 19.9035 29.3744 19.9035 28.9857V25.4498C19.9035 24.8378 20.4012 24.3399 21.0131 24.3399C21.6251 24.3399 22.123 24.8378 22.123 25.4498V29.2417C22.123 29.6303 22.4381 29.9454 22.8264 29.9454C23.2151 29.9454 23.5301 29.6303 23.5301 29.2417V25.4498C23.5301 24.8378 24.0281 24.3399 24.64 24.3399C25.2519 24.3399 25.7496 24.8378 25.7496 25.4498V29.2892C25.7496 29.6779 26.0646 29.9929 26.4533 29.9929C26.8419 29.9929 27.1567 29.6779 27.1567 29.2892V26.892C27.1567 26.2801 27.6546 25.7821 28.2666 25.7821C28.8785 25.7821 29.3765 26.2801 29.3765 26.892V35.296C29.3765 35.6846 29.6912 35.9997 30.0799 35.9997C30.4685 35.9997 30.7835 35.6846 30.7835 35.296V26.892C30.7835 25.5042 29.6544 24.375 28.2666 24.375ZM24.225 4.51148C23.7311 4.01765 23.7311 3.21427 24.225 2.72044C24.4719 2.47352 24.796 2.3502 25.1204 2.3502C25.4447 2.3502 25.7691 2.47352 26.016 2.72044C26.5096 3.21427 26.5096 4.01765 26.016 4.51148C25.5222 5.00504 24.7185 5.00504 24.225 4.51148ZM11.6456 12.1986C11.6456 9.01505 14.2357 6.42503 17.4192 6.42503C20.6025 6.42503 23.1925 9.01505 23.1925 12.1986C23.1925 14.4404 21.8789 16.466 19.9035 17.4111V15.6239C19.9035 15.2289 19.8118 14.8548 19.6486 14.5217C20.2727 13.9202 20.6415 13.0816 20.6415 12.1986C20.6415 10.4216 19.196 8.97605 17.4192 8.97605C15.6422 8.97605 14.1967 10.4216 14.1967 12.1986C14.1967 13.0558 14.5458 13.8795 15.1459 14.4799C14.9698 14.8232 14.8696 15.2122 14.8696 15.6239V17.3814C12.9104 16.424 11.6456 14.4385 11.6456 12.1986ZM16.1099 13.456C15.7856 13.1204 15.6037 12.6757 15.6037 12.1986C15.6037 11.1975 16.4181 10.3831 17.419 10.3831C18.4201 10.3831 19.2344 11.1975 19.2344 12.1986C19.2344 12.6826 19.0378 13.1434 18.7033 13.4802C18.3198 13.2437 17.8688 13.1072 17.3865 13.1072C16.9207 13.1072 16.4846 13.2346 16.1099 13.456Z" fill="white"/>
<path d="M19.9143 1.65769C20.0995 1.65769 20.281 1.58243 20.4117 1.45142C20.5428 1.32068 20.618 1.13913 20.618 0.954011C20.618 0.769166 20.5428 0.587616 20.4117 0.456604C20.281 0.325867 20.0995 0.25061 19.9143 0.25061C19.7295 0.25061 19.5479 0.325867 19.4172 0.456604C19.2862 0.587616 19.2109 0.769166 19.2109 0.954011C19.2109 1.13913 19.2862 1.32068 19.4172 1.45142C19.5479 1.58243 19.7295 1.65769 19.9143 1.65769Z" fill="white"/>
</svg>
